G04 #@! TF.FileFunction,Legend,Bot*
%FSLAX46Y46*%
G04 Gerber Fmt 4.6, Leading zero omitted, Abs format (unit mm)*
G04 Created by KiCad (PCBNEW 4.0.6) date 08/03/17 11:48:30*
%MOMM*%
%LPD*%
G01*
G04 APERTURE LIST*
%ADD10C,0.100000*%
%ADD11C,0.120000*%
%ADD12C,0.150000*%
%ADD13C,0.101600*%
G04 APERTURE END LIST*
D10*
D11*
X212980000Y-63330000D02*
X212980000Y-64030000D01*
X214180000Y-64030000D02*
X214180000Y-63330000D01*
X210400000Y-66350000D02*
X211100000Y-66350000D01*
X211100000Y-65150000D02*
X210400000Y-65150000D01*
X203600000Y-60900000D02*
X202900000Y-60900000D01*
X202900000Y-62100000D02*
X203600000Y-62100000D01*
X219350000Y-98600000D02*
X219350000Y-97900000D01*
X218150000Y-97900000D02*
X218150000Y-98600000D01*
X211470000Y-94450000D02*
X210770000Y-94450000D01*
X210770000Y-95650000D02*
X211470000Y-95650000D01*
X217150000Y-102900000D02*
X217150000Y-103600000D01*
X218350000Y-103600000D02*
X218350000Y-102900000D01*
X193100000Y-108850000D02*
X193100000Y-108150000D01*
X191900000Y-108150000D02*
X191900000Y-108850000D01*
X190650000Y-105850000D02*
X191350000Y-105850000D01*
X191350000Y-104650000D02*
X190650000Y-104650000D01*
X182600000Y-104350000D02*
X182600000Y-103650000D01*
X181400000Y-103650000D02*
X181400000Y-104350000D01*
X172600000Y-84150000D02*
X171900000Y-84150000D01*
X171900000Y-85350000D02*
X172600000Y-85350000D01*
X173650000Y-76850000D02*
X174350000Y-76850000D01*
X174350000Y-75650000D02*
X173650000Y-75650000D01*
X171600000Y-79850000D02*
X171600000Y-79150000D01*
X170400000Y-79150000D02*
X170400000Y-79850000D01*
X181430000Y-64390000D02*
X181430000Y-63690000D01*
X180230000Y-63690000D02*
X180230000Y-64390000D01*
X181570000Y-70620000D02*
X181570000Y-69920000D01*
X180370000Y-69920000D02*
X180370000Y-70620000D01*
X189350000Y-64400000D02*
X188650000Y-64400000D01*
X188650000Y-65600000D02*
X189350000Y-65600000D01*
X194400000Y-67350000D02*
X195100000Y-67350000D01*
X195100000Y-66150000D02*
X194400000Y-66150000D01*
X204130000Y-70370000D02*
X204130000Y-69670000D01*
X202930000Y-69670000D02*
X202930000Y-70370000D01*
X199150000Y-67350000D02*
X199850000Y-67350000D01*
X199850000Y-66150000D02*
X199150000Y-66150000D01*
X218980000Y-70750000D02*
X218980000Y-68750000D01*
X216020000Y-68750000D02*
X216020000Y-70750000D01*
X218480000Y-111500000D02*
X218480000Y-109500000D01*
X215520000Y-109500000D02*
X215520000Y-111500000D01*
X197000000Y-107480000D02*
X199000000Y-107480000D01*
X199000000Y-104520000D02*
X197000000Y-104520000D01*
X165020000Y-81500000D02*
X165020000Y-83500000D01*
X167980000Y-83500000D02*
X167980000Y-81500000D01*
X166770000Y-67480000D02*
X166770000Y-69480000D01*
X169730000Y-69480000D02*
X169730000Y-67480000D01*
X175200000Y-60840000D02*
X173200000Y-60840000D01*
X173200000Y-63800000D02*
X175200000Y-63800000D01*
X219320000Y-80000000D02*
X219320000Y-81000000D01*
X220680000Y-81000000D02*
X220680000Y-80000000D01*
X209000000Y-112570000D02*
X208000000Y-112570000D01*
X208000000Y-113930000D02*
X209000000Y-113930000D01*
X179750000Y-107070000D02*
X178750000Y-107070000D01*
X178750000Y-108430000D02*
X179750000Y-108430000D01*
X167570000Y-76000000D02*
X167570000Y-77000000D01*
X168930000Y-77000000D02*
X168930000Y-76000000D01*
X175250000Y-67500000D02*
X175250000Y-66500000D01*
X173890000Y-66500000D02*
X173890000Y-67500000D01*
X202500000Y-72570000D02*
X201500000Y-72570000D01*
X201500000Y-73930000D02*
X202500000Y-73930000D01*
X216150000Y-61350000D02*
X217850000Y-61350000D01*
X217850000Y-61350000D02*
X217850000Y-64500000D01*
X216150000Y-61350000D02*
X216150000Y-64500000D01*
X207400000Y-106350000D02*
X209100000Y-106350000D01*
X209100000Y-106350000D02*
X209100000Y-109500000D01*
X207400000Y-106350000D02*
X207400000Y-109500000D01*
X185650000Y-109400000D02*
X185650000Y-111100000D01*
X185650000Y-111100000D02*
X182500000Y-111100000D01*
X185650000Y-109400000D02*
X182500000Y-109400000D01*
X175400000Y-87400000D02*
X175400000Y-89100000D01*
X175400000Y-89100000D02*
X172250000Y-89100000D01*
X175400000Y-87400000D02*
X172250000Y-87400000D01*
X185100000Y-62600000D02*
X185100000Y-60900000D01*
X185100000Y-60900000D02*
X188250000Y-60900000D01*
X185100000Y-62600000D02*
X188250000Y-62600000D01*
X194100000Y-64350000D02*
X194100000Y-62650000D01*
X194100000Y-62650000D02*
X197250000Y-62650000D01*
X194100000Y-64350000D02*
X197250000Y-64350000D01*
D12*
X183800000Y-104600000D02*
X183750000Y-104600000D01*
X183800000Y-107350000D02*
X183750000Y-107350000D01*
X183750000Y-107350000D02*
X183750000Y-104600000D01*
X183800000Y-107350000D02*
X187750000Y-107350000D01*
X187750000Y-107350000D02*
X187750000Y-104600000D01*
X187750000Y-104600000D02*
X183800000Y-104600000D01*
D13*
X183518570Y-106959680D02*
G75*
G03X183518570Y-106959680I-68250J0D01*
G01*
D12*
X214150000Y-101050000D02*
X214150000Y-101000000D01*
X211400000Y-101050000D02*
X211400000Y-101000000D01*
X211400000Y-101000000D02*
X214150000Y-101000000D01*
X211400000Y-101050000D02*
X211400000Y-105000000D01*
X211400000Y-105000000D02*
X214150000Y-105000000D01*
X214150000Y-105000000D02*
X214150000Y-101050000D01*
D13*
X211858570Y-100700320D02*
G75*
G03X211858570Y-100700320I-68250J0D01*
G01*
D12*
X173850000Y-82450000D02*
X173850000Y-82500000D01*
X176600000Y-82450000D02*
X176600000Y-82500000D01*
X176600000Y-82500000D02*
X173850000Y-82500000D01*
X176600000Y-82450000D02*
X176600000Y-78500000D01*
X176600000Y-78500000D02*
X173850000Y-78500000D01*
X173850000Y-78500000D02*
X173850000Y-82450000D01*
D13*
X176277930Y-82799680D02*
G75*
G03X176277930Y-82799680I-68250J0D01*
G01*
D12*
X188530000Y-71080000D02*
X188580000Y-71080000D01*
X188530000Y-68330000D02*
X188580000Y-68330000D01*
X188580000Y-68330000D02*
X188580000Y-71080000D01*
X188530000Y-68330000D02*
X184580000Y-68330000D01*
X184580000Y-68330000D02*
X184580000Y-71080000D01*
X184580000Y-71080000D02*
X188530000Y-71080000D01*
D13*
X188947930Y-68720320D02*
G75*
G03X188947930Y-68720320I-68250J0D01*
G01*
D12*
X198140000Y-71530000D02*
X198190000Y-71530000D01*
X198140000Y-68780000D02*
X198190000Y-68780000D01*
X198190000Y-68780000D02*
X198190000Y-71530000D01*
X198140000Y-68780000D02*
X194190000Y-68780000D01*
X194190000Y-68780000D02*
X194190000Y-71530000D01*
X194190000Y-71530000D02*
X198140000Y-71530000D01*
D13*
X198557930Y-69170320D02*
G75*
G03X198557930Y-69170320I-68250J0D01*
G01*
D12*
X209820000Y-64540000D02*
X209870000Y-64540000D01*
X209820000Y-61790000D02*
X209870000Y-61790000D01*
X209870000Y-61790000D02*
X209870000Y-64540000D01*
X209820000Y-61790000D02*
X205870000Y-61790000D01*
X205870000Y-61790000D02*
X205870000Y-64540000D01*
X205870000Y-64540000D02*
X209820000Y-64540000D01*
D13*
X210237930Y-62180320D02*
G75*
G03X210237930Y-62180320I-68250J0D01*
G01*
D12*
X212687143Y-63037143D02*
X212734762Y-62989524D01*
X212782381Y-62846667D01*
X212782381Y-62751429D01*
X212734762Y-62608571D01*
X212639524Y-62513333D01*
X212544286Y-62465714D01*
X212353810Y-62418095D01*
X212210952Y-62418095D01*
X212020476Y-62465714D01*
X211925238Y-62513333D01*
X211830000Y-62608571D01*
X211782381Y-62751429D01*
X211782381Y-62846667D01*
X211830000Y-62989524D01*
X211877619Y-63037143D01*
X211877619Y-63418095D02*
X211830000Y-63465714D01*
X211782381Y-63560952D01*
X211782381Y-63799048D01*
X211830000Y-63894286D01*
X211877619Y-63941905D01*
X211972857Y-63989524D01*
X212068095Y-63989524D01*
X212210952Y-63941905D01*
X212782381Y-63370476D01*
X212782381Y-63989524D01*
X212782381Y-64941905D02*
X212782381Y-64370476D01*
X212782381Y-64656190D02*
X211782381Y-64656190D01*
X211925238Y-64560952D01*
X212020476Y-64465714D01*
X212068095Y-64370476D01*
X211392857Y-67357143D02*
X211440476Y-67404762D01*
X211583333Y-67452381D01*
X211678571Y-67452381D01*
X211821429Y-67404762D01*
X211916667Y-67309524D01*
X211964286Y-67214286D01*
X212011905Y-67023810D01*
X212011905Y-66880952D01*
X211964286Y-66690476D01*
X211916667Y-66595238D01*
X211821429Y-66500000D01*
X211678571Y-66452381D01*
X211583333Y-66452381D01*
X211440476Y-66500000D01*
X211392857Y-66547619D01*
X211011905Y-66547619D02*
X210964286Y-66500000D01*
X210869048Y-66452381D01*
X210630952Y-66452381D01*
X210535714Y-66500000D01*
X210488095Y-66547619D01*
X210440476Y-66642857D01*
X210440476Y-66738095D01*
X210488095Y-66880952D01*
X211059524Y-67452381D01*
X210440476Y-67452381D01*
X210059524Y-66547619D02*
X210011905Y-66500000D01*
X209916667Y-66452381D01*
X209678571Y-66452381D01*
X209583333Y-66500000D01*
X209535714Y-66547619D01*
X209488095Y-66642857D01*
X209488095Y-66738095D01*
X209535714Y-66880952D01*
X210107143Y-67452381D01*
X209488095Y-67452381D01*
X204142857Y-63357143D02*
X204190476Y-63404762D01*
X204333333Y-63452381D01*
X204428571Y-63452381D01*
X204571429Y-63404762D01*
X204666667Y-63309524D01*
X204714286Y-63214286D01*
X204761905Y-63023810D01*
X204761905Y-62880952D01*
X204714286Y-62690476D01*
X204666667Y-62595238D01*
X204571429Y-62500000D01*
X204428571Y-62452381D01*
X204333333Y-62452381D01*
X204190476Y-62500000D01*
X204142857Y-62547619D01*
X203761905Y-62547619D02*
X203714286Y-62500000D01*
X203619048Y-62452381D01*
X203380952Y-62452381D01*
X203285714Y-62500000D01*
X203238095Y-62547619D01*
X203190476Y-62642857D01*
X203190476Y-62738095D01*
X203238095Y-62880952D01*
X203809524Y-63452381D01*
X203190476Y-63452381D01*
X202857143Y-62452381D02*
X202238095Y-62452381D01*
X202571429Y-62833333D01*
X202428571Y-62833333D01*
X202333333Y-62880952D01*
X202285714Y-62928571D01*
X202238095Y-63023810D01*
X202238095Y-63261905D01*
X202285714Y-63357143D01*
X202333333Y-63404762D01*
X202428571Y-63452381D01*
X202714286Y-63452381D01*
X202809524Y-63404762D01*
X202857143Y-63357143D01*
X220357143Y-97607143D02*
X220404762Y-97559524D01*
X220452381Y-97416667D01*
X220452381Y-97321429D01*
X220404762Y-97178571D01*
X220309524Y-97083333D01*
X220214286Y-97035714D01*
X220023810Y-96988095D01*
X219880952Y-96988095D01*
X219690476Y-97035714D01*
X219595238Y-97083333D01*
X219500000Y-97178571D01*
X219452381Y-97321429D01*
X219452381Y-97416667D01*
X219500000Y-97559524D01*
X219547619Y-97607143D01*
X219547619Y-97988095D02*
X219500000Y-98035714D01*
X219452381Y-98130952D01*
X219452381Y-98369048D01*
X219500000Y-98464286D01*
X219547619Y-98511905D01*
X219642857Y-98559524D01*
X219738095Y-98559524D01*
X219880952Y-98511905D01*
X220452381Y-97940476D01*
X220452381Y-98559524D01*
X219785714Y-99416667D02*
X220452381Y-99416667D01*
X219404762Y-99178571D02*
X220119048Y-98940476D01*
X220119048Y-99559524D01*
X211762857Y-94157143D02*
X211810476Y-94204762D01*
X211953333Y-94252381D01*
X212048571Y-94252381D01*
X212191429Y-94204762D01*
X212286667Y-94109524D01*
X212334286Y-94014286D01*
X212381905Y-93823810D01*
X212381905Y-93680952D01*
X212334286Y-93490476D01*
X212286667Y-93395238D01*
X212191429Y-93300000D01*
X212048571Y-93252381D01*
X211953333Y-93252381D01*
X211810476Y-93300000D01*
X211762857Y-93347619D01*
X211381905Y-93347619D02*
X211334286Y-93300000D01*
X211239048Y-93252381D01*
X211000952Y-93252381D01*
X210905714Y-93300000D01*
X210858095Y-93347619D01*
X210810476Y-93442857D01*
X210810476Y-93538095D01*
X210858095Y-93680952D01*
X211429524Y-94252381D01*
X210810476Y-94252381D01*
X209905714Y-93252381D02*
X210381905Y-93252381D01*
X210429524Y-93728571D01*
X210381905Y-93680952D01*
X210286667Y-93633333D01*
X210048571Y-93633333D01*
X209953333Y-93680952D01*
X209905714Y-93728571D01*
X209858095Y-93823810D01*
X209858095Y-94061905D01*
X209905714Y-94157143D01*
X209953333Y-94204762D01*
X210048571Y-94252381D01*
X210286667Y-94252381D01*
X210381905Y-94204762D01*
X210429524Y-94157143D01*
X216857143Y-102607143D02*
X216904762Y-102559524D01*
X216952381Y-102416667D01*
X216952381Y-102321429D01*
X216904762Y-102178571D01*
X216809524Y-102083333D01*
X216714286Y-102035714D01*
X216523810Y-101988095D01*
X216380952Y-101988095D01*
X216190476Y-102035714D01*
X216095238Y-102083333D01*
X216000000Y-102178571D01*
X215952381Y-102321429D01*
X215952381Y-102416667D01*
X216000000Y-102559524D01*
X216047619Y-102607143D01*
X216047619Y-102988095D02*
X216000000Y-103035714D01*
X215952381Y-103130952D01*
X215952381Y-103369048D01*
X216000000Y-103464286D01*
X216047619Y-103511905D01*
X216142857Y-103559524D01*
X216238095Y-103559524D01*
X216380952Y-103511905D01*
X216952381Y-102940476D01*
X216952381Y-103559524D01*
X215952381Y-104416667D02*
X215952381Y-104226190D01*
X216000000Y-104130952D01*
X216047619Y-104083333D01*
X216190476Y-103988095D01*
X216380952Y-103940476D01*
X216761905Y-103940476D01*
X216857143Y-103988095D01*
X216904762Y-104035714D01*
X216952381Y-104130952D01*
X216952381Y-104321429D01*
X216904762Y-104416667D01*
X216857143Y-104464286D01*
X216761905Y-104511905D01*
X216523810Y-104511905D01*
X216428571Y-104464286D01*
X216380952Y-104416667D01*
X216333333Y-104321429D01*
X216333333Y-104130952D01*
X216380952Y-104035714D01*
X216428571Y-103988095D01*
X216523810Y-103940476D01*
X194107143Y-107857143D02*
X194154762Y-107809524D01*
X194202381Y-107666667D01*
X194202381Y-107571429D01*
X194154762Y-107428571D01*
X194059524Y-107333333D01*
X193964286Y-107285714D01*
X193773810Y-107238095D01*
X193630952Y-107238095D01*
X193440476Y-107285714D01*
X193345238Y-107333333D01*
X193250000Y-107428571D01*
X193202381Y-107571429D01*
X193202381Y-107666667D01*
X193250000Y-107809524D01*
X193297619Y-107857143D01*
X193297619Y-108238095D02*
X193250000Y-108285714D01*
X193202381Y-108380952D01*
X193202381Y-108619048D01*
X193250000Y-108714286D01*
X193297619Y-108761905D01*
X193392857Y-108809524D01*
X193488095Y-108809524D01*
X193630952Y-108761905D01*
X194202381Y-108190476D01*
X194202381Y-108809524D01*
X193202381Y-109142857D02*
X193202381Y-109809524D01*
X194202381Y-109380952D01*
X191642857Y-106857143D02*
X191690476Y-106904762D01*
X191833333Y-106952381D01*
X191928571Y-106952381D01*
X192071429Y-106904762D01*
X192166667Y-106809524D01*
X192214286Y-106714286D01*
X192261905Y-106523810D01*
X192261905Y-106380952D01*
X192214286Y-106190476D01*
X192166667Y-106095238D01*
X192071429Y-106000000D01*
X191928571Y-105952381D01*
X191833333Y-105952381D01*
X191690476Y-106000000D01*
X191642857Y-106047619D01*
X191261905Y-106047619D02*
X191214286Y-106000000D01*
X191119048Y-105952381D01*
X190880952Y-105952381D01*
X190785714Y-106000000D01*
X190738095Y-106047619D01*
X190690476Y-106142857D01*
X190690476Y-106238095D01*
X190738095Y-106380952D01*
X191309524Y-106952381D01*
X190690476Y-106952381D01*
X190119048Y-106380952D02*
X190214286Y-106333333D01*
X190261905Y-106285714D01*
X190309524Y-106190476D01*
X190309524Y-106142857D01*
X190261905Y-106047619D01*
X190214286Y-106000000D01*
X190119048Y-105952381D01*
X189928571Y-105952381D01*
X189833333Y-106000000D01*
X189785714Y-106047619D01*
X189738095Y-106142857D01*
X189738095Y-106190476D01*
X189785714Y-106285714D01*
X189833333Y-106333333D01*
X189928571Y-106380952D01*
X190119048Y-106380952D01*
X190214286Y-106428571D01*
X190261905Y-106476190D01*
X190309524Y-106571429D01*
X190309524Y-106761905D01*
X190261905Y-106857143D01*
X190214286Y-106904762D01*
X190119048Y-106952381D01*
X189928571Y-106952381D01*
X189833333Y-106904762D01*
X189785714Y-106857143D01*
X189738095Y-106761905D01*
X189738095Y-106571429D01*
X189785714Y-106476190D01*
X189833333Y-106428571D01*
X189928571Y-106380952D01*
X183607143Y-103357143D02*
X183654762Y-103309524D01*
X183702381Y-103166667D01*
X183702381Y-103071429D01*
X183654762Y-102928571D01*
X183559524Y-102833333D01*
X183464286Y-102785714D01*
X183273810Y-102738095D01*
X183130952Y-102738095D01*
X182940476Y-102785714D01*
X182845238Y-102833333D01*
X182750000Y-102928571D01*
X182702381Y-103071429D01*
X182702381Y-103166667D01*
X182750000Y-103309524D01*
X182797619Y-103357143D01*
X182797619Y-103738095D02*
X182750000Y-103785714D01*
X182702381Y-103880952D01*
X182702381Y-104119048D01*
X182750000Y-104214286D01*
X182797619Y-104261905D01*
X182892857Y-104309524D01*
X182988095Y-104309524D01*
X183130952Y-104261905D01*
X183702381Y-103690476D01*
X183702381Y-104309524D01*
X183702381Y-104785714D02*
X183702381Y-104976190D01*
X183654762Y-105071429D01*
X183607143Y-105119048D01*
X183464286Y-105214286D01*
X183273810Y-105261905D01*
X182892857Y-105261905D01*
X182797619Y-105214286D01*
X182750000Y-105166667D01*
X182702381Y-105071429D01*
X182702381Y-104880952D01*
X182750000Y-104785714D01*
X182797619Y-104738095D01*
X182892857Y-104690476D01*
X183130952Y-104690476D01*
X183226190Y-104738095D01*
X183273810Y-104785714D01*
X183321429Y-104880952D01*
X183321429Y-105071429D01*
X183273810Y-105166667D01*
X183226190Y-105214286D01*
X183130952Y-105261905D01*
X172892857Y-83857143D02*
X172940476Y-83904762D01*
X173083333Y-83952381D01*
X173178571Y-83952381D01*
X173321429Y-83904762D01*
X173416667Y-83809524D01*
X173464286Y-83714286D01*
X173511905Y-83523810D01*
X173511905Y-83380952D01*
X173464286Y-83190476D01*
X173416667Y-83095238D01*
X173321429Y-83000000D01*
X173178571Y-82952381D01*
X173083333Y-82952381D01*
X172940476Y-83000000D01*
X172892857Y-83047619D01*
X172559524Y-82952381D02*
X171940476Y-82952381D01*
X172273810Y-83333333D01*
X172130952Y-83333333D01*
X172035714Y-83380952D01*
X171988095Y-83428571D01*
X171940476Y-83523810D01*
X171940476Y-83761905D01*
X171988095Y-83857143D01*
X172035714Y-83904762D01*
X172130952Y-83952381D01*
X172416667Y-83952381D01*
X172511905Y-83904762D01*
X172559524Y-83857143D01*
X171321429Y-82952381D02*
X171226190Y-82952381D01*
X171130952Y-83000000D01*
X171083333Y-83047619D01*
X171035714Y-83142857D01*
X170988095Y-83333333D01*
X170988095Y-83571429D01*
X171035714Y-83761905D01*
X171083333Y-83857143D01*
X171130952Y-83904762D01*
X171226190Y-83952381D01*
X171321429Y-83952381D01*
X171416667Y-83904762D01*
X171464286Y-83857143D01*
X171511905Y-83761905D01*
X171559524Y-83571429D01*
X171559524Y-83333333D01*
X171511905Y-83142857D01*
X171464286Y-83047619D01*
X171416667Y-83000000D01*
X171321429Y-82952381D01*
X174642857Y-77857143D02*
X174690476Y-77904762D01*
X174833333Y-77952381D01*
X174928571Y-77952381D01*
X175071429Y-77904762D01*
X175166667Y-77809524D01*
X175214286Y-77714286D01*
X175261905Y-77523810D01*
X175261905Y-77380952D01*
X175214286Y-77190476D01*
X175166667Y-77095238D01*
X175071429Y-77000000D01*
X174928571Y-76952381D01*
X174833333Y-76952381D01*
X174690476Y-77000000D01*
X174642857Y-77047619D01*
X174309524Y-76952381D02*
X173690476Y-76952381D01*
X174023810Y-77333333D01*
X173880952Y-77333333D01*
X173785714Y-77380952D01*
X173738095Y-77428571D01*
X173690476Y-77523810D01*
X173690476Y-77761905D01*
X173738095Y-77857143D01*
X173785714Y-77904762D01*
X173880952Y-77952381D01*
X174166667Y-77952381D01*
X174261905Y-77904762D01*
X174309524Y-77857143D01*
X172738095Y-77952381D02*
X173309524Y-77952381D01*
X173023810Y-77952381D02*
X173023810Y-76952381D01*
X173119048Y-77095238D01*
X173214286Y-77190476D01*
X173309524Y-77238095D01*
X172607143Y-78857143D02*
X172654762Y-78809524D01*
X172702381Y-78666667D01*
X172702381Y-78571429D01*
X172654762Y-78428571D01*
X172559524Y-78333333D01*
X172464286Y-78285714D01*
X172273810Y-78238095D01*
X172130952Y-78238095D01*
X171940476Y-78285714D01*
X171845238Y-78333333D01*
X171750000Y-78428571D01*
X171702381Y-78571429D01*
X171702381Y-78666667D01*
X171750000Y-78809524D01*
X171797619Y-78857143D01*
X171702381Y-79190476D02*
X171702381Y-79809524D01*
X172083333Y-79476190D01*
X172083333Y-79619048D01*
X172130952Y-79714286D01*
X172178571Y-79761905D01*
X172273810Y-79809524D01*
X172511905Y-79809524D01*
X172607143Y-79761905D01*
X172654762Y-79714286D01*
X172702381Y-79619048D01*
X172702381Y-79333333D01*
X172654762Y-79238095D01*
X172607143Y-79190476D01*
X171797619Y-80190476D02*
X171750000Y-80238095D01*
X171702381Y-80333333D01*
X171702381Y-80571429D01*
X171750000Y-80666667D01*
X171797619Y-80714286D01*
X171892857Y-80761905D01*
X171988095Y-80761905D01*
X172130952Y-80714286D01*
X172702381Y-80142857D01*
X172702381Y-80761905D01*
X182437143Y-63397143D02*
X182484762Y-63349524D01*
X182532381Y-63206667D01*
X182532381Y-63111429D01*
X182484762Y-62968571D01*
X182389524Y-62873333D01*
X182294286Y-62825714D01*
X182103810Y-62778095D01*
X181960952Y-62778095D01*
X181770476Y-62825714D01*
X181675238Y-62873333D01*
X181580000Y-62968571D01*
X181532381Y-63111429D01*
X181532381Y-63206667D01*
X181580000Y-63349524D01*
X181627619Y-63397143D01*
X181532381Y-63730476D02*
X181532381Y-64349524D01*
X181913333Y-64016190D01*
X181913333Y-64159048D01*
X181960952Y-64254286D01*
X182008571Y-64301905D01*
X182103810Y-64349524D01*
X182341905Y-64349524D01*
X182437143Y-64301905D01*
X182484762Y-64254286D01*
X182532381Y-64159048D01*
X182532381Y-63873333D01*
X182484762Y-63778095D01*
X182437143Y-63730476D01*
X181532381Y-64682857D02*
X181532381Y-65301905D01*
X181913333Y-64968571D01*
X181913333Y-65111429D01*
X181960952Y-65206667D01*
X182008571Y-65254286D01*
X182103810Y-65301905D01*
X182341905Y-65301905D01*
X182437143Y-65254286D01*
X182484762Y-65206667D01*
X182532381Y-65111429D01*
X182532381Y-64825714D01*
X182484762Y-64730476D01*
X182437143Y-64682857D01*
X182577143Y-69627143D02*
X182624762Y-69579524D01*
X182672381Y-69436667D01*
X182672381Y-69341429D01*
X182624762Y-69198571D01*
X182529524Y-69103333D01*
X182434286Y-69055714D01*
X182243810Y-69008095D01*
X182100952Y-69008095D01*
X181910476Y-69055714D01*
X181815238Y-69103333D01*
X181720000Y-69198571D01*
X181672381Y-69341429D01*
X181672381Y-69436667D01*
X181720000Y-69579524D01*
X181767619Y-69627143D01*
X181672381Y-69960476D02*
X181672381Y-70579524D01*
X182053333Y-70246190D01*
X182053333Y-70389048D01*
X182100952Y-70484286D01*
X182148571Y-70531905D01*
X182243810Y-70579524D01*
X182481905Y-70579524D01*
X182577143Y-70531905D01*
X182624762Y-70484286D01*
X182672381Y-70389048D01*
X182672381Y-70103333D01*
X182624762Y-70008095D01*
X182577143Y-69960476D01*
X182005714Y-71436667D02*
X182672381Y-71436667D01*
X181624762Y-71198571D02*
X182339048Y-70960476D01*
X182339048Y-71579524D01*
X191062857Y-66827143D02*
X191110476Y-66874762D01*
X191253333Y-66922381D01*
X191348571Y-66922381D01*
X191491429Y-66874762D01*
X191586667Y-66779524D01*
X191634286Y-66684286D01*
X191681905Y-66493810D01*
X191681905Y-66350952D01*
X191634286Y-66160476D01*
X191586667Y-66065238D01*
X191491429Y-65970000D01*
X191348571Y-65922381D01*
X191253333Y-65922381D01*
X191110476Y-65970000D01*
X191062857Y-66017619D01*
X190729524Y-65922381D02*
X190110476Y-65922381D01*
X190443810Y-66303333D01*
X190300952Y-66303333D01*
X190205714Y-66350952D01*
X190158095Y-66398571D01*
X190110476Y-66493810D01*
X190110476Y-66731905D01*
X190158095Y-66827143D01*
X190205714Y-66874762D01*
X190300952Y-66922381D01*
X190586667Y-66922381D01*
X190681905Y-66874762D01*
X190729524Y-66827143D01*
X189205714Y-65922381D02*
X189681905Y-65922381D01*
X189729524Y-66398571D01*
X189681905Y-66350952D01*
X189586667Y-66303333D01*
X189348571Y-66303333D01*
X189253333Y-66350952D01*
X189205714Y-66398571D01*
X189158095Y-66493810D01*
X189158095Y-66731905D01*
X189205714Y-66827143D01*
X189253333Y-66874762D01*
X189348571Y-66922381D01*
X189586667Y-66922381D01*
X189681905Y-66874762D01*
X189729524Y-66827143D01*
X195392857Y-68357143D02*
X195440476Y-68404762D01*
X195583333Y-68452381D01*
X195678571Y-68452381D01*
X195821429Y-68404762D01*
X195916667Y-68309524D01*
X195964286Y-68214286D01*
X196011905Y-68023810D01*
X196011905Y-67880952D01*
X195964286Y-67690476D01*
X195916667Y-67595238D01*
X195821429Y-67500000D01*
X195678571Y-67452381D01*
X195583333Y-67452381D01*
X195440476Y-67500000D01*
X195392857Y-67547619D01*
X195059524Y-67452381D02*
X194440476Y-67452381D01*
X194773810Y-67833333D01*
X194630952Y-67833333D01*
X194535714Y-67880952D01*
X194488095Y-67928571D01*
X194440476Y-68023810D01*
X194440476Y-68261905D01*
X194488095Y-68357143D01*
X194535714Y-68404762D01*
X194630952Y-68452381D01*
X194916667Y-68452381D01*
X195011905Y-68404762D01*
X195059524Y-68357143D01*
X193583333Y-67452381D02*
X193773810Y-67452381D01*
X193869048Y-67500000D01*
X193916667Y-67547619D01*
X194011905Y-67690476D01*
X194059524Y-67880952D01*
X194059524Y-68261905D01*
X194011905Y-68357143D01*
X193964286Y-68404762D01*
X193869048Y-68452381D01*
X193678571Y-68452381D01*
X193583333Y-68404762D01*
X193535714Y-68357143D01*
X193488095Y-68261905D01*
X193488095Y-68023810D01*
X193535714Y-67928571D01*
X193583333Y-67880952D01*
X193678571Y-67833333D01*
X193869048Y-67833333D01*
X193964286Y-67880952D01*
X194011905Y-67928571D01*
X194059524Y-68023810D01*
X205137143Y-69377143D02*
X205184762Y-69329524D01*
X205232381Y-69186667D01*
X205232381Y-69091429D01*
X205184762Y-68948571D01*
X205089524Y-68853333D01*
X204994286Y-68805714D01*
X204803810Y-68758095D01*
X204660952Y-68758095D01*
X204470476Y-68805714D01*
X204375238Y-68853333D01*
X204280000Y-68948571D01*
X204232381Y-69091429D01*
X204232381Y-69186667D01*
X204280000Y-69329524D01*
X204327619Y-69377143D01*
X204232381Y-69710476D02*
X204232381Y-70329524D01*
X204613333Y-69996190D01*
X204613333Y-70139048D01*
X204660952Y-70234286D01*
X204708571Y-70281905D01*
X204803810Y-70329524D01*
X205041905Y-70329524D01*
X205137143Y-70281905D01*
X205184762Y-70234286D01*
X205232381Y-70139048D01*
X205232381Y-69853333D01*
X205184762Y-69758095D01*
X205137143Y-69710476D01*
X204232381Y-70662857D02*
X204232381Y-71329524D01*
X205232381Y-70900952D01*
X200142857Y-68357143D02*
X200190476Y-68404762D01*
X200333333Y-68452381D01*
X200428571Y-68452381D01*
X200571429Y-68404762D01*
X200666667Y-68309524D01*
X200714286Y-68214286D01*
X200761905Y-68023810D01*
X200761905Y-67880952D01*
X200714286Y-67690476D01*
X200666667Y-67595238D01*
X200571429Y-67500000D01*
X200428571Y-67452381D01*
X200333333Y-67452381D01*
X200190476Y-67500000D01*
X200142857Y-67547619D01*
X199809524Y-67452381D02*
X199190476Y-67452381D01*
X199523810Y-67833333D01*
X199380952Y-67833333D01*
X199285714Y-67880952D01*
X199238095Y-67928571D01*
X199190476Y-68023810D01*
X199190476Y-68261905D01*
X199238095Y-68357143D01*
X199285714Y-68404762D01*
X199380952Y-68452381D01*
X199666667Y-68452381D01*
X199761905Y-68404762D01*
X199809524Y-68357143D01*
X198619048Y-67880952D02*
X198714286Y-67833333D01*
X198761905Y-67785714D01*
X198809524Y-67690476D01*
X198809524Y-67642857D01*
X198761905Y-67547619D01*
X198714286Y-67500000D01*
X198619048Y-67452381D01*
X198428571Y-67452381D01*
X198333333Y-67500000D01*
X198285714Y-67547619D01*
X198238095Y-67642857D01*
X198238095Y-67690476D01*
X198285714Y-67785714D01*
X198333333Y-67833333D01*
X198428571Y-67880952D01*
X198619048Y-67880952D01*
X198714286Y-67928571D01*
X198761905Y-67976190D01*
X198809524Y-68071429D01*
X198809524Y-68261905D01*
X198761905Y-68357143D01*
X198714286Y-68404762D01*
X198619048Y-68452381D01*
X198428571Y-68452381D01*
X198333333Y-68404762D01*
X198285714Y-68357143D01*
X198238095Y-68261905D01*
X198238095Y-68071429D01*
X198285714Y-67976190D01*
X198333333Y-67928571D01*
X198428571Y-67880952D01*
X215252381Y-69583334D02*
X215252381Y-69107143D01*
X214252381Y-69107143D01*
X214347619Y-69869048D02*
X214300000Y-69916667D01*
X214252381Y-70011905D01*
X214252381Y-70250001D01*
X214300000Y-70345239D01*
X214347619Y-70392858D01*
X214442857Y-70440477D01*
X214538095Y-70440477D01*
X214680952Y-70392858D01*
X215252381Y-69821429D01*
X215252381Y-70440477D01*
X214752381Y-110333334D02*
X214752381Y-109857143D01*
X213752381Y-109857143D01*
X213752381Y-110571429D02*
X213752381Y-111190477D01*
X214133333Y-110857143D01*
X214133333Y-111000001D01*
X214180952Y-111095239D01*
X214228571Y-111142858D01*
X214323810Y-111190477D01*
X214561905Y-111190477D01*
X214657143Y-111142858D01*
X214704762Y-111095239D01*
X214752381Y-111000001D01*
X214752381Y-110714286D01*
X214704762Y-110619048D01*
X214657143Y-110571429D01*
X198426666Y-109002381D02*
X198902857Y-109002381D01*
X198902857Y-108002381D01*
X197664761Y-108335714D02*
X197664761Y-109002381D01*
X197902857Y-107954762D02*
X198140952Y-108669048D01*
X197521904Y-108669048D01*
X169652381Y-82333334D02*
X169652381Y-81857143D01*
X168652381Y-81857143D01*
X168652381Y-83142858D02*
X168652381Y-82666667D01*
X169128571Y-82619048D01*
X169080952Y-82666667D01*
X169033333Y-82761905D01*
X169033333Y-83000001D01*
X169080952Y-83095239D01*
X169128571Y-83142858D01*
X169223810Y-83190477D01*
X169461905Y-83190477D01*
X169557143Y-83142858D01*
X169604762Y-83095239D01*
X169652381Y-83000001D01*
X169652381Y-82761905D01*
X169604762Y-82666667D01*
X169557143Y-82619048D01*
X171402381Y-68313334D02*
X171402381Y-67837143D01*
X170402381Y-67837143D01*
X170402381Y-69075239D02*
X170402381Y-68884762D01*
X170450000Y-68789524D01*
X170497619Y-68741905D01*
X170640476Y-68646667D01*
X170830952Y-68599048D01*
X171211905Y-68599048D01*
X171307143Y-68646667D01*
X171354762Y-68694286D01*
X171402381Y-68789524D01*
X171402381Y-68980001D01*
X171354762Y-69075239D01*
X171307143Y-69122858D01*
X171211905Y-69170477D01*
X170973810Y-69170477D01*
X170878571Y-69122858D01*
X170830952Y-69075239D01*
X170783333Y-68980001D01*
X170783333Y-68789524D01*
X170830952Y-68694286D01*
X170878571Y-68646667D01*
X170973810Y-68599048D01*
X169756666Y-63142381D02*
X170232857Y-63142381D01*
X170232857Y-62142381D01*
X169518571Y-62142381D02*
X168851904Y-62142381D01*
X169280476Y-63142381D01*
X221902381Y-80333334D02*
X221426190Y-80000000D01*
X221902381Y-79761905D02*
X220902381Y-79761905D01*
X220902381Y-80142858D01*
X220950000Y-80238096D01*
X220997619Y-80285715D01*
X221092857Y-80333334D01*
X221235714Y-80333334D01*
X221330952Y-80285715D01*
X221378571Y-80238096D01*
X221426190Y-80142858D01*
X221426190Y-79761905D01*
X220902381Y-81190477D02*
X220902381Y-81000000D01*
X220950000Y-80904762D01*
X220997619Y-80857143D01*
X221140476Y-80761905D01*
X221330952Y-80714286D01*
X221711905Y-80714286D01*
X221807143Y-80761905D01*
X221854762Y-80809524D01*
X221902381Y-80904762D01*
X221902381Y-81095239D01*
X221854762Y-81190477D01*
X221807143Y-81238096D01*
X221711905Y-81285715D01*
X221473810Y-81285715D01*
X221378571Y-81238096D01*
X221330952Y-81190477D01*
X221283333Y-81095239D01*
X221283333Y-80904762D01*
X221330952Y-80809524D01*
X221378571Y-80761905D01*
X221473810Y-80714286D01*
X208666666Y-115152381D02*
X209000000Y-114676190D01*
X209238095Y-115152381D02*
X209238095Y-114152381D01*
X208857142Y-114152381D01*
X208761904Y-114200000D01*
X208714285Y-114247619D01*
X208666666Y-114342857D01*
X208666666Y-114485714D01*
X208714285Y-114580952D01*
X208761904Y-114628571D01*
X208857142Y-114676190D01*
X209238095Y-114676190D01*
X208333333Y-114152381D02*
X207666666Y-114152381D01*
X208095238Y-115152381D01*
X179416666Y-109652381D02*
X179750000Y-109176190D01*
X179988095Y-109652381D02*
X179988095Y-108652381D01*
X179607142Y-108652381D01*
X179511904Y-108700000D01*
X179464285Y-108747619D01*
X179416666Y-108842857D01*
X179416666Y-108985714D01*
X179464285Y-109080952D01*
X179511904Y-109128571D01*
X179607142Y-109176190D01*
X179988095Y-109176190D01*
X178845238Y-109080952D02*
X178940476Y-109033333D01*
X178988095Y-108985714D01*
X179035714Y-108890476D01*
X179035714Y-108842857D01*
X178988095Y-108747619D01*
X178940476Y-108700000D01*
X178845238Y-108652381D01*
X178654761Y-108652381D01*
X178559523Y-108700000D01*
X178511904Y-108747619D01*
X178464285Y-108842857D01*
X178464285Y-108890476D01*
X178511904Y-108985714D01*
X178559523Y-109033333D01*
X178654761Y-109080952D01*
X178845238Y-109080952D01*
X178940476Y-109128571D01*
X178988095Y-109176190D01*
X179035714Y-109271429D01*
X179035714Y-109461905D01*
X178988095Y-109557143D01*
X178940476Y-109604762D01*
X178845238Y-109652381D01*
X178654761Y-109652381D01*
X178559523Y-109604762D01*
X178511904Y-109557143D01*
X178464285Y-109461905D01*
X178464285Y-109271429D01*
X178511904Y-109176190D01*
X178559523Y-109128571D01*
X178654761Y-109080952D01*
X170152381Y-76333334D02*
X169676190Y-76000000D01*
X170152381Y-75761905D02*
X169152381Y-75761905D01*
X169152381Y-76142858D01*
X169200000Y-76238096D01*
X169247619Y-76285715D01*
X169342857Y-76333334D01*
X169485714Y-76333334D01*
X169580952Y-76285715D01*
X169628571Y-76238096D01*
X169676190Y-76142858D01*
X169676190Y-75761905D01*
X170152381Y-76809524D02*
X170152381Y-77000000D01*
X170104762Y-77095239D01*
X170057143Y-77142858D01*
X169914286Y-77238096D01*
X169723810Y-77285715D01*
X169342857Y-77285715D01*
X169247619Y-77238096D01*
X169200000Y-77190477D01*
X169152381Y-77095239D01*
X169152381Y-76904762D01*
X169200000Y-76809524D01*
X169247619Y-76761905D01*
X169342857Y-76714286D01*
X169580952Y-76714286D01*
X169676190Y-76761905D01*
X169723810Y-76809524D01*
X169771429Y-76904762D01*
X169771429Y-77095239D01*
X169723810Y-77190477D01*
X169676190Y-77238096D01*
X169580952Y-77285715D01*
X173572381Y-66357143D02*
X173096190Y-66023809D01*
X173572381Y-65785714D02*
X172572381Y-65785714D01*
X172572381Y-66166667D01*
X172620000Y-66261905D01*
X172667619Y-66309524D01*
X172762857Y-66357143D01*
X172905714Y-66357143D01*
X173000952Y-66309524D01*
X173048571Y-66261905D01*
X173096190Y-66166667D01*
X173096190Y-65785714D01*
X173572381Y-67309524D02*
X173572381Y-66738095D01*
X173572381Y-67023809D02*
X172572381Y-67023809D01*
X172715238Y-66928571D01*
X172810476Y-66833333D01*
X172858095Y-66738095D01*
X172572381Y-67928571D02*
X172572381Y-68023810D01*
X172620000Y-68119048D01*
X172667619Y-68166667D01*
X172762857Y-68214286D01*
X172953333Y-68261905D01*
X173191429Y-68261905D01*
X173381905Y-68214286D01*
X173477143Y-68166667D01*
X173524762Y-68119048D01*
X173572381Y-68023810D01*
X173572381Y-67928571D01*
X173524762Y-67833333D01*
X173477143Y-67785714D01*
X173381905Y-67738095D01*
X173191429Y-67690476D01*
X172953333Y-67690476D01*
X172762857Y-67738095D01*
X172667619Y-67785714D01*
X172620000Y-67833333D01*
X172572381Y-67928571D01*
X202642857Y-75152381D02*
X202976191Y-74676190D01*
X203214286Y-75152381D02*
X203214286Y-74152381D01*
X202833333Y-74152381D01*
X202738095Y-74200000D01*
X202690476Y-74247619D01*
X202642857Y-74342857D01*
X202642857Y-74485714D01*
X202690476Y-74580952D01*
X202738095Y-74628571D01*
X202833333Y-74676190D01*
X203214286Y-74676190D01*
X201690476Y-75152381D02*
X202261905Y-75152381D01*
X201976191Y-75152381D02*
X201976191Y-74152381D01*
X202071429Y-74295238D01*
X202166667Y-74390476D01*
X202261905Y-74438095D01*
X200738095Y-75152381D02*
X201309524Y-75152381D01*
X201023810Y-75152381D02*
X201023810Y-74152381D01*
X201119048Y-74295238D01*
X201214286Y-74390476D01*
X201309524Y-74438095D01*
X215602381Y-62511905D02*
X214602381Y-62511905D01*
X214602381Y-62750000D01*
X214650000Y-62892858D01*
X214745238Y-62988096D01*
X214840476Y-63035715D01*
X215030952Y-63083334D01*
X215173810Y-63083334D01*
X215364286Y-63035715D01*
X215459524Y-62988096D01*
X215554762Y-62892858D01*
X215602381Y-62750000D01*
X215602381Y-62511905D01*
X214697619Y-63464286D02*
X214650000Y-63511905D01*
X214602381Y-63607143D01*
X214602381Y-63845239D01*
X214650000Y-63940477D01*
X214697619Y-63988096D01*
X214792857Y-64035715D01*
X214888095Y-64035715D01*
X215030952Y-63988096D01*
X215602381Y-63416667D01*
X215602381Y-64035715D01*
X206852381Y-107511905D02*
X205852381Y-107511905D01*
X205852381Y-107750000D01*
X205900000Y-107892858D01*
X205995238Y-107988096D01*
X206090476Y-108035715D01*
X206280952Y-108083334D01*
X206423810Y-108083334D01*
X206614286Y-108035715D01*
X206709524Y-107988096D01*
X206804762Y-107892858D01*
X206852381Y-107750000D01*
X206852381Y-107511905D01*
X205852381Y-108416667D02*
X205852381Y-109083334D01*
X206852381Y-108654762D01*
X184224286Y-112632381D02*
X184224286Y-111632381D01*
X183986191Y-111632381D01*
X183843333Y-111680000D01*
X183748095Y-111775238D01*
X183700476Y-111870476D01*
X183652857Y-112060952D01*
X183652857Y-112203810D01*
X183700476Y-112394286D01*
X183748095Y-112489524D01*
X183843333Y-112584762D01*
X183986191Y-112632381D01*
X184224286Y-112632381D01*
X182700476Y-112632381D02*
X183271905Y-112632381D01*
X182986191Y-112632381D02*
X182986191Y-111632381D01*
X183081429Y-111775238D01*
X183176667Y-111870476D01*
X183271905Y-111918095D01*
X182319524Y-111727619D02*
X182271905Y-111680000D01*
X182176667Y-111632381D01*
X181938571Y-111632381D01*
X181843333Y-111680000D01*
X181795714Y-111727619D01*
X181748095Y-111822857D01*
X181748095Y-111918095D01*
X181795714Y-112060952D01*
X182367143Y-112632381D01*
X181748095Y-112632381D01*
X174714286Y-86852381D02*
X174714286Y-85852381D01*
X174476191Y-85852381D01*
X174333333Y-85900000D01*
X174238095Y-85995238D01*
X174190476Y-86090476D01*
X174142857Y-86280952D01*
X174142857Y-86423810D01*
X174190476Y-86614286D01*
X174238095Y-86709524D01*
X174333333Y-86804762D01*
X174476191Y-86852381D01*
X174714286Y-86852381D01*
X173190476Y-86852381D02*
X173761905Y-86852381D01*
X173476191Y-86852381D02*
X173476191Y-85852381D01*
X173571429Y-85995238D01*
X173666667Y-86090476D01*
X173761905Y-86138095D01*
X172857143Y-85852381D02*
X172190476Y-85852381D01*
X172619048Y-86852381D01*
X188214286Y-64052381D02*
X188214286Y-63052381D01*
X187976191Y-63052381D01*
X187833333Y-63100000D01*
X187738095Y-63195238D01*
X187690476Y-63290476D01*
X187642857Y-63480952D01*
X187642857Y-63623810D01*
X187690476Y-63814286D01*
X187738095Y-63909524D01*
X187833333Y-64004762D01*
X187976191Y-64052381D01*
X188214286Y-64052381D01*
X187261905Y-63147619D02*
X187214286Y-63100000D01*
X187119048Y-63052381D01*
X186880952Y-63052381D01*
X186785714Y-63100000D01*
X186738095Y-63147619D01*
X186690476Y-63242857D01*
X186690476Y-63338095D01*
X186738095Y-63480952D01*
X187309524Y-64052381D01*
X186690476Y-64052381D01*
X186309524Y-63147619D02*
X186261905Y-63100000D01*
X186166667Y-63052381D01*
X185928571Y-63052381D01*
X185833333Y-63100000D01*
X185785714Y-63147619D01*
X185738095Y-63242857D01*
X185738095Y-63338095D01*
X185785714Y-63480952D01*
X186357143Y-64052381D01*
X185738095Y-64052381D01*
X197214286Y-65802381D02*
X197214286Y-64802381D01*
X196976191Y-64802381D01*
X196833333Y-64850000D01*
X196738095Y-64945238D01*
X196690476Y-65040476D01*
X196642857Y-65230952D01*
X196642857Y-65373810D01*
X196690476Y-65564286D01*
X196738095Y-65659524D01*
X196833333Y-65754762D01*
X196976191Y-65802381D01*
X197214286Y-65802381D01*
X196261905Y-64897619D02*
X196214286Y-64850000D01*
X196119048Y-64802381D01*
X195880952Y-64802381D01*
X195785714Y-64850000D01*
X195738095Y-64897619D01*
X195690476Y-64992857D01*
X195690476Y-65088095D01*
X195738095Y-65230952D01*
X196309524Y-65802381D01*
X195690476Y-65802381D01*
X195357143Y-64802381D02*
X194690476Y-64802381D01*
X195119048Y-65802381D01*
X187538095Y-107752381D02*
X187538095Y-108561905D01*
X187490476Y-108657143D01*
X187442857Y-108704762D01*
X187347619Y-108752381D01*
X187157142Y-108752381D01*
X187061904Y-108704762D01*
X187014285Y-108657143D01*
X186966666Y-108561905D01*
X186966666Y-107752381D01*
X185966666Y-108752381D02*
X186538095Y-108752381D01*
X186252381Y-108752381D02*
X186252381Y-107752381D01*
X186347619Y-107895238D01*
X186442857Y-107990476D01*
X186538095Y-108038095D01*
X185585714Y-107847619D02*
X185538095Y-107800000D01*
X185442857Y-107752381D01*
X185204761Y-107752381D01*
X185109523Y-107800000D01*
X185061904Y-107847619D01*
X185014285Y-107942857D01*
X185014285Y-108038095D01*
X185061904Y-108180952D01*
X185633333Y-108752381D01*
X185014285Y-108752381D01*
X209992381Y-101921905D02*
X210801905Y-101921905D01*
X210897143Y-101969524D01*
X210944762Y-102017143D01*
X210992381Y-102112381D01*
X210992381Y-102302858D01*
X210944762Y-102398096D01*
X210897143Y-102445715D01*
X210801905Y-102493334D01*
X209992381Y-102493334D01*
X210992381Y-103493334D02*
X210992381Y-102921905D01*
X210992381Y-103207619D02*
X209992381Y-103207619D01*
X210135238Y-103112381D01*
X210230476Y-103017143D01*
X210278095Y-102921905D01*
X210992381Y-104445715D02*
X210992381Y-103874286D01*
X210992381Y-104160000D02*
X209992381Y-104160000D01*
X210135238Y-104064762D01*
X210230476Y-103969524D01*
X210278095Y-103874286D01*
X177202381Y-79051905D02*
X178011905Y-79051905D01*
X178107143Y-79099524D01*
X178154762Y-79147143D01*
X178202381Y-79242381D01*
X178202381Y-79432858D01*
X178154762Y-79528096D01*
X178107143Y-79575715D01*
X178011905Y-79623334D01*
X177202381Y-79623334D01*
X178202381Y-80623334D02*
X178202381Y-80051905D01*
X178202381Y-80337619D02*
X177202381Y-80337619D01*
X177345238Y-80242381D01*
X177440476Y-80147143D01*
X177488095Y-80051905D01*
X177202381Y-80956667D02*
X177202381Y-81575715D01*
X177583333Y-81242381D01*
X177583333Y-81385239D01*
X177630952Y-81480477D01*
X177678571Y-81528096D01*
X177773810Y-81575715D01*
X178011905Y-81575715D01*
X178107143Y-81528096D01*
X178154762Y-81480477D01*
X178202381Y-81385239D01*
X178202381Y-81099524D01*
X178154762Y-81004286D01*
X178107143Y-80956667D01*
X187608095Y-66632381D02*
X187608095Y-67441905D01*
X187560476Y-67537143D01*
X187512857Y-67584762D01*
X187417619Y-67632381D01*
X187227142Y-67632381D01*
X187131904Y-67584762D01*
X187084285Y-67537143D01*
X187036666Y-67441905D01*
X187036666Y-66632381D01*
X186036666Y-67632381D02*
X186608095Y-67632381D01*
X186322381Y-67632381D02*
X186322381Y-66632381D01*
X186417619Y-66775238D01*
X186512857Y-66870476D01*
X186608095Y-66918095D01*
X185179523Y-66965714D02*
X185179523Y-67632381D01*
X185417619Y-66584762D02*
X185655714Y-67299048D01*
X185036666Y-67299048D01*
X198058095Y-71792381D02*
X198058095Y-72601905D01*
X198010476Y-72697143D01*
X197962857Y-72744762D01*
X197867619Y-72792381D01*
X197677142Y-72792381D01*
X197581904Y-72744762D01*
X197534285Y-72697143D01*
X197486666Y-72601905D01*
X197486666Y-71792381D01*
X196486666Y-72792381D02*
X197058095Y-72792381D01*
X196772381Y-72792381D02*
X196772381Y-71792381D01*
X196867619Y-71935238D01*
X196962857Y-72030476D01*
X197058095Y-72078095D01*
X195581904Y-71792381D02*
X196058095Y-71792381D01*
X196105714Y-72268571D01*
X196058095Y-72220952D01*
X195962857Y-72173333D01*
X195724761Y-72173333D01*
X195629523Y-72220952D01*
X195581904Y-72268571D01*
X195534285Y-72363810D01*
X195534285Y-72601905D01*
X195581904Y-72697143D01*
X195629523Y-72744762D01*
X195724761Y-72792381D01*
X195962857Y-72792381D01*
X196058095Y-72744762D01*
X196105714Y-72697143D01*
X207888095Y-64902381D02*
X207888095Y-65711905D01*
X207840476Y-65807143D01*
X207792857Y-65854762D01*
X207697619Y-65902381D01*
X207507142Y-65902381D01*
X207411904Y-65854762D01*
X207364285Y-65807143D01*
X207316666Y-65711905D01*
X207316666Y-64902381D01*
X206316666Y-65902381D02*
X206888095Y-65902381D01*
X206602381Y-65902381D02*
X206602381Y-64902381D01*
X206697619Y-65045238D01*
X206792857Y-65140476D01*
X206888095Y-65188095D01*
X205697619Y-64902381D02*
X205602380Y-64902381D01*
X205507142Y-64950000D01*
X205459523Y-64997619D01*
X205411904Y-65092857D01*
X205364285Y-65283333D01*
X205364285Y-65521429D01*
X205411904Y-65711905D01*
X205459523Y-65807143D01*
X205507142Y-65854762D01*
X205602380Y-65902381D01*
X205697619Y-65902381D01*
X205792857Y-65854762D01*
X205840476Y-65807143D01*
X205888095Y-65711905D01*
X205935714Y-65521429D01*
X205935714Y-65283333D01*
X205888095Y-65092857D01*
X205840476Y-64997619D01*
X205792857Y-64950000D01*
X205697619Y-64902381D01*
M02*
