G04 #@! TF.FileFunction,Paste,Bot*
%FSLAX46Y46*%
G04 Gerber Fmt 4.6, Leading zero omitted, Abs format (unit mm)*
G04 Created by KiCad (PCBNEW 4.0.6) date 08/03/17 11:48:30*
%MOMM*%
%LPD*%
G01*
G04 APERTURE LIST*
%ADD10C,0.100000*%
%ADD11R,0.750000X1.200000*%
%ADD12R,1.200000X0.750000*%
%ADD13R,2.500000X2.000000*%
%ADD14R,2.000000X2.500000*%
%ADD15R,0.900000X1.200000*%
%ADD16R,1.200000X0.900000*%
%ADD17R,1.000000X1.000000*%
%ADD18R,0.700000X0.350000*%
%ADD19R,1.580000X2.350000*%
%ADD20R,0.350000X0.700000*%
%ADD21R,2.350000X1.580000*%
G04 APERTURE END LIST*
D10*
D11*
X213580000Y-62730000D03*
X213580000Y-64630000D03*
D12*
X209800000Y-65750000D03*
X211700000Y-65750000D03*
X204200000Y-61500000D03*
X202300000Y-61500000D03*
D11*
X218750000Y-99200000D03*
X218750000Y-97300000D03*
D12*
X212070000Y-95050000D03*
X210170000Y-95050000D03*
D11*
X217750000Y-102300000D03*
X217750000Y-104200000D03*
X192500000Y-109450000D03*
X192500000Y-107550000D03*
D12*
X190050000Y-105250000D03*
X191950000Y-105250000D03*
D11*
X182000000Y-104950000D03*
X182000000Y-103050000D03*
D12*
X173200000Y-84750000D03*
X171300000Y-84750000D03*
X173050000Y-76250000D03*
X174950000Y-76250000D03*
D11*
X171000000Y-80450000D03*
X171000000Y-78550000D03*
X180830000Y-64990000D03*
X180830000Y-63090000D03*
X180970000Y-71220000D03*
X180970000Y-69320000D03*
D12*
X189950000Y-65000000D03*
X188050000Y-65000000D03*
X193800000Y-66750000D03*
X195700000Y-66750000D03*
D11*
X203530000Y-70970000D03*
X203530000Y-69070000D03*
D12*
X198550000Y-66750000D03*
X200450000Y-66750000D03*
D13*
X217500000Y-67750000D03*
X217500000Y-71750000D03*
X217000000Y-108500000D03*
X217000000Y-112500000D03*
D14*
X200000000Y-106000000D03*
X196000000Y-106000000D03*
D13*
X166500000Y-84500000D03*
X166500000Y-80500000D03*
X168250000Y-70480000D03*
X168250000Y-66480000D03*
D14*
X172200000Y-62320000D03*
X176200000Y-62320000D03*
D15*
X220000000Y-81600000D03*
X220000000Y-79400000D03*
D16*
X207400000Y-113250000D03*
X209600000Y-113250000D03*
X178150000Y-107750000D03*
X180350000Y-107750000D03*
D15*
X168250000Y-77600000D03*
X168250000Y-75400000D03*
X174570000Y-65900000D03*
X174570000Y-68100000D03*
D16*
X200900000Y-73250000D03*
X203100000Y-73250000D03*
D17*
X217000000Y-62000000D03*
X217000000Y-64500000D03*
X208250000Y-107000000D03*
X208250000Y-109500000D03*
X185000000Y-110250000D03*
X182500000Y-110250000D03*
X174750000Y-88250000D03*
X172250000Y-88250000D03*
X185750000Y-61750000D03*
X188250000Y-61750000D03*
X194750000Y-63500000D03*
X197250000Y-63500000D03*
D18*
X184275000Y-106950000D03*
X184275000Y-106325000D03*
X184275000Y-105675000D03*
X184275000Y-105025000D03*
X187225000Y-105025000D03*
X187225000Y-105675000D03*
X187225000Y-106325000D03*
X187225000Y-106975000D03*
D19*
X185750000Y-106000000D03*
D20*
X211800000Y-101525000D03*
X212425000Y-101525000D03*
X213075000Y-101525000D03*
X213725000Y-101525000D03*
X213725000Y-104475000D03*
X213075000Y-104475000D03*
X212425000Y-104475000D03*
X211775000Y-104475000D03*
D21*
X212750000Y-103000000D03*
D20*
X176200000Y-81975000D03*
X175575000Y-81975000D03*
X174925000Y-81975000D03*
X174275000Y-81975000D03*
X174275000Y-79025000D03*
X174925000Y-79025000D03*
X175575000Y-79025000D03*
X176225000Y-79025000D03*
D21*
X175250000Y-80500000D03*
D18*
X188055000Y-68730000D03*
X188055000Y-69355000D03*
X188055000Y-70005000D03*
X188055000Y-70655000D03*
X185105000Y-70655000D03*
X185105000Y-70005000D03*
X185105000Y-69355000D03*
X185105000Y-68705000D03*
D19*
X186580000Y-69680000D03*
D18*
X197665000Y-69180000D03*
X197665000Y-69805000D03*
X197665000Y-70455000D03*
X197665000Y-71105000D03*
X194715000Y-71105000D03*
X194715000Y-70455000D03*
X194715000Y-69805000D03*
X194715000Y-69155000D03*
D19*
X196190000Y-70130000D03*
D18*
X209345000Y-62190000D03*
X209345000Y-62815000D03*
X209345000Y-63465000D03*
X209345000Y-64115000D03*
X206395000Y-64115000D03*
X206395000Y-63465000D03*
X206395000Y-62815000D03*
X206395000Y-62165000D03*
D19*
X207870000Y-63140000D03*
M02*
