G04 #@! TF.FileFunction,Soldermask,Top*
%FSLAX46Y46*%
G04 Gerber Fmt 4.6, Leading zero omitted, Abs format (unit mm)*
G04 Created by KiCad (PCBNEW 4.0.6) date 08/02/17 22:49:11*
%MOMM*%
%LPD*%
G01*
G04 APERTURE LIST*
%ADD10C,0.100000*%
%ADD11R,0.610000X0.320000*%
%ADD12R,0.320000X0.610000*%
%ADD13C,30.500000*%
%ADD14C,6.200000*%
%ADD15R,1.200000X0.750000*%
%ADD16R,0.750000X1.200000*%
%ADD17R,1.500000X2.600000*%
%ADD18R,2.600000X1.500000*%
%ADD19R,1.700000X1.700000*%
%ADD20O,1.700000X1.700000*%
%ADD21R,1.350000X0.400000*%
%ADD22O,0.950000X1.250000*%
%ADD23O,1.550000X1.000000*%
%ADD24R,1.700000X1.200000*%
%ADD25O,1.700000X1.200000*%
%ADD26R,2.000000X2.500000*%
%ADD27R,0.650000X1.560000*%
%ADD28R,0.900000X0.800000*%
%ADD29R,1.200000X0.900000*%
%ADD30R,0.900000X1.200000*%
%ADD31C,1.524000*%
%ADD32R,2.000000X0.650000*%
%ADD33R,0.650000X2.000000*%
%ADD34R,0.500000X0.500000*%
%ADD35R,0.900000X1.000000*%
%ADD36R,0.750000X0.300000*%
%ADD37R,0.300000X0.750000*%
%ADD38R,0.900000X0.900000*%
%ADD39C,2.000000*%
%ADD40R,3.500000X1.800000*%
%ADD41R,0.840000X0.500000*%
%ADD42R,0.500000X0.840000*%
%ADD43R,0.650000X1.100000*%
%ADD44R,0.650000X0.650000*%
%ADD45R,1.100000X0.650000*%
G04 APERTURE END LIST*
D10*
D11*
X124700000Y-79870000D03*
X124700000Y-79370000D03*
X124700000Y-78870000D03*
X124700000Y-78370000D03*
X121910000Y-79870000D03*
X121910000Y-79370000D03*
X121910000Y-78870000D03*
X121910000Y-78370000D03*
D12*
X124050000Y-77720000D03*
X123550000Y-77720000D03*
X123050000Y-77720000D03*
X122550000Y-77720000D03*
X124050000Y-80520000D03*
X123550000Y-80520000D03*
X123050000Y-80520000D03*
X122550000Y-80520000D03*
D13*
X192790000Y-88190000D03*
D14*
X159290000Y-63690000D03*
X159290000Y-112690000D03*
X101290000Y-112690000D03*
X101290000Y-63690000D03*
D15*
X162950000Y-96200000D03*
X161050000Y-96200000D03*
D16*
X166000000Y-99650000D03*
X166000000Y-101550000D03*
D15*
X169350000Y-106000000D03*
X167450000Y-106000000D03*
X149950000Y-80600000D03*
X148050000Y-80600000D03*
D16*
X150000000Y-76550000D03*
X150000000Y-74650000D03*
D15*
X146050000Y-84600000D03*
X147950000Y-84600000D03*
D16*
X160800000Y-74450000D03*
X160800000Y-76350000D03*
X148000000Y-87850000D03*
X148000000Y-89750000D03*
X151500000Y-109550000D03*
X151500000Y-111450000D03*
D15*
X151250000Y-106200000D03*
X153150000Y-106200000D03*
D16*
X155400000Y-102950000D03*
X155400000Y-101050000D03*
D15*
X136550000Y-101500000D03*
X138450000Y-101500000D03*
D16*
X133500000Y-95550000D03*
X133500000Y-97450000D03*
D15*
X135350000Y-90000000D03*
X133450000Y-90000000D03*
D16*
X112750000Y-83050000D03*
X112750000Y-84950000D03*
D15*
X120550000Y-84500000D03*
X122450000Y-84500000D03*
D16*
X129380000Y-80230000D03*
X129380000Y-78330000D03*
X112750000Y-78550000D03*
X112750000Y-80450000D03*
D15*
X120550000Y-87500000D03*
X122450000Y-87500000D03*
X120550000Y-89750000D03*
X122450000Y-89750000D03*
X116550000Y-96800000D03*
X114650000Y-96800000D03*
D16*
X110800000Y-103750000D03*
X110800000Y-101850000D03*
X120800000Y-101850000D03*
X120800000Y-103750000D03*
X139800000Y-87150000D03*
X139800000Y-85250000D03*
D17*
X194290000Y-64190000D03*
X191290000Y-64190000D03*
D10*
G36*
X201509798Y-64326640D02*
X200836869Y-66838047D01*
X199387980Y-66449818D01*
X200060909Y-63938411D01*
X201509798Y-64326640D01*
X201509798Y-64326640D01*
G37*
G36*
X198612020Y-63550182D02*
X197939091Y-66061589D01*
X196490202Y-65673360D01*
X197163131Y-63161953D01*
X198612020Y-63550182D01*
X198612020Y-63550182D01*
G37*
G36*
X207388557Y-67404557D02*
X206088557Y-69656223D01*
X204789519Y-68906223D01*
X206089519Y-66654557D01*
X207388557Y-67404557D01*
X207388557Y-67404557D01*
G37*
G36*
X204790481Y-65904557D02*
X203490481Y-68156223D01*
X202191443Y-67406223D01*
X203491443Y-65154557D01*
X204790481Y-65904557D01*
X204790481Y-65904557D01*
G37*
G36*
X212270792Y-71891188D02*
X210432314Y-73729666D01*
X209371654Y-72669006D01*
X211210132Y-70830528D01*
X212270792Y-71891188D01*
X212270792Y-71891188D01*
G37*
G36*
X210149472Y-69769868D02*
X208310994Y-71608346D01*
X207250334Y-70547686D01*
X209088812Y-68709208D01*
X210149472Y-69769868D01*
X210149472Y-69769868D01*
G37*
D18*
X216790000Y-89690000D03*
X216790000Y-86690000D03*
D10*
G36*
X216645580Y-96911455D02*
X214134173Y-96238526D01*
X214522402Y-94789637D01*
X217033809Y-95462566D01*
X216645580Y-96911455D01*
X216645580Y-96911455D01*
G37*
G36*
X217422038Y-94013677D02*
X214910631Y-93340748D01*
X215298860Y-91891859D01*
X217810267Y-92564788D01*
X217422038Y-94013677D01*
X217422038Y-94013677D01*
G37*
G36*
X213575443Y-102788557D02*
X211323777Y-101488557D01*
X212073777Y-100189519D01*
X214325443Y-101489519D01*
X213575443Y-102788557D01*
X213575443Y-102788557D01*
G37*
G36*
X215075443Y-100190481D02*
X212823777Y-98890481D01*
X213573777Y-97591443D01*
X215825443Y-98891443D01*
X215075443Y-100190481D01*
X215075443Y-100190481D01*
G37*
G36*
X209088812Y-107670792D02*
X207250334Y-105832314D01*
X208310994Y-104771654D01*
X210149472Y-106610132D01*
X209088812Y-107670792D01*
X209088812Y-107670792D01*
G37*
G36*
X211210132Y-105549472D02*
X209371654Y-103710994D01*
X210432314Y-102650334D01*
X212270792Y-104488812D01*
X211210132Y-105549472D01*
X211210132Y-105549472D01*
G37*
D17*
X191290000Y-112190000D03*
X194290000Y-112190000D03*
D10*
G36*
X184068545Y-112045580D02*
X184741474Y-109534173D01*
X186190363Y-109922402D01*
X185517434Y-112433809D01*
X184068545Y-112045580D01*
X184068545Y-112045580D01*
G37*
G36*
X186966323Y-112822038D02*
X187639252Y-110310631D01*
X189088141Y-110698860D01*
X188415212Y-113210267D01*
X186966323Y-112822038D01*
X186966323Y-112822038D01*
G37*
G36*
X178191443Y-108975443D02*
X179491443Y-106723777D01*
X180790481Y-107473777D01*
X179490481Y-109725443D01*
X178191443Y-108975443D01*
X178191443Y-108975443D01*
G37*
G36*
X180789519Y-110475443D02*
X182089519Y-108223777D01*
X183388557Y-108973777D01*
X182088557Y-111225443D01*
X180789519Y-110475443D01*
X180789519Y-110475443D01*
G37*
G36*
X173309208Y-104488812D02*
X175147686Y-102650334D01*
X176208346Y-103710994D01*
X174369868Y-105549472D01*
X173309208Y-104488812D01*
X173309208Y-104488812D01*
G37*
G36*
X175430528Y-106610132D02*
X177269006Y-104771654D01*
X178329666Y-105832314D01*
X176491188Y-107670792D01*
X175430528Y-106610132D01*
X175430528Y-106610132D01*
G37*
D18*
X168790000Y-86690000D03*
X168790000Y-89690000D03*
D10*
G36*
X168934420Y-79468545D02*
X171445827Y-80141474D01*
X171057598Y-81590363D01*
X168546191Y-80917434D01*
X168934420Y-79468545D01*
X168934420Y-79468545D01*
G37*
G36*
X168157962Y-82366323D02*
X170669369Y-83039252D01*
X170281140Y-84488141D01*
X167769733Y-83815212D01*
X168157962Y-82366323D01*
X168157962Y-82366323D01*
G37*
G36*
X172004557Y-73591443D02*
X174256223Y-74891443D01*
X173506223Y-76190481D01*
X171254557Y-74890481D01*
X172004557Y-73591443D01*
X172004557Y-73591443D01*
G37*
G36*
X170504557Y-76189519D02*
X172756223Y-77489519D01*
X172006223Y-78788557D01*
X169754557Y-77488557D01*
X170504557Y-76189519D01*
X170504557Y-76189519D01*
G37*
G36*
X176491188Y-68709208D02*
X178329666Y-70547686D01*
X177269006Y-71608346D01*
X175430528Y-69769868D01*
X176491188Y-68709208D01*
X176491188Y-68709208D01*
G37*
G36*
X174369868Y-70830528D02*
X176208346Y-72669006D01*
X175147686Y-73729666D01*
X173309208Y-71891188D01*
X174369868Y-70830528D01*
X174369868Y-70830528D01*
G37*
G36*
X215825443Y-77488557D02*
X213573777Y-78788557D01*
X212823777Y-77489519D01*
X215075443Y-76189519D01*
X215825443Y-77488557D01*
X215825443Y-77488557D01*
G37*
G36*
X214325443Y-74890481D02*
X212073777Y-76190481D01*
X211323777Y-74891443D01*
X213575443Y-73591443D01*
X214325443Y-74890481D01*
X214325443Y-74890481D01*
G37*
G36*
X203491443Y-111225443D02*
X202191443Y-108973777D01*
X203490481Y-108223777D01*
X204790481Y-110475443D01*
X203491443Y-111225443D01*
X203491443Y-111225443D01*
G37*
G36*
X206089519Y-109725443D02*
X204789519Y-107473777D01*
X206088557Y-106723777D01*
X207388557Y-108975443D01*
X206089519Y-109725443D01*
X206089519Y-109725443D01*
G37*
G36*
X169754557Y-98891443D02*
X172006223Y-97591443D01*
X172756223Y-98890481D01*
X170504557Y-100190481D01*
X169754557Y-98891443D01*
X169754557Y-98891443D01*
G37*
G36*
X171254557Y-101489519D02*
X173506223Y-100189519D01*
X174256223Y-101488557D01*
X172004557Y-102788557D01*
X171254557Y-101489519D01*
X171254557Y-101489519D01*
G37*
G36*
X182088557Y-65154557D02*
X183388557Y-67406223D01*
X182089519Y-68156223D01*
X180789519Y-65904557D01*
X182088557Y-65154557D01*
X182088557Y-65154557D01*
G37*
G36*
X179490481Y-66654557D02*
X180790481Y-68906223D01*
X179491443Y-69656223D01*
X178191443Y-67404557D01*
X179490481Y-66654557D01*
X179490481Y-66654557D01*
G37*
G36*
X217810267Y-83815212D02*
X215298860Y-84488141D01*
X214910631Y-83039252D01*
X217422038Y-82366323D01*
X217810267Y-83815212D01*
X217810267Y-83815212D01*
G37*
G36*
X217033809Y-80917434D02*
X214522402Y-81590363D01*
X214134173Y-80141474D01*
X216645580Y-79468545D01*
X217033809Y-80917434D01*
X217033809Y-80917434D01*
G37*
G36*
X197164788Y-113210267D02*
X196491859Y-110698860D01*
X197940748Y-110310631D01*
X198613677Y-112822038D01*
X197164788Y-113210267D01*
X197164788Y-113210267D01*
G37*
G36*
X200062566Y-112433809D02*
X199389637Y-109922402D01*
X200838526Y-109534173D01*
X201511455Y-112045580D01*
X200062566Y-112433809D01*
X200062566Y-112433809D01*
G37*
G36*
X167769733Y-92564788D02*
X170281140Y-91891859D01*
X170669369Y-93340748D01*
X168157962Y-94013677D01*
X167769733Y-92564788D01*
X167769733Y-92564788D01*
G37*
G36*
X168546191Y-95462566D02*
X171057598Y-94789637D01*
X171445827Y-96238526D01*
X168934420Y-96911455D01*
X168546191Y-95462566D01*
X168546191Y-95462566D01*
G37*
G36*
X188415212Y-63169733D02*
X189088141Y-65681140D01*
X187639252Y-66069369D01*
X186966323Y-63557962D01*
X188415212Y-63169733D01*
X188415212Y-63169733D01*
G37*
G36*
X185517434Y-63946191D02*
X186190363Y-66457598D01*
X184741474Y-66845827D01*
X184068545Y-64334420D01*
X185517434Y-63946191D01*
X185517434Y-63946191D01*
G37*
D17*
X118500000Y-112800000D03*
X121500000Y-112800000D03*
X111300000Y-112800000D03*
X114300000Y-112800000D03*
D19*
X106140000Y-64990000D03*
D20*
X106140000Y-62450000D03*
X108680000Y-64990000D03*
X108680000Y-62450000D03*
X111220000Y-64990000D03*
X111220000Y-62450000D03*
X113760000Y-64990000D03*
X113760000Y-62450000D03*
X116300000Y-64990000D03*
X116300000Y-62450000D03*
X118840000Y-64990000D03*
X118840000Y-62450000D03*
X121380000Y-64990000D03*
X121380000Y-62450000D03*
X123920000Y-64990000D03*
X123920000Y-62450000D03*
X126460000Y-64990000D03*
X126460000Y-62450000D03*
X129000000Y-64990000D03*
X129000000Y-62450000D03*
X131540000Y-64990000D03*
X131540000Y-62450000D03*
X134080000Y-64990000D03*
X134080000Y-62450000D03*
X136620000Y-64990000D03*
X136620000Y-62450000D03*
X139160000Y-64990000D03*
X139160000Y-62450000D03*
X141700000Y-64990000D03*
X141700000Y-62450000D03*
X144240000Y-64990000D03*
X144240000Y-62450000D03*
X146780000Y-64990000D03*
X146780000Y-62450000D03*
X149320000Y-64990000D03*
X149320000Y-62450000D03*
X151860000Y-64990000D03*
X151860000Y-62450000D03*
X154400000Y-64990000D03*
X154400000Y-62450000D03*
D21*
X104740000Y-101650000D03*
X104740000Y-102300000D03*
X104740000Y-102950000D03*
X104740000Y-103600000D03*
X104740000Y-104250000D03*
D22*
X104740000Y-100450000D03*
X104740000Y-105450000D03*
D23*
X102040000Y-99450000D03*
X102040000Y-106450000D03*
D24*
X101000000Y-73500000D03*
D25*
X101000000Y-71500000D03*
D26*
X163800000Y-107000000D03*
X159800000Y-107000000D03*
D27*
X125250000Y-104350000D03*
X126200000Y-104350000D03*
X127150000Y-104350000D03*
X127150000Y-101650000D03*
X125250000Y-101650000D03*
X126200000Y-101650000D03*
D28*
X125200000Y-108450000D03*
X125200000Y-110350000D03*
X127200000Y-109400000D03*
D29*
X154700000Y-97800000D03*
X152500000Y-97800000D03*
X149100000Y-97800000D03*
X146900000Y-97800000D03*
D30*
X130000000Y-91700000D03*
X130000000Y-89500000D03*
D29*
X140300000Y-90800000D03*
X138100000Y-90800000D03*
X122140000Y-75740000D03*
X124340000Y-75740000D03*
X110500000Y-99200000D03*
X108300000Y-99200000D03*
X109300000Y-96800000D03*
X111500000Y-96800000D03*
D30*
X119500000Y-94400000D03*
X119500000Y-96600000D03*
D29*
X114900000Y-93800000D03*
X112700000Y-93800000D03*
X118100000Y-108000000D03*
X120300000Y-108000000D03*
X112300000Y-108000000D03*
X114500000Y-108000000D03*
X123900000Y-96800000D03*
X121700000Y-96800000D03*
X127300000Y-113800000D03*
X125100000Y-113800000D03*
D31*
X107800000Y-89798980D03*
X107800000Y-87800000D03*
X107800000Y-85801020D03*
D27*
X160050000Y-102350000D03*
X161000000Y-102350000D03*
X161950000Y-102350000D03*
X161950000Y-99650000D03*
X160050000Y-99650000D03*
D32*
X153690000Y-74450000D03*
X153690000Y-75400000D03*
X153690000Y-76350000D03*
X157110000Y-76350000D03*
X157110000Y-74450000D03*
X150910000Y-102750000D03*
X150910000Y-101800000D03*
X150910000Y-100850000D03*
X147490000Y-100850000D03*
X147490000Y-102750000D03*
D33*
X136550000Y-98210000D03*
X137500000Y-98210000D03*
X138450000Y-98210000D03*
X138450000Y-94790000D03*
X136550000Y-94790000D03*
D34*
X135800000Y-86800000D03*
X135000000Y-86800000D03*
X134200000Y-86800000D03*
X133400000Y-86800000D03*
X132600000Y-86800000D03*
X132600000Y-86000000D03*
X135800000Y-86000000D03*
X132600000Y-85200000D03*
X133400000Y-85200000D03*
X134200000Y-85200000D03*
X135000000Y-85200000D03*
X135800000Y-85200000D03*
D33*
X115550000Y-82210000D03*
X116500000Y-82210000D03*
X117450000Y-82210000D03*
X117450000Y-78790000D03*
X115550000Y-78790000D03*
X117450000Y-86040000D03*
X116500000Y-86040000D03*
X115550000Y-86040000D03*
X115550000Y-89460000D03*
X117450000Y-89460000D03*
D35*
X146000000Y-111000000D03*
X148100000Y-111000000D03*
X146000000Y-109100000D03*
X148100000Y-109100000D03*
D10*
G36*
X146450000Y-110900000D02*
X146750000Y-111000000D01*
X146750000Y-111400000D01*
X146450000Y-111500000D01*
X146450000Y-110900000D01*
X146450000Y-110900000D01*
G37*
D36*
X114125000Y-101850000D03*
X114125000Y-102350000D03*
X114125000Y-102850000D03*
X114125000Y-103350000D03*
D37*
X114850000Y-104075000D03*
X115350000Y-104075000D03*
X115850000Y-104075000D03*
X116350000Y-104075000D03*
D36*
X117075000Y-103350000D03*
X117075000Y-102850000D03*
X117075000Y-102350000D03*
X117075000Y-101850000D03*
D37*
X116350000Y-101125000D03*
X115850000Y-101125000D03*
X115350000Y-101125000D03*
X114850000Y-101125000D03*
D38*
X116050000Y-103050000D03*
X116050000Y-102150000D03*
X115150000Y-103050000D03*
X115150000Y-102150000D03*
D39*
X178790000Y-74190000D03*
X206790000Y-74190000D03*
X206790000Y-102190000D03*
X178790000Y-102190000D03*
D40*
X165700000Y-112000000D03*
X170700000Y-112000000D03*
D41*
X160310000Y-91340000D03*
X160310000Y-90440000D03*
X160310000Y-89540000D03*
X160310000Y-88640000D03*
X160310000Y-87740000D03*
X160310000Y-86840000D03*
X160310000Y-85940000D03*
X160310000Y-85040000D03*
D42*
X159150000Y-83880000D03*
X158250000Y-83880000D03*
X157350000Y-83880000D03*
X156450000Y-83880000D03*
X155550000Y-83880000D03*
X154650000Y-83880000D03*
X153750000Y-83880000D03*
X152850000Y-83880000D03*
D41*
X151690000Y-85040000D03*
X151690000Y-85940000D03*
X151690000Y-86840000D03*
X151690000Y-87740000D03*
X151690000Y-88640000D03*
X151690000Y-89540000D03*
X151690000Y-90440000D03*
X151690000Y-91340000D03*
D42*
X152850000Y-92500000D03*
X153750000Y-92500000D03*
X154650000Y-92500000D03*
X155550000Y-92500000D03*
X156450000Y-92500000D03*
X157350000Y-92500000D03*
X158250000Y-92500000D03*
X159150000Y-92500000D03*
D43*
X161305000Y-92015000D03*
D44*
X161305000Y-90890000D03*
X161305000Y-89990000D03*
X161305000Y-89090000D03*
X161305000Y-88190000D03*
X161305000Y-87290000D03*
X161305000Y-86390000D03*
X161305000Y-85490000D03*
D43*
X161305000Y-84365000D03*
D45*
X159825000Y-82885000D03*
D44*
X158700000Y-82885000D03*
X157800000Y-82885000D03*
X156900000Y-82885000D03*
X156000000Y-82885000D03*
X155100000Y-82885000D03*
X154200000Y-82885000D03*
X153300000Y-82885000D03*
D45*
X152175000Y-82885000D03*
D43*
X150695000Y-84365000D03*
D44*
X150695000Y-85490000D03*
X150695000Y-86390000D03*
X150695000Y-87290000D03*
X150695000Y-88190000D03*
X150695000Y-89090000D03*
X150695000Y-89990000D03*
X150695000Y-90890000D03*
D43*
X150695000Y-92015000D03*
D45*
X152175000Y-93495000D03*
D44*
X153300000Y-93495000D03*
X154200000Y-93495000D03*
X155100000Y-93495000D03*
X156000000Y-93495000D03*
X156900000Y-93495000D03*
X157800000Y-93495000D03*
X158700000Y-93495000D03*
D45*
X159825000Y-93495000D03*
M02*
