G04 #@! TF.FileFunction,Legend,Top*
%FSLAX46Y46*%
G04 Gerber Fmt 4.6, Leading zero omitted, Abs format (unit mm)*
G04 Created by KiCad (PCBNEW 4.0.6) date 08/02/17 22:49:11*
%MOMM*%
%LPD*%
G01*
G04 APERTURE LIST*
%ADD10C,0.100000*%
%ADD11C,0.300000*%
%ADD12C,0.200000*%
%ADD13C,0.150000*%
%ADD14C,0.120000*%
%ADD15C,0.200660*%
%ADD16C,0.050000*%
%ADD17C,0.040000*%
%ADD18C,0.010000*%
%ADD19C,0.152400*%
%ADD20C,0.254000*%
G04 APERTURE END LIST*
D10*
D11*
X104755715Y-68068571D02*
X105255715Y-69568571D01*
X105755715Y-68068571D01*
X106255715Y-69568571D02*
X106255715Y-68568571D01*
X106255715Y-68068571D02*
X106184286Y-68140000D01*
X106255715Y-68211429D01*
X106327143Y-68140000D01*
X106255715Y-68068571D01*
X106255715Y-68211429D01*
X106755715Y-68568571D02*
X107327144Y-68568571D01*
X106970001Y-68068571D02*
X106970001Y-69354286D01*
X107041429Y-69497143D01*
X107184287Y-69568571D01*
X107327144Y-69568571D01*
X108470001Y-69568571D02*
X108470001Y-68782857D01*
X108398572Y-68640000D01*
X108255715Y-68568571D01*
X107970001Y-68568571D01*
X107827144Y-68640000D01*
X108470001Y-69497143D02*
X108327144Y-69568571D01*
X107970001Y-69568571D01*
X107827144Y-69497143D01*
X107755715Y-69354286D01*
X107755715Y-69211429D01*
X107827144Y-69068571D01*
X107970001Y-68997143D01*
X108327144Y-68997143D01*
X108470001Y-68925714D01*
X109398573Y-69568571D02*
X109255715Y-69497143D01*
X109184287Y-69354286D01*
X109184287Y-68068571D01*
X110827144Y-69425714D02*
X110755715Y-69497143D01*
X110541429Y-69568571D01*
X110398572Y-69568571D01*
X110184287Y-69497143D01*
X110041429Y-69354286D01*
X109970001Y-69211429D01*
X109898572Y-68925714D01*
X109898572Y-68711429D01*
X109970001Y-68425714D01*
X110041429Y-68282857D01*
X110184287Y-68140000D01*
X110398572Y-68068571D01*
X110541429Y-68068571D01*
X110755715Y-68140000D01*
X110827144Y-68211429D01*
X112112858Y-69568571D02*
X112112858Y-68782857D01*
X112041429Y-68640000D01*
X111898572Y-68568571D01*
X111612858Y-68568571D01*
X111470001Y-68640000D01*
X112112858Y-69497143D02*
X111970001Y-69568571D01*
X111612858Y-69568571D01*
X111470001Y-69497143D01*
X111398572Y-69354286D01*
X111398572Y-69211429D01*
X111470001Y-69068571D01*
X111612858Y-68997143D01*
X111970001Y-68997143D01*
X112112858Y-68925714D01*
X112827144Y-69568571D02*
X112827144Y-68568571D01*
X112827144Y-68711429D02*
X112898572Y-68640000D01*
X113041430Y-68568571D01*
X113255715Y-68568571D01*
X113398572Y-68640000D01*
X113470001Y-68782857D01*
X113470001Y-69568571D01*
X113470001Y-68782857D02*
X113541430Y-68640000D01*
X113684287Y-68568571D01*
X113898572Y-68568571D01*
X114041430Y-68640000D01*
X114112858Y-68782857D01*
X114112858Y-69568571D01*
X115827144Y-68568571D02*
X116184287Y-69568571D01*
X116541429Y-68568571D01*
X117041429Y-68211429D02*
X117112858Y-68140000D01*
X117255715Y-68068571D01*
X117612858Y-68068571D01*
X117755715Y-68140000D01*
X117827144Y-68211429D01*
X117898572Y-68354286D01*
X117898572Y-68497143D01*
X117827144Y-68711429D01*
X116970001Y-69568571D01*
X117898572Y-69568571D01*
X118541429Y-69425714D02*
X118612857Y-69497143D01*
X118541429Y-69568571D01*
X118470000Y-69497143D01*
X118541429Y-69425714D01*
X118541429Y-69568571D01*
X119541429Y-68068571D02*
X119684286Y-68068571D01*
X119827143Y-68140000D01*
X119898572Y-68211429D01*
X119970001Y-68354286D01*
X120041429Y-68640000D01*
X120041429Y-68997143D01*
X119970001Y-69282857D01*
X119898572Y-69425714D01*
X119827143Y-69497143D01*
X119684286Y-69568571D01*
X119541429Y-69568571D01*
X119398572Y-69497143D01*
X119327143Y-69425714D01*
X119255715Y-69282857D01*
X119184286Y-68997143D01*
X119184286Y-68640000D01*
X119255715Y-68354286D01*
X119327143Y-68211429D01*
X119398572Y-68140000D01*
X119541429Y-68068571D01*
X107434286Y-70690000D02*
X107291429Y-70618571D01*
X107077143Y-70618571D01*
X106862858Y-70690000D01*
X106720000Y-70832857D01*
X106648572Y-70975714D01*
X106577143Y-71261429D01*
X106577143Y-71475714D01*
X106648572Y-71761429D01*
X106720000Y-71904286D01*
X106862858Y-72047143D01*
X107077143Y-72118571D01*
X107220000Y-72118571D01*
X107434286Y-72047143D01*
X107505715Y-71975714D01*
X107505715Y-71475714D01*
X107220000Y-71475714D01*
X108720000Y-72047143D02*
X108577143Y-72118571D01*
X108291429Y-72118571D01*
X108148572Y-72047143D01*
X108077143Y-71904286D01*
X108077143Y-71332857D01*
X108148572Y-71190000D01*
X108291429Y-71118571D01*
X108577143Y-71118571D01*
X108720000Y-71190000D01*
X108791429Y-71332857D01*
X108791429Y-71475714D01*
X108077143Y-71618571D01*
X110005714Y-72047143D02*
X109862857Y-72118571D01*
X109577143Y-72118571D01*
X109434286Y-72047143D01*
X109362857Y-71904286D01*
X109362857Y-71332857D01*
X109434286Y-71190000D01*
X109577143Y-71118571D01*
X109862857Y-71118571D01*
X110005714Y-71190000D01*
X110077143Y-71332857D01*
X110077143Y-71475714D01*
X109362857Y-71618571D01*
X110505714Y-71118571D02*
X111077143Y-71118571D01*
X110720000Y-70618571D02*
X110720000Y-71904286D01*
X110791428Y-72047143D01*
X110934286Y-72118571D01*
X111077143Y-72118571D01*
X111577143Y-72118571D02*
X111577143Y-70618571D01*
X112220000Y-72118571D02*
X112220000Y-71332857D01*
X112148571Y-71190000D01*
X112005714Y-71118571D01*
X111791429Y-71118571D01*
X111648571Y-71190000D01*
X111577143Y-71261429D01*
X113577143Y-72118571D02*
X113577143Y-71332857D01*
X113505714Y-71190000D01*
X113362857Y-71118571D01*
X113077143Y-71118571D01*
X112934286Y-71190000D01*
X113577143Y-72047143D02*
X113434286Y-72118571D01*
X113077143Y-72118571D01*
X112934286Y-72047143D01*
X112862857Y-71904286D01*
X112862857Y-71761429D01*
X112934286Y-71618571D01*
X113077143Y-71547143D01*
X113434286Y-71547143D01*
X113577143Y-71475714D01*
X114291429Y-71118571D02*
X114291429Y-72118571D01*
X114291429Y-71261429D02*
X114362857Y-71190000D01*
X114505715Y-71118571D01*
X114720000Y-71118571D01*
X114862857Y-71190000D01*
X114934286Y-71332857D01*
X114934286Y-72118571D01*
X116791429Y-72118571D02*
X116791429Y-70618571D01*
X117648572Y-72118571D02*
X117005715Y-71261429D01*
X117648572Y-70618571D02*
X116791429Y-71475714D01*
X118291429Y-71975714D02*
X118362857Y-72047143D01*
X118291429Y-72118571D01*
X118220000Y-72047143D01*
X118291429Y-71975714D01*
X118291429Y-72118571D01*
X106684287Y-73168571D02*
X106827144Y-73168571D01*
X106970001Y-73240000D01*
X107041430Y-73311429D01*
X107112859Y-73454286D01*
X107184287Y-73740000D01*
X107184287Y-74097143D01*
X107112859Y-74382857D01*
X107041430Y-74525714D01*
X106970001Y-74597143D01*
X106827144Y-74668571D01*
X106684287Y-74668571D01*
X106541430Y-74597143D01*
X106470001Y-74525714D01*
X106398573Y-74382857D01*
X106327144Y-74097143D01*
X106327144Y-73740000D01*
X106398573Y-73454286D01*
X106470001Y-73311429D01*
X106541430Y-73240000D01*
X106684287Y-73168571D01*
X107755715Y-73311429D02*
X107827144Y-73240000D01*
X107970001Y-73168571D01*
X108327144Y-73168571D01*
X108470001Y-73240000D01*
X108541430Y-73311429D01*
X108612858Y-73454286D01*
X108612858Y-73597143D01*
X108541430Y-73811429D01*
X107684287Y-74668571D01*
X108612858Y-74668571D01*
X109255715Y-74525714D02*
X109327143Y-74597143D01*
X109255715Y-74668571D01*
X109184286Y-74597143D01*
X109255715Y-74525714D01*
X109255715Y-74668571D01*
X110255715Y-73168571D02*
X110398572Y-73168571D01*
X110541429Y-73240000D01*
X110612858Y-73311429D01*
X110684287Y-73454286D01*
X110755715Y-73740000D01*
X110755715Y-74097143D01*
X110684287Y-74382857D01*
X110612858Y-74525714D01*
X110541429Y-74597143D01*
X110398572Y-74668571D01*
X110255715Y-74668571D01*
X110112858Y-74597143D01*
X110041429Y-74525714D01*
X109970001Y-74382857D01*
X109898572Y-74097143D01*
X109898572Y-73740000D01*
X109970001Y-73454286D01*
X110041429Y-73311429D01*
X110112858Y-73240000D01*
X110255715Y-73168571D01*
X111612858Y-73811429D02*
X111470000Y-73740000D01*
X111398572Y-73668571D01*
X111327143Y-73525714D01*
X111327143Y-73454286D01*
X111398572Y-73311429D01*
X111470000Y-73240000D01*
X111612858Y-73168571D01*
X111898572Y-73168571D01*
X112041429Y-73240000D01*
X112112858Y-73311429D01*
X112184286Y-73454286D01*
X112184286Y-73525714D01*
X112112858Y-73668571D01*
X112041429Y-73740000D01*
X111898572Y-73811429D01*
X111612858Y-73811429D01*
X111470000Y-73882857D01*
X111398572Y-73954286D01*
X111327143Y-74097143D01*
X111327143Y-74382857D01*
X111398572Y-74525714D01*
X111470000Y-74597143D01*
X111612858Y-74668571D01*
X111898572Y-74668571D01*
X112041429Y-74597143D01*
X112112858Y-74525714D01*
X112184286Y-74382857D01*
X112184286Y-74097143D01*
X112112858Y-73954286D01*
X112041429Y-73882857D01*
X111898572Y-73811429D01*
X112827143Y-74525714D02*
X112898571Y-74597143D01*
X112827143Y-74668571D01*
X112755714Y-74597143D01*
X112827143Y-74525714D01*
X112827143Y-74668571D01*
X113470000Y-73311429D02*
X113541429Y-73240000D01*
X113684286Y-73168571D01*
X114041429Y-73168571D01*
X114184286Y-73240000D01*
X114255715Y-73311429D01*
X114327143Y-73454286D01*
X114327143Y-73597143D01*
X114255715Y-73811429D01*
X113398572Y-74668571D01*
X114327143Y-74668571D01*
X115255714Y-73168571D02*
X115398571Y-73168571D01*
X115541428Y-73240000D01*
X115612857Y-73311429D01*
X115684286Y-73454286D01*
X115755714Y-73740000D01*
X115755714Y-74097143D01*
X115684286Y-74382857D01*
X115612857Y-74525714D01*
X115541428Y-74597143D01*
X115398571Y-74668571D01*
X115255714Y-74668571D01*
X115112857Y-74597143D01*
X115041428Y-74525714D01*
X114970000Y-74382857D01*
X114898571Y-74097143D01*
X114898571Y-73740000D01*
X114970000Y-73454286D01*
X115041428Y-73311429D01*
X115112857Y-73240000D01*
X115255714Y-73168571D01*
X117184285Y-74668571D02*
X116327142Y-74668571D01*
X116755714Y-74668571D02*
X116755714Y-73168571D01*
X116612857Y-73382857D01*
X116469999Y-73525714D01*
X116327142Y-73597143D01*
X117684285Y-73168571D02*
X118684285Y-73168571D01*
X118041428Y-74668571D01*
D12*
X216790000Y-88190000D02*
G75*
G03X216790000Y-88190000I-24000000J0D01*
G01*
D13*
X124880278Y-80470000D02*
G75*
G03X124880278Y-80470000I-180278J0D01*
G01*
X125150000Y-79870000D02*
X125150000Y-77260000D01*
X125150000Y-77260000D02*
X121490000Y-77260000D01*
X121490000Y-77260000D02*
X121460000Y-77260000D01*
X121460000Y-77260000D02*
X121460000Y-80980000D01*
X121460000Y-80980000D02*
X125150000Y-80980000D01*
X125150000Y-80980000D02*
X125150000Y-79890000D01*
D14*
X194826000Y-88130000D02*
G75*
G03X194826000Y-88130000I-2286000J0D01*
G01*
X162350000Y-96800000D02*
X161650000Y-96800000D01*
X161650000Y-95600000D02*
X162350000Y-95600000D01*
X166600000Y-100250000D02*
X166600000Y-100950000D01*
X165400000Y-100950000D02*
X165400000Y-100250000D01*
X168750000Y-106600000D02*
X168050000Y-106600000D01*
X168050000Y-105400000D02*
X168750000Y-105400000D01*
X149350000Y-81200000D02*
X148650000Y-81200000D01*
X148650000Y-80000000D02*
X149350000Y-80000000D01*
X149400000Y-75950000D02*
X149400000Y-75250000D01*
X150600000Y-75250000D02*
X150600000Y-75950000D01*
X146650000Y-84000000D02*
X147350000Y-84000000D01*
X147350000Y-85200000D02*
X146650000Y-85200000D01*
X161400000Y-75050000D02*
X161400000Y-75750000D01*
X160200000Y-75750000D02*
X160200000Y-75050000D01*
X148600000Y-88450000D02*
X148600000Y-89150000D01*
X147400000Y-89150000D02*
X147400000Y-88450000D01*
X152100000Y-110150000D02*
X152100000Y-110850000D01*
X150900000Y-110850000D02*
X150900000Y-110150000D01*
X151850000Y-105600000D02*
X152550000Y-105600000D01*
X152550000Y-106800000D02*
X151850000Y-106800000D01*
X154800000Y-102350000D02*
X154800000Y-101650000D01*
X156000000Y-101650000D02*
X156000000Y-102350000D01*
X137150000Y-100900000D02*
X137850000Y-100900000D01*
X137850000Y-102100000D02*
X137150000Y-102100000D01*
X134100000Y-96150000D02*
X134100000Y-96850000D01*
X132900000Y-96850000D02*
X132900000Y-96150000D01*
X134750000Y-90600000D02*
X134050000Y-90600000D01*
X134050000Y-89400000D02*
X134750000Y-89400000D01*
X113350000Y-83650000D02*
X113350000Y-84350000D01*
X112150000Y-84350000D02*
X112150000Y-83650000D01*
X121150000Y-83900000D02*
X121850000Y-83900000D01*
X121850000Y-85100000D02*
X121150000Y-85100000D01*
X128780000Y-79630000D02*
X128780000Y-78930000D01*
X129980000Y-78930000D02*
X129980000Y-79630000D01*
X113350000Y-79150000D02*
X113350000Y-79850000D01*
X112150000Y-79850000D02*
X112150000Y-79150000D01*
X121150000Y-86900000D02*
X121850000Y-86900000D01*
X121850000Y-88100000D02*
X121150000Y-88100000D01*
X121150000Y-89150000D02*
X121850000Y-89150000D01*
X121850000Y-90350000D02*
X121150000Y-90350000D01*
X115950000Y-97400000D02*
X115250000Y-97400000D01*
X115250000Y-96200000D02*
X115950000Y-96200000D01*
X110200000Y-103150000D02*
X110200000Y-102450000D01*
X111400000Y-102450000D02*
X111400000Y-103150000D01*
X121400000Y-102450000D02*
X121400000Y-103150000D01*
X120200000Y-103150000D02*
X120200000Y-102450000D01*
X139200000Y-86550000D02*
X139200000Y-85850000D01*
X140400000Y-85850000D02*
X140400000Y-86550000D01*
X190540000Y-62590000D02*
X195190000Y-62590000D01*
X190540000Y-65790000D02*
X195190000Y-65790000D01*
X195190000Y-65790000D02*
X195190000Y-64990000D01*
X197240777Y-62872176D02*
X201732332Y-64075684D01*
X196412556Y-65963138D02*
X200904112Y-67166647D01*
X200904112Y-67166647D02*
X201111167Y-66393906D01*
X203641443Y-64894749D02*
X207668461Y-67219749D01*
X202041443Y-67666031D02*
X206068461Y-69991031D01*
X206068461Y-69991031D02*
X206468461Y-69298210D01*
X209300944Y-68497076D02*
X212588990Y-71785122D01*
X207038202Y-70759818D02*
X210326248Y-74047864D01*
X210326248Y-74047864D02*
X210891934Y-73482179D01*
X218390000Y-85940000D02*
X218390000Y-90590000D01*
X215190000Y-85940000D02*
X215190000Y-90590000D01*
X215190000Y-90590000D02*
X215990000Y-90590000D01*
X218100044Y-92642434D02*
X216896536Y-97133989D01*
X215009082Y-91814213D02*
X213805573Y-96305769D01*
X213805573Y-96305769D02*
X214578314Y-96512824D01*
X216085251Y-99041443D02*
X213760251Y-103068461D01*
X213313969Y-97441443D02*
X210988969Y-101468461D01*
X210988969Y-101468461D02*
X211681790Y-101868461D01*
X212482924Y-104700944D02*
X209194878Y-107988990D01*
X210220182Y-102438202D02*
X206932136Y-105726248D01*
X206932136Y-105726248D02*
X207497821Y-106291934D01*
X195040000Y-113790000D02*
X190390000Y-113790000D01*
X195040000Y-110590000D02*
X190390000Y-110590000D01*
X190390000Y-110590000D02*
X190390000Y-111390000D01*
X188337566Y-113500044D02*
X183846011Y-112296536D01*
X189165787Y-110409082D02*
X184674231Y-109205573D01*
X184674231Y-109205573D02*
X184467176Y-109978314D01*
X181938557Y-111485251D02*
X177911539Y-109160251D01*
X183538557Y-108713969D02*
X179511539Y-106388969D01*
X179511539Y-106388969D02*
X179111539Y-107081790D01*
X176279056Y-107882924D02*
X172991010Y-104594878D01*
X178541798Y-105620182D02*
X175253752Y-102332136D01*
X175253752Y-102332136D02*
X174688066Y-102897821D01*
X167190000Y-90440000D02*
X167190000Y-85790000D01*
X170390000Y-90440000D02*
X170390000Y-85790000D01*
X170390000Y-85790000D02*
X169590000Y-85790000D01*
X167479956Y-83737566D02*
X168683464Y-79246011D01*
X170570918Y-84565787D02*
X171774427Y-80074231D01*
X171774427Y-80074231D02*
X171001686Y-79867176D01*
X169494749Y-77338557D02*
X171819749Y-73311539D01*
X172266031Y-78938557D02*
X174591031Y-74911539D01*
X174591031Y-74911539D02*
X173898210Y-74511539D01*
X173097076Y-71679056D02*
X176385122Y-68391010D01*
X175359818Y-73941798D02*
X178647864Y-70653752D01*
X178647864Y-70653752D02*
X178082179Y-70088066D01*
X213835251Y-73441443D02*
X216160251Y-77468461D01*
X211063969Y-75041443D02*
X213388969Y-79068461D01*
X213388969Y-79068461D02*
X214081790Y-78668461D01*
X207538557Y-109235251D02*
X203511539Y-111560251D01*
X205938557Y-106463969D02*
X201911539Y-108788969D01*
X201911539Y-108788969D02*
X202311539Y-109481790D01*
X171744749Y-102938557D02*
X169419749Y-98911539D01*
X174516031Y-101338557D02*
X172191031Y-97311539D01*
X172191031Y-97311539D02*
X171498210Y-97711539D01*
X178041443Y-67144749D02*
X182068461Y-64819749D01*
X179641443Y-69916031D02*
X183668461Y-67591031D01*
X183668461Y-67591031D02*
X183268461Y-66898210D01*
X216935358Y-79390899D02*
X218138867Y-83882455D01*
X213844396Y-80219120D02*
X215047904Y-84710675D01*
X215047904Y-84710675D02*
X215820645Y-84503620D01*
X201589101Y-112335358D02*
X197097545Y-113538867D01*
X200760880Y-109244396D02*
X196269325Y-110447904D01*
X196269325Y-110447904D02*
X196476380Y-111220645D01*
X168644642Y-96989101D02*
X167441133Y-92497545D01*
X171735604Y-96160880D02*
X170532096Y-91669325D01*
X170532096Y-91669325D02*
X169759355Y-91876380D01*
X183990899Y-64044642D02*
X188482455Y-62841133D01*
X184819120Y-67135604D02*
X189310675Y-65932096D01*
X189310675Y-65932096D02*
X189103620Y-65159355D01*
X122250000Y-114400000D02*
X117600000Y-114400000D01*
X122250000Y-111200000D02*
X117600000Y-111200000D01*
X117600000Y-111200000D02*
X117600000Y-112000000D01*
X115050000Y-114400000D02*
X110400000Y-114400000D01*
X115050000Y-111200000D02*
X110400000Y-111200000D01*
X110400000Y-111200000D02*
X110400000Y-112000000D01*
X155730000Y-66320000D02*
X155730000Y-61120000D01*
X107410000Y-66320000D02*
X155730000Y-66320000D01*
X104810000Y-61120000D02*
X155730000Y-61120000D01*
X107410000Y-66320000D02*
X107410000Y-63720000D01*
X107410000Y-63720000D02*
X104810000Y-63720000D01*
X104810000Y-63720000D02*
X104810000Y-61120000D01*
X106140000Y-66320000D02*
X104810000Y-66320000D01*
X104810000Y-66320000D02*
X104810000Y-64990000D01*
X99360000Y-98600000D02*
X99360000Y-107300000D01*
X105770000Y-98600000D02*
X105770000Y-107300000D01*
X105770000Y-107300000D02*
X99360000Y-107300000D01*
X100590000Y-107300000D02*
X100590000Y-98600000D01*
X99360000Y-98600000D02*
X105770000Y-98600000D01*
X99200000Y-75550000D02*
X103900000Y-75550000D01*
X103900000Y-75550000D02*
X103900000Y-69450000D01*
X103900000Y-69450000D02*
X99200000Y-69450000D01*
X99200000Y-69450000D02*
X99200000Y-75550000D01*
X99200000Y-73000000D02*
X99800000Y-73000000D01*
X99800000Y-73000000D02*
X99800000Y-74950000D01*
X99800000Y-74950000D02*
X103300000Y-74950000D01*
X103300000Y-74950000D02*
X103300000Y-70050000D01*
X103300000Y-70050000D02*
X99800000Y-70050000D01*
X99800000Y-70050000D02*
X99800000Y-72000000D01*
X99800000Y-72000000D02*
X99200000Y-72000000D01*
X100500000Y-75550000D02*
X100500000Y-74950000D01*
X101800000Y-75550000D02*
X101800000Y-74950000D01*
X100500000Y-69450000D02*
X100500000Y-70050000D01*
X101800000Y-69450000D02*
X101800000Y-70050000D01*
X99200000Y-73800000D02*
X99000000Y-73800000D01*
X99000000Y-73800000D02*
X99000000Y-74100000D01*
X99000000Y-74100000D02*
X99200000Y-74100000D01*
X99100000Y-73800000D02*
X99100000Y-74100000D01*
X103300000Y-72600000D02*
X102800000Y-72600000D01*
X102800000Y-72600000D02*
X102800000Y-72400000D01*
X102800000Y-72400000D02*
X103300000Y-72400000D01*
X103300000Y-72500000D02*
X102800000Y-72500000D01*
X98900000Y-74600000D02*
X98900000Y-75850000D01*
X98900000Y-75850000D02*
X100150000Y-75850000D01*
X160800000Y-105520000D02*
X162800000Y-105520000D01*
X162800000Y-108480000D02*
X160800000Y-108480000D01*
X127810000Y-103900000D02*
X127810000Y-102100000D01*
X124590000Y-102100000D02*
X124590000Y-105050000D01*
X126960000Y-110980000D02*
X126960000Y-110050000D01*
X126960000Y-107820000D02*
X126960000Y-108750000D01*
X126960000Y-107820000D02*
X124800000Y-107820000D01*
X126960000Y-110980000D02*
X125500000Y-110980000D01*
X153100000Y-97120000D02*
X154100000Y-97120000D01*
X154100000Y-98480000D02*
X153100000Y-98480000D01*
X147500000Y-97120000D02*
X148500000Y-97120000D01*
X148500000Y-98480000D02*
X147500000Y-98480000D01*
X130680000Y-90100000D02*
X130680000Y-91100000D01*
X129320000Y-91100000D02*
X129320000Y-90100000D01*
X138700000Y-90120000D02*
X139700000Y-90120000D01*
X139700000Y-91480000D02*
X138700000Y-91480000D01*
X123740000Y-76420000D02*
X122740000Y-76420000D01*
X122740000Y-75060000D02*
X123740000Y-75060000D01*
X108900000Y-98520000D02*
X109900000Y-98520000D01*
X109900000Y-99880000D02*
X108900000Y-99880000D01*
X110900000Y-97480000D02*
X109900000Y-97480000D01*
X109900000Y-96120000D02*
X110900000Y-96120000D01*
X118820000Y-96000000D02*
X118820000Y-95000000D01*
X120180000Y-95000000D02*
X120180000Y-96000000D01*
X113300000Y-93120000D02*
X114300000Y-93120000D01*
X114300000Y-94480000D02*
X113300000Y-94480000D01*
X119700000Y-108680000D02*
X118700000Y-108680000D01*
X118700000Y-107320000D02*
X119700000Y-107320000D01*
X113900000Y-108680000D02*
X112900000Y-108680000D01*
X112900000Y-107320000D02*
X113900000Y-107320000D01*
X122300000Y-96120000D02*
X123300000Y-96120000D01*
X123300000Y-97480000D02*
X122300000Y-97480000D01*
X125700000Y-113120000D02*
X126700000Y-113120000D01*
X126700000Y-114480000D02*
X125700000Y-114480000D01*
D15*
X105699420Y-86100740D02*
X103200060Y-86100740D01*
X103200060Y-86100740D02*
X103200060Y-87500280D01*
X103200060Y-87500280D02*
X105699420Y-87500280D01*
X105699420Y-82699680D02*
X105699420Y-92900320D01*
X105699420Y-92900320D02*
X109900580Y-92900320D01*
X109900580Y-92900320D02*
X109900580Y-82699680D01*
X109900580Y-82699680D02*
X105699420Y-82699680D01*
D14*
X162610000Y-101900000D02*
X162610000Y-100100000D01*
X159390000Y-100100000D02*
X159390000Y-102550000D01*
X154520000Y-76960000D02*
X156280000Y-76960000D01*
X156280000Y-73890000D02*
X153850000Y-73890000D01*
X150080000Y-100240000D02*
X148320000Y-100240000D01*
X148320000Y-103310000D02*
X150750000Y-103310000D01*
X139060000Y-97380000D02*
X139060000Y-95620000D01*
X135990000Y-95620000D02*
X135990000Y-98050000D01*
D16*
X136400000Y-87000000D02*
X136250000Y-87000000D01*
X136250000Y-87000000D02*
X136250000Y-86600000D01*
X136250000Y-86600000D02*
X136350000Y-86600000D01*
X136350000Y-86600000D02*
X136400000Y-86600000D01*
X136050000Y-87300000D02*
X136400000Y-87300000D01*
X136400000Y-87300000D02*
X136400000Y-84700000D01*
X136400000Y-84700000D02*
X132000000Y-84700000D01*
X132000000Y-84700000D02*
X132000000Y-87300000D01*
X132000000Y-87300000D02*
X136050000Y-87300000D01*
X136050000Y-87300000D02*
X136100000Y-87300000D01*
D14*
X118060000Y-81380000D02*
X118060000Y-79620000D01*
X114990000Y-79620000D02*
X114990000Y-82050000D01*
X114940000Y-86870000D02*
X114940000Y-88630000D01*
X118010000Y-88630000D02*
X118010000Y-86200000D01*
D13*
X145400000Y-108450000D02*
X145400000Y-111650000D01*
X145400000Y-111650000D02*
X148700000Y-111650000D01*
X148700000Y-111650000D02*
X148700000Y-108450000D01*
X148700000Y-108450000D02*
X145400000Y-108450000D01*
X114241421Y-101350000D02*
G75*
G03X114241421Y-101350000I-141421J0D01*
G01*
D16*
X113600000Y-100600000D02*
X113600000Y-104600000D01*
X117600000Y-100600000D02*
X117600000Y-104600000D01*
X113600000Y-100600000D02*
X117600000Y-100600000D01*
X113600000Y-104600000D02*
X117600000Y-104600000D01*
D17*
X179890000Y-74190000D02*
G75*
G03X179890000Y-74190000I-1100000J0D01*
G01*
X207890000Y-74190000D02*
G75*
G03X207890000Y-74190000I-1100000J0D01*
G01*
X207890000Y-102190000D02*
G75*
G03X207890000Y-102190000I-1100000J0D01*
G01*
X179890000Y-102190000D02*
G75*
G03X179890000Y-102190000I-1100000J0D01*
G01*
D14*
X163800000Y-110350000D02*
X163800000Y-113650000D01*
X163800000Y-113650000D02*
X170700000Y-113650000D01*
X163800000Y-110350000D02*
X170700000Y-110350000D01*
D12*
X161300000Y-82890000D02*
X160600000Y-82890000D01*
X150700000Y-82890000D02*
X151400000Y-82890000D01*
X150700000Y-93490000D02*
X151400000Y-93490000D01*
X161300000Y-93490000D02*
X160600000Y-93490000D01*
X161300000Y-82890000D02*
X161300000Y-83590000D01*
X161300000Y-93490000D02*
X161300000Y-92790000D01*
X150700000Y-93490000D02*
X150700000Y-92790000D01*
X150700000Y-82890000D02*
X150700000Y-83590000D01*
D18*
G36*
X133088700Y-69792200D02*
X135527100Y-69792200D01*
X135527100Y-67404600D01*
X135743000Y-67404600D01*
X135743000Y-68598400D01*
X135743108Y-68770143D01*
X135743422Y-68934487D01*
X135743927Y-69089680D01*
X135744607Y-69233968D01*
X135745447Y-69365596D01*
X135746433Y-69482811D01*
X135747548Y-69583860D01*
X135748777Y-69666988D01*
X135750106Y-69730442D01*
X135751518Y-69772468D01*
X135752999Y-69791313D01*
X135753401Y-69792199D01*
X135757898Y-69780143D01*
X135767346Y-69745365D01*
X135781254Y-69689954D01*
X135799128Y-69616000D01*
X135820477Y-69525592D01*
X135844808Y-69420817D01*
X135871630Y-69303765D01*
X135900450Y-69176524D01*
X135930776Y-69041184D01*
X135938169Y-69007974D01*
X135968863Y-68870219D01*
X135998129Y-68739430D01*
X136025474Y-68617779D01*
X136050402Y-68507440D01*
X136072421Y-68410584D01*
X136091035Y-68329384D01*
X136105750Y-68266014D01*
X136116073Y-68222645D01*
X136121508Y-68201451D01*
X136121980Y-68200026D01*
X136127372Y-68205786D01*
X136139046Y-68234608D01*
X136157061Y-68286685D01*
X136181480Y-68362209D01*
X136212361Y-68461374D01*
X136249767Y-68584372D01*
X136293757Y-68731397D01*
X136344391Y-68902640D01*
X136367433Y-68981076D01*
X136603443Y-69785850D01*
X137392421Y-69789121D01*
X138181400Y-69792392D01*
X138181400Y-67404600D01*
X138397300Y-67404600D01*
X138397300Y-69792200D01*
X140823000Y-69792200D01*
X140823000Y-67404600D01*
X141038900Y-67404600D01*
X141038900Y-69792200D01*
X143477300Y-69792200D01*
X143477300Y-67404600D01*
X143693200Y-67404600D01*
X143693200Y-69792200D01*
X145991900Y-69792200D01*
X145991900Y-70008100D01*
X143693200Y-70008100D01*
X143693200Y-71138332D01*
X143693199Y-72268564D01*
X144839375Y-72271807D01*
X145985550Y-72275050D01*
X145989238Y-72379825D01*
X145992927Y-72484600D01*
X143693200Y-72484600D01*
X143693200Y-74113651D01*
X143881380Y-74107610D01*
X144069561Y-74101570D01*
X144141000Y-74043382D01*
X144231166Y-73981319D01*
X144333061Y-73930058D01*
X144435338Y-73895240D01*
X144442500Y-73893498D01*
X144522018Y-73881531D01*
X144613992Y-73878317D01*
X144707100Y-73883680D01*
X144790021Y-73897442D01*
X144796520Y-73899066D01*
X144917509Y-73942764D01*
X145028019Y-74007030D01*
X145125929Y-74088939D01*
X145209121Y-74185564D01*
X145275476Y-74293980D01*
X145322874Y-74411261D01*
X145349195Y-74534482D01*
X145352322Y-74660716D01*
X145351932Y-74665824D01*
X145344523Y-74757899D01*
X145668211Y-74757899D01*
X145991900Y-74757900D01*
X145991900Y-74973800D01*
X145261076Y-74973800D01*
X145237371Y-75017816D01*
X145217755Y-75046063D01*
X145184980Y-75085008D01*
X145144630Y-75128207D01*
X145123358Y-75149388D01*
X145016845Y-75237090D01*
X144902528Y-75300764D01*
X144779163Y-75340924D01*
X144645506Y-75358079D01*
X144613950Y-75358821D01*
X144477346Y-75347574D01*
X144347996Y-75312852D01*
X144228403Y-75255495D01*
X144154084Y-75204115D01*
X144092656Y-75155559D01*
X143892928Y-75161629D01*
X143693200Y-75167700D01*
X143693200Y-77247100D01*
X145991900Y-77247100D01*
X145991900Y-77463000D01*
X143693200Y-77463000D01*
X143693200Y-79736300D01*
X145992927Y-79736300D01*
X145989238Y-79841075D01*
X145985550Y-79945850D01*
X144839375Y-79949092D01*
X143693200Y-79952335D01*
X143693200Y-80282400D01*
X145547400Y-80282400D01*
X145547400Y-81234900D01*
X143693200Y-81234900D01*
X143693200Y-82631900D01*
X143477300Y-82631900D01*
X143477300Y-81234900D01*
X142461300Y-81234900D01*
X142461300Y-79951887D01*
X141995923Y-79955218D01*
X141530546Y-79958550D01*
X141508533Y-80066500D01*
X141466881Y-80219113D01*
X141405825Y-80370113D01*
X141351514Y-80472900D01*
X141310992Y-80535483D01*
X141261101Y-80603279D01*
X141206814Y-80670288D01*
X141153104Y-80730513D01*
X141104945Y-80777957D01*
X141084344Y-80795130D01*
X141038900Y-80829792D01*
X141038900Y-82632927D01*
X140934125Y-82629238D01*
X140829350Y-82625550D01*
X140826081Y-81809506D01*
X140822813Y-80993462D01*
X140693992Y-81058107D01*
X140507247Y-81139744D01*
X140304229Y-81206129D01*
X140089974Y-81255836D01*
X139893225Y-81284966D01*
X139760413Y-81295152D01*
X139610130Y-81299388D01*
X139449399Y-81297969D01*
X139285238Y-81291192D01*
X139124669Y-81279353D01*
X138974713Y-81262748D01*
X138842389Y-81241674D01*
X138835450Y-81240330D01*
X138784718Y-81229756D01*
X138722313Y-81215797D01*
X138653816Y-81199810D01*
X138584806Y-81183155D01*
X138520864Y-81167191D01*
X138467569Y-81153274D01*
X138430501Y-81142765D01*
X138419254Y-81139007D01*
X138414662Y-81138413D01*
X138410757Y-81141683D01*
X138407483Y-81150686D01*
X138404786Y-81167297D01*
X138402609Y-81193385D01*
X138400898Y-81230822D01*
X138399597Y-81281481D01*
X138398651Y-81347233D01*
X138398004Y-81429949D01*
X138397602Y-81531501D01*
X138397388Y-81653761D01*
X138397307Y-81798601D01*
X138397300Y-81881241D01*
X138397300Y-82631900D01*
X138181592Y-82631900D01*
X138175050Y-81054260D01*
X138079800Y-81016687D01*
X138033471Y-80997354D01*
X137971400Y-80969963D01*
X137900622Y-80937691D01*
X137828173Y-80903718D01*
X137803575Y-80891941D01*
X137622600Y-80804768D01*
X137622600Y-79960403D01*
X138095015Y-79960403D01*
X138110502Y-79973373D01*
X138127425Y-79983035D01*
X138159625Y-79998670D01*
X138175815Y-79999739D01*
X138181145Y-79985724D01*
X138181400Y-79977600D01*
X138176427Y-79960093D01*
X138157016Y-79953030D01*
X138136950Y-79952200D01*
X138396139Y-79952200D01*
X138399894Y-80037072D01*
X138403650Y-80121944D01*
X138524300Y-80171082D01*
X138728436Y-80242667D01*
X138948221Y-80298025D01*
X139178823Y-80335960D01*
X139197400Y-80338183D01*
X139249578Y-80341745D01*
X139319310Y-80342962D01*
X139400525Y-80342087D01*
X139487150Y-80339370D01*
X139573113Y-80335063D01*
X139652344Y-80329417D01*
X139718769Y-80322684D01*
X139766319Y-80315114D01*
X139768900Y-80314532D01*
X139865266Y-80286090D01*
X139955979Y-80247977D01*
X140033103Y-80203787D01*
X140063367Y-80181139D01*
X140099514Y-80141577D01*
X140135513Y-80086264D01*
X140165994Y-80024307D01*
X140181489Y-79980775D01*
X140189711Y-79952200D01*
X138396139Y-79952200D01*
X138136950Y-79952200D01*
X138103645Y-79953949D01*
X138095015Y-79960403D01*
X137622600Y-79960403D01*
X137622600Y-79952200D01*
X136365300Y-79952200D01*
X136365300Y-81234900D01*
X135743000Y-81234900D01*
X135743000Y-82631900D01*
X135527100Y-82631900D01*
X135527100Y-81234900D01*
X135184200Y-81234900D01*
X135184200Y-79952200D01*
X133152200Y-79952200D01*
X133152200Y-81234900D01*
X133088700Y-81234900D01*
X133088700Y-82631900D01*
X132989216Y-82631900D01*
X132941165Y-82630887D01*
X132903444Y-82628203D01*
X132882836Y-82624380D01*
X132881266Y-82623433D01*
X132879672Y-82609490D01*
X132878176Y-82572492D01*
X132876806Y-82514784D01*
X132875591Y-82438709D01*
X132874559Y-82346612D01*
X132873739Y-82240838D01*
X132873159Y-82123732D01*
X132872846Y-81997638D01*
X132872800Y-81924933D01*
X132872800Y-81234900D01*
X131971100Y-81234900D01*
X131971100Y-79952451D01*
X131377375Y-79949150D01*
X130783650Y-79945850D01*
X130779963Y-79841200D01*
X130776276Y-79736551D01*
X131370513Y-79733250D01*
X131964750Y-79729950D01*
X131966439Y-79139400D01*
X133152200Y-79139400D01*
X133152200Y-79736452D01*
X135177850Y-79729950D01*
X135184668Y-79139400D01*
X133152200Y-79139400D01*
X131966439Y-79139400D01*
X131971236Y-77463000D01*
X133152200Y-77463000D01*
X133152200Y-78123400D01*
X135184200Y-78123400D01*
X135184200Y-77463000D01*
X136365300Y-77463000D01*
X136365300Y-79736300D01*
X136993950Y-79736300D01*
X137136374Y-79736278D01*
X137255483Y-79736159D01*
X137353358Y-79735857D01*
X137432086Y-79735288D01*
X137493748Y-79734368D01*
X137540429Y-79733013D01*
X137574212Y-79731139D01*
X137597182Y-79728661D01*
X137611422Y-79725495D01*
X137619016Y-79721557D01*
X137622047Y-79716764D01*
X137622599Y-79711029D01*
X137622600Y-79710900D01*
X137625675Y-79691267D01*
X137637798Y-79687750D01*
X137663312Y-79700350D01*
X137679750Y-79710900D01*
X137695479Y-79719939D01*
X137713996Y-79726540D01*
X137739337Y-79731080D01*
X137775538Y-79733938D01*
X137826634Y-79735493D01*
X137896664Y-79736124D01*
X137949625Y-79736216D01*
X138181400Y-79736300D01*
X138181325Y-79291800D01*
X138397300Y-79291800D01*
X138397300Y-79736300D01*
X140163252Y-79736300D01*
X140142517Y-79696203D01*
X140106305Y-79642450D01*
X140053394Y-79584749D01*
X139990313Y-79529424D01*
X139923593Y-79482802D01*
X139919939Y-79480611D01*
X139853203Y-79443618D01*
X139773355Y-79404398D01*
X139678114Y-79361972D01*
X139565198Y-79315361D01*
X139432324Y-79263588D01*
X139286300Y-79209014D01*
X139117832Y-79146474D01*
X138970903Y-79090632D01*
X138842867Y-79040426D01*
X138731075Y-78994799D01*
X138632881Y-78952689D01*
X138545637Y-78913038D01*
X138538705Y-78909777D01*
X138486109Y-78885139D01*
X138442593Y-78865081D01*
X138412882Y-78851757D01*
X138401776Y-78847300D01*
X138400735Y-78859520D01*
X138399779Y-78894267D01*
X138398939Y-78948666D01*
X138398241Y-79019843D01*
X138397717Y-79104924D01*
X138397394Y-79201034D01*
X138397300Y-79291800D01*
X138181325Y-79291800D01*
X138181226Y-78713950D01*
X138134356Y-78682200D01*
X138088091Y-78646611D01*
X138031060Y-78596322D01*
X137968393Y-78536445D01*
X137905219Y-78472090D01*
X137846670Y-78408368D01*
X137797875Y-78350389D01*
X137786447Y-78335599D01*
X137690344Y-78187690D01*
X137614478Y-78027352D01*
X137560181Y-77858532D01*
X137528786Y-77685179D01*
X137521051Y-77548725D01*
X137521000Y-77463000D01*
X138890974Y-77463000D01*
X138920362Y-77515420D01*
X138946396Y-77552973D01*
X138983046Y-77595390D01*
X139011879Y-77623758D01*
X139051199Y-77656637D01*
X139095738Y-77688547D01*
X139147792Y-77720579D01*
X139209656Y-77753823D01*
X139283625Y-77789371D01*
X139371995Y-77828312D01*
X139477060Y-77871738D01*
X139601115Y-77920739D01*
X139746456Y-77976406D01*
X139782897Y-77990177D01*
X139944723Y-78052211D01*
X140099556Y-78113532D01*
X140245122Y-78173146D01*
X140379148Y-78230058D01*
X140499360Y-78283271D01*
X140603485Y-78331791D01*
X140689249Y-78374623D01*
X140754378Y-78410771D01*
X140778550Y-78426064D01*
X140804360Y-78443160D01*
X140818982Y-78452276D01*
X140819825Y-78452671D01*
X140820525Y-78440635D01*
X140821173Y-78405914D01*
X140821749Y-78351226D01*
X140822236Y-78279284D01*
X140822618Y-78192807D01*
X140822877Y-78094508D01*
X140822994Y-77987104D01*
X140823000Y-77958300D01*
X140823000Y-77463000D01*
X141038900Y-77463000D01*
X141038900Y-78613545D01*
X141091268Y-78663747D01*
X141143504Y-78717464D01*
X141200904Y-78782464D01*
X141258475Y-78852526D01*
X141311218Y-78921429D01*
X141354139Y-78982953D01*
X141374877Y-79016883D01*
X141443200Y-79161405D01*
X141494005Y-79320021D01*
X141527882Y-79494870D01*
X141541150Y-79618825D01*
X141550176Y-79736300D01*
X142461300Y-79736300D01*
X142461300Y-77463000D01*
X141038900Y-77463000D01*
X140823000Y-77463000D01*
X138890974Y-77463000D01*
X137521000Y-77463000D01*
X136365300Y-77463000D01*
X135184200Y-77463000D01*
X133152200Y-77463000D01*
X131971236Y-77463000D01*
X130777300Y-77463000D01*
X130777300Y-77247100D01*
X131971100Y-77247100D01*
X131971100Y-76040600D01*
X132872800Y-76040600D01*
X133088310Y-76040600D01*
X133152200Y-76040600D01*
X133152200Y-77247100D01*
X135184200Y-77247100D01*
X135184200Y-76040600D01*
X135527100Y-76040600D01*
X135743000Y-76040600D01*
X136365300Y-76040600D01*
X136365300Y-77247100D01*
X137530568Y-77247100D01*
X137533079Y-77236305D01*
X138892600Y-77236305D01*
X138904975Y-77238027D01*
X138940800Y-77239665D01*
X138998127Y-77241196D01*
X139075005Y-77242598D01*
X139169485Y-77243851D01*
X139279617Y-77244931D01*
X139403453Y-77245818D01*
X139539043Y-77246489D01*
X139684437Y-77246922D01*
X139837685Y-77247097D01*
X139858683Y-77247100D01*
X140824766Y-77247100D01*
X140820708Y-77219588D01*
X140815158Y-77206385D01*
X140800098Y-77193691D01*
X140771667Y-77179527D01*
X140726003Y-77161916D01*
X140670600Y-77142708D01*
X140462968Y-77076064D01*
X140272803Y-77022563D01*
X140096471Y-76981204D01*
X140049336Y-76971712D01*
X139940319Y-76954521D01*
X139821553Y-76942608D01*
X139699129Y-76936076D01*
X139579140Y-76935024D01*
X139467677Y-76939553D01*
X139370833Y-76949764D01*
X139318050Y-76959626D01*
X139229124Y-76984863D01*
X139142366Y-77017624D01*
X139065661Y-77054573D01*
X139010083Y-77089904D01*
X138981202Y-77115917D01*
X138949763Y-77150157D01*
X138921018Y-77186079D01*
X138900218Y-77217141D01*
X138892600Y-77236305D01*
X137533079Y-77236305D01*
X137557898Y-77129625D01*
X137588800Y-77025637D01*
X137633351Y-76914217D01*
X137686921Y-76805570D01*
X137744883Y-76709904D01*
X137754397Y-76696285D01*
X137797729Y-76641975D01*
X137855239Y-76578768D01*
X137921001Y-76512422D01*
X137989083Y-76448693D01*
X138053557Y-76393338D01*
X138108493Y-76352113D01*
X138109701Y-76351308D01*
X138181400Y-76303703D01*
X138181400Y-75426787D01*
X137989539Y-75705118D01*
X137926442Y-75796680D01*
X137857237Y-75897148D01*
X137786579Y-75999764D01*
X137719118Y-76097771D01*
X137659510Y-76184412D01*
X137638320Y-76215225D01*
X137591729Y-76282462D01*
X137549754Y-76342036D01*
X137514562Y-76390954D01*
X137488320Y-76426222D01*
X137473196Y-76444846D01*
X137470573Y-76447000D01*
X137465592Y-76435157D01*
X137454146Y-76401035D01*
X137436879Y-76346736D01*
X137414434Y-76274365D01*
X137387454Y-76186028D01*
X137356581Y-76083829D01*
X137322458Y-75969873D01*
X137285729Y-75846264D01*
X137247035Y-75715107D01*
X137246584Y-75713575D01*
X137069542Y-75111319D01*
X138397300Y-75111319D01*
X138397300Y-75647168D01*
X138397349Y-75777895D01*
X138397558Y-75885422D01*
X138398020Y-75971950D01*
X138398828Y-76039679D01*
X138400075Y-76090810D01*
X138401854Y-76127543D01*
X138404257Y-76152078D01*
X138407378Y-76166616D01*
X138411310Y-76173358D01*
X138416145Y-76174503D01*
X138419525Y-76173417D01*
X138530123Y-76130962D01*
X138658721Y-76090476D01*
X138797917Y-76053816D01*
X138940312Y-76022835D01*
X139078504Y-75999390D01*
X139149274Y-75990462D01*
X139220747Y-75984791D01*
X139311198Y-75980749D01*
X139414258Y-75978337D01*
X139523556Y-75977555D01*
X139632724Y-75978402D01*
X139735392Y-75980880D01*
X139825191Y-75984988D01*
X139893225Y-75990449D01*
X140026853Y-76007666D01*
X140170342Y-76031024D01*
X140317743Y-76059228D01*
X140463104Y-76090986D01*
X140600474Y-76125004D01*
X140723902Y-76159988D01*
X140819825Y-76191841D01*
X140820530Y-76179861D01*
X140821180Y-76145213D01*
X140821759Y-76090629D01*
X140822248Y-76018839D01*
X140822629Y-75932575D01*
X140822884Y-75834570D01*
X140822996Y-75727554D01*
X140823000Y-75704050D01*
X140823000Y-75217894D01*
X141038900Y-75217894D01*
X141038900Y-76266442D01*
X141092875Y-76287420D01*
X141134362Y-76303900D01*
X141186332Y-76325019D01*
X141226225Y-76341504D01*
X141305600Y-76374610D01*
X141305600Y-77247100D01*
X142461300Y-77247100D01*
X142461300Y-76040600D01*
X143477300Y-76040600D01*
X143477300Y-75163275D01*
X143283625Y-75170337D01*
X143235031Y-75171843D01*
X143164024Y-75173666D01*
X143073588Y-75175748D01*
X142966705Y-75178026D01*
X142846359Y-75180442D01*
X142715535Y-75182934D01*
X142577216Y-75185443D01*
X142434385Y-75187908D01*
X142321600Y-75189764D01*
X142174802Y-75192191D01*
X142028194Y-75194737D01*
X141885051Y-75197337D01*
X141748649Y-75199927D01*
X141622263Y-75202441D01*
X141509169Y-75204814D01*
X141412644Y-75206984D01*
X141335962Y-75208884D01*
X141296075Y-75210012D01*
X141038900Y-75217894D01*
X140823000Y-75217894D01*
X140823000Y-75215100D01*
X140633405Y-75215100D01*
X140461885Y-74973800D01*
X139477217Y-74973950D01*
X138492550Y-74974100D01*
X138444925Y-75042710D01*
X138397300Y-75111319D01*
X137069542Y-75111319D01*
X137030982Y-74980150D01*
X136386991Y-74976858D01*
X135743000Y-74973567D01*
X135743000Y-76040600D01*
X135527100Y-76040600D01*
X135527100Y-75282247D01*
X135047675Y-75287987D01*
X134939094Y-75289277D01*
X134809774Y-75290797D01*
X134664373Y-75292493D01*
X134507549Y-75294310D01*
X134343961Y-75296197D01*
X134178267Y-75298097D01*
X134015127Y-75299959D01*
X133859197Y-75301727D01*
X133831650Y-75302038D01*
X133095050Y-75310350D01*
X133088310Y-76040600D01*
X132872800Y-76040600D01*
X132872800Y-75316700D01*
X131945700Y-75316700D01*
X131945700Y-74973800D01*
X130777300Y-74973800D01*
X130777300Y-74757900D01*
X131948273Y-74757900D01*
X131947810Y-74732500D01*
X135743000Y-74732500D01*
X135743534Y-74738336D01*
X135746547Y-74743202D01*
X135754155Y-74747186D01*
X135768474Y-74750376D01*
X135791620Y-74752860D01*
X135825710Y-74754727D01*
X135872858Y-74756065D01*
X135935182Y-74756962D01*
X136014797Y-74757505D01*
X136113818Y-74757784D01*
X136234364Y-74757886D01*
X136352600Y-74757900D01*
X136474320Y-74757761D01*
X136587941Y-74757366D01*
X136691010Y-74756740D01*
X136781072Y-74755912D01*
X136855673Y-74754908D01*
X136912358Y-74753758D01*
X136948675Y-74752487D01*
X136959346Y-74751409D01*
X138651300Y-74751409D01*
X138663648Y-74752526D01*
X138699289Y-74753583D01*
X138756115Y-74754563D01*
X138832018Y-74755448D01*
X138924891Y-74756223D01*
X139032626Y-74756870D01*
X139153115Y-74757375D01*
X139284250Y-74757719D01*
X139423926Y-74757886D01*
X139477858Y-74757900D01*
X139620040Y-74757747D01*
X139754360Y-74757307D01*
X139878726Y-74756605D01*
X139991045Y-74755668D01*
X140089223Y-74754522D01*
X140171166Y-74753192D01*
X140234783Y-74751704D01*
X140277979Y-74750085D01*
X140298661Y-74748360D01*
X140300183Y-74747684D01*
X140290699Y-74732066D01*
X140268275Y-74698669D01*
X140234522Y-74649738D01*
X140191049Y-74587521D01*
X140139466Y-74514265D01*
X140081383Y-74432215D01*
X140018410Y-74343619D01*
X139952157Y-74250723D01*
X139884233Y-74155774D01*
X139816249Y-74061019D01*
X139749815Y-73968704D01*
X139746912Y-73964683D01*
X141038697Y-73964683D01*
X141109724Y-74063172D01*
X141180752Y-74161662D01*
X141309851Y-74154989D01*
X141344914Y-74153644D01*
X141402856Y-74152000D01*
X141481159Y-74150105D01*
X141577305Y-74148011D01*
X141688775Y-74145767D01*
X141813051Y-74143423D01*
X141947615Y-74141029D01*
X142089947Y-74138636D01*
X142237531Y-74136294D01*
X142289850Y-74135497D01*
X142440053Y-74133158D01*
X142586946Y-74130726D01*
X142727867Y-74128254D01*
X142860154Y-74125794D01*
X142981147Y-74123401D01*
X143088184Y-74121128D01*
X143178604Y-74119026D01*
X143249747Y-74117151D01*
X143298950Y-74115554D01*
X143309025Y-74115138D01*
X143477300Y-74107597D01*
X143477300Y-72484472D01*
X141045250Y-72490950D01*
X141041973Y-73227816D01*
X141038697Y-73964683D01*
X139746912Y-73964683D01*
X139686540Y-73881075D01*
X139628034Y-73800380D01*
X139575907Y-73728866D01*
X139531769Y-73668778D01*
X139497230Y-73622364D01*
X139473900Y-73591869D01*
X139463388Y-73579542D01*
X139463023Y-73579396D01*
X139454295Y-73590114D01*
X139432800Y-73619485D01*
X139400129Y-73665211D01*
X139357875Y-73724994D01*
X139307630Y-73796535D01*
X139250984Y-73877536D01*
X139189531Y-73965698D01*
X139124862Y-74058724D01*
X139058569Y-74154313D01*
X138992243Y-74250170D01*
X138927477Y-74343993D01*
X138865863Y-74433487D01*
X138808992Y-74516351D01*
X138758455Y-74590288D01*
X138715846Y-74652999D01*
X138682756Y-74702186D01*
X138660776Y-74735550D01*
X138651499Y-74750793D01*
X138651300Y-74751409D01*
X136959346Y-74751409D01*
X136962168Y-74751124D01*
X136962200Y-74751054D01*
X136958697Y-74738143D01*
X136948524Y-74702578D01*
X136932179Y-74646071D01*
X136910164Y-74570335D01*
X136882978Y-74477082D01*
X136851122Y-74368025D01*
X136815097Y-74244875D01*
X136775401Y-74109346D01*
X136732537Y-73963149D01*
X136687003Y-73807998D01*
X136639300Y-73645605D01*
X136632000Y-73620763D01*
X136584017Y-73457445D01*
X136538129Y-73301121D01*
X136494834Y-73153504D01*
X136454633Y-73016305D01*
X136418027Y-72891235D01*
X136385515Y-72780006D01*
X136357598Y-72684329D01*
X136334776Y-72605916D01*
X136317548Y-72546478D01*
X136306417Y-72507727D01*
X136304669Y-72501426D01*
X137406700Y-72501426D01*
X137410152Y-72515518D01*
X137420013Y-72551408D01*
X137435533Y-72606525D01*
X137455967Y-72678296D01*
X137480565Y-72764147D01*
X137508582Y-72861507D01*
X137539270Y-72967802D01*
X137571880Y-73080460D01*
X137605667Y-73196908D01*
X137639882Y-73314574D01*
X137673779Y-73430884D01*
X137706609Y-73543267D01*
X137737626Y-73649150D01*
X137766082Y-73745960D01*
X137791230Y-73831124D01*
X137812321Y-73902070D01*
X137828610Y-73956225D01*
X137839349Y-73991016D01*
X137840270Y-73993894D01*
X137851624Y-74018932D01*
X137862284Y-74026802D01*
X137864061Y-74025644D01*
X137874012Y-74012404D01*
X137896077Y-73981472D01*
X137927985Y-73936085D01*
X137967460Y-73879483D01*
X138012230Y-73814903D01*
X138027568Y-73792700D01*
X138180955Y-73570450D01*
X138181177Y-73027525D01*
X138181400Y-72484600D01*
X138397300Y-72484600D01*
X138397300Y-72868140D01*
X138397635Y-72963212D01*
X138398586Y-73048920D01*
X138400068Y-73122299D01*
X138401994Y-73180383D01*
X138404281Y-73220207D01*
X138406842Y-73238805D01*
X138407946Y-73239615D01*
X138417408Y-73226632D01*
X138439497Y-73195177D01*
X138472491Y-73147737D01*
X138514668Y-73086800D01*
X138564306Y-73014852D01*
X138619683Y-72934380D01*
X138668296Y-72863589D01*
X138726665Y-72778303D01*
X138780191Y-72699691D01*
X138827236Y-72630192D01*
X138866160Y-72572244D01*
X138895323Y-72528286D01*
X138913087Y-72500756D01*
X138918000Y-72492114D01*
X138911774Y-72490950D01*
X139998178Y-72490950D01*
X140407414Y-73069912D01*
X140816650Y-73648875D01*
X140819954Y-73071100D01*
X140820535Y-72952501D01*
X140820889Y-72841903D01*
X140821022Y-72741854D01*
X140820938Y-72654901D01*
X140820644Y-72583590D01*
X140820145Y-72530470D01*
X140819446Y-72498088D01*
X140818717Y-72488784D01*
X140805386Y-72487782D01*
X140769701Y-72487062D01*
X140714705Y-72486631D01*
X140643444Y-72486499D01*
X140558961Y-72486674D01*
X140464301Y-72487165D01*
X140406177Y-72487596D01*
X139998178Y-72490950D01*
X138911774Y-72490950D01*
X138905926Y-72489857D01*
X138872207Y-72487871D01*
X138820600Y-72486264D01*
X138754859Y-72485146D01*
X138678739Y-72484624D01*
X138657650Y-72484600D01*
X138397300Y-72484600D01*
X138181400Y-72484600D01*
X137794050Y-72484600D01*
X137681315Y-72484788D01*
X137591648Y-72485421D01*
X137522719Y-72486599D01*
X137472198Y-72488423D01*
X137437755Y-72490996D01*
X137417061Y-72494418D01*
X137407784Y-72498789D01*
X137406700Y-72501426D01*
X136304669Y-72501426D01*
X136301880Y-72491374D01*
X136301800Y-72490959D01*
X136290902Y-72486173D01*
X136270050Y-72484600D01*
X136246154Y-72486445D01*
X136238300Y-72489976D01*
X136235587Y-72502883D01*
X136227712Y-72538806D01*
X136215069Y-72595979D01*
X136198051Y-72672634D01*
X136177053Y-72767003D01*
X136152468Y-72877318D01*
X136124690Y-73001811D01*
X136094114Y-73138716D01*
X136061133Y-73286263D01*
X136026141Y-73442686D01*
X135990650Y-73601226D01*
X135954015Y-73765098D01*
X135919015Y-73922196D01*
X135886048Y-74070712D01*
X135855509Y-74208835D01*
X135827794Y-74334755D01*
X135803300Y-74446663D01*
X135782423Y-74542748D01*
X135765559Y-74621200D01*
X135753104Y-74680210D01*
X135745454Y-74717968D01*
X135743000Y-74732500D01*
X131947810Y-74732500D01*
X131943811Y-74513425D01*
X131939350Y-74268950D01*
X132406075Y-74265618D01*
X132872800Y-74262287D01*
X132872800Y-74249900D01*
X133088526Y-74249900D01*
X133574388Y-74248177D01*
X133702927Y-74247526D01*
X133840662Y-74246481D01*
X133981389Y-74245114D01*
X134118906Y-74243495D01*
X134247012Y-74241694D01*
X134359504Y-74239781D01*
X134414957Y-74238652D01*
X134769665Y-74230850D01*
X134957459Y-73392650D01*
X134989452Y-73249851D01*
X135019955Y-73113698D01*
X135048489Y-72986322D01*
X135074579Y-72869855D01*
X135097747Y-72766428D01*
X135117515Y-72678172D01*
X135133405Y-72607219D01*
X135144941Y-72555699D01*
X135151646Y-72525744D01*
X135153052Y-72519450D01*
X135160851Y-72484450D01*
X134127950Y-72487700D01*
X133095050Y-72490950D01*
X133088526Y-74249900D01*
X132872800Y-74249900D01*
X132872800Y-72484600D01*
X131824536Y-72484599D01*
X130776272Y-72484599D01*
X130779961Y-72379824D01*
X130783650Y-72275050D01*
X132872800Y-72268552D01*
X132872800Y-70008100D01*
X133088700Y-70008100D01*
X133088700Y-72268700D01*
X135209116Y-72268700D01*
X135215880Y-72240125D01*
X135219860Y-72222626D01*
X135228843Y-72182702D01*
X135242302Y-72122717D01*
X135259705Y-72045036D01*
X135280525Y-71952023D01*
X135304231Y-71846043D01*
X135330294Y-71729460D01*
X135358185Y-71604639D01*
X135374872Y-71529934D01*
X135527099Y-70848319D01*
X135527099Y-70428209D01*
X135527099Y-70027410D01*
X136674833Y-70027410D01*
X136675384Y-70030325D01*
X136679847Y-70045308D01*
X136690830Y-70082520D01*
X136707705Y-70139817D01*
X136729841Y-70215054D01*
X136756609Y-70306088D01*
X136787379Y-70410775D01*
X136821522Y-70526970D01*
X136858409Y-70652530D01*
X136897410Y-70785310D01*
X136937895Y-70923166D01*
X136979235Y-71063954D01*
X137020800Y-71205531D01*
X137061961Y-71345752D01*
X137102088Y-71482473D01*
X137140553Y-71613549D01*
X137176724Y-71736838D01*
X137209974Y-71850194D01*
X137239672Y-71951475D01*
X137265188Y-72038534D01*
X137285894Y-72109230D01*
X137301160Y-72161417D01*
X137310355Y-72192952D01*
X137311145Y-72195675D01*
X137332302Y-72268700D01*
X138181400Y-72268700D01*
X138181400Y-70008100D01*
X138397300Y-70008100D01*
X138397300Y-72268700D01*
X139077909Y-72268700D01*
X139265812Y-71994965D01*
X139453715Y-71721231D01*
X139646232Y-71994492D01*
X139838750Y-72267753D01*
X140330875Y-72268226D01*
X140823000Y-72268700D01*
X140823000Y-70008100D01*
X141038900Y-70008100D01*
X141038900Y-72268700D01*
X143477300Y-72268700D01*
X143477300Y-70008100D01*
X141038900Y-70008100D01*
X140823000Y-70008100D01*
X138397300Y-70008100D01*
X138181400Y-70008100D01*
X137424894Y-70008100D01*
X137267266Y-70008132D01*
X137133169Y-70008266D01*
X137020730Y-70008558D01*
X136928081Y-70009062D01*
X136853349Y-70009834D01*
X136794666Y-70010931D01*
X136750160Y-70012406D01*
X136717962Y-70014316D01*
X136696200Y-70016716D01*
X136683005Y-70019661D01*
X136676506Y-70023208D01*
X136674833Y-70027410D01*
X135527099Y-70027410D01*
X135527100Y-70008100D01*
X133088700Y-70008100D01*
X132872800Y-70008100D01*
X130777300Y-70008100D01*
X130777300Y-69792200D01*
X132872800Y-69792200D01*
X132872800Y-67404600D01*
X133088700Y-67404600D01*
X133088700Y-69792200D01*
X133088700Y-69792200D01*
G37*
X133088700Y-69792200D02*
X135527100Y-69792200D01*
X135527100Y-67404600D01*
X135743000Y-67404600D01*
X135743000Y-68598400D01*
X135743108Y-68770143D01*
X135743422Y-68934487D01*
X135743927Y-69089680D01*
X135744607Y-69233968D01*
X135745447Y-69365596D01*
X135746433Y-69482811D01*
X135747548Y-69583860D01*
X135748777Y-69666988D01*
X135750106Y-69730442D01*
X135751518Y-69772468D01*
X135752999Y-69791313D01*
X135753401Y-69792199D01*
X135757898Y-69780143D01*
X135767346Y-69745365D01*
X135781254Y-69689954D01*
X135799128Y-69616000D01*
X135820477Y-69525592D01*
X135844808Y-69420817D01*
X135871630Y-69303765D01*
X135900450Y-69176524D01*
X135930776Y-69041184D01*
X135938169Y-69007974D01*
X135968863Y-68870219D01*
X135998129Y-68739430D01*
X136025474Y-68617779D01*
X136050402Y-68507440D01*
X136072421Y-68410584D01*
X136091035Y-68329384D01*
X136105750Y-68266014D01*
X136116073Y-68222645D01*
X136121508Y-68201451D01*
X136121980Y-68200026D01*
X136127372Y-68205786D01*
X136139046Y-68234608D01*
X136157061Y-68286685D01*
X136181480Y-68362209D01*
X136212361Y-68461374D01*
X136249767Y-68584372D01*
X136293757Y-68731397D01*
X136344391Y-68902640D01*
X136367433Y-68981076D01*
X136603443Y-69785850D01*
X137392421Y-69789121D01*
X138181400Y-69792392D01*
X138181400Y-67404600D01*
X138397300Y-67404600D01*
X138397300Y-69792200D01*
X140823000Y-69792200D01*
X140823000Y-67404600D01*
X141038900Y-67404600D01*
X141038900Y-69792200D01*
X143477300Y-69792200D01*
X143477300Y-67404600D01*
X143693200Y-67404600D01*
X143693200Y-69792200D01*
X145991900Y-69792200D01*
X145991900Y-70008100D01*
X143693200Y-70008100D01*
X143693200Y-71138332D01*
X143693199Y-72268564D01*
X144839375Y-72271807D01*
X145985550Y-72275050D01*
X145989238Y-72379825D01*
X145992927Y-72484600D01*
X143693200Y-72484600D01*
X143693200Y-74113651D01*
X143881380Y-74107610D01*
X144069561Y-74101570D01*
X144141000Y-74043382D01*
X144231166Y-73981319D01*
X144333061Y-73930058D01*
X144435338Y-73895240D01*
X144442500Y-73893498D01*
X144522018Y-73881531D01*
X144613992Y-73878317D01*
X144707100Y-73883680D01*
X144790021Y-73897442D01*
X144796520Y-73899066D01*
X144917509Y-73942764D01*
X145028019Y-74007030D01*
X145125929Y-74088939D01*
X145209121Y-74185564D01*
X145275476Y-74293980D01*
X145322874Y-74411261D01*
X145349195Y-74534482D01*
X145352322Y-74660716D01*
X145351932Y-74665824D01*
X145344523Y-74757899D01*
X145668211Y-74757899D01*
X145991900Y-74757900D01*
X145991900Y-74973800D01*
X145261076Y-74973800D01*
X145237371Y-75017816D01*
X145217755Y-75046063D01*
X145184980Y-75085008D01*
X145144630Y-75128207D01*
X145123358Y-75149388D01*
X145016845Y-75237090D01*
X144902528Y-75300764D01*
X144779163Y-75340924D01*
X144645506Y-75358079D01*
X144613950Y-75358821D01*
X144477346Y-75347574D01*
X144347996Y-75312852D01*
X144228403Y-75255495D01*
X144154084Y-75204115D01*
X144092656Y-75155559D01*
X143892928Y-75161629D01*
X143693200Y-75167700D01*
X143693200Y-77247100D01*
X145991900Y-77247100D01*
X145991900Y-77463000D01*
X143693200Y-77463000D01*
X143693200Y-79736300D01*
X145992927Y-79736300D01*
X145989238Y-79841075D01*
X145985550Y-79945850D01*
X144839375Y-79949092D01*
X143693200Y-79952335D01*
X143693200Y-80282400D01*
X145547400Y-80282400D01*
X145547400Y-81234900D01*
X143693200Y-81234900D01*
X143693200Y-82631900D01*
X143477300Y-82631900D01*
X143477300Y-81234900D01*
X142461300Y-81234900D01*
X142461300Y-79951887D01*
X141995923Y-79955218D01*
X141530546Y-79958550D01*
X141508533Y-80066500D01*
X141466881Y-80219113D01*
X141405825Y-80370113D01*
X141351514Y-80472900D01*
X141310992Y-80535483D01*
X141261101Y-80603279D01*
X141206814Y-80670288D01*
X141153104Y-80730513D01*
X141104945Y-80777957D01*
X141084344Y-80795130D01*
X141038900Y-80829792D01*
X141038900Y-82632927D01*
X140934125Y-82629238D01*
X140829350Y-82625550D01*
X140826081Y-81809506D01*
X140822813Y-80993462D01*
X140693992Y-81058107D01*
X140507247Y-81139744D01*
X140304229Y-81206129D01*
X140089974Y-81255836D01*
X139893225Y-81284966D01*
X139760413Y-81295152D01*
X139610130Y-81299388D01*
X139449399Y-81297969D01*
X139285238Y-81291192D01*
X139124669Y-81279353D01*
X138974713Y-81262748D01*
X138842389Y-81241674D01*
X138835450Y-81240330D01*
X138784718Y-81229756D01*
X138722313Y-81215797D01*
X138653816Y-81199810D01*
X138584806Y-81183155D01*
X138520864Y-81167191D01*
X138467569Y-81153274D01*
X138430501Y-81142765D01*
X138419254Y-81139007D01*
X138414662Y-81138413D01*
X138410757Y-81141683D01*
X138407483Y-81150686D01*
X138404786Y-81167297D01*
X138402609Y-81193385D01*
X138400898Y-81230822D01*
X138399597Y-81281481D01*
X138398651Y-81347233D01*
X138398004Y-81429949D01*
X138397602Y-81531501D01*
X138397388Y-81653761D01*
X138397307Y-81798601D01*
X138397300Y-81881241D01*
X138397300Y-82631900D01*
X138181592Y-82631900D01*
X138175050Y-81054260D01*
X138079800Y-81016687D01*
X138033471Y-80997354D01*
X137971400Y-80969963D01*
X137900622Y-80937691D01*
X137828173Y-80903718D01*
X137803575Y-80891941D01*
X137622600Y-80804768D01*
X137622600Y-79960403D01*
X138095015Y-79960403D01*
X138110502Y-79973373D01*
X138127425Y-79983035D01*
X138159625Y-79998670D01*
X138175815Y-79999739D01*
X138181145Y-79985724D01*
X138181400Y-79977600D01*
X138176427Y-79960093D01*
X138157016Y-79953030D01*
X138136950Y-79952200D01*
X138396139Y-79952200D01*
X138399894Y-80037072D01*
X138403650Y-80121944D01*
X138524300Y-80171082D01*
X138728436Y-80242667D01*
X138948221Y-80298025D01*
X139178823Y-80335960D01*
X139197400Y-80338183D01*
X139249578Y-80341745D01*
X139319310Y-80342962D01*
X139400525Y-80342087D01*
X139487150Y-80339370D01*
X139573113Y-80335063D01*
X139652344Y-80329417D01*
X139718769Y-80322684D01*
X139766319Y-80315114D01*
X139768900Y-80314532D01*
X139865266Y-80286090D01*
X139955979Y-80247977D01*
X140033103Y-80203787D01*
X140063367Y-80181139D01*
X140099514Y-80141577D01*
X140135513Y-80086264D01*
X140165994Y-80024307D01*
X140181489Y-79980775D01*
X140189711Y-79952200D01*
X138396139Y-79952200D01*
X138136950Y-79952200D01*
X138103645Y-79953949D01*
X138095015Y-79960403D01*
X137622600Y-79960403D01*
X137622600Y-79952200D01*
X136365300Y-79952200D01*
X136365300Y-81234900D01*
X135743000Y-81234900D01*
X135743000Y-82631900D01*
X135527100Y-82631900D01*
X135527100Y-81234900D01*
X135184200Y-81234900D01*
X135184200Y-79952200D01*
X133152200Y-79952200D01*
X133152200Y-81234900D01*
X133088700Y-81234900D01*
X133088700Y-82631900D01*
X132989216Y-82631900D01*
X132941165Y-82630887D01*
X132903444Y-82628203D01*
X132882836Y-82624380D01*
X132881266Y-82623433D01*
X132879672Y-82609490D01*
X132878176Y-82572492D01*
X132876806Y-82514784D01*
X132875591Y-82438709D01*
X132874559Y-82346612D01*
X132873739Y-82240838D01*
X132873159Y-82123732D01*
X132872846Y-81997638D01*
X132872800Y-81924933D01*
X132872800Y-81234900D01*
X131971100Y-81234900D01*
X131971100Y-79952451D01*
X131377375Y-79949150D01*
X130783650Y-79945850D01*
X130779963Y-79841200D01*
X130776276Y-79736551D01*
X131370513Y-79733250D01*
X131964750Y-79729950D01*
X131966439Y-79139400D01*
X133152200Y-79139400D01*
X133152200Y-79736452D01*
X135177850Y-79729950D01*
X135184668Y-79139400D01*
X133152200Y-79139400D01*
X131966439Y-79139400D01*
X131971236Y-77463000D01*
X133152200Y-77463000D01*
X133152200Y-78123400D01*
X135184200Y-78123400D01*
X135184200Y-77463000D01*
X136365300Y-77463000D01*
X136365300Y-79736300D01*
X136993950Y-79736300D01*
X137136374Y-79736278D01*
X137255483Y-79736159D01*
X137353358Y-79735857D01*
X137432086Y-79735288D01*
X137493748Y-79734368D01*
X137540429Y-79733013D01*
X137574212Y-79731139D01*
X137597182Y-79728661D01*
X137611422Y-79725495D01*
X137619016Y-79721557D01*
X137622047Y-79716764D01*
X137622599Y-79711029D01*
X137622600Y-79710900D01*
X137625675Y-79691267D01*
X137637798Y-79687750D01*
X137663312Y-79700350D01*
X137679750Y-79710900D01*
X137695479Y-79719939D01*
X137713996Y-79726540D01*
X137739337Y-79731080D01*
X137775538Y-79733938D01*
X137826634Y-79735493D01*
X137896664Y-79736124D01*
X137949625Y-79736216D01*
X138181400Y-79736300D01*
X138181325Y-79291800D01*
X138397300Y-79291800D01*
X138397300Y-79736300D01*
X140163252Y-79736300D01*
X140142517Y-79696203D01*
X140106305Y-79642450D01*
X140053394Y-79584749D01*
X139990313Y-79529424D01*
X139923593Y-79482802D01*
X139919939Y-79480611D01*
X139853203Y-79443618D01*
X139773355Y-79404398D01*
X139678114Y-79361972D01*
X139565198Y-79315361D01*
X139432324Y-79263588D01*
X139286300Y-79209014D01*
X139117832Y-79146474D01*
X138970903Y-79090632D01*
X138842867Y-79040426D01*
X138731075Y-78994799D01*
X138632881Y-78952689D01*
X138545637Y-78913038D01*
X138538705Y-78909777D01*
X138486109Y-78885139D01*
X138442593Y-78865081D01*
X138412882Y-78851757D01*
X138401776Y-78847300D01*
X138400735Y-78859520D01*
X138399779Y-78894267D01*
X138398939Y-78948666D01*
X138398241Y-79019843D01*
X138397717Y-79104924D01*
X138397394Y-79201034D01*
X138397300Y-79291800D01*
X138181325Y-79291800D01*
X138181226Y-78713950D01*
X138134356Y-78682200D01*
X138088091Y-78646611D01*
X138031060Y-78596322D01*
X137968393Y-78536445D01*
X137905219Y-78472090D01*
X137846670Y-78408368D01*
X137797875Y-78350389D01*
X137786447Y-78335599D01*
X137690344Y-78187690D01*
X137614478Y-78027352D01*
X137560181Y-77858532D01*
X137528786Y-77685179D01*
X137521051Y-77548725D01*
X137521000Y-77463000D01*
X138890974Y-77463000D01*
X138920362Y-77515420D01*
X138946396Y-77552973D01*
X138983046Y-77595390D01*
X139011879Y-77623758D01*
X139051199Y-77656637D01*
X139095738Y-77688547D01*
X139147792Y-77720579D01*
X139209656Y-77753823D01*
X139283625Y-77789371D01*
X139371995Y-77828312D01*
X139477060Y-77871738D01*
X139601115Y-77920739D01*
X139746456Y-77976406D01*
X139782897Y-77990177D01*
X139944723Y-78052211D01*
X140099556Y-78113532D01*
X140245122Y-78173146D01*
X140379148Y-78230058D01*
X140499360Y-78283271D01*
X140603485Y-78331791D01*
X140689249Y-78374623D01*
X140754378Y-78410771D01*
X140778550Y-78426064D01*
X140804360Y-78443160D01*
X140818982Y-78452276D01*
X140819825Y-78452671D01*
X140820525Y-78440635D01*
X140821173Y-78405914D01*
X140821749Y-78351226D01*
X140822236Y-78279284D01*
X140822618Y-78192807D01*
X140822877Y-78094508D01*
X140822994Y-77987104D01*
X140823000Y-77958300D01*
X140823000Y-77463000D01*
X141038900Y-77463000D01*
X141038900Y-78613545D01*
X141091268Y-78663747D01*
X141143504Y-78717464D01*
X141200904Y-78782464D01*
X141258475Y-78852526D01*
X141311218Y-78921429D01*
X141354139Y-78982953D01*
X141374877Y-79016883D01*
X141443200Y-79161405D01*
X141494005Y-79320021D01*
X141527882Y-79494870D01*
X141541150Y-79618825D01*
X141550176Y-79736300D01*
X142461300Y-79736300D01*
X142461300Y-77463000D01*
X141038900Y-77463000D01*
X140823000Y-77463000D01*
X138890974Y-77463000D01*
X137521000Y-77463000D01*
X136365300Y-77463000D01*
X135184200Y-77463000D01*
X133152200Y-77463000D01*
X131971236Y-77463000D01*
X130777300Y-77463000D01*
X130777300Y-77247100D01*
X131971100Y-77247100D01*
X131971100Y-76040600D01*
X132872800Y-76040600D01*
X133088310Y-76040600D01*
X133152200Y-76040600D01*
X133152200Y-77247100D01*
X135184200Y-77247100D01*
X135184200Y-76040600D01*
X135527100Y-76040600D01*
X135743000Y-76040600D01*
X136365300Y-76040600D01*
X136365300Y-77247100D01*
X137530568Y-77247100D01*
X137533079Y-77236305D01*
X138892600Y-77236305D01*
X138904975Y-77238027D01*
X138940800Y-77239665D01*
X138998127Y-77241196D01*
X139075005Y-77242598D01*
X139169485Y-77243851D01*
X139279617Y-77244931D01*
X139403453Y-77245818D01*
X139539043Y-77246489D01*
X139684437Y-77246922D01*
X139837685Y-77247097D01*
X139858683Y-77247100D01*
X140824766Y-77247100D01*
X140820708Y-77219588D01*
X140815158Y-77206385D01*
X140800098Y-77193691D01*
X140771667Y-77179527D01*
X140726003Y-77161916D01*
X140670600Y-77142708D01*
X140462968Y-77076064D01*
X140272803Y-77022563D01*
X140096471Y-76981204D01*
X140049336Y-76971712D01*
X139940319Y-76954521D01*
X139821553Y-76942608D01*
X139699129Y-76936076D01*
X139579140Y-76935024D01*
X139467677Y-76939553D01*
X139370833Y-76949764D01*
X139318050Y-76959626D01*
X139229124Y-76984863D01*
X139142366Y-77017624D01*
X139065661Y-77054573D01*
X139010083Y-77089904D01*
X138981202Y-77115917D01*
X138949763Y-77150157D01*
X138921018Y-77186079D01*
X138900218Y-77217141D01*
X138892600Y-77236305D01*
X137533079Y-77236305D01*
X137557898Y-77129625D01*
X137588800Y-77025637D01*
X137633351Y-76914217D01*
X137686921Y-76805570D01*
X137744883Y-76709904D01*
X137754397Y-76696285D01*
X137797729Y-76641975D01*
X137855239Y-76578768D01*
X137921001Y-76512422D01*
X137989083Y-76448693D01*
X138053557Y-76393338D01*
X138108493Y-76352113D01*
X138109701Y-76351308D01*
X138181400Y-76303703D01*
X138181400Y-75426787D01*
X137989539Y-75705118D01*
X137926442Y-75796680D01*
X137857237Y-75897148D01*
X137786579Y-75999764D01*
X137719118Y-76097771D01*
X137659510Y-76184412D01*
X137638320Y-76215225D01*
X137591729Y-76282462D01*
X137549754Y-76342036D01*
X137514562Y-76390954D01*
X137488320Y-76426222D01*
X137473196Y-76444846D01*
X137470573Y-76447000D01*
X137465592Y-76435157D01*
X137454146Y-76401035D01*
X137436879Y-76346736D01*
X137414434Y-76274365D01*
X137387454Y-76186028D01*
X137356581Y-76083829D01*
X137322458Y-75969873D01*
X137285729Y-75846264D01*
X137247035Y-75715107D01*
X137246584Y-75713575D01*
X137069542Y-75111319D01*
X138397300Y-75111319D01*
X138397300Y-75647168D01*
X138397349Y-75777895D01*
X138397558Y-75885422D01*
X138398020Y-75971950D01*
X138398828Y-76039679D01*
X138400075Y-76090810D01*
X138401854Y-76127543D01*
X138404257Y-76152078D01*
X138407378Y-76166616D01*
X138411310Y-76173358D01*
X138416145Y-76174503D01*
X138419525Y-76173417D01*
X138530123Y-76130962D01*
X138658721Y-76090476D01*
X138797917Y-76053816D01*
X138940312Y-76022835D01*
X139078504Y-75999390D01*
X139149274Y-75990462D01*
X139220747Y-75984791D01*
X139311198Y-75980749D01*
X139414258Y-75978337D01*
X139523556Y-75977555D01*
X139632724Y-75978402D01*
X139735392Y-75980880D01*
X139825191Y-75984988D01*
X139893225Y-75990449D01*
X140026853Y-76007666D01*
X140170342Y-76031024D01*
X140317743Y-76059228D01*
X140463104Y-76090986D01*
X140600474Y-76125004D01*
X140723902Y-76159988D01*
X140819825Y-76191841D01*
X140820530Y-76179861D01*
X140821180Y-76145213D01*
X140821759Y-76090629D01*
X140822248Y-76018839D01*
X140822629Y-75932575D01*
X140822884Y-75834570D01*
X140822996Y-75727554D01*
X140823000Y-75704050D01*
X140823000Y-75217894D01*
X141038900Y-75217894D01*
X141038900Y-76266442D01*
X141092875Y-76287420D01*
X141134362Y-76303900D01*
X141186332Y-76325019D01*
X141226225Y-76341504D01*
X141305600Y-76374610D01*
X141305600Y-77247100D01*
X142461300Y-77247100D01*
X142461300Y-76040600D01*
X143477300Y-76040600D01*
X143477300Y-75163275D01*
X143283625Y-75170337D01*
X143235031Y-75171843D01*
X143164024Y-75173666D01*
X143073588Y-75175748D01*
X142966705Y-75178026D01*
X142846359Y-75180442D01*
X142715535Y-75182934D01*
X142577216Y-75185443D01*
X142434385Y-75187908D01*
X142321600Y-75189764D01*
X142174802Y-75192191D01*
X142028194Y-75194737D01*
X141885051Y-75197337D01*
X141748649Y-75199927D01*
X141622263Y-75202441D01*
X141509169Y-75204814D01*
X141412644Y-75206984D01*
X141335962Y-75208884D01*
X141296075Y-75210012D01*
X141038900Y-75217894D01*
X140823000Y-75217894D01*
X140823000Y-75215100D01*
X140633405Y-75215100D01*
X140461885Y-74973800D01*
X139477217Y-74973950D01*
X138492550Y-74974100D01*
X138444925Y-75042710D01*
X138397300Y-75111319D01*
X137069542Y-75111319D01*
X137030982Y-74980150D01*
X136386991Y-74976858D01*
X135743000Y-74973567D01*
X135743000Y-76040600D01*
X135527100Y-76040600D01*
X135527100Y-75282247D01*
X135047675Y-75287987D01*
X134939094Y-75289277D01*
X134809774Y-75290797D01*
X134664373Y-75292493D01*
X134507549Y-75294310D01*
X134343961Y-75296197D01*
X134178267Y-75298097D01*
X134015127Y-75299959D01*
X133859197Y-75301727D01*
X133831650Y-75302038D01*
X133095050Y-75310350D01*
X133088310Y-76040600D01*
X132872800Y-76040600D01*
X132872800Y-75316700D01*
X131945700Y-75316700D01*
X131945700Y-74973800D01*
X130777300Y-74973800D01*
X130777300Y-74757900D01*
X131948273Y-74757900D01*
X131947810Y-74732500D01*
X135743000Y-74732500D01*
X135743534Y-74738336D01*
X135746547Y-74743202D01*
X135754155Y-74747186D01*
X135768474Y-74750376D01*
X135791620Y-74752860D01*
X135825710Y-74754727D01*
X135872858Y-74756065D01*
X135935182Y-74756962D01*
X136014797Y-74757505D01*
X136113818Y-74757784D01*
X136234364Y-74757886D01*
X136352600Y-74757900D01*
X136474320Y-74757761D01*
X136587941Y-74757366D01*
X136691010Y-74756740D01*
X136781072Y-74755912D01*
X136855673Y-74754908D01*
X136912358Y-74753758D01*
X136948675Y-74752487D01*
X136959346Y-74751409D01*
X138651300Y-74751409D01*
X138663648Y-74752526D01*
X138699289Y-74753583D01*
X138756115Y-74754563D01*
X138832018Y-74755448D01*
X138924891Y-74756223D01*
X139032626Y-74756870D01*
X139153115Y-74757375D01*
X139284250Y-74757719D01*
X139423926Y-74757886D01*
X139477858Y-74757900D01*
X139620040Y-74757747D01*
X139754360Y-74757307D01*
X139878726Y-74756605D01*
X139991045Y-74755668D01*
X140089223Y-74754522D01*
X140171166Y-74753192D01*
X140234783Y-74751704D01*
X140277979Y-74750085D01*
X140298661Y-74748360D01*
X140300183Y-74747684D01*
X140290699Y-74732066D01*
X140268275Y-74698669D01*
X140234522Y-74649738D01*
X140191049Y-74587521D01*
X140139466Y-74514265D01*
X140081383Y-74432215D01*
X140018410Y-74343619D01*
X139952157Y-74250723D01*
X139884233Y-74155774D01*
X139816249Y-74061019D01*
X139749815Y-73968704D01*
X139746912Y-73964683D01*
X141038697Y-73964683D01*
X141109724Y-74063172D01*
X141180752Y-74161662D01*
X141309851Y-74154989D01*
X141344914Y-74153644D01*
X141402856Y-74152000D01*
X141481159Y-74150105D01*
X141577305Y-74148011D01*
X141688775Y-74145767D01*
X141813051Y-74143423D01*
X141947615Y-74141029D01*
X142089947Y-74138636D01*
X142237531Y-74136294D01*
X142289850Y-74135497D01*
X142440053Y-74133158D01*
X142586946Y-74130726D01*
X142727867Y-74128254D01*
X142860154Y-74125794D01*
X142981147Y-74123401D01*
X143088184Y-74121128D01*
X143178604Y-74119026D01*
X143249747Y-74117151D01*
X143298950Y-74115554D01*
X143309025Y-74115138D01*
X143477300Y-74107597D01*
X143477300Y-72484472D01*
X141045250Y-72490950D01*
X141041973Y-73227816D01*
X141038697Y-73964683D01*
X139746912Y-73964683D01*
X139686540Y-73881075D01*
X139628034Y-73800380D01*
X139575907Y-73728866D01*
X139531769Y-73668778D01*
X139497230Y-73622364D01*
X139473900Y-73591869D01*
X139463388Y-73579542D01*
X139463023Y-73579396D01*
X139454295Y-73590114D01*
X139432800Y-73619485D01*
X139400129Y-73665211D01*
X139357875Y-73724994D01*
X139307630Y-73796535D01*
X139250984Y-73877536D01*
X139189531Y-73965698D01*
X139124862Y-74058724D01*
X139058569Y-74154313D01*
X138992243Y-74250170D01*
X138927477Y-74343993D01*
X138865863Y-74433487D01*
X138808992Y-74516351D01*
X138758455Y-74590288D01*
X138715846Y-74652999D01*
X138682756Y-74702186D01*
X138660776Y-74735550D01*
X138651499Y-74750793D01*
X138651300Y-74751409D01*
X136959346Y-74751409D01*
X136962168Y-74751124D01*
X136962200Y-74751054D01*
X136958697Y-74738143D01*
X136948524Y-74702578D01*
X136932179Y-74646071D01*
X136910164Y-74570335D01*
X136882978Y-74477082D01*
X136851122Y-74368025D01*
X136815097Y-74244875D01*
X136775401Y-74109346D01*
X136732537Y-73963149D01*
X136687003Y-73807998D01*
X136639300Y-73645605D01*
X136632000Y-73620763D01*
X136584017Y-73457445D01*
X136538129Y-73301121D01*
X136494834Y-73153504D01*
X136454633Y-73016305D01*
X136418027Y-72891235D01*
X136385515Y-72780006D01*
X136357598Y-72684329D01*
X136334776Y-72605916D01*
X136317548Y-72546478D01*
X136306417Y-72507727D01*
X136304669Y-72501426D01*
X137406700Y-72501426D01*
X137410152Y-72515518D01*
X137420013Y-72551408D01*
X137435533Y-72606525D01*
X137455967Y-72678296D01*
X137480565Y-72764147D01*
X137508582Y-72861507D01*
X137539270Y-72967802D01*
X137571880Y-73080460D01*
X137605667Y-73196908D01*
X137639882Y-73314574D01*
X137673779Y-73430884D01*
X137706609Y-73543267D01*
X137737626Y-73649150D01*
X137766082Y-73745960D01*
X137791230Y-73831124D01*
X137812321Y-73902070D01*
X137828610Y-73956225D01*
X137839349Y-73991016D01*
X137840270Y-73993894D01*
X137851624Y-74018932D01*
X137862284Y-74026802D01*
X137864061Y-74025644D01*
X137874012Y-74012404D01*
X137896077Y-73981472D01*
X137927985Y-73936085D01*
X137967460Y-73879483D01*
X138012230Y-73814903D01*
X138027568Y-73792700D01*
X138180955Y-73570450D01*
X138181177Y-73027525D01*
X138181400Y-72484600D01*
X138397300Y-72484600D01*
X138397300Y-72868140D01*
X138397635Y-72963212D01*
X138398586Y-73048920D01*
X138400068Y-73122299D01*
X138401994Y-73180383D01*
X138404281Y-73220207D01*
X138406842Y-73238805D01*
X138407946Y-73239615D01*
X138417408Y-73226632D01*
X138439497Y-73195177D01*
X138472491Y-73147737D01*
X138514668Y-73086800D01*
X138564306Y-73014852D01*
X138619683Y-72934380D01*
X138668296Y-72863589D01*
X138726665Y-72778303D01*
X138780191Y-72699691D01*
X138827236Y-72630192D01*
X138866160Y-72572244D01*
X138895323Y-72528286D01*
X138913087Y-72500756D01*
X138918000Y-72492114D01*
X138911774Y-72490950D01*
X139998178Y-72490950D01*
X140407414Y-73069912D01*
X140816650Y-73648875D01*
X140819954Y-73071100D01*
X140820535Y-72952501D01*
X140820889Y-72841903D01*
X140821022Y-72741854D01*
X140820938Y-72654901D01*
X140820644Y-72583590D01*
X140820145Y-72530470D01*
X140819446Y-72498088D01*
X140818717Y-72488784D01*
X140805386Y-72487782D01*
X140769701Y-72487062D01*
X140714705Y-72486631D01*
X140643444Y-72486499D01*
X140558961Y-72486674D01*
X140464301Y-72487165D01*
X140406177Y-72487596D01*
X139998178Y-72490950D01*
X138911774Y-72490950D01*
X138905926Y-72489857D01*
X138872207Y-72487871D01*
X138820600Y-72486264D01*
X138754859Y-72485146D01*
X138678739Y-72484624D01*
X138657650Y-72484600D01*
X138397300Y-72484600D01*
X138181400Y-72484600D01*
X137794050Y-72484600D01*
X137681315Y-72484788D01*
X137591648Y-72485421D01*
X137522719Y-72486599D01*
X137472198Y-72488423D01*
X137437755Y-72490996D01*
X137417061Y-72494418D01*
X137407784Y-72498789D01*
X137406700Y-72501426D01*
X136304669Y-72501426D01*
X136301880Y-72491374D01*
X136301800Y-72490959D01*
X136290902Y-72486173D01*
X136270050Y-72484600D01*
X136246154Y-72486445D01*
X136238300Y-72489976D01*
X136235587Y-72502883D01*
X136227712Y-72538806D01*
X136215069Y-72595979D01*
X136198051Y-72672634D01*
X136177053Y-72767003D01*
X136152468Y-72877318D01*
X136124690Y-73001811D01*
X136094114Y-73138716D01*
X136061133Y-73286263D01*
X136026141Y-73442686D01*
X135990650Y-73601226D01*
X135954015Y-73765098D01*
X135919015Y-73922196D01*
X135886048Y-74070712D01*
X135855509Y-74208835D01*
X135827794Y-74334755D01*
X135803300Y-74446663D01*
X135782423Y-74542748D01*
X135765559Y-74621200D01*
X135753104Y-74680210D01*
X135745454Y-74717968D01*
X135743000Y-74732500D01*
X131947810Y-74732500D01*
X131943811Y-74513425D01*
X131939350Y-74268950D01*
X132406075Y-74265618D01*
X132872800Y-74262287D01*
X132872800Y-74249900D01*
X133088526Y-74249900D01*
X133574388Y-74248177D01*
X133702927Y-74247526D01*
X133840662Y-74246481D01*
X133981389Y-74245114D01*
X134118906Y-74243495D01*
X134247012Y-74241694D01*
X134359504Y-74239781D01*
X134414957Y-74238652D01*
X134769665Y-74230850D01*
X134957459Y-73392650D01*
X134989452Y-73249851D01*
X135019955Y-73113698D01*
X135048489Y-72986322D01*
X135074579Y-72869855D01*
X135097747Y-72766428D01*
X135117515Y-72678172D01*
X135133405Y-72607219D01*
X135144941Y-72555699D01*
X135151646Y-72525744D01*
X135153052Y-72519450D01*
X135160851Y-72484450D01*
X134127950Y-72487700D01*
X133095050Y-72490950D01*
X133088526Y-74249900D01*
X132872800Y-74249900D01*
X132872800Y-72484600D01*
X131824536Y-72484599D01*
X130776272Y-72484599D01*
X130779961Y-72379824D01*
X130783650Y-72275050D01*
X132872800Y-72268552D01*
X132872800Y-70008100D01*
X133088700Y-70008100D01*
X133088700Y-72268700D01*
X135209116Y-72268700D01*
X135215880Y-72240125D01*
X135219860Y-72222626D01*
X135228843Y-72182702D01*
X135242302Y-72122717D01*
X135259705Y-72045036D01*
X135280525Y-71952023D01*
X135304231Y-71846043D01*
X135330294Y-71729460D01*
X135358185Y-71604639D01*
X135374872Y-71529934D01*
X135527099Y-70848319D01*
X135527099Y-70428209D01*
X135527099Y-70027410D01*
X136674833Y-70027410D01*
X136675384Y-70030325D01*
X136679847Y-70045308D01*
X136690830Y-70082520D01*
X136707705Y-70139817D01*
X136729841Y-70215054D01*
X136756609Y-70306088D01*
X136787379Y-70410775D01*
X136821522Y-70526970D01*
X136858409Y-70652530D01*
X136897410Y-70785310D01*
X136937895Y-70923166D01*
X136979235Y-71063954D01*
X137020800Y-71205531D01*
X137061961Y-71345752D01*
X137102088Y-71482473D01*
X137140553Y-71613549D01*
X137176724Y-71736838D01*
X137209974Y-71850194D01*
X137239672Y-71951475D01*
X137265188Y-72038534D01*
X137285894Y-72109230D01*
X137301160Y-72161417D01*
X137310355Y-72192952D01*
X137311145Y-72195675D01*
X137332302Y-72268700D01*
X138181400Y-72268700D01*
X138181400Y-70008100D01*
X138397300Y-70008100D01*
X138397300Y-72268700D01*
X139077909Y-72268700D01*
X139265812Y-71994965D01*
X139453715Y-71721231D01*
X139646232Y-71994492D01*
X139838750Y-72267753D01*
X140330875Y-72268226D01*
X140823000Y-72268700D01*
X140823000Y-70008100D01*
X141038900Y-70008100D01*
X141038900Y-72268700D01*
X143477300Y-72268700D01*
X143477300Y-70008100D01*
X141038900Y-70008100D01*
X140823000Y-70008100D01*
X138397300Y-70008100D01*
X138181400Y-70008100D01*
X137424894Y-70008100D01*
X137267266Y-70008132D01*
X137133169Y-70008266D01*
X137020730Y-70008558D01*
X136928081Y-70009062D01*
X136853349Y-70009834D01*
X136794666Y-70010931D01*
X136750160Y-70012406D01*
X136717962Y-70014316D01*
X136696200Y-70016716D01*
X136683005Y-70019661D01*
X136676506Y-70023208D01*
X136674833Y-70027410D01*
X135527099Y-70027410D01*
X135527100Y-70008100D01*
X133088700Y-70008100D01*
X132872800Y-70008100D01*
X130777300Y-70008100D01*
X130777300Y-69792200D01*
X132872800Y-69792200D01*
X132872800Y-67404600D01*
X133088700Y-67404600D01*
X133088700Y-69792200D01*
G36*
X140287465Y-106199434D02*
X140328712Y-106199438D01*
X140368045Y-106199443D01*
X140405505Y-106199450D01*
X140441131Y-106199458D01*
X140474963Y-106199468D01*
X140507040Y-106199480D01*
X140537402Y-106199494D01*
X140566088Y-106199510D01*
X140593139Y-106199528D01*
X140618594Y-106199548D01*
X140642492Y-106199571D01*
X140664873Y-106199596D01*
X140685776Y-106199623D01*
X140705242Y-106199653D01*
X140723310Y-106199685D01*
X140740019Y-106199720D01*
X140755410Y-106199757D01*
X140769521Y-106199797D01*
X140782393Y-106199840D01*
X140794065Y-106199886D01*
X140804576Y-106199936D01*
X140813967Y-106199988D01*
X140822276Y-106200043D01*
X140829544Y-106200102D01*
X140835810Y-106200163D01*
X140841114Y-106200229D01*
X140845495Y-106200297D01*
X140848993Y-106200370D01*
X140851647Y-106200445D01*
X140853498Y-106200525D01*
X140854584Y-106200608D01*
X140854946Y-106200696D01*
X140854946Y-106200702D01*
X140854733Y-106201732D01*
X140854127Y-106204726D01*
X140853133Y-106209654D01*
X140851758Y-106216488D01*
X140850008Y-106225198D01*
X140847887Y-106235754D01*
X140845402Y-106248129D01*
X140842560Y-106262293D01*
X140839364Y-106278216D01*
X140835823Y-106295870D01*
X140831940Y-106315226D01*
X140827722Y-106336254D01*
X140823176Y-106358926D01*
X140818306Y-106383212D01*
X140813119Y-106409084D01*
X140807620Y-106436512D01*
X140801815Y-106465467D01*
X140795710Y-106495920D01*
X140789312Y-106527842D01*
X140782624Y-106561204D01*
X140775655Y-106595977D01*
X140768409Y-106632132D01*
X140760892Y-106669640D01*
X140753109Y-106708471D01*
X140745068Y-106748597D01*
X140736774Y-106789988D01*
X140728231Y-106832616D01*
X140719448Y-106876451D01*
X140710428Y-106921464D01*
X140701178Y-106967627D01*
X140691704Y-107014909D01*
X140682012Y-107063283D01*
X140672107Y-107112718D01*
X140661995Y-107163187D01*
X140651683Y-107214659D01*
X140641175Y-107267106D01*
X140630479Y-107320499D01*
X140619598Y-107374808D01*
X140608540Y-107430004D01*
X140597311Y-107486059D01*
X140585915Y-107542944D01*
X140574359Y-107600628D01*
X140562649Y-107659084D01*
X140550791Y-107718282D01*
X140538790Y-107778192D01*
X140526652Y-107838787D01*
X140514383Y-107900037D01*
X140501989Y-107961912D01*
X140489476Y-108024384D01*
X140476849Y-108087424D01*
X140464114Y-108151002D01*
X140451278Y-108215090D01*
X140438345Y-108279658D01*
X140434015Y-108301282D01*
X140013547Y-110400592D01*
X139355885Y-110400592D01*
X139315420Y-110400590D01*
X139275853Y-110400586D01*
X139237226Y-110400579D01*
X139199579Y-110400570D01*
X139162956Y-110400558D01*
X139127396Y-110400543D01*
X139092943Y-110400526D01*
X139059636Y-110400507D01*
X139027518Y-110400485D01*
X138996630Y-110400461D01*
X138967014Y-110400434D01*
X138938711Y-110400406D01*
X138911763Y-110400375D01*
X138886211Y-110400343D01*
X138862097Y-110400308D01*
X138839461Y-110400271D01*
X138818347Y-110400233D01*
X138798795Y-110400192D01*
X138780846Y-110400150D01*
X138764543Y-110400106D01*
X138749927Y-110400061D01*
X138737038Y-110400014D01*
X138725920Y-110399965D01*
X138716613Y-110399915D01*
X138709158Y-110399863D01*
X138703598Y-110399810D01*
X138699973Y-110399756D01*
X138698326Y-110399701D01*
X138698224Y-110399683D01*
X138698421Y-110398649D01*
X138699005Y-110395669D01*
X138699969Y-110390790D01*
X138701301Y-110384059D01*
X138702993Y-110375522D01*
X138705036Y-110365226D01*
X138707420Y-110353219D01*
X138710136Y-110339547D01*
X138713175Y-110324257D01*
X138716526Y-110307395D01*
X138720182Y-110289009D01*
X138724132Y-110269145D01*
X138728368Y-110247850D01*
X138732879Y-110225172D01*
X138737657Y-110201156D01*
X138742693Y-110175850D01*
X138747976Y-110149300D01*
X138753499Y-110121554D01*
X138759250Y-110092658D01*
X138765222Y-110062659D01*
X138771404Y-110031603D01*
X138777788Y-109999539D01*
X138784363Y-109966512D01*
X138791122Y-109932569D01*
X138798054Y-109897758D01*
X138805150Y-109862124D01*
X138812401Y-109825716D01*
X138819797Y-109788579D01*
X138827330Y-109750760D01*
X138834989Y-109712307D01*
X138842766Y-109673266D01*
X138850651Y-109633684D01*
X138858635Y-109593608D01*
X138859768Y-109587926D01*
X138867765Y-109547783D01*
X138875665Y-109508127D01*
X138883457Y-109469006D01*
X138891134Y-109430465D01*
X138898685Y-109392553D01*
X138906101Y-109355315D01*
X138913374Y-109318798D01*
X138920492Y-109283050D01*
X138927448Y-109248117D01*
X138934232Y-109214045D01*
X138940834Y-109180883D01*
X138947245Y-109148677D01*
X138953456Y-109117473D01*
X138959458Y-109087318D01*
X138965241Y-109058259D01*
X138970796Y-109030344D01*
X138976114Y-109003618D01*
X138981185Y-108978130D01*
X138986000Y-108953924D01*
X138990550Y-108931050D01*
X138994825Y-108909552D01*
X138998816Y-108889479D01*
X139002513Y-108870877D01*
X139005908Y-108853792D01*
X139008991Y-108838272D01*
X139011753Y-108824364D01*
X139014184Y-108812114D01*
X139016276Y-108801569D01*
X139018018Y-108792776D01*
X139019401Y-108785782D01*
X139020417Y-108780633D01*
X139021056Y-108777378D01*
X139021308Y-108776061D01*
X139021312Y-108776034D01*
X139020426Y-108775942D01*
X139017760Y-108775854D01*
X139013303Y-108775770D01*
X139007043Y-108775691D01*
X138998968Y-108775616D01*
X138989067Y-108775546D01*
X138977327Y-108775480D01*
X138963737Y-108775418D01*
X138948286Y-108775360D01*
X138930961Y-108775307D01*
X138911751Y-108775258D01*
X138890644Y-108775213D01*
X138867628Y-108775173D01*
X138842693Y-108775136D01*
X138815825Y-108775104D01*
X138787013Y-108775076D01*
X138756245Y-108775052D01*
X138723511Y-108775032D01*
X138688797Y-108775016D01*
X138652093Y-108775004D01*
X138613386Y-108774996D01*
X138572665Y-108774992D01*
X138079957Y-108774992D01*
X137955634Y-109399070D01*
X137948315Y-109435808D01*
X137940978Y-109472641D01*
X137933637Y-109509492D01*
X137926308Y-109546282D01*
X137919006Y-109582935D01*
X137911747Y-109619375D01*
X137904546Y-109655523D01*
X137897418Y-109691303D01*
X137890379Y-109726638D01*
X137883444Y-109761451D01*
X137876628Y-109795665D01*
X137869947Y-109829202D01*
X137863417Y-109861986D01*
X137857051Y-109893939D01*
X137850867Y-109924985D01*
X137844878Y-109955046D01*
X137839101Y-109984045D01*
X137833551Y-110011906D01*
X137828243Y-110038551D01*
X137823193Y-110063903D01*
X137818415Y-110087885D01*
X137813926Y-110110421D01*
X137809741Y-110131432D01*
X137805874Y-110150842D01*
X137802342Y-110168574D01*
X137799159Y-110184551D01*
X137796341Y-110198696D01*
X137793904Y-110210931D01*
X137793717Y-110211870D01*
X137756122Y-110400592D01*
X136440417Y-110400592D01*
X136440985Y-110397798D01*
X136441205Y-110396707D01*
X136441820Y-110393659D01*
X136442822Y-110388685D01*
X136444206Y-110381821D01*
X136445965Y-110373100D01*
X136448091Y-110362555D01*
X136450577Y-110350220D01*
X136453418Y-110336129D01*
X136456606Y-110320315D01*
X136460135Y-110302812D01*
X136463997Y-110283654D01*
X136468186Y-110262874D01*
X136472695Y-110240506D01*
X136477518Y-110216584D01*
X136482647Y-110191141D01*
X136488076Y-110164211D01*
X136493798Y-110135828D01*
X136499806Y-110106025D01*
X136506094Y-110074836D01*
X136512654Y-110042295D01*
X136519480Y-110008435D01*
X136526565Y-109973290D01*
X136533902Y-109936893D01*
X136541485Y-109899279D01*
X136549306Y-109860481D01*
X136557360Y-109820533D01*
X136565638Y-109779467D01*
X136574135Y-109737319D01*
X136582843Y-109694121D01*
X136591756Y-109649908D01*
X136600867Y-109604712D01*
X136610170Y-109558568D01*
X136619656Y-109511509D01*
X136629321Y-109463569D01*
X136639156Y-109414782D01*
X136649155Y-109365181D01*
X136659311Y-109314800D01*
X136669618Y-109263672D01*
X136680069Y-109211832D01*
X136690656Y-109159312D01*
X136701374Y-109106147D01*
X136712215Y-109052370D01*
X136723172Y-108998015D01*
X136734240Y-108943116D01*
X136745410Y-108887705D01*
X136756676Y-108831818D01*
X136758096Y-108824776D01*
X136769373Y-108768835D01*
X136780554Y-108713369D01*
X136791634Y-108658410D01*
X136802604Y-108603993D01*
X136813458Y-108550151D01*
X136824190Y-108496918D01*
X136834792Y-108444327D01*
X136845259Y-108392412D01*
X136855582Y-108341206D01*
X136865755Y-108290744D01*
X136875772Y-108241058D01*
X136885626Y-108192183D01*
X136895309Y-108144152D01*
X136904816Y-108096999D01*
X136914139Y-108050757D01*
X136923271Y-108005460D01*
X136932206Y-107961142D01*
X136940938Y-107917836D01*
X136949458Y-107875576D01*
X136957761Y-107834396D01*
X136965840Y-107794328D01*
X136973687Y-107755408D01*
X136981297Y-107717667D01*
X136988661Y-107681141D01*
X136995775Y-107645863D01*
X137002630Y-107611866D01*
X137009220Y-107579183D01*
X137015538Y-107547850D01*
X137021578Y-107517898D01*
X137027332Y-107489363D01*
X137032794Y-107462277D01*
X137037957Y-107436674D01*
X137042815Y-107412588D01*
X137047360Y-107390052D01*
X137051585Y-107369100D01*
X137055485Y-107349766D01*
X137059052Y-107332083D01*
X137062279Y-107316085D01*
X137065159Y-107301806D01*
X137067687Y-107289279D01*
X137069854Y-107278537D01*
X137071655Y-107269615D01*
X137073082Y-107262546D01*
X137074129Y-107257364D01*
X137074789Y-107254102D01*
X137075055Y-107252794D01*
X137075060Y-107252769D01*
X137075028Y-107252640D01*
X137074834Y-107252518D01*
X137074430Y-107252401D01*
X137073765Y-107252291D01*
X137072788Y-107252186D01*
X137071450Y-107252088D01*
X137069701Y-107251995D01*
X137067490Y-107251907D01*
X137064768Y-107251824D01*
X137061485Y-107251747D01*
X137057589Y-107251674D01*
X137053032Y-107251607D01*
X137047763Y-107251544D01*
X137041732Y-107251485D01*
X137034889Y-107251431D01*
X137027184Y-107251380D01*
X137018567Y-107251334D01*
X137008988Y-107251292D01*
X136998396Y-107251253D01*
X136986741Y-107251217D01*
X136973975Y-107251185D01*
X136960045Y-107251156D01*
X136944903Y-107251131D01*
X136928498Y-107251107D01*
X136910780Y-107251087D01*
X136891699Y-107251069D01*
X136871205Y-107251054D01*
X136849248Y-107251040D01*
X136825778Y-107251029D01*
X136800745Y-107251020D01*
X136774098Y-107251012D01*
X136745787Y-107251006D01*
X136715763Y-107251001D01*
X136683976Y-107250997D01*
X136650374Y-107250995D01*
X136614909Y-107250993D01*
X136577530Y-107250992D01*
X136538187Y-107250992D01*
X136523621Y-107250991D01*
X135971760Y-107250992D01*
X135655852Y-108825792D01*
X135339943Y-110400592D01*
X134027445Y-110400592D01*
X134028086Y-110397290D01*
X134028308Y-110396181D01*
X134028922Y-110393114D01*
X134029923Y-110388121D01*
X134031303Y-110381238D01*
X134033056Y-110372497D01*
X134035175Y-110361932D01*
X134037653Y-110349576D01*
X134040483Y-110335465D01*
X134043659Y-110319630D01*
X134047174Y-110302106D01*
X134051021Y-110282926D01*
X134055194Y-110262125D01*
X134059685Y-110239735D01*
X134064488Y-110215791D01*
X134069596Y-110190326D01*
X134075002Y-110163374D01*
X134080700Y-110134968D01*
X134086683Y-110105142D01*
X134092944Y-110073931D01*
X134099477Y-110041366D01*
X134106274Y-110007483D01*
X134113328Y-109972315D01*
X134120634Y-109935896D01*
X134128185Y-109898258D01*
X134135972Y-109859437D01*
X134143991Y-109819465D01*
X134152234Y-109778376D01*
X134160694Y-109736204D01*
X134169364Y-109692983D01*
X134178238Y-109648746D01*
X134187310Y-109603527D01*
X134196571Y-109557359D01*
X134206017Y-109510277D01*
X134215639Y-109462314D01*
X134225431Y-109413503D01*
X134235386Y-109363879D01*
X134245498Y-109313475D01*
X134255759Y-109262324D01*
X134266164Y-109210461D01*
X134276704Y-109157918D01*
X134287374Y-109104731D01*
X134298167Y-109050931D01*
X134309076Y-108996554D01*
X134320095Y-108941633D01*
X134331215Y-108886200D01*
X134342432Y-108830291D01*
X134343946Y-108822744D01*
X134659165Y-107251500D01*
X133161641Y-107251245D01*
X133106478Y-107251236D01*
X133051801Y-107251228D01*
X132997646Y-107251220D01*
X132944048Y-107251214D01*
X132891043Y-107251208D01*
X132838665Y-107251203D01*
X132786952Y-107251198D01*
X132735937Y-107251194D01*
X132685657Y-107251191D01*
X132636147Y-107251189D01*
X132587442Y-107251188D01*
X132539578Y-107251187D01*
X132446514Y-107251187D01*
X132401385Y-107251189D01*
X132357239Y-107251191D01*
X132314110Y-107251193D01*
X132272035Y-107251197D01*
X132231049Y-107251201D01*
X132191188Y-107251205D01*
X132152486Y-107251211D01*
X132114979Y-107251217D01*
X132078703Y-107251223D01*
X132043694Y-107251231D01*
X132009986Y-107251238D01*
X131977614Y-107251247D01*
X131946616Y-107251256D01*
X131917025Y-107251266D01*
X131888878Y-107251276D01*
X131862210Y-107251287D01*
X131837056Y-107251299D01*
X131813451Y-107251311D01*
X131791432Y-107251324D01*
X131771033Y-107251337D01*
X131752291Y-107251351D01*
X131735240Y-107251365D01*
X131719916Y-107251380D01*
X131706354Y-107251396D01*
X131694590Y-107251412D01*
X131684660Y-107251429D01*
X131676598Y-107251446D01*
X131670440Y-107251463D01*
X131666222Y-107251482D01*
X131663979Y-107251500D01*
X131663596Y-107251512D01*
X131663363Y-107252532D01*
X131662756Y-107255450D01*
X131661793Y-107260170D01*
X131660494Y-107266596D01*
X131658877Y-107274631D01*
X131656962Y-107284180D01*
X131654768Y-107295146D01*
X131652314Y-107307435D01*
X131649618Y-107320950D01*
X131646700Y-107335594D01*
X131643579Y-107351272D01*
X131640274Y-107367889D01*
X131636803Y-107385347D01*
X131633186Y-107403552D01*
X131629441Y-107422407D01*
X131625589Y-107441816D01*
X131621647Y-107461683D01*
X131617635Y-107481913D01*
X131613572Y-107502408D01*
X131609477Y-107523075D01*
X131605368Y-107543815D01*
X131601265Y-107564534D01*
X131597187Y-107585136D01*
X131593153Y-107605524D01*
X131589182Y-107625602D01*
X131585292Y-107645275D01*
X131581504Y-107664447D01*
X131577835Y-107683022D01*
X131574305Y-107700903D01*
X131570933Y-107717995D01*
X131567738Y-107734202D01*
X131564738Y-107749428D01*
X131561954Y-107763577D01*
X131559403Y-107776552D01*
X131557106Y-107788259D01*
X131555080Y-107798600D01*
X131553345Y-107807481D01*
X131551920Y-107814805D01*
X131550824Y-107820476D01*
X131550076Y-107824398D01*
X131549695Y-107826475D01*
X131549648Y-107826791D01*
X131549972Y-107826865D01*
X131550970Y-107826936D01*
X131552673Y-107827005D01*
X131555116Y-107827071D01*
X131558332Y-107827134D01*
X131562355Y-107827195D01*
X131567219Y-107827253D01*
X131572956Y-107827309D01*
X131579602Y-107827362D01*
X131587189Y-107827413D01*
X131595751Y-107827462D01*
X131605322Y-107827509D01*
X131615936Y-107827553D01*
X131627625Y-107827595D01*
X131640425Y-107827635D01*
X131654367Y-107827673D01*
X131669487Y-107827709D01*
X131685817Y-107827743D01*
X131703392Y-107827775D01*
X131722244Y-107827805D01*
X131742409Y-107827833D01*
X131763918Y-107827860D01*
X131786806Y-107827884D01*
X131811107Y-107827907D01*
X131836854Y-107827929D01*
X131864081Y-107827948D01*
X131892821Y-107827966D01*
X131923109Y-107827983D01*
X131954977Y-107827998D01*
X131988459Y-107828011D01*
X132023590Y-107828024D01*
X132060402Y-107828035D01*
X132098930Y-107828044D01*
X132139207Y-107828052D01*
X132181266Y-107828060D01*
X132225141Y-107828066D01*
X132270867Y-107828070D01*
X132318476Y-107828074D01*
X132368002Y-107828077D01*
X132419480Y-107828079D01*
X132472941Y-107828079D01*
X132495518Y-107828080D01*
X133441389Y-107828080D01*
X133440737Y-107831382D01*
X133440496Y-107832583D01*
X133439866Y-107835715D01*
X133438860Y-107840715D01*
X133437491Y-107847521D01*
X133435771Y-107856071D01*
X133433711Y-107866304D01*
X133431326Y-107878156D01*
X133428627Y-107891567D01*
X133425627Y-107906474D01*
X133422338Y-107922816D01*
X133418772Y-107940529D01*
X133414943Y-107959553D01*
X133410862Y-107979826D01*
X133406543Y-108001285D01*
X133401997Y-108023868D01*
X133397237Y-108047514D01*
X133392276Y-108072161D01*
X133387126Y-108097746D01*
X133381799Y-108124208D01*
X133376308Y-108151484D01*
X133370666Y-108179513D01*
X133364885Y-108208232D01*
X133358977Y-108237581D01*
X133352954Y-108267496D01*
X133346831Y-108297915D01*
X133345488Y-108304584D01*
X133250891Y-108774484D01*
X132304834Y-108774738D01*
X132252073Y-108774752D01*
X132201305Y-108774766D01*
X132152493Y-108774780D01*
X132105599Y-108774794D01*
X132060583Y-108774808D01*
X132017407Y-108774822D01*
X131976033Y-108774836D01*
X131936424Y-108774850D01*
X131898540Y-108774864D01*
X131862343Y-108774879D01*
X131827795Y-108774895D01*
X131794858Y-108774911D01*
X131763493Y-108774927D01*
X131733662Y-108774945D01*
X131705327Y-108774963D01*
X131678449Y-108774982D01*
X131652991Y-108775002D01*
X131628913Y-108775023D01*
X131606177Y-108775046D01*
X131584746Y-108775069D01*
X131564581Y-108775094D01*
X131545643Y-108775120D01*
X131527894Y-108775148D01*
X131511297Y-108775177D01*
X131495812Y-108775208D01*
X131481401Y-108775240D01*
X131468027Y-108775274D01*
X131455650Y-108775311D01*
X131444233Y-108775349D01*
X131433736Y-108775389D01*
X131424123Y-108775431D01*
X131415354Y-108775476D01*
X131407391Y-108775523D01*
X131400196Y-108775572D01*
X131393731Y-108775624D01*
X131387957Y-108775678D01*
X131382836Y-108775735D01*
X131378330Y-108775794D01*
X131374400Y-108775856D01*
X131371008Y-108775922D01*
X131368115Y-108775990D01*
X131365685Y-108776061D01*
X131363677Y-108776135D01*
X131362054Y-108776213D01*
X131360778Y-108776293D01*
X131359810Y-108776378D01*
X131359112Y-108776465D01*
X131358645Y-108776556D01*
X131358372Y-108776651D01*
X131358254Y-108776749D01*
X131358245Y-108776770D01*
X131357992Y-108777951D01*
X131357366Y-108781024D01*
X131356386Y-108785893D01*
X131355071Y-108792461D01*
X131353441Y-108800633D01*
X131351514Y-108810312D01*
X131349309Y-108821402D01*
X131346845Y-108833807D01*
X131344142Y-108847430D01*
X131341218Y-108862175D01*
X131338093Y-108877946D01*
X131334784Y-108894647D01*
X131331312Y-108912181D01*
X131327696Y-108930452D01*
X131323954Y-108949364D01*
X131320105Y-108968821D01*
X131316169Y-108988725D01*
X131312164Y-109008982D01*
X131308110Y-109029494D01*
X131304025Y-109050166D01*
X131299929Y-109070902D01*
X131295840Y-109091604D01*
X131291778Y-109112177D01*
X131287761Y-109132524D01*
X131283809Y-109152550D01*
X131279940Y-109172157D01*
X131276174Y-109191250D01*
X131272530Y-109209733D01*
X131269026Y-109227508D01*
X131265682Y-109244481D01*
X131262516Y-109260554D01*
X131259549Y-109275632D01*
X131256798Y-109289617D01*
X131254282Y-109302414D01*
X131252022Y-109313927D01*
X131250035Y-109324060D01*
X131248341Y-109332715D01*
X131246958Y-109339797D01*
X131245907Y-109345209D01*
X131245205Y-109348856D01*
X131244872Y-109350641D01*
X131244846Y-109350810D01*
X131245192Y-109350883D01*
X131246253Y-109350953D01*
X131248061Y-109351021D01*
X131250650Y-109351086D01*
X131254052Y-109351149D01*
X131258301Y-109351209D01*
X131263429Y-109351267D01*
X131269470Y-109351322D01*
X131276456Y-109351375D01*
X131284421Y-109351425D01*
X131293398Y-109351474D01*
X131303420Y-109351520D01*
X131314519Y-109351563D01*
X131326729Y-109351605D01*
X131340083Y-109351645D01*
X131354614Y-109351682D01*
X131370354Y-109351718D01*
X131387338Y-109351751D01*
X131405597Y-109351783D01*
X131425166Y-109351813D01*
X131446076Y-109351840D01*
X131468361Y-109351866D01*
X131492055Y-109351891D01*
X131517190Y-109351913D01*
X131543798Y-109351934D01*
X131571914Y-109351954D01*
X131601570Y-109351971D01*
X131632799Y-109351988D01*
X131665635Y-109352002D01*
X131700110Y-109352016D01*
X131736257Y-109352028D01*
X131774109Y-109352038D01*
X131813700Y-109352047D01*
X131855062Y-109352055D01*
X131898228Y-109352062D01*
X131943232Y-109352068D01*
X131990107Y-109352072D01*
X132038885Y-109352076D01*
X132089599Y-109352078D01*
X132142283Y-109352079D01*
X132190852Y-109352080D01*
X132245307Y-109352080D01*
X132297762Y-109352081D01*
X132348251Y-109352084D01*
X132396808Y-109352087D01*
X132443465Y-109352092D01*
X132488254Y-109352098D01*
X132531210Y-109352104D01*
X132572365Y-109352112D01*
X132611753Y-109352122D01*
X132649405Y-109352133D01*
X132685356Y-109352145D01*
X132719639Y-109352158D01*
X132752285Y-109352173D01*
X132783329Y-109352189D01*
X132812803Y-109352207D01*
X132840741Y-109352227D01*
X132867175Y-109352248D01*
X132892139Y-109352270D01*
X132915665Y-109352295D01*
X132937787Y-109352321D01*
X132958537Y-109352349D01*
X132977949Y-109352379D01*
X132996055Y-109352411D01*
X133012889Y-109352445D01*
X133028484Y-109352480D01*
X133042873Y-109352518D01*
X133056088Y-109352558D01*
X133068163Y-109352600D01*
X133079131Y-109352644D01*
X133089024Y-109352690D01*
X133097876Y-109352738D01*
X133105721Y-109352789D01*
X133112590Y-109352842D01*
X133118517Y-109352898D01*
X133123535Y-109352956D01*
X133127677Y-109353016D01*
X133130976Y-109353079D01*
X133133465Y-109353144D01*
X133135177Y-109353212D01*
X133136145Y-109353283D01*
X133136408Y-109353350D01*
X133136183Y-109354415D01*
X133135571Y-109357414D01*
X133134585Y-109362290D01*
X133133236Y-109368982D01*
X133131535Y-109377434D01*
X133129494Y-109387586D01*
X133127126Y-109399380D01*
X133124441Y-109412759D01*
X133121451Y-109427662D01*
X133118169Y-109444032D01*
X133114605Y-109461811D01*
X133110772Y-109480940D01*
X133106681Y-109501361D01*
X133102343Y-109523015D01*
X133097772Y-109545844D01*
X133092977Y-109569790D01*
X133087972Y-109594793D01*
X133082767Y-109620796D01*
X133077375Y-109647741D01*
X133071807Y-109675568D01*
X133066074Y-109704220D01*
X133060189Y-109733638D01*
X133054163Y-109763764D01*
X133048008Y-109794538D01*
X133041736Y-109825904D01*
X133035358Y-109857802D01*
X133031398Y-109877606D01*
X132926838Y-110400592D01*
X129722880Y-110400592D01*
X129722924Y-110398306D01*
X129723125Y-110397244D01*
X129723720Y-110394219D01*
X129724705Y-110389260D01*
X129726072Y-110382396D01*
X129727817Y-110373657D01*
X129729934Y-110363071D01*
X129732416Y-110350667D01*
X129735257Y-110336475D01*
X129738453Y-110320524D01*
X129741997Y-110302842D01*
X129745882Y-110283460D01*
X129750105Y-110262405D01*
X129754657Y-110239708D01*
X129759535Y-110215396D01*
X129764731Y-110189500D01*
X129770240Y-110162048D01*
X129776057Y-110133070D01*
X129782174Y-110102594D01*
X129788587Y-110070650D01*
X129795290Y-110037267D01*
X129802277Y-110002473D01*
X129809541Y-109966299D01*
X129817077Y-109928772D01*
X129824880Y-109889923D01*
X129832943Y-109849780D01*
X129841261Y-109808372D01*
X129849827Y-109765729D01*
X129858636Y-109721879D01*
X129867682Y-109676852D01*
X129876959Y-109630677D01*
X129886462Y-109583382D01*
X129896184Y-109534998D01*
X129906119Y-109485552D01*
X129916263Y-109435075D01*
X129926608Y-109383595D01*
X129937149Y-109331141D01*
X129947881Y-109277742D01*
X129958797Y-109223429D01*
X129969891Y-109168228D01*
X129981158Y-109112171D01*
X129992592Y-109055285D01*
X130004187Y-108997600D01*
X130015938Y-108939146D01*
X130027837Y-108879950D01*
X130039880Y-108820042D01*
X130052061Y-108759452D01*
X130064373Y-108698209D01*
X130076811Y-108636340D01*
X130089370Y-108573877D01*
X130102043Y-108510847D01*
X130114824Y-108447280D01*
X130127707Y-108383205D01*
X130140687Y-108318650D01*
X130144844Y-108297980D01*
X130566720Y-106199940D01*
X134582199Y-106199685D01*
X138597678Y-106199432D01*
X138597144Y-106201717D01*
X138596918Y-106202819D01*
X138596297Y-106205866D01*
X138595292Y-106210810D01*
X138593912Y-106217605D01*
X138592166Y-106226203D01*
X138590064Y-106236559D01*
X138587616Y-106248625D01*
X138584831Y-106262353D01*
X138581719Y-106277698D01*
X138578289Y-106294612D01*
X138574550Y-106313048D01*
X138570513Y-106332960D01*
X138566186Y-106354300D01*
X138561580Y-106377021D01*
X138556703Y-106401078D01*
X138551565Y-106426421D01*
X138546176Y-106453006D01*
X138540545Y-106480784D01*
X138534682Y-106509709D01*
X138528596Y-106539734D01*
X138522297Y-106570812D01*
X138515794Y-106602897D01*
X138509097Y-106635940D01*
X138502216Y-106669895D01*
X138495159Y-106704716D01*
X138487936Y-106740356D01*
X138480557Y-106776766D01*
X138473032Y-106813902D01*
X138465369Y-106851715D01*
X138457579Y-106890158D01*
X138449671Y-106929185D01*
X138441654Y-106968750D01*
X138433538Y-107008804D01*
X138432534Y-107013756D01*
X138424407Y-107053867D01*
X138416377Y-107093493D01*
X138408455Y-107132589D01*
X138400650Y-107171107D01*
X138392971Y-107209000D01*
X138385428Y-107246221D01*
X138378031Y-107282723D01*
X138370789Y-107318460D01*
X138363711Y-107353384D01*
X138356807Y-107387448D01*
X138350087Y-107420606D01*
X138343560Y-107452811D01*
X138337235Y-107484015D01*
X138331123Y-107514172D01*
X138325232Y-107543235D01*
X138319573Y-107571156D01*
X138314154Y-107597890D01*
X138308985Y-107623389D01*
X138304075Y-107647605D01*
X138299435Y-107670493D01*
X138295074Y-107692006D01*
X138291001Y-107712095D01*
X138287225Y-107730715D01*
X138283757Y-107747819D01*
X138280605Y-107763359D01*
X138277780Y-107777288D01*
X138275290Y-107789561D01*
X138273146Y-107800129D01*
X138271356Y-107808946D01*
X138269931Y-107815965D01*
X138268879Y-107821139D01*
X138268211Y-107824421D01*
X138267936Y-107825764D01*
X138267929Y-107825793D01*
X138267401Y-107828079D01*
X139209103Y-107828079D01*
X139210137Y-107823253D01*
X139210391Y-107822025D01*
X139211042Y-107818853D01*
X139212082Y-107813785D01*
X139213500Y-107806867D01*
X139215286Y-107798148D01*
X139217432Y-107787673D01*
X139219928Y-107775491D01*
X139222763Y-107761648D01*
X139225928Y-107746192D01*
X139229414Y-107729170D01*
X139233211Y-107710629D01*
X139237309Y-107690615D01*
X139241699Y-107669177D01*
X139246370Y-107646362D01*
X139251314Y-107622216D01*
X139256520Y-107596787D01*
X139261979Y-107570122D01*
X139267681Y-107542268D01*
X139273617Y-107513272D01*
X139279777Y-107483182D01*
X139286152Y-107452044D01*
X139292730Y-107419906D01*
X139299504Y-107386815D01*
X139306463Y-107352819D01*
X139313598Y-107317963D01*
X139320899Y-107282297D01*
X139328356Y-107245865D01*
X139335960Y-107208717D01*
X139343701Y-107170899D01*
X139351569Y-107132457D01*
X139359555Y-107093440D01*
X139367649Y-107053895D01*
X139375841Y-107013868D01*
X139376384Y-107011216D01*
X139384579Y-106971176D01*
X139392676Y-106931620D01*
X139400664Y-106892595D01*
X139408533Y-106854148D01*
X139416276Y-106816326D01*
X139423880Y-106779176D01*
X139431338Y-106742745D01*
X139438640Y-106707079D01*
X139445775Y-106672227D01*
X139452735Y-106638234D01*
X139459509Y-106605148D01*
X139466088Y-106573015D01*
X139472462Y-106541884D01*
X139478623Y-106511800D01*
X139484559Y-106482810D01*
X139490262Y-106454963D01*
X139495722Y-106428303D01*
X139500929Y-106402880D01*
X139505873Y-106378739D01*
X139510546Y-106355927D01*
X139514937Y-106334492D01*
X139519037Y-106314480D01*
X139522836Y-106295939D01*
X139526325Y-106278915D01*
X139529494Y-106263455D01*
X139532332Y-106249607D01*
X139534832Y-106237417D01*
X139536983Y-106226932D01*
X139538775Y-106218200D01*
X139540199Y-106211267D01*
X139541245Y-106206180D01*
X139541904Y-106202986D01*
X139542165Y-106201732D01*
X139542169Y-106201718D01*
X139542740Y-106199432D01*
X140244266Y-106199432D01*
X140287465Y-106199434D01*
X140287465Y-106199434D01*
G37*
X140287465Y-106199434D02*
X140328712Y-106199438D01*
X140368045Y-106199443D01*
X140405505Y-106199450D01*
X140441131Y-106199458D01*
X140474963Y-106199468D01*
X140507040Y-106199480D01*
X140537402Y-106199494D01*
X140566088Y-106199510D01*
X140593139Y-106199528D01*
X140618594Y-106199548D01*
X140642492Y-106199571D01*
X140664873Y-106199596D01*
X140685776Y-106199623D01*
X140705242Y-106199653D01*
X140723310Y-106199685D01*
X140740019Y-106199720D01*
X140755410Y-106199757D01*
X140769521Y-106199797D01*
X140782393Y-106199840D01*
X140794065Y-106199886D01*
X140804576Y-106199936D01*
X140813967Y-106199988D01*
X140822276Y-106200043D01*
X140829544Y-106200102D01*
X140835810Y-106200163D01*
X140841114Y-106200229D01*
X140845495Y-106200297D01*
X140848993Y-106200370D01*
X140851647Y-106200445D01*
X140853498Y-106200525D01*
X140854584Y-106200608D01*
X140854946Y-106200696D01*
X140854946Y-106200702D01*
X140854733Y-106201732D01*
X140854127Y-106204726D01*
X140853133Y-106209654D01*
X140851758Y-106216488D01*
X140850008Y-106225198D01*
X140847887Y-106235754D01*
X140845402Y-106248129D01*
X140842560Y-106262293D01*
X140839364Y-106278216D01*
X140835823Y-106295870D01*
X140831940Y-106315226D01*
X140827722Y-106336254D01*
X140823176Y-106358926D01*
X140818306Y-106383212D01*
X140813119Y-106409084D01*
X140807620Y-106436512D01*
X140801815Y-106465467D01*
X140795710Y-106495920D01*
X140789312Y-106527842D01*
X140782624Y-106561204D01*
X140775655Y-106595977D01*
X140768409Y-106632132D01*
X140760892Y-106669640D01*
X140753109Y-106708471D01*
X140745068Y-106748597D01*
X140736774Y-106789988D01*
X140728231Y-106832616D01*
X140719448Y-106876451D01*
X140710428Y-106921464D01*
X140701178Y-106967627D01*
X140691704Y-107014909D01*
X140682012Y-107063283D01*
X140672107Y-107112718D01*
X140661995Y-107163187D01*
X140651683Y-107214659D01*
X140641175Y-107267106D01*
X140630479Y-107320499D01*
X140619598Y-107374808D01*
X140608540Y-107430004D01*
X140597311Y-107486059D01*
X140585915Y-107542944D01*
X140574359Y-107600628D01*
X140562649Y-107659084D01*
X140550791Y-107718282D01*
X140538790Y-107778192D01*
X140526652Y-107838787D01*
X140514383Y-107900037D01*
X140501989Y-107961912D01*
X140489476Y-108024384D01*
X140476849Y-108087424D01*
X140464114Y-108151002D01*
X140451278Y-108215090D01*
X140438345Y-108279658D01*
X140434015Y-108301282D01*
X140013547Y-110400592D01*
X139355885Y-110400592D01*
X139315420Y-110400590D01*
X139275853Y-110400586D01*
X139237226Y-110400579D01*
X139199579Y-110400570D01*
X139162956Y-110400558D01*
X139127396Y-110400543D01*
X139092943Y-110400526D01*
X139059636Y-110400507D01*
X139027518Y-110400485D01*
X138996630Y-110400461D01*
X138967014Y-110400434D01*
X138938711Y-110400406D01*
X138911763Y-110400375D01*
X138886211Y-110400343D01*
X138862097Y-110400308D01*
X138839461Y-110400271D01*
X138818347Y-110400233D01*
X138798795Y-110400192D01*
X138780846Y-110400150D01*
X138764543Y-110400106D01*
X138749927Y-110400061D01*
X138737038Y-110400014D01*
X138725920Y-110399965D01*
X138716613Y-110399915D01*
X138709158Y-110399863D01*
X138703598Y-110399810D01*
X138699973Y-110399756D01*
X138698326Y-110399701D01*
X138698224Y-110399683D01*
X138698421Y-110398649D01*
X138699005Y-110395669D01*
X138699969Y-110390790D01*
X138701301Y-110384059D01*
X138702993Y-110375522D01*
X138705036Y-110365226D01*
X138707420Y-110353219D01*
X138710136Y-110339547D01*
X138713175Y-110324257D01*
X138716526Y-110307395D01*
X138720182Y-110289009D01*
X138724132Y-110269145D01*
X138728368Y-110247850D01*
X138732879Y-110225172D01*
X138737657Y-110201156D01*
X138742693Y-110175850D01*
X138747976Y-110149300D01*
X138753499Y-110121554D01*
X138759250Y-110092658D01*
X138765222Y-110062659D01*
X138771404Y-110031603D01*
X138777788Y-109999539D01*
X138784363Y-109966512D01*
X138791122Y-109932569D01*
X138798054Y-109897758D01*
X138805150Y-109862124D01*
X138812401Y-109825716D01*
X138819797Y-109788579D01*
X138827330Y-109750760D01*
X138834989Y-109712307D01*
X138842766Y-109673266D01*
X138850651Y-109633684D01*
X138858635Y-109593608D01*
X138859768Y-109587926D01*
X138867765Y-109547783D01*
X138875665Y-109508127D01*
X138883457Y-109469006D01*
X138891134Y-109430465D01*
X138898685Y-109392553D01*
X138906101Y-109355315D01*
X138913374Y-109318798D01*
X138920492Y-109283050D01*
X138927448Y-109248117D01*
X138934232Y-109214045D01*
X138940834Y-109180883D01*
X138947245Y-109148677D01*
X138953456Y-109117473D01*
X138959458Y-109087318D01*
X138965241Y-109058259D01*
X138970796Y-109030344D01*
X138976114Y-109003618D01*
X138981185Y-108978130D01*
X138986000Y-108953924D01*
X138990550Y-108931050D01*
X138994825Y-108909552D01*
X138998816Y-108889479D01*
X139002513Y-108870877D01*
X139005908Y-108853792D01*
X139008991Y-108838272D01*
X139011753Y-108824364D01*
X139014184Y-108812114D01*
X139016276Y-108801569D01*
X139018018Y-108792776D01*
X139019401Y-108785782D01*
X139020417Y-108780633D01*
X139021056Y-108777378D01*
X139021308Y-108776061D01*
X139021312Y-108776034D01*
X139020426Y-108775942D01*
X139017760Y-108775854D01*
X139013303Y-108775770D01*
X139007043Y-108775691D01*
X138998968Y-108775616D01*
X138989067Y-108775546D01*
X138977327Y-108775480D01*
X138963737Y-108775418D01*
X138948286Y-108775360D01*
X138930961Y-108775307D01*
X138911751Y-108775258D01*
X138890644Y-108775213D01*
X138867628Y-108775173D01*
X138842693Y-108775136D01*
X138815825Y-108775104D01*
X138787013Y-108775076D01*
X138756245Y-108775052D01*
X138723511Y-108775032D01*
X138688797Y-108775016D01*
X138652093Y-108775004D01*
X138613386Y-108774996D01*
X138572665Y-108774992D01*
X138079957Y-108774992D01*
X137955634Y-109399070D01*
X137948315Y-109435808D01*
X137940978Y-109472641D01*
X137933637Y-109509492D01*
X137926308Y-109546282D01*
X137919006Y-109582935D01*
X137911747Y-109619375D01*
X137904546Y-109655523D01*
X137897418Y-109691303D01*
X137890379Y-109726638D01*
X137883444Y-109761451D01*
X137876628Y-109795665D01*
X137869947Y-109829202D01*
X137863417Y-109861986D01*
X137857051Y-109893939D01*
X137850867Y-109924985D01*
X137844878Y-109955046D01*
X137839101Y-109984045D01*
X137833551Y-110011906D01*
X137828243Y-110038551D01*
X137823193Y-110063903D01*
X137818415Y-110087885D01*
X137813926Y-110110421D01*
X137809741Y-110131432D01*
X137805874Y-110150842D01*
X137802342Y-110168574D01*
X137799159Y-110184551D01*
X137796341Y-110198696D01*
X137793904Y-110210931D01*
X137793717Y-110211870D01*
X137756122Y-110400592D01*
X136440417Y-110400592D01*
X136440985Y-110397798D01*
X136441205Y-110396707D01*
X136441820Y-110393659D01*
X136442822Y-110388685D01*
X136444206Y-110381821D01*
X136445965Y-110373100D01*
X136448091Y-110362555D01*
X136450577Y-110350220D01*
X136453418Y-110336129D01*
X136456606Y-110320315D01*
X136460135Y-110302812D01*
X136463997Y-110283654D01*
X136468186Y-110262874D01*
X136472695Y-110240506D01*
X136477518Y-110216584D01*
X136482647Y-110191141D01*
X136488076Y-110164211D01*
X136493798Y-110135828D01*
X136499806Y-110106025D01*
X136506094Y-110074836D01*
X136512654Y-110042295D01*
X136519480Y-110008435D01*
X136526565Y-109973290D01*
X136533902Y-109936893D01*
X136541485Y-109899279D01*
X136549306Y-109860481D01*
X136557360Y-109820533D01*
X136565638Y-109779467D01*
X136574135Y-109737319D01*
X136582843Y-109694121D01*
X136591756Y-109649908D01*
X136600867Y-109604712D01*
X136610170Y-109558568D01*
X136619656Y-109511509D01*
X136629321Y-109463569D01*
X136639156Y-109414782D01*
X136649155Y-109365181D01*
X136659311Y-109314800D01*
X136669618Y-109263672D01*
X136680069Y-109211832D01*
X136690656Y-109159312D01*
X136701374Y-109106147D01*
X136712215Y-109052370D01*
X136723172Y-108998015D01*
X136734240Y-108943116D01*
X136745410Y-108887705D01*
X136756676Y-108831818D01*
X136758096Y-108824776D01*
X136769373Y-108768835D01*
X136780554Y-108713369D01*
X136791634Y-108658410D01*
X136802604Y-108603993D01*
X136813458Y-108550151D01*
X136824190Y-108496918D01*
X136834792Y-108444327D01*
X136845259Y-108392412D01*
X136855582Y-108341206D01*
X136865755Y-108290744D01*
X136875772Y-108241058D01*
X136885626Y-108192183D01*
X136895309Y-108144152D01*
X136904816Y-108096999D01*
X136914139Y-108050757D01*
X136923271Y-108005460D01*
X136932206Y-107961142D01*
X136940938Y-107917836D01*
X136949458Y-107875576D01*
X136957761Y-107834396D01*
X136965840Y-107794328D01*
X136973687Y-107755408D01*
X136981297Y-107717667D01*
X136988661Y-107681141D01*
X136995775Y-107645863D01*
X137002630Y-107611866D01*
X137009220Y-107579183D01*
X137015538Y-107547850D01*
X137021578Y-107517898D01*
X137027332Y-107489363D01*
X137032794Y-107462277D01*
X137037957Y-107436674D01*
X137042815Y-107412588D01*
X137047360Y-107390052D01*
X137051585Y-107369100D01*
X137055485Y-107349766D01*
X137059052Y-107332083D01*
X137062279Y-107316085D01*
X137065159Y-107301806D01*
X137067687Y-107289279D01*
X137069854Y-107278537D01*
X137071655Y-107269615D01*
X137073082Y-107262546D01*
X137074129Y-107257364D01*
X137074789Y-107254102D01*
X137075055Y-107252794D01*
X137075060Y-107252769D01*
X137075028Y-107252640D01*
X137074834Y-107252518D01*
X137074430Y-107252401D01*
X137073765Y-107252291D01*
X137072788Y-107252186D01*
X137071450Y-107252088D01*
X137069701Y-107251995D01*
X137067490Y-107251907D01*
X137064768Y-107251824D01*
X137061485Y-107251747D01*
X137057589Y-107251674D01*
X137053032Y-107251607D01*
X137047763Y-107251544D01*
X137041732Y-107251485D01*
X137034889Y-107251431D01*
X137027184Y-107251380D01*
X137018567Y-107251334D01*
X137008988Y-107251292D01*
X136998396Y-107251253D01*
X136986741Y-107251217D01*
X136973975Y-107251185D01*
X136960045Y-107251156D01*
X136944903Y-107251131D01*
X136928498Y-107251107D01*
X136910780Y-107251087D01*
X136891699Y-107251069D01*
X136871205Y-107251054D01*
X136849248Y-107251040D01*
X136825778Y-107251029D01*
X136800745Y-107251020D01*
X136774098Y-107251012D01*
X136745787Y-107251006D01*
X136715763Y-107251001D01*
X136683976Y-107250997D01*
X136650374Y-107250995D01*
X136614909Y-107250993D01*
X136577530Y-107250992D01*
X136538187Y-107250992D01*
X136523621Y-107250991D01*
X135971760Y-107250992D01*
X135655852Y-108825792D01*
X135339943Y-110400592D01*
X134027445Y-110400592D01*
X134028086Y-110397290D01*
X134028308Y-110396181D01*
X134028922Y-110393114D01*
X134029923Y-110388121D01*
X134031303Y-110381238D01*
X134033056Y-110372497D01*
X134035175Y-110361932D01*
X134037653Y-110349576D01*
X134040483Y-110335465D01*
X134043659Y-110319630D01*
X134047174Y-110302106D01*
X134051021Y-110282926D01*
X134055194Y-110262125D01*
X134059685Y-110239735D01*
X134064488Y-110215791D01*
X134069596Y-110190326D01*
X134075002Y-110163374D01*
X134080700Y-110134968D01*
X134086683Y-110105142D01*
X134092944Y-110073931D01*
X134099477Y-110041366D01*
X134106274Y-110007483D01*
X134113328Y-109972315D01*
X134120634Y-109935896D01*
X134128185Y-109898258D01*
X134135972Y-109859437D01*
X134143991Y-109819465D01*
X134152234Y-109778376D01*
X134160694Y-109736204D01*
X134169364Y-109692983D01*
X134178238Y-109648746D01*
X134187310Y-109603527D01*
X134196571Y-109557359D01*
X134206017Y-109510277D01*
X134215639Y-109462314D01*
X134225431Y-109413503D01*
X134235386Y-109363879D01*
X134245498Y-109313475D01*
X134255759Y-109262324D01*
X134266164Y-109210461D01*
X134276704Y-109157918D01*
X134287374Y-109104731D01*
X134298167Y-109050931D01*
X134309076Y-108996554D01*
X134320095Y-108941633D01*
X134331215Y-108886200D01*
X134342432Y-108830291D01*
X134343946Y-108822744D01*
X134659165Y-107251500D01*
X133161641Y-107251245D01*
X133106478Y-107251236D01*
X133051801Y-107251228D01*
X132997646Y-107251220D01*
X132944048Y-107251214D01*
X132891043Y-107251208D01*
X132838665Y-107251203D01*
X132786952Y-107251198D01*
X132735937Y-107251194D01*
X132685657Y-107251191D01*
X132636147Y-107251189D01*
X132587442Y-107251188D01*
X132539578Y-107251187D01*
X132446514Y-107251187D01*
X132401385Y-107251189D01*
X132357239Y-107251191D01*
X132314110Y-107251193D01*
X132272035Y-107251197D01*
X132231049Y-107251201D01*
X132191188Y-107251205D01*
X132152486Y-107251211D01*
X132114979Y-107251217D01*
X132078703Y-107251223D01*
X132043694Y-107251231D01*
X132009986Y-107251238D01*
X131977614Y-107251247D01*
X131946616Y-107251256D01*
X131917025Y-107251266D01*
X131888878Y-107251276D01*
X131862210Y-107251287D01*
X131837056Y-107251299D01*
X131813451Y-107251311D01*
X131791432Y-107251324D01*
X131771033Y-107251337D01*
X131752291Y-107251351D01*
X131735240Y-107251365D01*
X131719916Y-107251380D01*
X131706354Y-107251396D01*
X131694590Y-107251412D01*
X131684660Y-107251429D01*
X131676598Y-107251446D01*
X131670440Y-107251463D01*
X131666222Y-107251482D01*
X131663979Y-107251500D01*
X131663596Y-107251512D01*
X131663363Y-107252532D01*
X131662756Y-107255450D01*
X131661793Y-107260170D01*
X131660494Y-107266596D01*
X131658877Y-107274631D01*
X131656962Y-107284180D01*
X131654768Y-107295146D01*
X131652314Y-107307435D01*
X131649618Y-107320950D01*
X131646700Y-107335594D01*
X131643579Y-107351272D01*
X131640274Y-107367889D01*
X131636803Y-107385347D01*
X131633186Y-107403552D01*
X131629441Y-107422407D01*
X131625589Y-107441816D01*
X131621647Y-107461683D01*
X131617635Y-107481913D01*
X131613572Y-107502408D01*
X131609477Y-107523075D01*
X131605368Y-107543815D01*
X131601265Y-107564534D01*
X131597187Y-107585136D01*
X131593153Y-107605524D01*
X131589182Y-107625602D01*
X131585292Y-107645275D01*
X131581504Y-107664447D01*
X131577835Y-107683022D01*
X131574305Y-107700903D01*
X131570933Y-107717995D01*
X131567738Y-107734202D01*
X131564738Y-107749428D01*
X131561954Y-107763577D01*
X131559403Y-107776552D01*
X131557106Y-107788259D01*
X131555080Y-107798600D01*
X131553345Y-107807481D01*
X131551920Y-107814805D01*
X131550824Y-107820476D01*
X131550076Y-107824398D01*
X131549695Y-107826475D01*
X131549648Y-107826791D01*
X131549972Y-107826865D01*
X131550970Y-107826936D01*
X131552673Y-107827005D01*
X131555116Y-107827071D01*
X131558332Y-107827134D01*
X131562355Y-107827195D01*
X131567219Y-107827253D01*
X131572956Y-107827309D01*
X131579602Y-107827362D01*
X131587189Y-107827413D01*
X131595751Y-107827462D01*
X131605322Y-107827509D01*
X131615936Y-107827553D01*
X131627625Y-107827595D01*
X131640425Y-107827635D01*
X131654367Y-107827673D01*
X131669487Y-107827709D01*
X131685817Y-107827743D01*
X131703392Y-107827775D01*
X131722244Y-107827805D01*
X131742409Y-107827833D01*
X131763918Y-107827860D01*
X131786806Y-107827884D01*
X131811107Y-107827907D01*
X131836854Y-107827929D01*
X131864081Y-107827948D01*
X131892821Y-107827966D01*
X131923109Y-107827983D01*
X131954977Y-107827998D01*
X131988459Y-107828011D01*
X132023590Y-107828024D01*
X132060402Y-107828035D01*
X132098930Y-107828044D01*
X132139207Y-107828052D01*
X132181266Y-107828060D01*
X132225141Y-107828066D01*
X132270867Y-107828070D01*
X132318476Y-107828074D01*
X132368002Y-107828077D01*
X132419480Y-107828079D01*
X132472941Y-107828079D01*
X132495518Y-107828080D01*
X133441389Y-107828080D01*
X133440737Y-107831382D01*
X133440496Y-107832583D01*
X133439866Y-107835715D01*
X133438860Y-107840715D01*
X133437491Y-107847521D01*
X133435771Y-107856071D01*
X133433711Y-107866304D01*
X133431326Y-107878156D01*
X133428627Y-107891567D01*
X133425627Y-107906474D01*
X133422338Y-107922816D01*
X133418772Y-107940529D01*
X133414943Y-107959553D01*
X133410862Y-107979826D01*
X133406543Y-108001285D01*
X133401997Y-108023868D01*
X133397237Y-108047514D01*
X133392276Y-108072161D01*
X133387126Y-108097746D01*
X133381799Y-108124208D01*
X133376308Y-108151484D01*
X133370666Y-108179513D01*
X133364885Y-108208232D01*
X133358977Y-108237581D01*
X133352954Y-108267496D01*
X133346831Y-108297915D01*
X133345488Y-108304584D01*
X133250891Y-108774484D01*
X132304834Y-108774738D01*
X132252073Y-108774752D01*
X132201305Y-108774766D01*
X132152493Y-108774780D01*
X132105599Y-108774794D01*
X132060583Y-108774808D01*
X132017407Y-108774822D01*
X131976033Y-108774836D01*
X131936424Y-108774850D01*
X131898540Y-108774864D01*
X131862343Y-108774879D01*
X131827795Y-108774895D01*
X131794858Y-108774911D01*
X131763493Y-108774927D01*
X131733662Y-108774945D01*
X131705327Y-108774963D01*
X131678449Y-108774982D01*
X131652991Y-108775002D01*
X131628913Y-108775023D01*
X131606177Y-108775046D01*
X131584746Y-108775069D01*
X131564581Y-108775094D01*
X131545643Y-108775120D01*
X131527894Y-108775148D01*
X131511297Y-108775177D01*
X131495812Y-108775208D01*
X131481401Y-108775240D01*
X131468027Y-108775274D01*
X131455650Y-108775311D01*
X131444233Y-108775349D01*
X131433736Y-108775389D01*
X131424123Y-108775431D01*
X131415354Y-108775476D01*
X131407391Y-108775523D01*
X131400196Y-108775572D01*
X131393731Y-108775624D01*
X131387957Y-108775678D01*
X131382836Y-108775735D01*
X131378330Y-108775794D01*
X131374400Y-108775856D01*
X131371008Y-108775922D01*
X131368115Y-108775990D01*
X131365685Y-108776061D01*
X131363677Y-108776135D01*
X131362054Y-108776213D01*
X131360778Y-108776293D01*
X131359810Y-108776378D01*
X131359112Y-108776465D01*
X131358645Y-108776556D01*
X131358372Y-108776651D01*
X131358254Y-108776749D01*
X131358245Y-108776770D01*
X131357992Y-108777951D01*
X131357366Y-108781024D01*
X131356386Y-108785893D01*
X131355071Y-108792461D01*
X131353441Y-108800633D01*
X131351514Y-108810312D01*
X131349309Y-108821402D01*
X131346845Y-108833807D01*
X131344142Y-108847430D01*
X131341218Y-108862175D01*
X131338093Y-108877946D01*
X131334784Y-108894647D01*
X131331312Y-108912181D01*
X131327696Y-108930452D01*
X131323954Y-108949364D01*
X131320105Y-108968821D01*
X131316169Y-108988725D01*
X131312164Y-109008982D01*
X131308110Y-109029494D01*
X131304025Y-109050166D01*
X131299929Y-109070902D01*
X131295840Y-109091604D01*
X131291778Y-109112177D01*
X131287761Y-109132524D01*
X131283809Y-109152550D01*
X131279940Y-109172157D01*
X131276174Y-109191250D01*
X131272530Y-109209733D01*
X131269026Y-109227508D01*
X131265682Y-109244481D01*
X131262516Y-109260554D01*
X131259549Y-109275632D01*
X131256798Y-109289617D01*
X131254282Y-109302414D01*
X131252022Y-109313927D01*
X131250035Y-109324060D01*
X131248341Y-109332715D01*
X131246958Y-109339797D01*
X131245907Y-109345209D01*
X131245205Y-109348856D01*
X131244872Y-109350641D01*
X131244846Y-109350810D01*
X131245192Y-109350883D01*
X131246253Y-109350953D01*
X131248061Y-109351021D01*
X131250650Y-109351086D01*
X131254052Y-109351149D01*
X131258301Y-109351209D01*
X131263429Y-109351267D01*
X131269470Y-109351322D01*
X131276456Y-109351375D01*
X131284421Y-109351425D01*
X131293398Y-109351474D01*
X131303420Y-109351520D01*
X131314519Y-109351563D01*
X131326729Y-109351605D01*
X131340083Y-109351645D01*
X131354614Y-109351682D01*
X131370354Y-109351718D01*
X131387338Y-109351751D01*
X131405597Y-109351783D01*
X131425166Y-109351813D01*
X131446076Y-109351840D01*
X131468361Y-109351866D01*
X131492055Y-109351891D01*
X131517190Y-109351913D01*
X131543798Y-109351934D01*
X131571914Y-109351954D01*
X131601570Y-109351971D01*
X131632799Y-109351988D01*
X131665635Y-109352002D01*
X131700110Y-109352016D01*
X131736257Y-109352028D01*
X131774109Y-109352038D01*
X131813700Y-109352047D01*
X131855062Y-109352055D01*
X131898228Y-109352062D01*
X131943232Y-109352068D01*
X131990107Y-109352072D01*
X132038885Y-109352076D01*
X132089599Y-109352078D01*
X132142283Y-109352079D01*
X132190852Y-109352080D01*
X132245307Y-109352080D01*
X132297762Y-109352081D01*
X132348251Y-109352084D01*
X132396808Y-109352087D01*
X132443465Y-109352092D01*
X132488254Y-109352098D01*
X132531210Y-109352104D01*
X132572365Y-109352112D01*
X132611753Y-109352122D01*
X132649405Y-109352133D01*
X132685356Y-109352145D01*
X132719639Y-109352158D01*
X132752285Y-109352173D01*
X132783329Y-109352189D01*
X132812803Y-109352207D01*
X132840741Y-109352227D01*
X132867175Y-109352248D01*
X132892139Y-109352270D01*
X132915665Y-109352295D01*
X132937787Y-109352321D01*
X132958537Y-109352349D01*
X132977949Y-109352379D01*
X132996055Y-109352411D01*
X133012889Y-109352445D01*
X133028484Y-109352480D01*
X133042873Y-109352518D01*
X133056088Y-109352558D01*
X133068163Y-109352600D01*
X133079131Y-109352644D01*
X133089024Y-109352690D01*
X133097876Y-109352738D01*
X133105721Y-109352789D01*
X133112590Y-109352842D01*
X133118517Y-109352898D01*
X133123535Y-109352956D01*
X133127677Y-109353016D01*
X133130976Y-109353079D01*
X133133465Y-109353144D01*
X133135177Y-109353212D01*
X133136145Y-109353283D01*
X133136408Y-109353350D01*
X133136183Y-109354415D01*
X133135571Y-109357414D01*
X133134585Y-109362290D01*
X133133236Y-109368982D01*
X133131535Y-109377434D01*
X133129494Y-109387586D01*
X133127126Y-109399380D01*
X133124441Y-109412759D01*
X133121451Y-109427662D01*
X133118169Y-109444032D01*
X133114605Y-109461811D01*
X133110772Y-109480940D01*
X133106681Y-109501361D01*
X133102343Y-109523015D01*
X133097772Y-109545844D01*
X133092977Y-109569790D01*
X133087972Y-109594793D01*
X133082767Y-109620796D01*
X133077375Y-109647741D01*
X133071807Y-109675568D01*
X133066074Y-109704220D01*
X133060189Y-109733638D01*
X133054163Y-109763764D01*
X133048008Y-109794538D01*
X133041736Y-109825904D01*
X133035358Y-109857802D01*
X133031398Y-109877606D01*
X132926838Y-110400592D01*
X129722880Y-110400592D01*
X129722924Y-110398306D01*
X129723125Y-110397244D01*
X129723720Y-110394219D01*
X129724705Y-110389260D01*
X129726072Y-110382396D01*
X129727817Y-110373657D01*
X129729934Y-110363071D01*
X129732416Y-110350667D01*
X129735257Y-110336475D01*
X129738453Y-110320524D01*
X129741997Y-110302842D01*
X129745882Y-110283460D01*
X129750105Y-110262405D01*
X129754657Y-110239708D01*
X129759535Y-110215396D01*
X129764731Y-110189500D01*
X129770240Y-110162048D01*
X129776057Y-110133070D01*
X129782174Y-110102594D01*
X129788587Y-110070650D01*
X129795290Y-110037267D01*
X129802277Y-110002473D01*
X129809541Y-109966299D01*
X129817077Y-109928772D01*
X129824880Y-109889923D01*
X129832943Y-109849780D01*
X129841261Y-109808372D01*
X129849827Y-109765729D01*
X129858636Y-109721879D01*
X129867682Y-109676852D01*
X129876959Y-109630677D01*
X129886462Y-109583382D01*
X129896184Y-109534998D01*
X129906119Y-109485552D01*
X129916263Y-109435075D01*
X129926608Y-109383595D01*
X129937149Y-109331141D01*
X129947881Y-109277742D01*
X129958797Y-109223429D01*
X129969891Y-109168228D01*
X129981158Y-109112171D01*
X129992592Y-109055285D01*
X130004187Y-108997600D01*
X130015938Y-108939146D01*
X130027837Y-108879950D01*
X130039880Y-108820042D01*
X130052061Y-108759452D01*
X130064373Y-108698209D01*
X130076811Y-108636340D01*
X130089370Y-108573877D01*
X130102043Y-108510847D01*
X130114824Y-108447280D01*
X130127707Y-108383205D01*
X130140687Y-108318650D01*
X130144844Y-108297980D01*
X130566720Y-106199940D01*
X134582199Y-106199685D01*
X138597678Y-106199432D01*
X138597144Y-106201717D01*
X138596918Y-106202819D01*
X138596297Y-106205866D01*
X138595292Y-106210810D01*
X138593912Y-106217605D01*
X138592166Y-106226203D01*
X138590064Y-106236559D01*
X138587616Y-106248625D01*
X138584831Y-106262353D01*
X138581719Y-106277698D01*
X138578289Y-106294612D01*
X138574550Y-106313048D01*
X138570513Y-106332960D01*
X138566186Y-106354300D01*
X138561580Y-106377021D01*
X138556703Y-106401078D01*
X138551565Y-106426421D01*
X138546176Y-106453006D01*
X138540545Y-106480784D01*
X138534682Y-106509709D01*
X138528596Y-106539734D01*
X138522297Y-106570812D01*
X138515794Y-106602897D01*
X138509097Y-106635940D01*
X138502216Y-106669895D01*
X138495159Y-106704716D01*
X138487936Y-106740356D01*
X138480557Y-106776766D01*
X138473032Y-106813902D01*
X138465369Y-106851715D01*
X138457579Y-106890158D01*
X138449671Y-106929185D01*
X138441654Y-106968750D01*
X138433538Y-107008804D01*
X138432534Y-107013756D01*
X138424407Y-107053867D01*
X138416377Y-107093493D01*
X138408455Y-107132589D01*
X138400650Y-107171107D01*
X138392971Y-107209000D01*
X138385428Y-107246221D01*
X138378031Y-107282723D01*
X138370789Y-107318460D01*
X138363711Y-107353384D01*
X138356807Y-107387448D01*
X138350087Y-107420606D01*
X138343560Y-107452811D01*
X138337235Y-107484015D01*
X138331123Y-107514172D01*
X138325232Y-107543235D01*
X138319573Y-107571156D01*
X138314154Y-107597890D01*
X138308985Y-107623389D01*
X138304075Y-107647605D01*
X138299435Y-107670493D01*
X138295074Y-107692006D01*
X138291001Y-107712095D01*
X138287225Y-107730715D01*
X138283757Y-107747819D01*
X138280605Y-107763359D01*
X138277780Y-107777288D01*
X138275290Y-107789561D01*
X138273146Y-107800129D01*
X138271356Y-107808946D01*
X138269931Y-107815965D01*
X138268879Y-107821139D01*
X138268211Y-107824421D01*
X138267936Y-107825764D01*
X138267929Y-107825793D01*
X138267401Y-107828079D01*
X139209103Y-107828079D01*
X139210137Y-107823253D01*
X139210391Y-107822025D01*
X139211042Y-107818853D01*
X139212082Y-107813785D01*
X139213500Y-107806867D01*
X139215286Y-107798148D01*
X139217432Y-107787673D01*
X139219928Y-107775491D01*
X139222763Y-107761648D01*
X139225928Y-107746192D01*
X139229414Y-107729170D01*
X139233211Y-107710629D01*
X139237309Y-107690615D01*
X139241699Y-107669177D01*
X139246370Y-107646362D01*
X139251314Y-107622216D01*
X139256520Y-107596787D01*
X139261979Y-107570122D01*
X139267681Y-107542268D01*
X139273617Y-107513272D01*
X139279777Y-107483182D01*
X139286152Y-107452044D01*
X139292730Y-107419906D01*
X139299504Y-107386815D01*
X139306463Y-107352819D01*
X139313598Y-107317963D01*
X139320899Y-107282297D01*
X139328356Y-107245865D01*
X139335960Y-107208717D01*
X139343701Y-107170899D01*
X139351569Y-107132457D01*
X139359555Y-107093440D01*
X139367649Y-107053895D01*
X139375841Y-107013868D01*
X139376384Y-107011216D01*
X139384579Y-106971176D01*
X139392676Y-106931620D01*
X139400664Y-106892595D01*
X139408533Y-106854148D01*
X139416276Y-106816326D01*
X139423880Y-106779176D01*
X139431338Y-106742745D01*
X139438640Y-106707079D01*
X139445775Y-106672227D01*
X139452735Y-106638234D01*
X139459509Y-106605148D01*
X139466088Y-106573015D01*
X139472462Y-106541884D01*
X139478623Y-106511800D01*
X139484559Y-106482810D01*
X139490262Y-106454963D01*
X139495722Y-106428303D01*
X139500929Y-106402880D01*
X139505873Y-106378739D01*
X139510546Y-106355927D01*
X139514937Y-106334492D01*
X139519037Y-106314480D01*
X139522836Y-106295939D01*
X139526325Y-106278915D01*
X139529494Y-106263455D01*
X139532332Y-106249607D01*
X139534832Y-106237417D01*
X139536983Y-106226932D01*
X139538775Y-106218200D01*
X139540199Y-106211267D01*
X139541245Y-106206180D01*
X139541904Y-106202986D01*
X139542165Y-106201732D01*
X139542169Y-106201718D01*
X139542740Y-106199432D01*
X140244266Y-106199432D01*
X140287465Y-106199434D01*
D13*
X122588095Y-81422381D02*
X122588095Y-82231905D01*
X122635714Y-82327143D01*
X122683333Y-82374762D01*
X122778571Y-82422381D01*
X122969048Y-82422381D01*
X123064286Y-82374762D01*
X123111905Y-82327143D01*
X123159524Y-82231905D01*
X123159524Y-81422381D01*
X123778571Y-81850952D02*
X123683333Y-81803333D01*
X123635714Y-81755714D01*
X123588095Y-81660476D01*
X123588095Y-81612857D01*
X123635714Y-81517619D01*
X123683333Y-81470000D01*
X123778571Y-81422381D01*
X123969048Y-81422381D01*
X124064286Y-81470000D01*
X124111905Y-81517619D01*
X124159524Y-81612857D01*
X124159524Y-81660476D01*
X124111905Y-81755714D01*
X124064286Y-81803333D01*
X123969048Y-81850952D01*
X123778571Y-81850952D01*
X123683333Y-81898571D01*
X123635714Y-81946190D01*
X123588095Y-82041429D01*
X123588095Y-82231905D01*
X123635714Y-82327143D01*
X123683333Y-82374762D01*
X123778571Y-82422381D01*
X123969048Y-82422381D01*
X124064286Y-82374762D01*
X124111905Y-82327143D01*
X124159524Y-82231905D01*
X124159524Y-82041429D01*
X124111905Y-81946190D01*
X124064286Y-81898571D01*
X123969048Y-81850952D01*
X161833334Y-97807143D02*
X161785715Y-97854762D01*
X161642858Y-97902381D01*
X161547620Y-97902381D01*
X161404762Y-97854762D01*
X161309524Y-97759524D01*
X161261905Y-97664286D01*
X161214286Y-97473810D01*
X161214286Y-97330952D01*
X161261905Y-97140476D01*
X161309524Y-97045238D01*
X161404762Y-96950000D01*
X161547620Y-96902381D01*
X161642858Y-96902381D01*
X161785715Y-96950000D01*
X161833334Y-96997619D01*
X162785715Y-97902381D02*
X162214286Y-97902381D01*
X162500000Y-97902381D02*
X162500000Y-96902381D01*
X162404762Y-97045238D01*
X162309524Y-97140476D01*
X162214286Y-97188095D01*
X167607143Y-100766666D02*
X167654762Y-100814285D01*
X167702381Y-100957142D01*
X167702381Y-101052380D01*
X167654762Y-101195238D01*
X167559524Y-101290476D01*
X167464286Y-101338095D01*
X167273810Y-101385714D01*
X167130952Y-101385714D01*
X166940476Y-101338095D01*
X166845238Y-101290476D01*
X166750000Y-101195238D01*
X166702381Y-101052380D01*
X166702381Y-100957142D01*
X166750000Y-100814285D01*
X166797619Y-100766666D01*
X166797619Y-100385714D02*
X166750000Y-100338095D01*
X166702381Y-100242857D01*
X166702381Y-100004761D01*
X166750000Y-99909523D01*
X166797619Y-99861904D01*
X166892857Y-99814285D01*
X166988095Y-99814285D01*
X167130952Y-99861904D01*
X167702381Y-100433333D01*
X167702381Y-99814285D01*
X168233334Y-107607143D02*
X168185715Y-107654762D01*
X168042858Y-107702381D01*
X167947620Y-107702381D01*
X167804762Y-107654762D01*
X167709524Y-107559524D01*
X167661905Y-107464286D01*
X167614286Y-107273810D01*
X167614286Y-107130952D01*
X167661905Y-106940476D01*
X167709524Y-106845238D01*
X167804762Y-106750000D01*
X167947620Y-106702381D01*
X168042858Y-106702381D01*
X168185715Y-106750000D01*
X168233334Y-106797619D01*
X168566667Y-106702381D02*
X169185715Y-106702381D01*
X168852381Y-107083333D01*
X168995239Y-107083333D01*
X169090477Y-107130952D01*
X169138096Y-107178571D01*
X169185715Y-107273810D01*
X169185715Y-107511905D01*
X169138096Y-107607143D01*
X169090477Y-107654762D01*
X168995239Y-107702381D01*
X168709524Y-107702381D01*
X168614286Y-107654762D01*
X168566667Y-107607143D01*
X148833334Y-82207143D02*
X148785715Y-82254762D01*
X148642858Y-82302381D01*
X148547620Y-82302381D01*
X148404762Y-82254762D01*
X148309524Y-82159524D01*
X148261905Y-82064286D01*
X148214286Y-81873810D01*
X148214286Y-81730952D01*
X148261905Y-81540476D01*
X148309524Y-81445238D01*
X148404762Y-81350000D01*
X148547620Y-81302381D01*
X148642858Y-81302381D01*
X148785715Y-81350000D01*
X148833334Y-81397619D01*
X149690477Y-81635714D02*
X149690477Y-82302381D01*
X149452381Y-81254762D02*
X149214286Y-81969048D01*
X149833334Y-81969048D01*
X149107143Y-75766666D02*
X149154762Y-75814285D01*
X149202381Y-75957142D01*
X149202381Y-76052380D01*
X149154762Y-76195238D01*
X149059524Y-76290476D01*
X148964286Y-76338095D01*
X148773810Y-76385714D01*
X148630952Y-76385714D01*
X148440476Y-76338095D01*
X148345238Y-76290476D01*
X148250000Y-76195238D01*
X148202381Y-76052380D01*
X148202381Y-75957142D01*
X148250000Y-75814285D01*
X148297619Y-75766666D01*
X148202381Y-74861904D02*
X148202381Y-75338095D01*
X148678571Y-75385714D01*
X148630952Y-75338095D01*
X148583333Y-75242857D01*
X148583333Y-75004761D01*
X148630952Y-74909523D01*
X148678571Y-74861904D01*
X148773810Y-74814285D01*
X149011905Y-74814285D01*
X149107143Y-74861904D01*
X149154762Y-74909523D01*
X149202381Y-75004761D01*
X149202381Y-75242857D01*
X149154762Y-75338095D01*
X149107143Y-75385714D01*
X146833334Y-83707143D02*
X146785715Y-83754762D01*
X146642858Y-83802381D01*
X146547620Y-83802381D01*
X146404762Y-83754762D01*
X146309524Y-83659524D01*
X146261905Y-83564286D01*
X146214286Y-83373810D01*
X146214286Y-83230952D01*
X146261905Y-83040476D01*
X146309524Y-82945238D01*
X146404762Y-82850000D01*
X146547620Y-82802381D01*
X146642858Y-82802381D01*
X146785715Y-82850000D01*
X146833334Y-82897619D01*
X147690477Y-82802381D02*
X147500000Y-82802381D01*
X147404762Y-82850000D01*
X147357143Y-82897619D01*
X147261905Y-83040476D01*
X147214286Y-83230952D01*
X147214286Y-83611905D01*
X147261905Y-83707143D01*
X147309524Y-83754762D01*
X147404762Y-83802381D01*
X147595239Y-83802381D01*
X147690477Y-83754762D01*
X147738096Y-83707143D01*
X147785715Y-83611905D01*
X147785715Y-83373810D01*
X147738096Y-83278571D01*
X147690477Y-83230952D01*
X147595239Y-83183333D01*
X147404762Y-83183333D01*
X147309524Y-83230952D01*
X147261905Y-83278571D01*
X147214286Y-83373810D01*
X162407143Y-75566666D02*
X162454762Y-75614285D01*
X162502381Y-75757142D01*
X162502381Y-75852380D01*
X162454762Y-75995238D01*
X162359524Y-76090476D01*
X162264286Y-76138095D01*
X162073810Y-76185714D01*
X161930952Y-76185714D01*
X161740476Y-76138095D01*
X161645238Y-76090476D01*
X161550000Y-75995238D01*
X161502381Y-75852380D01*
X161502381Y-75757142D01*
X161550000Y-75614285D01*
X161597619Y-75566666D01*
X161502381Y-75233333D02*
X161502381Y-74566666D01*
X162502381Y-74995238D01*
X149607143Y-88966666D02*
X149654762Y-89014285D01*
X149702381Y-89157142D01*
X149702381Y-89252380D01*
X149654762Y-89395238D01*
X149559524Y-89490476D01*
X149464286Y-89538095D01*
X149273810Y-89585714D01*
X149130952Y-89585714D01*
X148940476Y-89538095D01*
X148845238Y-89490476D01*
X148750000Y-89395238D01*
X148702381Y-89252380D01*
X148702381Y-89157142D01*
X148750000Y-89014285D01*
X148797619Y-88966666D01*
X149130952Y-88395238D02*
X149083333Y-88490476D01*
X149035714Y-88538095D01*
X148940476Y-88585714D01*
X148892857Y-88585714D01*
X148797619Y-88538095D01*
X148750000Y-88490476D01*
X148702381Y-88395238D01*
X148702381Y-88204761D01*
X148750000Y-88109523D01*
X148797619Y-88061904D01*
X148892857Y-88014285D01*
X148940476Y-88014285D01*
X149035714Y-88061904D01*
X149083333Y-88109523D01*
X149130952Y-88204761D01*
X149130952Y-88395238D01*
X149178571Y-88490476D01*
X149226190Y-88538095D01*
X149321429Y-88585714D01*
X149511905Y-88585714D01*
X149607143Y-88538095D01*
X149654762Y-88490476D01*
X149702381Y-88395238D01*
X149702381Y-88204761D01*
X149654762Y-88109523D01*
X149607143Y-88061904D01*
X149511905Y-88014285D01*
X149321429Y-88014285D01*
X149226190Y-88061904D01*
X149178571Y-88109523D01*
X149130952Y-88204761D01*
X153107143Y-110666666D02*
X153154762Y-110714285D01*
X153202381Y-110857142D01*
X153202381Y-110952380D01*
X153154762Y-111095238D01*
X153059524Y-111190476D01*
X152964286Y-111238095D01*
X152773810Y-111285714D01*
X152630952Y-111285714D01*
X152440476Y-111238095D01*
X152345238Y-111190476D01*
X152250000Y-111095238D01*
X152202381Y-110952380D01*
X152202381Y-110857142D01*
X152250000Y-110714285D01*
X152297619Y-110666666D01*
X153202381Y-110190476D02*
X153202381Y-110000000D01*
X153154762Y-109904761D01*
X153107143Y-109857142D01*
X152964286Y-109761904D01*
X152773810Y-109714285D01*
X152392857Y-109714285D01*
X152297619Y-109761904D01*
X152250000Y-109809523D01*
X152202381Y-109904761D01*
X152202381Y-110095238D01*
X152250000Y-110190476D01*
X152297619Y-110238095D01*
X152392857Y-110285714D01*
X152630952Y-110285714D01*
X152726190Y-110238095D01*
X152773810Y-110190476D01*
X152821429Y-110095238D01*
X152821429Y-109904761D01*
X152773810Y-109809523D01*
X152726190Y-109761904D01*
X152630952Y-109714285D01*
X151557143Y-105307143D02*
X151509524Y-105354762D01*
X151366667Y-105402381D01*
X151271429Y-105402381D01*
X151128571Y-105354762D01*
X151033333Y-105259524D01*
X150985714Y-105164286D01*
X150938095Y-104973810D01*
X150938095Y-104830952D01*
X150985714Y-104640476D01*
X151033333Y-104545238D01*
X151128571Y-104450000D01*
X151271429Y-104402381D01*
X151366667Y-104402381D01*
X151509524Y-104450000D01*
X151557143Y-104497619D01*
X152509524Y-105402381D02*
X151938095Y-105402381D01*
X152223809Y-105402381D02*
X152223809Y-104402381D01*
X152128571Y-104545238D01*
X152033333Y-104640476D01*
X151938095Y-104688095D01*
X153128571Y-104402381D02*
X153223810Y-104402381D01*
X153319048Y-104450000D01*
X153366667Y-104497619D01*
X153414286Y-104592857D01*
X153461905Y-104783333D01*
X153461905Y-105021429D01*
X153414286Y-105211905D01*
X153366667Y-105307143D01*
X153319048Y-105354762D01*
X153223810Y-105402381D01*
X153128571Y-105402381D01*
X153033333Y-105354762D01*
X152985714Y-105307143D01*
X152938095Y-105211905D01*
X152890476Y-105021429D01*
X152890476Y-104783333D01*
X152938095Y-104592857D01*
X152985714Y-104497619D01*
X153033333Y-104450000D01*
X153128571Y-104402381D01*
X154507143Y-102642857D02*
X154554762Y-102690476D01*
X154602381Y-102833333D01*
X154602381Y-102928571D01*
X154554762Y-103071429D01*
X154459524Y-103166667D01*
X154364286Y-103214286D01*
X154173810Y-103261905D01*
X154030952Y-103261905D01*
X153840476Y-103214286D01*
X153745238Y-103166667D01*
X153650000Y-103071429D01*
X153602381Y-102928571D01*
X153602381Y-102833333D01*
X153650000Y-102690476D01*
X153697619Y-102642857D01*
X154602381Y-101690476D02*
X154602381Y-102261905D01*
X154602381Y-101976191D02*
X153602381Y-101976191D01*
X153745238Y-102071429D01*
X153840476Y-102166667D01*
X153888095Y-102261905D01*
X154602381Y-100738095D02*
X154602381Y-101309524D01*
X154602381Y-101023810D02*
X153602381Y-101023810D01*
X153745238Y-101119048D01*
X153840476Y-101214286D01*
X153888095Y-101309524D01*
X136857143Y-100607143D02*
X136809524Y-100654762D01*
X136666667Y-100702381D01*
X136571429Y-100702381D01*
X136428571Y-100654762D01*
X136333333Y-100559524D01*
X136285714Y-100464286D01*
X136238095Y-100273810D01*
X136238095Y-100130952D01*
X136285714Y-99940476D01*
X136333333Y-99845238D01*
X136428571Y-99750000D01*
X136571429Y-99702381D01*
X136666667Y-99702381D01*
X136809524Y-99750000D01*
X136857143Y-99797619D01*
X137809524Y-100702381D02*
X137238095Y-100702381D01*
X137523809Y-100702381D02*
X137523809Y-99702381D01*
X137428571Y-99845238D01*
X137333333Y-99940476D01*
X137238095Y-99988095D01*
X138190476Y-99797619D02*
X138238095Y-99750000D01*
X138333333Y-99702381D01*
X138571429Y-99702381D01*
X138666667Y-99750000D01*
X138714286Y-99797619D01*
X138761905Y-99892857D01*
X138761905Y-99988095D01*
X138714286Y-100130952D01*
X138142857Y-100702381D01*
X138761905Y-100702381D01*
X131957143Y-97032857D02*
X132004762Y-97080476D01*
X132052381Y-97223333D01*
X132052381Y-97318571D01*
X132004762Y-97461429D01*
X131909524Y-97556667D01*
X131814286Y-97604286D01*
X131623810Y-97651905D01*
X131480952Y-97651905D01*
X131290476Y-97604286D01*
X131195238Y-97556667D01*
X131100000Y-97461429D01*
X131052381Y-97318571D01*
X131052381Y-97223333D01*
X131100000Y-97080476D01*
X131147619Y-97032857D01*
X132052381Y-96080476D02*
X132052381Y-96651905D01*
X132052381Y-96366191D02*
X131052381Y-96366191D01*
X131195238Y-96461429D01*
X131290476Y-96556667D01*
X131338095Y-96651905D01*
X131052381Y-95747143D02*
X131052381Y-95128095D01*
X131433333Y-95461429D01*
X131433333Y-95318571D01*
X131480952Y-95223333D01*
X131528571Y-95175714D01*
X131623810Y-95128095D01*
X131861905Y-95128095D01*
X131957143Y-95175714D01*
X132004762Y-95223333D01*
X132052381Y-95318571D01*
X132052381Y-95604286D01*
X132004762Y-95699524D01*
X131957143Y-95747143D01*
X133757143Y-91607143D02*
X133709524Y-91654762D01*
X133566667Y-91702381D01*
X133471429Y-91702381D01*
X133328571Y-91654762D01*
X133233333Y-91559524D01*
X133185714Y-91464286D01*
X133138095Y-91273810D01*
X133138095Y-91130952D01*
X133185714Y-90940476D01*
X133233333Y-90845238D01*
X133328571Y-90750000D01*
X133471429Y-90702381D01*
X133566667Y-90702381D01*
X133709524Y-90750000D01*
X133757143Y-90797619D01*
X134709524Y-91702381D02*
X134138095Y-91702381D01*
X134423809Y-91702381D02*
X134423809Y-90702381D01*
X134328571Y-90845238D01*
X134233333Y-90940476D01*
X134138095Y-90988095D01*
X135566667Y-91035714D02*
X135566667Y-91702381D01*
X135328571Y-90654762D02*
X135090476Y-91369048D01*
X135709524Y-91369048D01*
X114357143Y-84642857D02*
X114404762Y-84690476D01*
X114452381Y-84833333D01*
X114452381Y-84928571D01*
X114404762Y-85071429D01*
X114309524Y-85166667D01*
X114214286Y-85214286D01*
X114023810Y-85261905D01*
X113880952Y-85261905D01*
X113690476Y-85214286D01*
X113595238Y-85166667D01*
X113500000Y-85071429D01*
X113452381Y-84928571D01*
X113452381Y-84833333D01*
X113500000Y-84690476D01*
X113547619Y-84642857D01*
X114452381Y-83690476D02*
X114452381Y-84261905D01*
X114452381Y-83976191D02*
X113452381Y-83976191D01*
X113595238Y-84071429D01*
X113690476Y-84166667D01*
X113738095Y-84261905D01*
X113452381Y-82785714D02*
X113452381Y-83261905D01*
X113928571Y-83309524D01*
X113880952Y-83261905D01*
X113833333Y-83166667D01*
X113833333Y-82928571D01*
X113880952Y-82833333D01*
X113928571Y-82785714D01*
X114023810Y-82738095D01*
X114261905Y-82738095D01*
X114357143Y-82785714D01*
X114404762Y-82833333D01*
X114452381Y-82928571D01*
X114452381Y-83166667D01*
X114404762Y-83261905D01*
X114357143Y-83309524D01*
X120857143Y-83607143D02*
X120809524Y-83654762D01*
X120666667Y-83702381D01*
X120571429Y-83702381D01*
X120428571Y-83654762D01*
X120333333Y-83559524D01*
X120285714Y-83464286D01*
X120238095Y-83273810D01*
X120238095Y-83130952D01*
X120285714Y-82940476D01*
X120333333Y-82845238D01*
X120428571Y-82750000D01*
X120571429Y-82702381D01*
X120666667Y-82702381D01*
X120809524Y-82750000D01*
X120857143Y-82797619D01*
X121809524Y-83702381D02*
X121238095Y-83702381D01*
X121523809Y-83702381D02*
X121523809Y-82702381D01*
X121428571Y-82845238D01*
X121333333Y-82940476D01*
X121238095Y-82988095D01*
X122666667Y-82702381D02*
X122476190Y-82702381D01*
X122380952Y-82750000D01*
X122333333Y-82797619D01*
X122238095Y-82940476D01*
X122190476Y-83130952D01*
X122190476Y-83511905D01*
X122238095Y-83607143D01*
X122285714Y-83654762D01*
X122380952Y-83702381D01*
X122571429Y-83702381D01*
X122666667Y-83654762D01*
X122714286Y-83607143D01*
X122761905Y-83511905D01*
X122761905Y-83273810D01*
X122714286Y-83178571D01*
X122666667Y-83130952D01*
X122571429Y-83083333D01*
X122380952Y-83083333D01*
X122285714Y-83130952D01*
X122238095Y-83178571D01*
X122190476Y-83273810D01*
X128487143Y-79922857D02*
X128534762Y-79970476D01*
X128582381Y-80113333D01*
X128582381Y-80208571D01*
X128534762Y-80351429D01*
X128439524Y-80446667D01*
X128344286Y-80494286D01*
X128153810Y-80541905D01*
X128010952Y-80541905D01*
X127820476Y-80494286D01*
X127725238Y-80446667D01*
X127630000Y-80351429D01*
X127582381Y-80208571D01*
X127582381Y-80113333D01*
X127630000Y-79970476D01*
X127677619Y-79922857D01*
X128582381Y-78970476D02*
X128582381Y-79541905D01*
X128582381Y-79256191D02*
X127582381Y-79256191D01*
X127725238Y-79351429D01*
X127820476Y-79446667D01*
X127868095Y-79541905D01*
X127582381Y-78637143D02*
X127582381Y-77970476D01*
X128582381Y-78399048D01*
X114357143Y-80142857D02*
X114404762Y-80190476D01*
X114452381Y-80333333D01*
X114452381Y-80428571D01*
X114404762Y-80571429D01*
X114309524Y-80666667D01*
X114214286Y-80714286D01*
X114023810Y-80761905D01*
X113880952Y-80761905D01*
X113690476Y-80714286D01*
X113595238Y-80666667D01*
X113500000Y-80571429D01*
X113452381Y-80428571D01*
X113452381Y-80333333D01*
X113500000Y-80190476D01*
X113547619Y-80142857D01*
X114452381Y-79190476D02*
X114452381Y-79761905D01*
X114452381Y-79476191D02*
X113452381Y-79476191D01*
X113595238Y-79571429D01*
X113690476Y-79666667D01*
X113738095Y-79761905D01*
X113880952Y-78619048D02*
X113833333Y-78714286D01*
X113785714Y-78761905D01*
X113690476Y-78809524D01*
X113642857Y-78809524D01*
X113547619Y-78761905D01*
X113500000Y-78714286D01*
X113452381Y-78619048D01*
X113452381Y-78428571D01*
X113500000Y-78333333D01*
X113547619Y-78285714D01*
X113642857Y-78238095D01*
X113690476Y-78238095D01*
X113785714Y-78285714D01*
X113833333Y-78333333D01*
X113880952Y-78428571D01*
X113880952Y-78619048D01*
X113928571Y-78714286D01*
X113976190Y-78761905D01*
X114071429Y-78809524D01*
X114261905Y-78809524D01*
X114357143Y-78761905D01*
X114404762Y-78714286D01*
X114452381Y-78619048D01*
X114452381Y-78428571D01*
X114404762Y-78333333D01*
X114357143Y-78285714D01*
X114261905Y-78238095D01*
X114071429Y-78238095D01*
X113976190Y-78285714D01*
X113928571Y-78333333D01*
X113880952Y-78428571D01*
X120857143Y-86607143D02*
X120809524Y-86654762D01*
X120666667Y-86702381D01*
X120571429Y-86702381D01*
X120428571Y-86654762D01*
X120333333Y-86559524D01*
X120285714Y-86464286D01*
X120238095Y-86273810D01*
X120238095Y-86130952D01*
X120285714Y-85940476D01*
X120333333Y-85845238D01*
X120428571Y-85750000D01*
X120571429Y-85702381D01*
X120666667Y-85702381D01*
X120809524Y-85750000D01*
X120857143Y-85797619D01*
X121809524Y-86702381D02*
X121238095Y-86702381D01*
X121523809Y-86702381D02*
X121523809Y-85702381D01*
X121428571Y-85845238D01*
X121333333Y-85940476D01*
X121238095Y-85988095D01*
X122285714Y-86702381D02*
X122476190Y-86702381D01*
X122571429Y-86654762D01*
X122619048Y-86607143D01*
X122714286Y-86464286D01*
X122761905Y-86273810D01*
X122761905Y-85892857D01*
X122714286Y-85797619D01*
X122666667Y-85750000D01*
X122571429Y-85702381D01*
X122380952Y-85702381D01*
X122285714Y-85750000D01*
X122238095Y-85797619D01*
X122190476Y-85892857D01*
X122190476Y-86130952D01*
X122238095Y-86226190D01*
X122285714Y-86273810D01*
X122380952Y-86321429D01*
X122571429Y-86321429D01*
X122666667Y-86273810D01*
X122714286Y-86226190D01*
X122761905Y-86130952D01*
X120857143Y-88857143D02*
X120809524Y-88904762D01*
X120666667Y-88952381D01*
X120571429Y-88952381D01*
X120428571Y-88904762D01*
X120333333Y-88809524D01*
X120285714Y-88714286D01*
X120238095Y-88523810D01*
X120238095Y-88380952D01*
X120285714Y-88190476D01*
X120333333Y-88095238D01*
X120428571Y-88000000D01*
X120571429Y-87952381D01*
X120666667Y-87952381D01*
X120809524Y-88000000D01*
X120857143Y-88047619D01*
X121238095Y-88047619D02*
X121285714Y-88000000D01*
X121380952Y-87952381D01*
X121619048Y-87952381D01*
X121714286Y-88000000D01*
X121761905Y-88047619D01*
X121809524Y-88142857D01*
X121809524Y-88238095D01*
X121761905Y-88380952D01*
X121190476Y-88952381D01*
X121809524Y-88952381D01*
X122428571Y-87952381D02*
X122523810Y-87952381D01*
X122619048Y-88000000D01*
X122666667Y-88047619D01*
X122714286Y-88142857D01*
X122761905Y-88333333D01*
X122761905Y-88571429D01*
X122714286Y-88761905D01*
X122666667Y-88857143D01*
X122619048Y-88904762D01*
X122523810Y-88952381D01*
X122428571Y-88952381D01*
X122333333Y-88904762D01*
X122285714Y-88857143D01*
X122238095Y-88761905D01*
X122190476Y-88571429D01*
X122190476Y-88333333D01*
X122238095Y-88142857D01*
X122285714Y-88047619D01*
X122333333Y-88000000D01*
X122428571Y-87952381D01*
X114957143Y-98407143D02*
X114909524Y-98454762D01*
X114766667Y-98502381D01*
X114671429Y-98502381D01*
X114528571Y-98454762D01*
X114433333Y-98359524D01*
X114385714Y-98264286D01*
X114338095Y-98073810D01*
X114338095Y-97930952D01*
X114385714Y-97740476D01*
X114433333Y-97645238D01*
X114528571Y-97550000D01*
X114671429Y-97502381D01*
X114766667Y-97502381D01*
X114909524Y-97550000D01*
X114957143Y-97597619D01*
X115290476Y-97502381D02*
X115909524Y-97502381D01*
X115576190Y-97883333D01*
X115719048Y-97883333D01*
X115814286Y-97930952D01*
X115861905Y-97978571D01*
X115909524Y-98073810D01*
X115909524Y-98311905D01*
X115861905Y-98407143D01*
X115814286Y-98454762D01*
X115719048Y-98502381D01*
X115433333Y-98502381D01*
X115338095Y-98454762D01*
X115290476Y-98407143D01*
X116385714Y-98502381D02*
X116576190Y-98502381D01*
X116671429Y-98454762D01*
X116719048Y-98407143D01*
X116814286Y-98264286D01*
X116861905Y-98073810D01*
X116861905Y-97692857D01*
X116814286Y-97597619D01*
X116766667Y-97550000D01*
X116671429Y-97502381D01*
X116480952Y-97502381D01*
X116385714Y-97550000D01*
X116338095Y-97597619D01*
X116290476Y-97692857D01*
X116290476Y-97930952D01*
X116338095Y-98026190D01*
X116385714Y-98073810D01*
X116480952Y-98121429D01*
X116671429Y-98121429D01*
X116766667Y-98073810D01*
X116814286Y-98026190D01*
X116861905Y-97930952D01*
X109907143Y-103442857D02*
X109954762Y-103490476D01*
X110002381Y-103633333D01*
X110002381Y-103728571D01*
X109954762Y-103871429D01*
X109859524Y-103966667D01*
X109764286Y-104014286D01*
X109573810Y-104061905D01*
X109430952Y-104061905D01*
X109240476Y-104014286D01*
X109145238Y-103966667D01*
X109050000Y-103871429D01*
X109002381Y-103728571D01*
X109002381Y-103633333D01*
X109050000Y-103490476D01*
X109097619Y-103442857D01*
X109335714Y-102585714D02*
X110002381Y-102585714D01*
X108954762Y-102823810D02*
X109669048Y-103061905D01*
X109669048Y-102442857D01*
X109002381Y-101871429D02*
X109002381Y-101776190D01*
X109050000Y-101680952D01*
X109097619Y-101633333D01*
X109192857Y-101585714D01*
X109383333Y-101538095D01*
X109621429Y-101538095D01*
X109811905Y-101585714D01*
X109907143Y-101633333D01*
X109954762Y-101680952D01*
X110002381Y-101776190D01*
X110002381Y-101871429D01*
X109954762Y-101966667D01*
X109907143Y-102014286D01*
X109811905Y-102061905D01*
X109621429Y-102109524D01*
X109383333Y-102109524D01*
X109192857Y-102061905D01*
X109097619Y-102014286D01*
X109050000Y-101966667D01*
X109002381Y-101871429D01*
X122407143Y-103442857D02*
X122454762Y-103490476D01*
X122502381Y-103633333D01*
X122502381Y-103728571D01*
X122454762Y-103871429D01*
X122359524Y-103966667D01*
X122264286Y-104014286D01*
X122073810Y-104061905D01*
X121930952Y-104061905D01*
X121740476Y-104014286D01*
X121645238Y-103966667D01*
X121550000Y-103871429D01*
X121502381Y-103728571D01*
X121502381Y-103633333D01*
X121550000Y-103490476D01*
X121597619Y-103442857D01*
X121835714Y-102585714D02*
X122502381Y-102585714D01*
X121454762Y-102823810D02*
X122169048Y-103061905D01*
X122169048Y-102442857D01*
X122502381Y-101538095D02*
X122502381Y-102109524D01*
X122502381Y-101823810D02*
X121502381Y-101823810D01*
X121645238Y-101919048D01*
X121740476Y-102014286D01*
X121788095Y-102109524D01*
X138907143Y-86842857D02*
X138954762Y-86890476D01*
X139002381Y-87033333D01*
X139002381Y-87128571D01*
X138954762Y-87271429D01*
X138859524Y-87366667D01*
X138764286Y-87414286D01*
X138573810Y-87461905D01*
X138430952Y-87461905D01*
X138240476Y-87414286D01*
X138145238Y-87366667D01*
X138050000Y-87271429D01*
X138002381Y-87128571D01*
X138002381Y-87033333D01*
X138050000Y-86890476D01*
X138097619Y-86842857D01*
X138335714Y-85985714D02*
X139002381Y-85985714D01*
X137954762Y-86223810D02*
X138669048Y-86461905D01*
X138669048Y-85842857D01*
X138097619Y-85509524D02*
X138050000Y-85461905D01*
X138002381Y-85366667D01*
X138002381Y-85128571D01*
X138050000Y-85033333D01*
X138097619Y-84985714D01*
X138192857Y-84938095D01*
X138288095Y-84938095D01*
X138430952Y-84985714D01*
X139002381Y-85557143D01*
X139002381Y-84938095D01*
X192051905Y-67142381D02*
X192051905Y-66142381D01*
X192290000Y-66142381D01*
X192432858Y-66190000D01*
X192528096Y-66285238D01*
X192575715Y-66380476D01*
X192623334Y-66570952D01*
X192623334Y-66713810D01*
X192575715Y-66904286D01*
X192528096Y-66999524D01*
X192432858Y-67094762D01*
X192290000Y-67142381D01*
X192051905Y-67142381D01*
X192956667Y-66142381D02*
X193575715Y-66142381D01*
X193242381Y-66523333D01*
X193385239Y-66523333D01*
X193480477Y-66570952D01*
X193528096Y-66618571D01*
X193575715Y-66713810D01*
X193575715Y-66951905D01*
X193528096Y-67047143D01*
X193480477Y-67094762D01*
X193385239Y-67142381D01*
X193099524Y-67142381D01*
X193004286Y-67094762D01*
X192956667Y-67047143D01*
X197522922Y-67660748D02*
X197781741Y-66694823D01*
X198011723Y-66756446D01*
X198137389Y-66839417D01*
X198204732Y-66956059D01*
X198226079Y-67060377D01*
X198222777Y-67256687D01*
X198185803Y-67394677D01*
X198090507Y-67566338D01*
X198019861Y-67646006D01*
X197903219Y-67713350D01*
X197752904Y-67722372D01*
X197522922Y-67660748D01*
X199075363Y-67386539D02*
X198902817Y-68030490D01*
X198943977Y-66956944D02*
X198529124Y-67585268D01*
X199127079Y-67745489D01*
X202674600Y-69593180D02*
X203174600Y-68727155D01*
X203380797Y-68846202D01*
X203480706Y-68958870D01*
X203515565Y-69088968D01*
X203509186Y-69195256D01*
X203455187Y-69384022D01*
X203383758Y-69507741D01*
X203247281Y-69648889D01*
X203158422Y-69707558D01*
X203028325Y-69742417D01*
X202880797Y-69712227D01*
X202674600Y-69593180D01*
X204453019Y-69465250D02*
X204040626Y-69227155D01*
X203761292Y-69615738D01*
X203826340Y-69598308D01*
X203932628Y-69604688D01*
X204138826Y-69723736D01*
X204197495Y-69812594D01*
X204214924Y-69877643D01*
X204208544Y-69983932D01*
X204089497Y-70190128D01*
X204000638Y-70248797D01*
X203935590Y-70266227D01*
X203829302Y-70259847D01*
X203623104Y-70140799D01*
X203564435Y-70051941D01*
X203547006Y-69986892D01*
X207151002Y-72785174D02*
X207858109Y-72078067D01*
X208026468Y-72246426D01*
X208093812Y-72381113D01*
X208093812Y-72515800D01*
X208060140Y-72616815D01*
X207959125Y-72785174D01*
X207858109Y-72886190D01*
X207689751Y-72987205D01*
X207588735Y-73020876D01*
X207454049Y-73020876D01*
X207319361Y-72953532D01*
X207151002Y-72785174D01*
X208868262Y-73088220D02*
X208733574Y-72953532D01*
X208632559Y-72919861D01*
X208565216Y-72919861D01*
X208396857Y-72953532D01*
X208228499Y-73054547D01*
X207959124Y-73323922D01*
X207925453Y-73424937D01*
X207925453Y-73492280D01*
X207959124Y-73593296D01*
X208093812Y-73727983D01*
X208194827Y-73761655D01*
X208262170Y-73761655D01*
X208363186Y-73727983D01*
X208531544Y-73559625D01*
X208565217Y-73458609D01*
X208565217Y-73391265D01*
X208531545Y-73290250D01*
X208396857Y-73155563D01*
X208295842Y-73121891D01*
X208228499Y-73121891D01*
X208127483Y-73155563D01*
X214742381Y-88928095D02*
X213742381Y-88928095D01*
X213742381Y-88690000D01*
X213790000Y-88547142D01*
X213885238Y-88451904D01*
X213980476Y-88404285D01*
X214170952Y-88356666D01*
X214313810Y-88356666D01*
X214504286Y-88404285D01*
X214599524Y-88451904D01*
X214694762Y-88547142D01*
X214742381Y-88690000D01*
X214742381Y-88928095D01*
X214170952Y-87785238D02*
X214123333Y-87880476D01*
X214075714Y-87928095D01*
X213980476Y-87975714D01*
X213932857Y-87975714D01*
X213837619Y-87928095D01*
X213790000Y-87880476D01*
X213742381Y-87785238D01*
X213742381Y-87594761D01*
X213790000Y-87499523D01*
X213837619Y-87451904D01*
X213932857Y-87404285D01*
X213980476Y-87404285D01*
X214075714Y-87451904D01*
X214123333Y-87499523D01*
X214170952Y-87594761D01*
X214170952Y-87785238D01*
X214218571Y-87880476D01*
X214266190Y-87928095D01*
X214361429Y-87975714D01*
X214551905Y-87975714D01*
X214647143Y-87928095D01*
X214694762Y-87880476D01*
X214742381Y-87785238D01*
X214742381Y-87594761D01*
X214694762Y-87499523D01*
X214647143Y-87451904D01*
X214551905Y-87404285D01*
X214361429Y-87404285D01*
X214266190Y-87451904D01*
X214218571Y-87499523D01*
X214170952Y-87594761D01*
X213803338Y-94584639D02*
X212837413Y-94325820D01*
X212899036Y-94095838D01*
X212982007Y-93970172D01*
X213098649Y-93902829D01*
X213202967Y-93881482D01*
X213399277Y-93884784D01*
X213537267Y-93921758D01*
X213708928Y-94017054D01*
X213788596Y-94087700D01*
X213855940Y-94204342D01*
X213864962Y-94354657D01*
X213803338Y-94584639D01*
X214074482Y-93572717D02*
X214123781Y-93388731D01*
X214102434Y-93284412D01*
X214068763Y-93226091D01*
X213955423Y-93097124D01*
X213783762Y-93001829D01*
X213415789Y-92903231D01*
X213311472Y-92924578D01*
X213253151Y-92958250D01*
X213182505Y-93037918D01*
X213133206Y-93221905D01*
X213154553Y-93326222D01*
X213188225Y-93384543D01*
X213267893Y-93455189D01*
X213497875Y-93516813D01*
X213602192Y-93495466D01*
X213660514Y-93461794D01*
X213731160Y-93382126D01*
X213780459Y-93198139D01*
X213759112Y-93093822D01*
X213725440Y-93035501D01*
X213645771Y-92964855D01*
X211194176Y-100217793D02*
X210328151Y-99717793D01*
X210447199Y-99511597D01*
X210559867Y-99411688D01*
X210689964Y-99376828D01*
X210796252Y-99383208D01*
X210985019Y-99437206D01*
X211108738Y-99508635D01*
X211249885Y-99645113D01*
X211308554Y-99733971D01*
X211343414Y-99864069D01*
X211313224Y-100011597D01*
X211194176Y-100217793D01*
X211956081Y-98898135D02*
X211670367Y-99393007D01*
X211813224Y-99145571D02*
X210947199Y-98645571D01*
X211023297Y-98799478D01*
X211058157Y-98929576D01*
X211051777Y-99035864D01*
X211399580Y-97862024D02*
X211447199Y-97779545D01*
X211536057Y-97720876D01*
X211601106Y-97703446D01*
X211707394Y-97709826D01*
X211896161Y-97763825D01*
X212102358Y-97882873D01*
X212243505Y-98019350D01*
X212302174Y-98108208D01*
X212319604Y-98173257D01*
X212313224Y-98279545D01*
X212265605Y-98362024D01*
X212176747Y-98420693D01*
X212111698Y-98438123D01*
X212005410Y-98431743D01*
X211816643Y-98377745D01*
X211610446Y-98258697D01*
X211469299Y-98122219D01*
X211410630Y-98033361D01*
X211393200Y-97968312D01*
X211399580Y-97862024D01*
X207454048Y-104571308D02*
X206746941Y-103864201D01*
X206915300Y-103695842D01*
X207049987Y-103628498D01*
X207184674Y-103628498D01*
X207285689Y-103662170D01*
X207454048Y-103763185D01*
X207555064Y-103864201D01*
X207656079Y-104032559D01*
X207689751Y-104133574D01*
X207689751Y-104268261D01*
X207622406Y-104402949D01*
X207454048Y-104571308D01*
X208531544Y-103493811D02*
X208127483Y-103897872D01*
X208329513Y-103695842D02*
X207622406Y-102988735D01*
X207656078Y-103157094D01*
X207656078Y-103291781D01*
X207622406Y-103392796D01*
X209204979Y-102820376D02*
X208800918Y-103224437D01*
X209002948Y-103022407D02*
X208295841Y-102315300D01*
X208329513Y-102483659D01*
X208329513Y-102618346D01*
X208295841Y-102719361D01*
X191575714Y-110142381D02*
X191575714Y-109142381D01*
X191813809Y-109142381D01*
X191956667Y-109190000D01*
X192051905Y-109285238D01*
X192099524Y-109380476D01*
X192147143Y-109570952D01*
X192147143Y-109713810D01*
X192099524Y-109904286D01*
X192051905Y-109999524D01*
X191956667Y-110094762D01*
X191813809Y-110142381D01*
X191575714Y-110142381D01*
X193099524Y-110142381D02*
X192528095Y-110142381D01*
X192813809Y-110142381D02*
X192813809Y-109142381D01*
X192718571Y-109285238D01*
X192623333Y-109380476D01*
X192528095Y-109428095D01*
X193432857Y-109142381D02*
X194051905Y-109142381D01*
X193718571Y-109523333D01*
X193861429Y-109523333D01*
X193956667Y-109570952D01*
X194004286Y-109618571D01*
X194051905Y-109713810D01*
X194051905Y-109951905D01*
X194004286Y-110047143D01*
X193956667Y-110094762D01*
X193861429Y-110142381D01*
X193575714Y-110142381D01*
X193480476Y-110094762D01*
X193432857Y-110047143D01*
X185935396Y-109080091D02*
X186194215Y-108114165D01*
X186424197Y-108175789D01*
X186549863Y-108258760D01*
X186617206Y-108375402D01*
X186638553Y-108479719D01*
X186635251Y-108676030D01*
X186598276Y-108814020D01*
X186502981Y-108985681D01*
X186432335Y-109065349D01*
X186315693Y-109132693D01*
X186165378Y-109141715D01*
X185935396Y-109080091D01*
X187407283Y-109474482D02*
X186855325Y-109326585D01*
X187131304Y-109400534D02*
X187390123Y-108434608D01*
X187261156Y-108547948D01*
X187144514Y-108615291D01*
X187040196Y-108636638D01*
X188407766Y-109052376D02*
X188235220Y-109696327D01*
X188276381Y-108622781D02*
X187861528Y-109251105D01*
X188459482Y-109411326D01*
X180762207Y-106594176D02*
X181262207Y-105728151D01*
X181468403Y-105847199D01*
X181568312Y-105959867D01*
X181603172Y-106089964D01*
X181596792Y-106196252D01*
X181542794Y-106385019D01*
X181471365Y-106508738D01*
X181334887Y-106649885D01*
X181246029Y-106708554D01*
X181115931Y-106743414D01*
X180968403Y-106713224D01*
X180762207Y-106594176D01*
X182081865Y-107356081D02*
X181586993Y-107070367D01*
X181834429Y-107213224D02*
X182334429Y-106347199D01*
X182180522Y-106423297D01*
X182050424Y-106458157D01*
X181944136Y-106451777D01*
X183365412Y-106942437D02*
X182953019Y-106704342D01*
X182673684Y-107092925D01*
X182738733Y-107075495D01*
X182845021Y-107081875D01*
X183051218Y-107200923D01*
X183109887Y-107289781D01*
X183127317Y-107354830D01*
X183120937Y-107461119D01*
X183001889Y-107667315D01*
X182913031Y-107725984D01*
X182847982Y-107743414D01*
X182741694Y-107737034D01*
X182535497Y-107617986D01*
X182476828Y-107529128D01*
X182459398Y-107464079D01*
X176408692Y-102854048D02*
X177115799Y-102146941D01*
X177284158Y-102315300D01*
X177351502Y-102449987D01*
X177351502Y-102584674D01*
X177317830Y-102685689D01*
X177216815Y-102854048D01*
X177115799Y-102955064D01*
X176947441Y-103056079D01*
X176846426Y-103089751D01*
X176711739Y-103089751D01*
X176577051Y-103022406D01*
X176408692Y-102854048D01*
X177486189Y-103931544D02*
X177082128Y-103527483D01*
X177284158Y-103729513D02*
X177991265Y-103022406D01*
X177822906Y-103056078D01*
X177688219Y-103056078D01*
X177587204Y-103022406D01*
X178799387Y-103830529D02*
X178664700Y-103695841D01*
X178563685Y-103662170D01*
X178496341Y-103662170D01*
X178327982Y-103695841D01*
X178159624Y-103796857D01*
X177890249Y-104066231D01*
X177856578Y-104167246D01*
X177856578Y-104234590D01*
X177890249Y-104335605D01*
X178024937Y-104470292D01*
X178125952Y-104503964D01*
X178193296Y-104503964D01*
X178294311Y-104470292D01*
X178462669Y-104301934D01*
X178496342Y-104200918D01*
X178496342Y-104133574D01*
X178462670Y-104032559D01*
X178327982Y-103897872D01*
X178226967Y-103864200D01*
X178159624Y-103864200D01*
X178058608Y-103897872D01*
X171742381Y-89404286D02*
X170742381Y-89404286D01*
X170742381Y-89166191D01*
X170790000Y-89023333D01*
X170885238Y-88928095D01*
X170980476Y-88880476D01*
X171170952Y-88832857D01*
X171313810Y-88832857D01*
X171504286Y-88880476D01*
X171599524Y-88928095D01*
X171694762Y-89023333D01*
X171742381Y-89166191D01*
X171742381Y-89404286D01*
X171742381Y-87880476D02*
X171742381Y-88451905D01*
X171742381Y-88166191D02*
X170742381Y-88166191D01*
X170885238Y-88261429D01*
X170980476Y-88356667D01*
X171028095Y-88451905D01*
X171170952Y-87309048D02*
X171123333Y-87404286D01*
X171075714Y-87451905D01*
X170980476Y-87499524D01*
X170932857Y-87499524D01*
X170837619Y-87451905D01*
X170790000Y-87404286D01*
X170742381Y-87309048D01*
X170742381Y-87118571D01*
X170790000Y-87023333D01*
X170837619Y-86975714D01*
X170932857Y-86928095D01*
X170980476Y-86928095D01*
X171075714Y-86975714D01*
X171123333Y-87023333D01*
X171170952Y-87118571D01*
X171170952Y-87309048D01*
X171218571Y-87404286D01*
X171266190Y-87451905D01*
X171361429Y-87499524D01*
X171551905Y-87499524D01*
X171647143Y-87451905D01*
X171694762Y-87404286D01*
X171742381Y-87309048D01*
X171742381Y-87118571D01*
X171694762Y-87023333D01*
X171647143Y-86975714D01*
X171551905Y-86928095D01*
X171361429Y-86928095D01*
X171266190Y-86975714D01*
X171218571Y-87023333D01*
X171170952Y-87118571D01*
X172145281Y-83915386D02*
X171179355Y-83656567D01*
X171240979Y-83426585D01*
X171323950Y-83300919D01*
X171440592Y-83233576D01*
X171544909Y-83212229D01*
X171741220Y-83215531D01*
X171879210Y-83252506D01*
X172050871Y-83347801D01*
X172130539Y-83418447D01*
X172197883Y-83535089D01*
X172206905Y-83685404D01*
X172145281Y-83915386D01*
X172539672Y-82443499D02*
X172391775Y-82995457D01*
X172465724Y-82719478D02*
X171499798Y-82460659D01*
X171613138Y-82589626D01*
X171680481Y-82706268D01*
X171701828Y-82810586D01*
X172662919Y-81983534D02*
X172712218Y-81799549D01*
X172690871Y-81695230D01*
X172657200Y-81636909D01*
X172543860Y-81507942D01*
X172372199Y-81412647D01*
X172004226Y-81314049D01*
X171899909Y-81335396D01*
X171841588Y-81369068D01*
X171770942Y-81448736D01*
X171721643Y-81632722D01*
X171742990Y-81737040D01*
X171776662Y-81795361D01*
X171856330Y-81866007D01*
X172086312Y-81927631D01*
X172190629Y-81906283D01*
X172248951Y-81872612D01*
X172319597Y-81792944D01*
X172368896Y-81608957D01*
X172347549Y-81504640D01*
X172313877Y-81446318D01*
X172234209Y-81375672D01*
X173955084Y-78717793D02*
X173089059Y-78217793D01*
X173208107Y-78011597D01*
X173320775Y-77911688D01*
X173450872Y-77876828D01*
X173557160Y-77883208D01*
X173745927Y-77937206D01*
X173869646Y-78008635D01*
X174010793Y-78145113D01*
X174069462Y-78233971D01*
X174104322Y-78364069D01*
X174074132Y-78511597D01*
X173955084Y-78717793D01*
X173647728Y-77440626D02*
X173630298Y-77375577D01*
X173636678Y-77269289D01*
X173755726Y-77063092D01*
X173844584Y-77004423D01*
X173909633Y-76986993D01*
X174015921Y-76993373D01*
X174098400Y-77040992D01*
X174198308Y-77153660D01*
X174407465Y-77934246D01*
X174716989Y-77398135D01*
X174160488Y-76362024D02*
X174208107Y-76279545D01*
X174296965Y-76220876D01*
X174362014Y-76203446D01*
X174468302Y-76209826D01*
X174657069Y-76263825D01*
X174863266Y-76382873D01*
X175004413Y-76519350D01*
X175063082Y-76608208D01*
X175080512Y-76673257D01*
X175074132Y-76779545D01*
X175026513Y-76862024D01*
X174937655Y-76920693D01*
X174872606Y-76938123D01*
X174766318Y-76931743D01*
X174577551Y-76877745D01*
X174371354Y-76758697D01*
X174230207Y-76622219D01*
X174171538Y-76533361D01*
X174154108Y-76468312D01*
X174160488Y-76362024D01*
X177048456Y-74165716D02*
X176341349Y-73458609D01*
X176509708Y-73290250D01*
X176644395Y-73222906D01*
X176779082Y-73222906D01*
X176880097Y-73256578D01*
X177048456Y-73357593D01*
X177149472Y-73458609D01*
X177250487Y-73626967D01*
X177284159Y-73727982D01*
X177284159Y-73862669D01*
X177216814Y-73997357D01*
X177048456Y-74165716D01*
X177082128Y-72852517D02*
X177082128Y-72785174D01*
X177115799Y-72684159D01*
X177284159Y-72515799D01*
X177385174Y-72482128D01*
X177452517Y-72482128D01*
X177553532Y-72515799D01*
X177620876Y-72583143D01*
X177688219Y-72717830D01*
X177688219Y-73525952D01*
X178125952Y-73088219D01*
X178799387Y-72414784D02*
X178395326Y-72818845D01*
X178597356Y-72616815D02*
X177890249Y-71909708D01*
X177923921Y-72078067D01*
X177923921Y-72212754D01*
X177890249Y-72313769D01*
X210410630Y-76614588D02*
X211276655Y-76114588D01*
X211395702Y-76320784D01*
X211425892Y-76468312D01*
X211391033Y-76598410D01*
X211332364Y-76687268D01*
X211191216Y-76823746D01*
X211067497Y-76895175D01*
X210878731Y-76949173D01*
X210772443Y-76955553D01*
X210642345Y-76920693D01*
X210529677Y-76820784D01*
X210410630Y-76614588D01*
X211670367Y-76986993D02*
X211735416Y-77004423D01*
X211824274Y-77063092D01*
X211943322Y-77269289D01*
X211949702Y-77375577D01*
X211932272Y-77440626D01*
X211873603Y-77529484D01*
X211791124Y-77577103D01*
X211643597Y-77607292D01*
X210863011Y-77398135D01*
X211172535Y-77934246D01*
X212205226Y-77722921D02*
X212514750Y-78259032D01*
X212018169Y-78160833D01*
X212089598Y-78284551D01*
X212095978Y-78390839D01*
X212078548Y-78455888D01*
X212019878Y-78544747D01*
X211813682Y-78663794D01*
X211707394Y-78670174D01*
X211642345Y-78652744D01*
X211553487Y-78594075D01*
X211410630Y-78346639D01*
X211404250Y-78240351D01*
X211421680Y-78175302D01*
X202714588Y-107808462D02*
X202214588Y-106942437D01*
X202420784Y-106823390D01*
X202568312Y-106793200D01*
X202698410Y-106828059D01*
X202787268Y-106886728D01*
X202923746Y-107027876D01*
X202995175Y-107151595D01*
X203049173Y-107340361D01*
X203055553Y-107446649D01*
X203020693Y-107576747D01*
X202920784Y-107689415D01*
X202714588Y-107808462D01*
X203086993Y-106548725D02*
X203104423Y-106483676D01*
X203163092Y-106394818D01*
X203369289Y-106275770D01*
X203475577Y-106269390D01*
X203540626Y-106286820D01*
X203629484Y-106345489D01*
X203677103Y-106427968D01*
X203707292Y-106575495D01*
X203498135Y-107356081D01*
X204034246Y-107046557D01*
X204443220Y-106040635D02*
X204776554Y-106617986D01*
X204046547Y-105829769D02*
X204197494Y-106567407D01*
X204733605Y-106257883D01*
X173171538Y-98114588D02*
X174037563Y-97614588D01*
X174156610Y-97820784D01*
X174186800Y-97968312D01*
X174151941Y-98098410D01*
X174093272Y-98187268D01*
X173952124Y-98323746D01*
X173828405Y-98395175D01*
X173639639Y-98449173D01*
X173533351Y-98455553D01*
X173403253Y-98420693D01*
X173290585Y-98320784D01*
X173171538Y-98114588D01*
X174431275Y-98486993D02*
X174496324Y-98504423D01*
X174585182Y-98563092D01*
X174704230Y-98769289D01*
X174710610Y-98875577D01*
X174693180Y-98940626D01*
X174634511Y-99029484D01*
X174552032Y-99077103D01*
X174404505Y-99107292D01*
X173623919Y-98898135D01*
X173933443Y-99434246D01*
X175251849Y-99717793D02*
X175013753Y-99305400D01*
X174577551Y-99502255D01*
X174642600Y-99519685D01*
X174731458Y-99578354D01*
X174850506Y-99784551D01*
X174856886Y-99890839D01*
X174839456Y-99955888D01*
X174780786Y-100044747D01*
X174574590Y-100163794D01*
X174468302Y-100170174D01*
X174403253Y-100152744D01*
X174314395Y-100094075D01*
X174195347Y-99887878D01*
X174188967Y-99781590D01*
X174206397Y-99716541D01*
X181214588Y-70569370D02*
X180714588Y-69703345D01*
X180920784Y-69584298D01*
X181068312Y-69554108D01*
X181198410Y-69588967D01*
X181287268Y-69647636D01*
X181423746Y-69788784D01*
X181495175Y-69912503D01*
X181549173Y-70101269D01*
X181555553Y-70207557D01*
X181520693Y-70337655D01*
X181420784Y-70450323D01*
X181214588Y-70569370D01*
X181586993Y-69309633D02*
X181604423Y-69244584D01*
X181663092Y-69155726D01*
X181869289Y-69036678D01*
X181975577Y-69030298D01*
X182040626Y-69047728D01*
X182129484Y-69106397D01*
X182177103Y-69188876D01*
X182207292Y-69336403D01*
X181998135Y-70116989D01*
X182534246Y-69807465D01*
X182776554Y-68512869D02*
X182611596Y-68608107D01*
X182552927Y-68696965D01*
X182535497Y-68762014D01*
X182524447Y-68933351D01*
X182578446Y-69122117D01*
X182768922Y-69452032D01*
X182857781Y-69510701D01*
X182922829Y-69528131D01*
X183029117Y-69521751D01*
X183194075Y-69426513D01*
X183252744Y-69337655D01*
X183270174Y-69272606D01*
X183263794Y-69166318D01*
X183144747Y-68960122D01*
X183055888Y-68901452D01*
X182990839Y-68884022D01*
X182884551Y-68890402D01*
X182719593Y-68985640D01*
X182660924Y-69074498D01*
X182643495Y-69139547D01*
X182649875Y-69245836D01*
X212806158Y-81569566D02*
X213772084Y-81310747D01*
X213833708Y-81540729D01*
X213824685Y-81691044D01*
X213757342Y-81807686D01*
X213677674Y-81878332D01*
X213506013Y-81973627D01*
X213368023Y-82010601D01*
X213171712Y-82013904D01*
X213067395Y-81992557D01*
X212950752Y-81925213D01*
X212867782Y-81799548D01*
X212806158Y-81569566D01*
X213926585Y-82255325D02*
X213984907Y-82288997D01*
X214055552Y-82368665D01*
X214117176Y-82598648D01*
X214095829Y-82702966D01*
X214062157Y-82761287D01*
X213982489Y-82831933D01*
X213890497Y-82856582D01*
X213740183Y-82847560D01*
X213040328Y-82443499D01*
X213200549Y-83041453D01*
X213900404Y-83445513D02*
X213921751Y-83341196D01*
X213955422Y-83282875D01*
X214035091Y-83212229D01*
X214081087Y-83199904D01*
X214185405Y-83221251D01*
X214243726Y-83254923D01*
X214314371Y-83334591D01*
X214363671Y-83518578D01*
X214342324Y-83622895D01*
X214308652Y-83681216D01*
X214228984Y-83751862D01*
X214182987Y-83764187D01*
X214078670Y-83742840D01*
X214020349Y-83709168D01*
X213949703Y-83629500D01*
X213900404Y-83445513D01*
X213829758Y-83365845D01*
X213771437Y-83332174D01*
X213667118Y-83310827D01*
X213483133Y-83360126D01*
X213403464Y-83430771D01*
X213369793Y-83489093D01*
X213348446Y-83593410D01*
X213397745Y-83777397D01*
X213468391Y-83857065D01*
X213526712Y-83890737D01*
X213631029Y-83912084D01*
X213815015Y-83862785D01*
X213894684Y-83792139D01*
X213928356Y-83733818D01*
X213949703Y-83629500D01*
X197298784Y-109708652D02*
X197039965Y-108742726D01*
X197269947Y-108681102D01*
X197420262Y-108690125D01*
X197536904Y-108757468D01*
X197607550Y-108837136D01*
X197702845Y-109008797D01*
X197739819Y-109146787D01*
X197743122Y-109343098D01*
X197721775Y-109447415D01*
X197654431Y-109564058D01*
X197528766Y-109647028D01*
X197298784Y-109708652D01*
X197984543Y-108588225D02*
X198018215Y-108529903D01*
X198097883Y-108459258D01*
X198327866Y-108397634D01*
X198432184Y-108418981D01*
X198490505Y-108452653D01*
X198561151Y-108532321D01*
X198585800Y-108624313D01*
X198576778Y-108774627D01*
X198172717Y-109474482D01*
X198770671Y-109314261D01*
X199230635Y-109191014D02*
X199414621Y-109141715D01*
X199494290Y-109071069D01*
X199527962Y-109012748D01*
X199582981Y-108850109D01*
X199579678Y-108653799D01*
X199481080Y-108285826D01*
X199410434Y-108206158D01*
X199352113Y-108172486D01*
X199247796Y-108151139D01*
X199063809Y-108200439D01*
X198984141Y-108271084D01*
X198950469Y-108329405D01*
X198929122Y-108433723D01*
X198990746Y-108663705D01*
X199061392Y-108743373D01*
X199119713Y-108777046D01*
X199224030Y-108798393D01*
X199408017Y-108749094D01*
X199487685Y-108678448D01*
X199521357Y-108620126D01*
X199542704Y-108515808D01*
X171271348Y-92698784D02*
X172237274Y-92439965D01*
X172298898Y-92669947D01*
X172289875Y-92820262D01*
X172222532Y-92936904D01*
X172142864Y-93007550D01*
X171971203Y-93102845D01*
X171833213Y-93139819D01*
X171636902Y-93143122D01*
X171532585Y-93121775D01*
X171415942Y-93054431D01*
X171332972Y-92928766D01*
X171271348Y-92698784D01*
X172471444Y-93313898D02*
X172631665Y-93911852D01*
X172177420Y-93688474D01*
X172214395Y-93826464D01*
X172193048Y-93930781D01*
X172159376Y-93989103D01*
X172079707Y-94059749D01*
X171849725Y-94121372D01*
X171745407Y-94100025D01*
X171687086Y-94066353D01*
X171616440Y-93986685D01*
X171542492Y-93710706D01*
X171563839Y-93606388D01*
X171597511Y-93548067D01*
X172791886Y-94509805D02*
X172816536Y-94601799D01*
X172795189Y-94706117D01*
X172761517Y-94764438D01*
X172681849Y-94835084D01*
X172510188Y-94930379D01*
X172280205Y-94992003D01*
X172083895Y-94995305D01*
X171979577Y-94973958D01*
X171921256Y-94940286D01*
X171850610Y-94860618D01*
X171825960Y-94768625D01*
X171847307Y-94664307D01*
X171880979Y-94605986D01*
X171960647Y-94535340D01*
X172132308Y-94440045D01*
X172362291Y-94378421D01*
X172558602Y-94375119D01*
X172662919Y-94396466D01*
X172721240Y-94430137D01*
X172791886Y-94509805D01*
X186169566Y-68173842D02*
X185910747Y-67207916D01*
X186140729Y-67146292D01*
X186291044Y-67155315D01*
X186407686Y-67222658D01*
X186478332Y-67302326D01*
X186573627Y-67473987D01*
X186610601Y-67611977D01*
X186613904Y-67808288D01*
X186592557Y-67912605D01*
X186525213Y-68029248D01*
X186399548Y-68112218D01*
X186169566Y-68173842D01*
X186784680Y-66973746D02*
X187382634Y-66813525D01*
X187159256Y-67267770D01*
X187297246Y-67230795D01*
X187401563Y-67252142D01*
X187459885Y-67285814D01*
X187530531Y-67365483D01*
X187592154Y-67595465D01*
X187570807Y-67699783D01*
X187537135Y-67758104D01*
X187457467Y-67828750D01*
X187181488Y-67902698D01*
X187077170Y-67881351D01*
X187018849Y-67847679D01*
X188561382Y-67532956D02*
X188009424Y-67680853D01*
X188285403Y-67606905D02*
X188026584Y-66640979D01*
X187971565Y-66803618D01*
X187904222Y-66920260D01*
X187824554Y-66990906D01*
X118785714Y-110752381D02*
X118785714Y-109752381D01*
X119023809Y-109752381D01*
X119166667Y-109800000D01*
X119261905Y-109895238D01*
X119309524Y-109990476D01*
X119357143Y-110180952D01*
X119357143Y-110323810D01*
X119309524Y-110514286D01*
X119261905Y-110609524D01*
X119166667Y-110704762D01*
X119023809Y-110752381D01*
X118785714Y-110752381D01*
X119690476Y-109752381D02*
X120309524Y-109752381D01*
X119976190Y-110133333D01*
X120119048Y-110133333D01*
X120214286Y-110180952D01*
X120261905Y-110228571D01*
X120309524Y-110323810D01*
X120309524Y-110561905D01*
X120261905Y-110657143D01*
X120214286Y-110704762D01*
X120119048Y-110752381D01*
X119833333Y-110752381D01*
X119738095Y-110704762D01*
X119690476Y-110657143D01*
X120690476Y-109847619D02*
X120738095Y-109800000D01*
X120833333Y-109752381D01*
X121071429Y-109752381D01*
X121166667Y-109800000D01*
X121214286Y-109847619D01*
X121261905Y-109942857D01*
X121261905Y-110038095D01*
X121214286Y-110180952D01*
X120642857Y-110752381D01*
X121261905Y-110752381D01*
X111585714Y-110752381D02*
X111585714Y-109752381D01*
X111823809Y-109752381D01*
X111966667Y-109800000D01*
X112061905Y-109895238D01*
X112109524Y-109990476D01*
X112157143Y-110180952D01*
X112157143Y-110323810D01*
X112109524Y-110514286D01*
X112061905Y-110609524D01*
X111966667Y-110704762D01*
X111823809Y-110752381D01*
X111585714Y-110752381D01*
X112490476Y-109752381D02*
X113109524Y-109752381D01*
X112776190Y-110133333D01*
X112919048Y-110133333D01*
X113014286Y-110180952D01*
X113061905Y-110228571D01*
X113109524Y-110323810D01*
X113109524Y-110561905D01*
X113061905Y-110657143D01*
X113014286Y-110704762D01*
X112919048Y-110752381D01*
X112633333Y-110752381D01*
X112538095Y-110704762D01*
X112490476Y-110657143D01*
X113442857Y-109752381D02*
X114061905Y-109752381D01*
X113728571Y-110133333D01*
X113871429Y-110133333D01*
X113966667Y-110180952D01*
X114014286Y-110228571D01*
X114061905Y-110323810D01*
X114061905Y-110561905D01*
X114014286Y-110657143D01*
X113966667Y-110704762D01*
X113871429Y-110752381D01*
X113585714Y-110752381D01*
X113490476Y-110704762D01*
X113442857Y-110657143D01*
X127636667Y-66232381D02*
X127636667Y-66946667D01*
X127589047Y-67089524D01*
X127493809Y-67184762D01*
X127350952Y-67232381D01*
X127255714Y-67232381D01*
X128636667Y-67232381D02*
X128065238Y-67232381D01*
X128350952Y-67232381D02*
X128350952Y-66232381D01*
X128255714Y-66375238D01*
X128160476Y-66470476D01*
X128065238Y-66518095D01*
X106082381Y-103283333D02*
X106796667Y-103283333D01*
X106939524Y-103330953D01*
X107034762Y-103426191D01*
X107082381Y-103569048D01*
X107082381Y-103664286D01*
X106177619Y-102854762D02*
X106130000Y-102807143D01*
X106082381Y-102711905D01*
X106082381Y-102473809D01*
X106130000Y-102378571D01*
X106177619Y-102330952D01*
X106272857Y-102283333D01*
X106368095Y-102283333D01*
X106510952Y-102330952D01*
X107082381Y-102902381D01*
X107082381Y-102283333D01*
X97652381Y-72833333D02*
X98366667Y-72833333D01*
X98509524Y-72880953D01*
X98604762Y-72976191D01*
X98652381Y-73119048D01*
X98652381Y-73214286D01*
X98652381Y-72357143D02*
X97652381Y-72357143D01*
X97652381Y-71976190D01*
X97700000Y-71880952D01*
X97747619Y-71833333D01*
X97842857Y-71785714D01*
X97985714Y-71785714D01*
X98080952Y-71833333D01*
X98128571Y-71880952D01*
X98176190Y-71976190D01*
X98176190Y-72357143D01*
X98652381Y-70833333D02*
X98652381Y-71404762D01*
X98652381Y-71119048D02*
X97652381Y-71119048D01*
X97795238Y-71214286D01*
X97890476Y-71309524D01*
X97938095Y-71404762D01*
X161633334Y-110152381D02*
X161157143Y-110152381D01*
X161157143Y-109152381D01*
X162490477Y-110152381D02*
X161919048Y-110152381D01*
X162204762Y-110152381D02*
X162204762Y-109152381D01*
X162109524Y-109295238D01*
X162014286Y-109390476D01*
X161919048Y-109438095D01*
X129127619Y-102575238D02*
X129080000Y-102670476D01*
X128984762Y-102765714D01*
X128841905Y-102908571D01*
X128794286Y-103003810D01*
X128794286Y-103099048D01*
X129032381Y-103051429D02*
X128984762Y-103146667D01*
X128889524Y-103241905D01*
X128699048Y-103289524D01*
X128365714Y-103289524D01*
X128175238Y-103241905D01*
X128080000Y-103146667D01*
X128032381Y-103051429D01*
X128032381Y-102860952D01*
X128080000Y-102765714D01*
X128175238Y-102670476D01*
X128365714Y-102622857D01*
X128699048Y-102622857D01*
X128889524Y-102670476D01*
X128984762Y-102765714D01*
X129032381Y-102860952D01*
X129032381Y-103051429D01*
X129032381Y-101670476D02*
X129032381Y-102241905D01*
X129032381Y-101956191D02*
X128032381Y-101956191D01*
X128175238Y-102051429D01*
X128270476Y-102146667D01*
X128318095Y-102241905D01*
X126104762Y-107447619D02*
X126009524Y-107400000D01*
X125914286Y-107304762D01*
X125771429Y-107161905D01*
X125676190Y-107114286D01*
X125580952Y-107114286D01*
X125628571Y-107352381D02*
X125533333Y-107304762D01*
X125438095Y-107209524D01*
X125390476Y-107019048D01*
X125390476Y-106685714D01*
X125438095Y-106495238D01*
X125533333Y-106400000D01*
X125628571Y-106352381D01*
X125819048Y-106352381D01*
X125914286Y-106400000D01*
X126009524Y-106495238D01*
X126057143Y-106685714D01*
X126057143Y-107019048D01*
X126009524Y-107209524D01*
X125914286Y-107304762D01*
X125819048Y-107352381D01*
X125628571Y-107352381D01*
X126438095Y-106447619D02*
X126485714Y-106400000D01*
X126580952Y-106352381D01*
X126819048Y-106352381D01*
X126914286Y-106400000D01*
X126961905Y-106447619D01*
X127009524Y-106542857D01*
X127009524Y-106638095D01*
X126961905Y-106780952D01*
X126390476Y-107352381D01*
X127009524Y-107352381D01*
X153433334Y-99702381D02*
X153100000Y-99226190D01*
X152861905Y-99702381D02*
X152861905Y-98702381D01*
X153242858Y-98702381D01*
X153338096Y-98750000D01*
X153385715Y-98797619D01*
X153433334Y-98892857D01*
X153433334Y-99035714D01*
X153385715Y-99130952D01*
X153338096Y-99178571D01*
X153242858Y-99226190D01*
X152861905Y-99226190D01*
X154385715Y-99702381D02*
X153814286Y-99702381D01*
X154100000Y-99702381D02*
X154100000Y-98702381D01*
X154004762Y-98845238D01*
X153909524Y-98940476D01*
X153814286Y-98988095D01*
X147833334Y-99702381D02*
X147500000Y-99226190D01*
X147261905Y-99702381D02*
X147261905Y-98702381D01*
X147642858Y-98702381D01*
X147738096Y-98750000D01*
X147785715Y-98797619D01*
X147833334Y-98892857D01*
X147833334Y-99035714D01*
X147785715Y-99130952D01*
X147738096Y-99178571D01*
X147642858Y-99226190D01*
X147261905Y-99226190D01*
X148214286Y-98797619D02*
X148261905Y-98750000D01*
X148357143Y-98702381D01*
X148595239Y-98702381D01*
X148690477Y-98750000D01*
X148738096Y-98797619D01*
X148785715Y-98892857D01*
X148785715Y-98988095D01*
X148738096Y-99130952D01*
X148166667Y-99702381D01*
X148785715Y-99702381D01*
X129002381Y-90766666D02*
X128526190Y-91100000D01*
X129002381Y-91338095D02*
X128002381Y-91338095D01*
X128002381Y-90957142D01*
X128050000Y-90861904D01*
X128097619Y-90814285D01*
X128192857Y-90766666D01*
X128335714Y-90766666D01*
X128430952Y-90814285D01*
X128478571Y-90861904D01*
X128526190Y-90957142D01*
X128526190Y-91338095D01*
X128002381Y-90433333D02*
X128002381Y-89814285D01*
X128383333Y-90147619D01*
X128383333Y-90004761D01*
X128430952Y-89909523D01*
X128478571Y-89861904D01*
X128573810Y-89814285D01*
X128811905Y-89814285D01*
X128907143Y-89861904D01*
X128954762Y-89909523D01*
X129002381Y-90004761D01*
X129002381Y-90290476D01*
X128954762Y-90385714D01*
X128907143Y-90433333D01*
X139033334Y-92702381D02*
X138700000Y-92226190D01*
X138461905Y-92702381D02*
X138461905Y-91702381D01*
X138842858Y-91702381D01*
X138938096Y-91750000D01*
X138985715Y-91797619D01*
X139033334Y-91892857D01*
X139033334Y-92035714D01*
X138985715Y-92130952D01*
X138938096Y-92178571D01*
X138842858Y-92226190D01*
X138461905Y-92226190D01*
X139890477Y-92035714D02*
X139890477Y-92702381D01*
X139652381Y-91654762D02*
X139414286Y-92369048D01*
X140033334Y-92369048D01*
X126071334Y-76144381D02*
X125738000Y-75668190D01*
X125499905Y-76144381D02*
X125499905Y-75144381D01*
X125880858Y-75144381D01*
X125976096Y-75192000D01*
X126023715Y-75239619D01*
X126071334Y-75334857D01*
X126071334Y-75477714D01*
X126023715Y-75572952D01*
X125976096Y-75620571D01*
X125880858Y-75668190D01*
X125499905Y-75668190D01*
X126976096Y-75144381D02*
X126499905Y-75144381D01*
X126452286Y-75620571D01*
X126499905Y-75572952D01*
X126595143Y-75525333D01*
X126833239Y-75525333D01*
X126928477Y-75572952D01*
X126976096Y-75620571D01*
X127023715Y-75715810D01*
X127023715Y-75953905D01*
X126976096Y-76049143D01*
X126928477Y-76096762D01*
X126833239Y-76144381D01*
X126595143Y-76144381D01*
X126499905Y-76096762D01*
X126452286Y-76049143D01*
X108757143Y-101102381D02*
X108423809Y-100626190D01*
X108185714Y-101102381D02*
X108185714Y-100102381D01*
X108566667Y-100102381D01*
X108661905Y-100150000D01*
X108709524Y-100197619D01*
X108757143Y-100292857D01*
X108757143Y-100435714D01*
X108709524Y-100530952D01*
X108661905Y-100578571D01*
X108566667Y-100626190D01*
X108185714Y-100626190D01*
X109709524Y-101102381D02*
X109138095Y-101102381D01*
X109423809Y-101102381D02*
X109423809Y-100102381D01*
X109328571Y-100245238D01*
X109233333Y-100340476D01*
X109138095Y-100388095D01*
X110090476Y-100197619D02*
X110138095Y-100150000D01*
X110233333Y-100102381D01*
X110471429Y-100102381D01*
X110566667Y-100150000D01*
X110614286Y-100197619D01*
X110661905Y-100292857D01*
X110661905Y-100388095D01*
X110614286Y-100530952D01*
X110042857Y-101102381D01*
X110661905Y-101102381D01*
X109757143Y-95802381D02*
X109423809Y-95326190D01*
X109185714Y-95802381D02*
X109185714Y-94802381D01*
X109566667Y-94802381D01*
X109661905Y-94850000D01*
X109709524Y-94897619D01*
X109757143Y-94992857D01*
X109757143Y-95135714D01*
X109709524Y-95230952D01*
X109661905Y-95278571D01*
X109566667Y-95326190D01*
X109185714Y-95326190D01*
X110709524Y-95802381D02*
X110138095Y-95802381D01*
X110423809Y-95802381D02*
X110423809Y-94802381D01*
X110328571Y-94945238D01*
X110233333Y-95040476D01*
X110138095Y-95088095D01*
X111042857Y-94802381D02*
X111661905Y-94802381D01*
X111328571Y-95183333D01*
X111471429Y-95183333D01*
X111566667Y-95230952D01*
X111614286Y-95278571D01*
X111661905Y-95373810D01*
X111661905Y-95611905D01*
X111614286Y-95707143D01*
X111566667Y-95754762D01*
X111471429Y-95802381D01*
X111185714Y-95802381D01*
X111090476Y-95754762D01*
X111042857Y-95707143D01*
X121402381Y-96142857D02*
X120926190Y-96476191D01*
X121402381Y-96714286D02*
X120402381Y-96714286D01*
X120402381Y-96333333D01*
X120450000Y-96238095D01*
X120497619Y-96190476D01*
X120592857Y-96142857D01*
X120735714Y-96142857D01*
X120830952Y-96190476D01*
X120878571Y-96238095D01*
X120926190Y-96333333D01*
X120926190Y-96714286D01*
X121402381Y-95190476D02*
X121402381Y-95761905D01*
X121402381Y-95476191D02*
X120402381Y-95476191D01*
X120545238Y-95571429D01*
X120640476Y-95666667D01*
X120688095Y-95761905D01*
X120735714Y-94333333D02*
X121402381Y-94333333D01*
X120354762Y-94571429D02*
X121069048Y-94809524D01*
X121069048Y-94190476D01*
X113157143Y-95702381D02*
X112823809Y-95226190D01*
X112585714Y-95702381D02*
X112585714Y-94702381D01*
X112966667Y-94702381D01*
X113061905Y-94750000D01*
X113109524Y-94797619D01*
X113157143Y-94892857D01*
X113157143Y-95035714D01*
X113109524Y-95130952D01*
X113061905Y-95178571D01*
X112966667Y-95226190D01*
X112585714Y-95226190D01*
X114109524Y-95702381D02*
X113538095Y-95702381D01*
X113823809Y-95702381D02*
X113823809Y-94702381D01*
X113728571Y-94845238D01*
X113633333Y-94940476D01*
X113538095Y-94988095D01*
X115014286Y-94702381D02*
X114538095Y-94702381D01*
X114490476Y-95178571D01*
X114538095Y-95130952D01*
X114633333Y-95083333D01*
X114871429Y-95083333D01*
X114966667Y-95130952D01*
X115014286Y-95178571D01*
X115061905Y-95273810D01*
X115061905Y-95511905D01*
X115014286Y-95607143D01*
X114966667Y-95654762D01*
X114871429Y-95702381D01*
X114633333Y-95702381D01*
X114538095Y-95654762D01*
X114490476Y-95607143D01*
X118557143Y-107002381D02*
X118223809Y-106526190D01*
X117985714Y-107002381D02*
X117985714Y-106002381D01*
X118366667Y-106002381D01*
X118461905Y-106050000D01*
X118509524Y-106097619D01*
X118557143Y-106192857D01*
X118557143Y-106335714D01*
X118509524Y-106430952D01*
X118461905Y-106478571D01*
X118366667Y-106526190D01*
X117985714Y-106526190D01*
X119509524Y-107002381D02*
X118938095Y-107002381D01*
X119223809Y-107002381D02*
X119223809Y-106002381D01*
X119128571Y-106145238D01*
X119033333Y-106240476D01*
X118938095Y-106288095D01*
X120366667Y-106002381D02*
X120176190Y-106002381D01*
X120080952Y-106050000D01*
X120033333Y-106097619D01*
X119938095Y-106240476D01*
X119890476Y-106430952D01*
X119890476Y-106811905D01*
X119938095Y-106907143D01*
X119985714Y-106954762D01*
X120080952Y-107002381D01*
X120271429Y-107002381D01*
X120366667Y-106954762D01*
X120414286Y-106907143D01*
X120461905Y-106811905D01*
X120461905Y-106573810D01*
X120414286Y-106478571D01*
X120366667Y-106430952D01*
X120271429Y-106383333D01*
X120080952Y-106383333D01*
X119985714Y-106430952D01*
X119938095Y-106478571D01*
X119890476Y-106573810D01*
X112757143Y-107002381D02*
X112423809Y-106526190D01*
X112185714Y-107002381D02*
X112185714Y-106002381D01*
X112566667Y-106002381D01*
X112661905Y-106050000D01*
X112709524Y-106097619D01*
X112757143Y-106192857D01*
X112757143Y-106335714D01*
X112709524Y-106430952D01*
X112661905Y-106478571D01*
X112566667Y-106526190D01*
X112185714Y-106526190D01*
X113709524Y-107002381D02*
X113138095Y-107002381D01*
X113423809Y-107002381D02*
X113423809Y-106002381D01*
X113328571Y-106145238D01*
X113233333Y-106240476D01*
X113138095Y-106288095D01*
X114042857Y-106002381D02*
X114709524Y-106002381D01*
X114280952Y-107002381D01*
X122133334Y-98702381D02*
X121800000Y-98226190D01*
X121561905Y-98702381D02*
X121561905Y-97702381D01*
X121942858Y-97702381D01*
X122038096Y-97750000D01*
X122085715Y-97797619D01*
X122133334Y-97892857D01*
X122133334Y-98035714D01*
X122085715Y-98130952D01*
X122038096Y-98178571D01*
X121942858Y-98226190D01*
X121561905Y-98226190D01*
X123133334Y-98702381D02*
X122800000Y-98226190D01*
X122561905Y-98702381D02*
X122561905Y-97702381D01*
X122942858Y-97702381D01*
X123038096Y-97750000D01*
X123085715Y-97797619D01*
X123133334Y-97892857D01*
X123133334Y-98035714D01*
X123085715Y-98130952D01*
X123038096Y-98178571D01*
X122942858Y-98226190D01*
X122561905Y-98226190D01*
X124085715Y-98702381D02*
X123514286Y-98702381D01*
X123800000Y-98702381D02*
X123800000Y-97702381D01*
X123704762Y-97845238D01*
X123609524Y-97940476D01*
X123514286Y-97988095D01*
X125533334Y-115702381D02*
X125200000Y-115226190D01*
X124961905Y-115702381D02*
X124961905Y-114702381D01*
X125342858Y-114702381D01*
X125438096Y-114750000D01*
X125485715Y-114797619D01*
X125533334Y-114892857D01*
X125533334Y-115035714D01*
X125485715Y-115130952D01*
X125438096Y-115178571D01*
X125342858Y-115226190D01*
X124961905Y-115226190D01*
X126533334Y-115702381D02*
X126200000Y-115226190D01*
X125961905Y-115702381D02*
X125961905Y-114702381D01*
X126342858Y-114702381D01*
X126438096Y-114750000D01*
X126485715Y-114797619D01*
X126533334Y-114892857D01*
X126533334Y-115035714D01*
X126485715Y-115130952D01*
X126438096Y-115178571D01*
X126342858Y-115226190D01*
X125961905Y-115226190D01*
X126914286Y-114797619D02*
X126961905Y-114750000D01*
X127057143Y-114702381D01*
X127295239Y-114702381D01*
X127390477Y-114750000D01*
X127438096Y-114797619D01*
X127485715Y-114892857D01*
X127485715Y-114988095D01*
X127438096Y-115130952D01*
X126866667Y-115702381D01*
X127485715Y-115702381D01*
D19*
X106191238Y-88284095D02*
X106239619Y-88138952D01*
X106239619Y-87897048D01*
X106191238Y-87800286D01*
X106142857Y-87751905D01*
X106046095Y-87703524D01*
X105949333Y-87703524D01*
X105852571Y-87751905D01*
X105804190Y-87800286D01*
X105755810Y-87897048D01*
X105707429Y-88090571D01*
X105659048Y-88187333D01*
X105610667Y-88235714D01*
X105513905Y-88284095D01*
X105417143Y-88284095D01*
X105320381Y-88235714D01*
X105272000Y-88187333D01*
X105223619Y-88090571D01*
X105223619Y-87848667D01*
X105272000Y-87703524D01*
X106239619Y-86735905D02*
X106239619Y-87316476D01*
X106239619Y-87026190D02*
X105223619Y-87026190D01*
X105368762Y-87122952D01*
X105465524Y-87219714D01*
X105513905Y-87316476D01*
D13*
X157552381Y-101761905D02*
X158361905Y-101761905D01*
X158457143Y-101714286D01*
X158504762Y-101666667D01*
X158552381Y-101571429D01*
X158552381Y-101380952D01*
X158504762Y-101285714D01*
X158457143Y-101238095D01*
X158361905Y-101190476D01*
X157552381Y-101190476D01*
X158552381Y-100190476D02*
X158552381Y-100761905D01*
X158552381Y-100476191D02*
X157552381Y-100476191D01*
X157695238Y-100571429D01*
X157790476Y-100666667D01*
X157838095Y-100761905D01*
X154638095Y-72402381D02*
X154638095Y-73211905D01*
X154685714Y-73307143D01*
X154733333Y-73354762D01*
X154828571Y-73402381D01*
X155019048Y-73402381D01*
X155114286Y-73354762D01*
X155161905Y-73307143D01*
X155209524Y-73211905D01*
X155209524Y-72402381D01*
X155590476Y-72402381D02*
X156209524Y-72402381D01*
X155876190Y-72783333D01*
X156019048Y-72783333D01*
X156114286Y-72830952D01*
X156161905Y-72878571D01*
X156209524Y-72973810D01*
X156209524Y-73211905D01*
X156161905Y-73307143D01*
X156114286Y-73354762D01*
X156019048Y-73402381D01*
X155733333Y-73402381D01*
X155638095Y-73354762D01*
X155590476Y-73307143D01*
X148438095Y-103702381D02*
X148438095Y-104511905D01*
X148485714Y-104607143D01*
X148533333Y-104654762D01*
X148628571Y-104702381D01*
X148819048Y-104702381D01*
X148914286Y-104654762D01*
X148961905Y-104607143D01*
X149009524Y-104511905D01*
X149009524Y-103702381D01*
X149914286Y-104035714D02*
X149914286Y-104702381D01*
X149676190Y-103654762D02*
X149438095Y-104369048D01*
X150057143Y-104369048D01*
X139432381Y-97001905D02*
X140241905Y-97001905D01*
X140337143Y-96954286D01*
X140384762Y-96906667D01*
X140432381Y-96811429D01*
X140432381Y-96620952D01*
X140384762Y-96525714D01*
X140337143Y-96478095D01*
X140241905Y-96430476D01*
X139432381Y-96430476D01*
X139432381Y-95478095D02*
X139432381Y-95954286D01*
X139908571Y-96001905D01*
X139860952Y-95954286D01*
X139813333Y-95859048D01*
X139813333Y-95620952D01*
X139860952Y-95525714D01*
X139908571Y-95478095D01*
X140003810Y-95430476D01*
X140241905Y-95430476D01*
X140337143Y-95478095D01*
X140384762Y-95525714D01*
X140432381Y-95620952D01*
X140432381Y-95859048D01*
X140384762Y-95954286D01*
X140337143Y-96001905D01*
X132088095Y-83167381D02*
X132088095Y-83976905D01*
X132135714Y-84072143D01*
X132183333Y-84119762D01*
X132278571Y-84167381D01*
X132469048Y-84167381D01*
X132564286Y-84119762D01*
X132611905Y-84072143D01*
X132659524Y-83976905D01*
X132659524Y-83167381D01*
X133564286Y-83167381D02*
X133373809Y-83167381D01*
X133278571Y-83215000D01*
X133230952Y-83262619D01*
X133135714Y-83405476D01*
X133088095Y-83595952D01*
X133088095Y-83976905D01*
X133135714Y-84072143D01*
X133183333Y-84119762D01*
X133278571Y-84167381D01*
X133469048Y-84167381D01*
X133564286Y-84119762D01*
X133611905Y-84072143D01*
X133659524Y-83976905D01*
X133659524Y-83738810D01*
X133611905Y-83643571D01*
X133564286Y-83595952D01*
X133469048Y-83548333D01*
X133278571Y-83548333D01*
X133183333Y-83595952D01*
X133135714Y-83643571D01*
X133088095Y-83738810D01*
X113502381Y-81261905D02*
X114311905Y-81261905D01*
X114407143Y-81214286D01*
X114454762Y-81166667D01*
X114502381Y-81071429D01*
X114502381Y-80880952D01*
X114454762Y-80785714D01*
X114407143Y-80738095D01*
X114311905Y-80690476D01*
X113502381Y-80690476D01*
X113502381Y-80309524D02*
X113502381Y-79642857D01*
X114502381Y-80071429D01*
X118402381Y-88511905D02*
X119211905Y-88511905D01*
X119307143Y-88464286D01*
X119354762Y-88416667D01*
X119402381Y-88321429D01*
X119402381Y-88130952D01*
X119354762Y-88035714D01*
X119307143Y-87988095D01*
X119211905Y-87940476D01*
X118402381Y-87940476D01*
X119402381Y-87416667D02*
X119402381Y-87226191D01*
X119354762Y-87130952D01*
X119307143Y-87083333D01*
X119164286Y-86988095D01*
X118973810Y-86940476D01*
X118592857Y-86940476D01*
X118497619Y-86988095D01*
X118450000Y-87035714D01*
X118402381Y-87130952D01*
X118402381Y-87321429D01*
X118450000Y-87416667D01*
X118497619Y-87464286D01*
X118592857Y-87511905D01*
X118830952Y-87511905D01*
X118926190Y-87464286D01*
X118973810Y-87416667D01*
X119021429Y-87321429D01*
X119021429Y-87130952D01*
X118973810Y-87035714D01*
X118926190Y-86988095D01*
X118830952Y-86940476D01*
X146373809Y-112776190D02*
X146373809Y-113252381D01*
X146040476Y-112252381D02*
X146373809Y-112776190D01*
X146707143Y-112252381D01*
X147564286Y-113252381D02*
X146992857Y-113252381D01*
X147278571Y-113252381D02*
X147278571Y-112252381D01*
X147183333Y-112395238D01*
X147088095Y-112490476D01*
X146992857Y-112538095D01*
X114361905Y-99202381D02*
X114361905Y-100011905D01*
X114409524Y-100107143D01*
X114457143Y-100154762D01*
X114552381Y-100202381D01*
X114742858Y-100202381D01*
X114838096Y-100154762D01*
X114885715Y-100107143D01*
X114933334Y-100011905D01*
X114933334Y-99202381D01*
X115933334Y-100202381D02*
X115361905Y-100202381D01*
X115647619Y-100202381D02*
X115647619Y-99202381D01*
X115552381Y-99345238D01*
X115457143Y-99440476D01*
X115361905Y-99488095D01*
X116790477Y-99202381D02*
X116600000Y-99202381D01*
X116504762Y-99250000D01*
X116457143Y-99297619D01*
X116361905Y-99440476D01*
X116314286Y-99630952D01*
X116314286Y-100011905D01*
X116361905Y-100107143D01*
X116409524Y-100154762D01*
X116504762Y-100202381D01*
X116695239Y-100202381D01*
X116790477Y-100154762D01*
X116838096Y-100107143D01*
X116885715Y-100011905D01*
X116885715Y-99773810D01*
X116838096Y-99678571D01*
X116790477Y-99630952D01*
X116695239Y-99583333D01*
X116504762Y-99583333D01*
X116409524Y-99630952D01*
X116361905Y-99678571D01*
X116314286Y-99773810D01*
X167461905Y-109952381D02*
X167461905Y-108952381D01*
X167700000Y-108952381D01*
X167842858Y-109000000D01*
X167938096Y-109095238D01*
X167985715Y-109190476D01*
X168033334Y-109380952D01*
X168033334Y-109523810D01*
X167985715Y-109714286D01*
X167938096Y-109809524D01*
X167842858Y-109904762D01*
X167700000Y-109952381D01*
X167461905Y-109952381D01*
X168985715Y-109952381D02*
X168414286Y-109952381D01*
X168700000Y-109952381D02*
X168700000Y-108952381D01*
X168604762Y-109095238D01*
X168509524Y-109190476D01*
X168414286Y-109238095D01*
D20*
X155383381Y-87493524D02*
X155383381Y-88521619D01*
X155443857Y-88642571D01*
X155504333Y-88703048D01*
X155625286Y-88763524D01*
X155867190Y-88763524D01*
X155988143Y-88703048D01*
X156048619Y-88642571D01*
X156109095Y-88521619D01*
X156109095Y-87493524D01*
X156653381Y-87614476D02*
X156713857Y-87554000D01*
X156834809Y-87493524D01*
X157137190Y-87493524D01*
X157258143Y-87554000D01*
X157318619Y-87614476D01*
X157379095Y-87735429D01*
X157379095Y-87856381D01*
X157318619Y-88037810D01*
X156592905Y-88763524D01*
X157379095Y-88763524D01*
M02*
