G04 #@! TF.FileFunction,Legend,Top*
%FSLAX46Y46*%
G04 Gerber Fmt 4.6, Leading zero omitted, Abs format (unit mm)*
G04 Created by KiCad (PCBNEW 4.0.6) date 08/03/17 11:48:30*
%MOMM*%
%LPD*%
G01*
G04 APERTURE LIST*
%ADD10C,0.100000*%
%ADD11C,0.250000*%
%ADD12C,0.200000*%
%ADD13C,0.150000*%
%ADD14C,0.120000*%
%ADD15C,0.200660*%
%ADD16C,0.050000*%
%ADD17C,0.040000*%
%ADD18C,0.010000*%
%ADD19C,0.152400*%
%ADD20C,0.254000*%
G04 APERTURE END LIST*
D10*
D11*
X105047143Y-72342381D02*
X105380476Y-73342381D01*
X105713810Y-72342381D01*
X106047143Y-73342381D02*
X106047143Y-72675714D01*
X106047143Y-72342381D02*
X105999524Y-72390000D01*
X106047143Y-72437619D01*
X106094762Y-72390000D01*
X106047143Y-72342381D01*
X106047143Y-72437619D01*
X106380476Y-72675714D02*
X106761428Y-72675714D01*
X106523333Y-72342381D02*
X106523333Y-73199524D01*
X106570952Y-73294762D01*
X106666190Y-73342381D01*
X106761428Y-73342381D01*
X107523334Y-73342381D02*
X107523334Y-72818571D01*
X107475715Y-72723333D01*
X107380477Y-72675714D01*
X107190000Y-72675714D01*
X107094762Y-72723333D01*
X107523334Y-73294762D02*
X107428096Y-73342381D01*
X107190000Y-73342381D01*
X107094762Y-73294762D01*
X107047143Y-73199524D01*
X107047143Y-73104286D01*
X107094762Y-73009048D01*
X107190000Y-72961429D01*
X107428096Y-72961429D01*
X107523334Y-72913810D01*
X108142381Y-73342381D02*
X108047143Y-73294762D01*
X107999524Y-73199524D01*
X107999524Y-72342381D01*
X109094763Y-73247143D02*
X109047144Y-73294762D01*
X108904287Y-73342381D01*
X108809049Y-73342381D01*
X108666191Y-73294762D01*
X108570953Y-73199524D01*
X108523334Y-73104286D01*
X108475715Y-72913810D01*
X108475715Y-72770952D01*
X108523334Y-72580476D01*
X108570953Y-72485238D01*
X108666191Y-72390000D01*
X108809049Y-72342381D01*
X108904287Y-72342381D01*
X109047144Y-72390000D01*
X109094763Y-72437619D01*
X109951906Y-73342381D02*
X109951906Y-72818571D01*
X109904287Y-72723333D01*
X109809049Y-72675714D01*
X109618572Y-72675714D01*
X109523334Y-72723333D01*
X109951906Y-73294762D02*
X109856668Y-73342381D01*
X109618572Y-73342381D01*
X109523334Y-73294762D01*
X109475715Y-73199524D01*
X109475715Y-73104286D01*
X109523334Y-73009048D01*
X109618572Y-72961429D01*
X109856668Y-72961429D01*
X109951906Y-72913810D01*
X110428096Y-73342381D02*
X110428096Y-72675714D01*
X110428096Y-72770952D02*
X110475715Y-72723333D01*
X110570953Y-72675714D01*
X110713811Y-72675714D01*
X110809049Y-72723333D01*
X110856668Y-72818571D01*
X110856668Y-73342381D01*
X110856668Y-72818571D02*
X110904287Y-72723333D01*
X110999525Y-72675714D01*
X111142382Y-72675714D01*
X111237620Y-72723333D01*
X111285239Y-72818571D01*
X111285239Y-73342381D01*
X112428096Y-72675714D02*
X112666191Y-73342381D01*
X112904287Y-72675714D01*
X113237620Y-72437619D02*
X113285239Y-72390000D01*
X113380477Y-72342381D01*
X113618573Y-72342381D01*
X113713811Y-72390000D01*
X113761430Y-72437619D01*
X113809049Y-72532857D01*
X113809049Y-72628095D01*
X113761430Y-72770952D01*
X113190001Y-73342381D01*
X113809049Y-73342381D01*
X114237620Y-73247143D02*
X114285239Y-73294762D01*
X114237620Y-73342381D01*
X114190001Y-73294762D01*
X114237620Y-73247143D01*
X114237620Y-73342381D01*
X114904286Y-72342381D02*
X114999525Y-72342381D01*
X115094763Y-72390000D01*
X115142382Y-72437619D01*
X115190001Y-72532857D01*
X115237620Y-72723333D01*
X115237620Y-72961429D01*
X115190001Y-73151905D01*
X115142382Y-73247143D01*
X115094763Y-73294762D01*
X114999525Y-73342381D01*
X114904286Y-73342381D01*
X114809048Y-73294762D01*
X114761429Y-73247143D01*
X114713810Y-73151905D01*
X114666191Y-72961429D01*
X114666191Y-72723333D01*
X114713810Y-72532857D01*
X114761429Y-72437619D01*
X114809048Y-72390000D01*
X114904286Y-72342381D01*
X106832857Y-74140000D02*
X106737619Y-74092381D01*
X106594762Y-74092381D01*
X106451904Y-74140000D01*
X106356666Y-74235238D01*
X106309047Y-74330476D01*
X106261428Y-74520952D01*
X106261428Y-74663810D01*
X106309047Y-74854286D01*
X106356666Y-74949524D01*
X106451904Y-75044762D01*
X106594762Y-75092381D01*
X106690000Y-75092381D01*
X106832857Y-75044762D01*
X106880476Y-74997143D01*
X106880476Y-74663810D01*
X106690000Y-74663810D01*
X107690000Y-75044762D02*
X107594762Y-75092381D01*
X107404285Y-75092381D01*
X107309047Y-75044762D01*
X107261428Y-74949524D01*
X107261428Y-74568571D01*
X107309047Y-74473333D01*
X107404285Y-74425714D01*
X107594762Y-74425714D01*
X107690000Y-74473333D01*
X107737619Y-74568571D01*
X107737619Y-74663810D01*
X107261428Y-74759048D01*
X108547143Y-75044762D02*
X108451905Y-75092381D01*
X108261428Y-75092381D01*
X108166190Y-75044762D01*
X108118571Y-74949524D01*
X108118571Y-74568571D01*
X108166190Y-74473333D01*
X108261428Y-74425714D01*
X108451905Y-74425714D01*
X108547143Y-74473333D01*
X108594762Y-74568571D01*
X108594762Y-74663810D01*
X108118571Y-74759048D01*
X108880476Y-74425714D02*
X109261428Y-74425714D01*
X109023333Y-74092381D02*
X109023333Y-74949524D01*
X109070952Y-75044762D01*
X109166190Y-75092381D01*
X109261428Y-75092381D01*
X109594762Y-75092381D02*
X109594762Y-74092381D01*
X110023334Y-75092381D02*
X110023334Y-74568571D01*
X109975715Y-74473333D01*
X109880477Y-74425714D01*
X109737619Y-74425714D01*
X109642381Y-74473333D01*
X109594762Y-74520952D01*
X110928096Y-75092381D02*
X110928096Y-74568571D01*
X110880477Y-74473333D01*
X110785239Y-74425714D01*
X110594762Y-74425714D01*
X110499524Y-74473333D01*
X110928096Y-75044762D02*
X110832858Y-75092381D01*
X110594762Y-75092381D01*
X110499524Y-75044762D01*
X110451905Y-74949524D01*
X110451905Y-74854286D01*
X110499524Y-74759048D01*
X110594762Y-74711429D01*
X110832858Y-74711429D01*
X110928096Y-74663810D01*
X111404286Y-74425714D02*
X111404286Y-75092381D01*
X111404286Y-74520952D02*
X111451905Y-74473333D01*
X111547143Y-74425714D01*
X111690001Y-74425714D01*
X111785239Y-74473333D01*
X111832858Y-74568571D01*
X111832858Y-75092381D01*
X113070953Y-75092381D02*
X113070953Y-74092381D01*
X113642382Y-75092381D02*
X113213810Y-74520952D01*
X113642382Y-74092381D02*
X113070953Y-74663810D01*
X114070953Y-74997143D02*
X114118572Y-75044762D01*
X114070953Y-75092381D01*
X114023334Y-75044762D01*
X114070953Y-74997143D01*
X114070953Y-75092381D01*
X106332857Y-75842381D02*
X106428096Y-75842381D01*
X106523334Y-75890000D01*
X106570953Y-75937619D01*
X106618572Y-76032857D01*
X106666191Y-76223333D01*
X106666191Y-76461429D01*
X106618572Y-76651905D01*
X106570953Y-76747143D01*
X106523334Y-76794762D01*
X106428096Y-76842381D01*
X106332857Y-76842381D01*
X106237619Y-76794762D01*
X106190000Y-76747143D01*
X106142381Y-76651905D01*
X106094762Y-76461429D01*
X106094762Y-76223333D01*
X106142381Y-76032857D01*
X106190000Y-75937619D01*
X106237619Y-75890000D01*
X106332857Y-75842381D01*
X107047143Y-75937619D02*
X107094762Y-75890000D01*
X107190000Y-75842381D01*
X107428096Y-75842381D01*
X107523334Y-75890000D01*
X107570953Y-75937619D01*
X107618572Y-76032857D01*
X107618572Y-76128095D01*
X107570953Y-76270952D01*
X106999524Y-76842381D01*
X107618572Y-76842381D01*
X108047143Y-76747143D02*
X108094762Y-76794762D01*
X108047143Y-76842381D01*
X107999524Y-76794762D01*
X108047143Y-76747143D01*
X108047143Y-76842381D01*
X108713809Y-75842381D02*
X108809048Y-75842381D01*
X108904286Y-75890000D01*
X108951905Y-75937619D01*
X108999524Y-76032857D01*
X109047143Y-76223333D01*
X109047143Y-76461429D01*
X108999524Y-76651905D01*
X108951905Y-76747143D01*
X108904286Y-76794762D01*
X108809048Y-76842381D01*
X108713809Y-76842381D01*
X108618571Y-76794762D01*
X108570952Y-76747143D01*
X108523333Y-76651905D01*
X108475714Y-76461429D01*
X108475714Y-76223333D01*
X108523333Y-76032857D01*
X108570952Y-75937619D01*
X108618571Y-75890000D01*
X108713809Y-75842381D01*
X109618571Y-76270952D02*
X109523333Y-76223333D01*
X109475714Y-76175714D01*
X109428095Y-76080476D01*
X109428095Y-76032857D01*
X109475714Y-75937619D01*
X109523333Y-75890000D01*
X109618571Y-75842381D01*
X109809048Y-75842381D01*
X109904286Y-75890000D01*
X109951905Y-75937619D01*
X109999524Y-76032857D01*
X109999524Y-76080476D01*
X109951905Y-76175714D01*
X109904286Y-76223333D01*
X109809048Y-76270952D01*
X109618571Y-76270952D01*
X109523333Y-76318571D01*
X109475714Y-76366190D01*
X109428095Y-76461429D01*
X109428095Y-76651905D01*
X109475714Y-76747143D01*
X109523333Y-76794762D01*
X109618571Y-76842381D01*
X109809048Y-76842381D01*
X109904286Y-76794762D01*
X109951905Y-76747143D01*
X109999524Y-76651905D01*
X109999524Y-76461429D01*
X109951905Y-76366190D01*
X109904286Y-76318571D01*
X109809048Y-76270952D01*
X110428095Y-76747143D02*
X110475714Y-76794762D01*
X110428095Y-76842381D01*
X110380476Y-76794762D01*
X110428095Y-76747143D01*
X110428095Y-76842381D01*
X110856666Y-75937619D02*
X110904285Y-75890000D01*
X110999523Y-75842381D01*
X111237619Y-75842381D01*
X111332857Y-75890000D01*
X111380476Y-75937619D01*
X111428095Y-76032857D01*
X111428095Y-76128095D01*
X111380476Y-76270952D01*
X110809047Y-76842381D01*
X111428095Y-76842381D01*
X112047142Y-75842381D02*
X112142381Y-75842381D01*
X112237619Y-75890000D01*
X112285238Y-75937619D01*
X112332857Y-76032857D01*
X112380476Y-76223333D01*
X112380476Y-76461429D01*
X112332857Y-76651905D01*
X112285238Y-76747143D01*
X112237619Y-76794762D01*
X112142381Y-76842381D01*
X112047142Y-76842381D01*
X111951904Y-76794762D01*
X111904285Y-76747143D01*
X111856666Y-76651905D01*
X111809047Y-76461429D01*
X111809047Y-76223333D01*
X111856666Y-76032857D01*
X111904285Y-75937619D01*
X111951904Y-75890000D01*
X112047142Y-75842381D01*
X113332857Y-76842381D02*
X112761428Y-76842381D01*
X113047142Y-76842381D02*
X113047142Y-75842381D01*
X112951904Y-75985238D01*
X112856666Y-76080476D01*
X112761428Y-76128095D01*
X113666190Y-75842381D02*
X114332857Y-75842381D01*
X113904285Y-76842381D01*
D12*
X216790000Y-88190000D02*
G75*
G03X216790000Y-88190000I-24000000J0D01*
G01*
D13*
X124880278Y-80470000D02*
G75*
G03X124880278Y-80470000I-180278J0D01*
G01*
X125150000Y-79870000D02*
X125150000Y-77260000D01*
X125150000Y-77260000D02*
X121490000Y-77260000D01*
X121490000Y-77260000D02*
X121460000Y-77260000D01*
X121460000Y-77260000D02*
X121460000Y-80980000D01*
X121460000Y-80980000D02*
X125150000Y-80980000D01*
X125150000Y-80980000D02*
X125150000Y-79890000D01*
D14*
X194826000Y-88130000D02*
G75*
G03X194826000Y-88130000I-2286000J0D01*
G01*
X162350000Y-96800000D02*
X161650000Y-96800000D01*
X161650000Y-95600000D02*
X162350000Y-95600000D01*
X166600000Y-100250000D02*
X166600000Y-100950000D01*
X165400000Y-100950000D02*
X165400000Y-100250000D01*
X168750000Y-106600000D02*
X168050000Y-106600000D01*
X168050000Y-105400000D02*
X168750000Y-105400000D01*
X149350000Y-81200000D02*
X148650000Y-81200000D01*
X148650000Y-80000000D02*
X149350000Y-80000000D01*
X149400000Y-75950000D02*
X149400000Y-75250000D01*
X150600000Y-75250000D02*
X150600000Y-75950000D01*
X146650000Y-84000000D02*
X147350000Y-84000000D01*
X147350000Y-85200000D02*
X146650000Y-85200000D01*
X161400000Y-75050000D02*
X161400000Y-75750000D01*
X160200000Y-75750000D02*
X160200000Y-75050000D01*
X148600000Y-88450000D02*
X148600000Y-89150000D01*
X147400000Y-89150000D02*
X147400000Y-88450000D01*
X152100000Y-110150000D02*
X152100000Y-110850000D01*
X150900000Y-110850000D02*
X150900000Y-110150000D01*
X151850000Y-105600000D02*
X152550000Y-105600000D01*
X152550000Y-106800000D02*
X151850000Y-106800000D01*
X154800000Y-102350000D02*
X154800000Y-101650000D01*
X156000000Y-101650000D02*
X156000000Y-102350000D01*
X137150000Y-100900000D02*
X137850000Y-100900000D01*
X137850000Y-102100000D02*
X137150000Y-102100000D01*
X134100000Y-96150000D02*
X134100000Y-96850000D01*
X132900000Y-96850000D02*
X132900000Y-96150000D01*
X134750000Y-90600000D02*
X134050000Y-90600000D01*
X134050000Y-89400000D02*
X134750000Y-89400000D01*
X113350000Y-83650000D02*
X113350000Y-84350000D01*
X112150000Y-84350000D02*
X112150000Y-83650000D01*
X121150000Y-83900000D02*
X121850000Y-83900000D01*
X121850000Y-85100000D02*
X121150000Y-85100000D01*
X128780000Y-79630000D02*
X128780000Y-78930000D01*
X129980000Y-78930000D02*
X129980000Y-79630000D01*
X113350000Y-79150000D02*
X113350000Y-79850000D01*
X112150000Y-79850000D02*
X112150000Y-79150000D01*
X121150000Y-86900000D02*
X121850000Y-86900000D01*
X121850000Y-88100000D02*
X121150000Y-88100000D01*
X121150000Y-89150000D02*
X121850000Y-89150000D01*
X121850000Y-90350000D02*
X121150000Y-90350000D01*
X115950000Y-97400000D02*
X115250000Y-97400000D01*
X115250000Y-96200000D02*
X115950000Y-96200000D01*
X110200000Y-103150000D02*
X110200000Y-102450000D01*
X111400000Y-102450000D02*
X111400000Y-103150000D01*
X121400000Y-102450000D02*
X121400000Y-103150000D01*
X120200000Y-103150000D02*
X120200000Y-102450000D01*
X139200000Y-86550000D02*
X139200000Y-85850000D01*
X140400000Y-85850000D02*
X140400000Y-86550000D01*
X190540000Y-62590000D02*
X195190000Y-62590000D01*
X190540000Y-65790000D02*
X195190000Y-65790000D01*
X195190000Y-65790000D02*
X195190000Y-64990000D01*
X197240777Y-62872176D02*
X201732332Y-64075684D01*
X196412556Y-65963138D02*
X200904112Y-67166647D01*
X200904112Y-67166647D02*
X201111167Y-66393906D01*
X203641443Y-64894749D02*
X207668461Y-67219749D01*
X202041443Y-67666031D02*
X206068461Y-69991031D01*
X206068461Y-69991031D02*
X206468461Y-69298210D01*
X209300944Y-68497076D02*
X212588990Y-71785122D01*
X207038202Y-70759818D02*
X210326248Y-74047864D01*
X210326248Y-74047864D02*
X210891934Y-73482179D01*
X218390000Y-85940000D02*
X218390000Y-90590000D01*
X215190000Y-85940000D02*
X215190000Y-90590000D01*
X215190000Y-90590000D02*
X215990000Y-90590000D01*
X218100044Y-92642434D02*
X216896536Y-97133989D01*
X215009082Y-91814213D02*
X213805573Y-96305769D01*
X213805573Y-96305769D02*
X214578314Y-96512824D01*
X216085251Y-99041443D02*
X213760251Y-103068461D01*
X213313969Y-97441443D02*
X210988969Y-101468461D01*
X210988969Y-101468461D02*
X211681790Y-101868461D01*
X212482924Y-104700944D02*
X209194878Y-107988990D01*
X210220182Y-102438202D02*
X206932136Y-105726248D01*
X206932136Y-105726248D02*
X207497821Y-106291934D01*
X195040000Y-113790000D02*
X190390000Y-113790000D01*
X195040000Y-110590000D02*
X190390000Y-110590000D01*
X190390000Y-110590000D02*
X190390000Y-111390000D01*
X188337566Y-113500044D02*
X183846011Y-112296536D01*
X189165787Y-110409082D02*
X184674231Y-109205573D01*
X184674231Y-109205573D02*
X184467176Y-109978314D01*
X181938557Y-111485251D02*
X177911539Y-109160251D01*
X183538557Y-108713969D02*
X179511539Y-106388969D01*
X179511539Y-106388969D02*
X179111539Y-107081790D01*
X176279056Y-107882924D02*
X172991010Y-104594878D01*
X178541798Y-105620182D02*
X175253752Y-102332136D01*
X175253752Y-102332136D02*
X174688066Y-102897821D01*
X167190000Y-90440000D02*
X167190000Y-85790000D01*
X170390000Y-90440000D02*
X170390000Y-85790000D01*
X170390000Y-85790000D02*
X169590000Y-85790000D01*
X167479956Y-83737566D02*
X168683464Y-79246011D01*
X170570918Y-84565787D02*
X171774427Y-80074231D01*
X171774427Y-80074231D02*
X171001686Y-79867176D01*
X169494749Y-77338557D02*
X171819749Y-73311539D01*
X172266031Y-78938557D02*
X174591031Y-74911539D01*
X174591031Y-74911539D02*
X173898210Y-74511539D01*
X173097076Y-71679056D02*
X176385122Y-68391010D01*
X175359818Y-73941798D02*
X178647864Y-70653752D01*
X178647864Y-70653752D02*
X178082179Y-70088066D01*
X213835251Y-73441443D02*
X216160251Y-77468461D01*
X211063969Y-75041443D02*
X213388969Y-79068461D01*
X213388969Y-79068461D02*
X214081790Y-78668461D01*
X207538557Y-109235251D02*
X203511539Y-111560251D01*
X205938557Y-106463969D02*
X201911539Y-108788969D01*
X201911539Y-108788969D02*
X202311539Y-109481790D01*
X171744749Y-102938557D02*
X169419749Y-98911539D01*
X174516031Y-101338557D02*
X172191031Y-97311539D01*
X172191031Y-97311539D02*
X171498210Y-97711539D01*
X178041443Y-67144749D02*
X182068461Y-64819749D01*
X179641443Y-69916031D02*
X183668461Y-67591031D01*
X183668461Y-67591031D02*
X183268461Y-66898210D01*
X216935358Y-79390899D02*
X218138867Y-83882455D01*
X213844396Y-80219120D02*
X215047904Y-84710675D01*
X215047904Y-84710675D02*
X215820645Y-84503620D01*
X201589101Y-112335358D02*
X197097545Y-113538867D01*
X200760880Y-109244396D02*
X196269325Y-110447904D01*
X196269325Y-110447904D02*
X196476380Y-111220645D01*
X168644642Y-96989101D02*
X167441133Y-92497545D01*
X171735604Y-96160880D02*
X170532096Y-91669325D01*
X170532096Y-91669325D02*
X169759355Y-91876380D01*
X183990899Y-64044642D02*
X188482455Y-62841133D01*
X184819120Y-67135604D02*
X189310675Y-65932096D01*
X189310675Y-65932096D02*
X189103620Y-65159355D01*
X122250000Y-114400000D02*
X117600000Y-114400000D01*
X122250000Y-111200000D02*
X117600000Y-111200000D01*
X117600000Y-111200000D02*
X117600000Y-112000000D01*
X115050000Y-114400000D02*
X110400000Y-114400000D01*
X115050000Y-111200000D02*
X110400000Y-111200000D01*
X110400000Y-111200000D02*
X110400000Y-112000000D01*
X155730000Y-66320000D02*
X155730000Y-61120000D01*
X107410000Y-66320000D02*
X155730000Y-66320000D01*
X104810000Y-61120000D02*
X155730000Y-61120000D01*
X107410000Y-66320000D02*
X107410000Y-63720000D01*
X107410000Y-63720000D02*
X104810000Y-63720000D01*
X104810000Y-63720000D02*
X104810000Y-61120000D01*
X106140000Y-66320000D02*
X104810000Y-66320000D01*
X104810000Y-66320000D02*
X104810000Y-64990000D01*
X99360000Y-98600000D02*
X99360000Y-107300000D01*
X105770000Y-98600000D02*
X105770000Y-107300000D01*
X105770000Y-107300000D02*
X99360000Y-107300000D01*
X100590000Y-107300000D02*
X100590000Y-98600000D01*
X99360000Y-98600000D02*
X105770000Y-98600000D01*
X99200000Y-75550000D02*
X103900000Y-75550000D01*
X103900000Y-75550000D02*
X103900000Y-69450000D01*
X103900000Y-69450000D02*
X99200000Y-69450000D01*
X99200000Y-69450000D02*
X99200000Y-75550000D01*
X99200000Y-73000000D02*
X99800000Y-73000000D01*
X99800000Y-73000000D02*
X99800000Y-74950000D01*
X99800000Y-74950000D02*
X103300000Y-74950000D01*
X103300000Y-74950000D02*
X103300000Y-70050000D01*
X103300000Y-70050000D02*
X99800000Y-70050000D01*
X99800000Y-70050000D02*
X99800000Y-72000000D01*
X99800000Y-72000000D02*
X99200000Y-72000000D01*
X100500000Y-75550000D02*
X100500000Y-74950000D01*
X101800000Y-75550000D02*
X101800000Y-74950000D01*
X100500000Y-69450000D02*
X100500000Y-70050000D01*
X101800000Y-69450000D02*
X101800000Y-70050000D01*
X99200000Y-73800000D02*
X99000000Y-73800000D01*
X99000000Y-73800000D02*
X99000000Y-74100000D01*
X99000000Y-74100000D02*
X99200000Y-74100000D01*
X99100000Y-73800000D02*
X99100000Y-74100000D01*
X103300000Y-72600000D02*
X102800000Y-72600000D01*
X102800000Y-72600000D02*
X102800000Y-72400000D01*
X102800000Y-72400000D02*
X103300000Y-72400000D01*
X103300000Y-72500000D02*
X102800000Y-72500000D01*
X98900000Y-74600000D02*
X98900000Y-75850000D01*
X98900000Y-75850000D02*
X100150000Y-75850000D01*
X160800000Y-105520000D02*
X162800000Y-105520000D01*
X162800000Y-108480000D02*
X160800000Y-108480000D01*
X127810000Y-103900000D02*
X127810000Y-102100000D01*
X124590000Y-102100000D02*
X124590000Y-105050000D01*
X126960000Y-110980000D02*
X126960000Y-110050000D01*
X126960000Y-107820000D02*
X126960000Y-108750000D01*
X126960000Y-107820000D02*
X124800000Y-107820000D01*
X126960000Y-110980000D02*
X125500000Y-110980000D01*
X153100000Y-97120000D02*
X154100000Y-97120000D01*
X154100000Y-98480000D02*
X153100000Y-98480000D01*
X147500000Y-97120000D02*
X148500000Y-97120000D01*
X148500000Y-98480000D02*
X147500000Y-98480000D01*
X130680000Y-90100000D02*
X130680000Y-91100000D01*
X129320000Y-91100000D02*
X129320000Y-90100000D01*
X138700000Y-90120000D02*
X139700000Y-90120000D01*
X139700000Y-91480000D02*
X138700000Y-91480000D01*
X123740000Y-76420000D02*
X122740000Y-76420000D01*
X122740000Y-75060000D02*
X123740000Y-75060000D01*
X108900000Y-98520000D02*
X109900000Y-98520000D01*
X109900000Y-99880000D02*
X108900000Y-99880000D01*
X110900000Y-97480000D02*
X109900000Y-97480000D01*
X109900000Y-96120000D02*
X110900000Y-96120000D01*
X118820000Y-96000000D02*
X118820000Y-95000000D01*
X120180000Y-95000000D02*
X120180000Y-96000000D01*
X113300000Y-93120000D02*
X114300000Y-93120000D01*
X114300000Y-94480000D02*
X113300000Y-94480000D01*
X119700000Y-108680000D02*
X118700000Y-108680000D01*
X118700000Y-107320000D02*
X119700000Y-107320000D01*
X113900000Y-108680000D02*
X112900000Y-108680000D01*
X112900000Y-107320000D02*
X113900000Y-107320000D01*
X122300000Y-96120000D02*
X123300000Y-96120000D01*
X123300000Y-97480000D02*
X122300000Y-97480000D01*
X125700000Y-113120000D02*
X126700000Y-113120000D01*
X126700000Y-114480000D02*
X125700000Y-114480000D01*
D15*
X105699420Y-86100740D02*
X103200060Y-86100740D01*
X103200060Y-86100740D02*
X103200060Y-87500280D01*
X103200060Y-87500280D02*
X105699420Y-87500280D01*
X105699420Y-82699680D02*
X105699420Y-92900320D01*
X105699420Y-92900320D02*
X109900580Y-92900320D01*
X109900580Y-92900320D02*
X109900580Y-82699680D01*
X109900580Y-82699680D02*
X105699420Y-82699680D01*
D14*
X162610000Y-101900000D02*
X162610000Y-100100000D01*
X159390000Y-100100000D02*
X159390000Y-102550000D01*
X154520000Y-76960000D02*
X156280000Y-76960000D01*
X156280000Y-73890000D02*
X153850000Y-73890000D01*
X150080000Y-100240000D02*
X148320000Y-100240000D01*
X148320000Y-103310000D02*
X150750000Y-103310000D01*
X139060000Y-97380000D02*
X139060000Y-95620000D01*
X135990000Y-95620000D02*
X135990000Y-98050000D01*
D16*
X136400000Y-87000000D02*
X136250000Y-87000000D01*
X136250000Y-87000000D02*
X136250000Y-86600000D01*
X136250000Y-86600000D02*
X136350000Y-86600000D01*
X136350000Y-86600000D02*
X136400000Y-86600000D01*
X136050000Y-87300000D02*
X136400000Y-87300000D01*
X136400000Y-87300000D02*
X136400000Y-84700000D01*
X136400000Y-84700000D02*
X132000000Y-84700000D01*
X132000000Y-84700000D02*
X132000000Y-87300000D01*
X132000000Y-87300000D02*
X136050000Y-87300000D01*
X136050000Y-87300000D02*
X136100000Y-87300000D01*
D14*
X118060000Y-81380000D02*
X118060000Y-79620000D01*
X114990000Y-79620000D02*
X114990000Y-82050000D01*
X114940000Y-86870000D02*
X114940000Y-88630000D01*
X118010000Y-88630000D02*
X118010000Y-86200000D01*
D13*
X145400000Y-108450000D02*
X145400000Y-111650000D01*
X145400000Y-111650000D02*
X148700000Y-111650000D01*
X148700000Y-111650000D02*
X148700000Y-108450000D01*
X148700000Y-108450000D02*
X145400000Y-108450000D01*
X114241421Y-101350000D02*
G75*
G03X114241421Y-101350000I-141421J0D01*
G01*
D16*
X113600000Y-100600000D02*
X113600000Y-104600000D01*
X117600000Y-100600000D02*
X117600000Y-104600000D01*
X113600000Y-100600000D02*
X117600000Y-100600000D01*
X113600000Y-104600000D02*
X117600000Y-104600000D01*
D17*
X179890000Y-74190000D02*
G75*
G03X179890000Y-74190000I-1100000J0D01*
G01*
X207890000Y-74190000D02*
G75*
G03X207890000Y-74190000I-1100000J0D01*
G01*
X207890000Y-102190000D02*
G75*
G03X207890000Y-102190000I-1100000J0D01*
G01*
X179890000Y-102190000D02*
G75*
G03X179890000Y-102190000I-1100000J0D01*
G01*
D14*
X163800000Y-110350000D02*
X163800000Y-113650000D01*
X163800000Y-113650000D02*
X170700000Y-113650000D01*
X163800000Y-110350000D02*
X170700000Y-110350000D01*
D12*
X161300000Y-82890000D02*
X160600000Y-82890000D01*
X150700000Y-82890000D02*
X151400000Y-82890000D01*
X150700000Y-93490000D02*
X151400000Y-93490000D01*
X161300000Y-93490000D02*
X160600000Y-93490000D01*
X161300000Y-82890000D02*
X161300000Y-83590000D01*
X161300000Y-93490000D02*
X161300000Y-92790000D01*
X150700000Y-93490000D02*
X150700000Y-92790000D01*
X150700000Y-82890000D02*
X150700000Y-83590000D01*
D18*
G36*
X139013958Y-110755496D02*
X139046182Y-110755498D01*
X139076911Y-110755502D01*
X139106177Y-110755508D01*
X139134009Y-110755514D01*
X139160440Y-110755522D01*
X139185500Y-110755532D01*
X139209221Y-110755542D01*
X139231632Y-110755555D01*
X139252765Y-110755569D01*
X139272652Y-110755585D01*
X139291322Y-110755602D01*
X139308807Y-110755622D01*
X139325138Y-110755643D01*
X139340346Y-110755666D01*
X139354462Y-110755691D01*
X139367516Y-110755719D01*
X139379540Y-110755748D01*
X139390564Y-110755779D01*
X139400620Y-110755813D01*
X139409739Y-110755849D01*
X139417951Y-110755887D01*
X139425287Y-110755928D01*
X139431779Y-110755971D01*
X139437457Y-110756017D01*
X139442352Y-110756065D01*
X139446496Y-110756116D01*
X139449918Y-110756170D01*
X139452651Y-110756226D01*
X139454725Y-110756286D01*
X139456171Y-110756348D01*
X139457020Y-110756413D01*
X139457302Y-110756481D01*
X139457302Y-110756486D01*
X139457136Y-110757291D01*
X139456662Y-110759630D01*
X139455886Y-110763480D01*
X139454812Y-110768819D01*
X139453444Y-110775623D01*
X139451787Y-110783871D01*
X139449846Y-110793538D01*
X139447625Y-110804604D01*
X139445129Y-110817044D01*
X139442362Y-110830836D01*
X139439329Y-110845958D01*
X139436034Y-110862386D01*
X139432482Y-110880099D01*
X139428677Y-110899072D01*
X139424625Y-110919284D01*
X139420329Y-110940712D01*
X139415794Y-110963334D01*
X139411024Y-110987125D01*
X139406025Y-111012064D01*
X139400801Y-111038129D01*
X139395356Y-111065295D01*
X139389695Y-111093541D01*
X139383822Y-111122844D01*
X139377742Y-111153181D01*
X139371460Y-111184529D01*
X139364980Y-111216866D01*
X139358306Y-111250169D01*
X139351444Y-111284415D01*
X139344397Y-111319582D01*
X139337171Y-111355646D01*
X139329770Y-111392586D01*
X139322198Y-111430377D01*
X139314459Y-111468999D01*
X139306560Y-111508427D01*
X139298503Y-111548640D01*
X139290294Y-111589614D01*
X139281937Y-111631327D01*
X139273437Y-111673756D01*
X139264798Y-111716878D01*
X139256025Y-111760671D01*
X139247122Y-111805112D01*
X139238094Y-111850178D01*
X139228946Y-111895847D01*
X139219681Y-111942095D01*
X139210305Y-111988901D01*
X139200823Y-112036240D01*
X139191237Y-112084091D01*
X139181555Y-112132432D01*
X139171779Y-112181238D01*
X139161914Y-112230488D01*
X139151965Y-112280158D01*
X139141936Y-112330227D01*
X139131833Y-112380671D01*
X139128449Y-112397564D01*
X138799959Y-114037650D01*
X138286161Y-114037650D01*
X138254547Y-114037649D01*
X138223636Y-114037645D01*
X138193458Y-114037640D01*
X138164047Y-114037633D01*
X138135435Y-114037623D01*
X138107654Y-114037612D01*
X138080737Y-114037599D01*
X138054716Y-114037583D01*
X138029624Y-114037566D01*
X138005493Y-114037548D01*
X137982355Y-114037527D01*
X137960244Y-114037505D01*
X137939190Y-114037481D01*
X137919228Y-114037455D01*
X137900389Y-114037428D01*
X137882705Y-114037400D01*
X137866209Y-114037369D01*
X137850934Y-114037338D01*
X137836912Y-114037305D01*
X137824175Y-114037271D01*
X137812756Y-114037235D01*
X137802687Y-114037198D01*
X137794000Y-114037160D01*
X137786729Y-114037121D01*
X137780905Y-114037081D01*
X137776561Y-114037040D01*
X137773730Y-114036997D01*
X137772443Y-114036954D01*
X137772363Y-114036940D01*
X137772517Y-114036132D01*
X137772974Y-114033804D01*
X137773726Y-114029992D01*
X137774767Y-114024733D01*
X137776089Y-114018064D01*
X137777685Y-114010021D01*
X137779548Y-114000640D01*
X137781670Y-113989959D01*
X137784043Y-113978013D01*
X137786662Y-113964840D01*
X137789518Y-113950476D01*
X137792604Y-113934957D01*
X137795913Y-113918321D01*
X137799438Y-113900603D01*
X137803171Y-113881841D01*
X137807105Y-113862070D01*
X137811232Y-113841328D01*
X137815546Y-113819652D01*
X137820040Y-113797076D01*
X137824705Y-113773640D01*
X137829535Y-113749378D01*
X137834522Y-113724327D01*
X137839660Y-113698525D01*
X137844940Y-113672007D01*
X137850355Y-113644811D01*
X137855899Y-113616972D01*
X137861564Y-113588528D01*
X137867342Y-113559515D01*
X137873227Y-113529969D01*
X137879211Y-113499928D01*
X137885287Y-113469427D01*
X137891447Y-113438504D01*
X137897685Y-113407194D01*
X137898569Y-113402755D01*
X137904817Y-113371393D01*
X137910989Y-113340412D01*
X137917077Y-113309849D01*
X137923074Y-113279739D01*
X137928973Y-113250119D01*
X137934767Y-113221027D01*
X137940449Y-113192499D01*
X137946010Y-113164570D01*
X137951444Y-113137279D01*
X137956744Y-113110661D01*
X137961902Y-113084753D01*
X137966911Y-113059591D01*
X137971763Y-113035213D01*
X137976452Y-113011655D01*
X137980970Y-112988953D01*
X137985310Y-112967144D01*
X137989465Y-112946265D01*
X137993426Y-112926351D01*
X137997188Y-112907441D01*
X138000743Y-112889570D01*
X138004082Y-112872775D01*
X138007200Y-112857093D01*
X138010089Y-112842560D01*
X138012741Y-112829213D01*
X138015150Y-112817088D01*
X138017308Y-112806222D01*
X138019207Y-112796651D01*
X138020841Y-112788413D01*
X138022202Y-112781544D01*
X138023283Y-112776080D01*
X138024077Y-112772058D01*
X138024575Y-112769514D01*
X138024772Y-112768486D01*
X138024775Y-112768465D01*
X138024083Y-112768392D01*
X138022001Y-112768323D01*
X138018519Y-112768258D01*
X138013628Y-112768196D01*
X138007320Y-112768138D01*
X137999584Y-112768083D01*
X137990412Y-112768031D01*
X137979795Y-112767983D01*
X137967724Y-112767938D01*
X137954189Y-112767896D01*
X137939181Y-112767858D01*
X137922691Y-112767823D01*
X137904710Y-112767791D01*
X137885229Y-112767763D01*
X137864239Y-112767738D01*
X137841729Y-112767716D01*
X137817692Y-112767697D01*
X137792118Y-112767681D01*
X137764998Y-112767669D01*
X137736323Y-112767660D01*
X137706084Y-112767653D01*
X137674270Y-112767650D01*
X137289342Y-112767650D01*
X137192215Y-113255211D01*
X137186497Y-113283913D01*
X137180765Y-113312689D01*
X137175029Y-113341478D01*
X137169304Y-113370220D01*
X137163599Y-113398856D01*
X137157928Y-113427324D01*
X137152302Y-113455565D01*
X137146734Y-113483518D01*
X137141234Y-113511124D01*
X137135816Y-113538321D01*
X137130492Y-113565051D01*
X137125272Y-113591252D01*
X137120170Y-113616864D01*
X137115197Y-113641827D01*
X137110365Y-113666082D01*
X137105687Y-113689567D01*
X137101173Y-113712223D01*
X137096837Y-113733989D01*
X137092691Y-113754805D01*
X137088745Y-113774612D01*
X137085013Y-113793348D01*
X137081505Y-113810954D01*
X137078235Y-113827369D01*
X137075215Y-113842533D01*
X137072455Y-113856386D01*
X137069968Y-113868868D01*
X137067767Y-113879919D01*
X137065863Y-113889477D01*
X137065717Y-113890211D01*
X137036346Y-114037650D01*
X136008452Y-114037650D01*
X136008895Y-114035467D01*
X136009067Y-114034615D01*
X136009547Y-114032233D01*
X136010331Y-114028348D01*
X136011412Y-114022986D01*
X136012785Y-114016172D01*
X136014446Y-114007934D01*
X136016389Y-113998297D01*
X136018609Y-113987288D01*
X136021099Y-113974934D01*
X136023856Y-113961259D01*
X136026873Y-113946292D01*
X136030146Y-113930058D01*
X136033669Y-113912583D01*
X136037437Y-113893894D01*
X136041444Y-113874016D01*
X136045685Y-113852978D01*
X136050155Y-113830803D01*
X136054849Y-113807520D01*
X136059761Y-113783153D01*
X136064886Y-113757730D01*
X136070219Y-113731277D01*
X136075754Y-113703820D01*
X136081487Y-113675386D01*
X136087411Y-113646000D01*
X136093521Y-113615689D01*
X136099813Y-113584479D01*
X136106280Y-113552396D01*
X136112918Y-113519468D01*
X136119722Y-113485720D01*
X136126685Y-113451178D01*
X136133803Y-113415869D01*
X136141071Y-113379819D01*
X136148482Y-113343054D01*
X136156032Y-113305601D01*
X136163716Y-113267486D01*
X136171528Y-113228735D01*
X136179463Y-113189375D01*
X136187515Y-113149432D01*
X136195679Y-113108931D01*
X136203951Y-113067900D01*
X136212324Y-113026365D01*
X136220793Y-112984352D01*
X136229354Y-112941887D01*
X136238000Y-112898997D01*
X136246727Y-112855707D01*
X136255529Y-112812045D01*
X136256638Y-112806544D01*
X136265448Y-112762840D01*
X136274184Y-112719507D01*
X136282840Y-112676571D01*
X136291410Y-112634057D01*
X136299890Y-112591993D01*
X136308274Y-112550405D01*
X136316557Y-112509318D01*
X136324734Y-112468759D01*
X136332799Y-112428755D01*
X136340747Y-112389331D01*
X136348573Y-112350515D01*
X136356271Y-112312331D01*
X136363836Y-112274807D01*
X136371263Y-112237968D01*
X136378547Y-112201842D01*
X136385681Y-112166454D01*
X136392662Y-112131830D01*
X136399483Y-112097997D01*
X136406140Y-112064981D01*
X136412627Y-112032809D01*
X136418938Y-112001507D01*
X136425069Y-111971100D01*
X136431014Y-111941615D01*
X136436767Y-111913079D01*
X136442325Y-111885518D01*
X136447680Y-111858958D01*
X136452829Y-111833425D01*
X136457765Y-111808945D01*
X136462483Y-111785546D01*
X136466979Y-111763252D01*
X136471246Y-111742091D01*
X136475280Y-111722089D01*
X136479075Y-111703272D01*
X136482625Y-111685666D01*
X136485927Y-111669297D01*
X136488973Y-111654192D01*
X136491760Y-111640378D01*
X136494281Y-111627879D01*
X136496531Y-111616723D01*
X136498506Y-111606936D01*
X136500199Y-111598545D01*
X136501606Y-111591574D01*
X136502721Y-111586052D01*
X136503539Y-111582003D01*
X136504054Y-111579455D01*
X136504262Y-111578433D01*
X136504266Y-111578414D01*
X136504241Y-111578313D01*
X136504090Y-111578217D01*
X136503774Y-111578126D01*
X136503254Y-111578040D01*
X136502491Y-111577958D01*
X136501446Y-111577881D01*
X136500080Y-111577808D01*
X136498353Y-111577740D01*
X136496226Y-111577675D01*
X136493661Y-111577615D01*
X136490617Y-111577558D01*
X136487057Y-111577505D01*
X136482941Y-111577456D01*
X136478229Y-111577410D01*
X136472883Y-111577368D01*
X136466863Y-111577328D01*
X136460131Y-111577292D01*
X136452647Y-111577259D01*
X136444372Y-111577229D01*
X136435267Y-111577201D01*
X136425293Y-111577176D01*
X136414411Y-111577154D01*
X136402581Y-111577133D01*
X136389765Y-111577115D01*
X136375923Y-111577099D01*
X136361016Y-111577085D01*
X136345005Y-111577073D01*
X136327851Y-111577063D01*
X136309515Y-111577054D01*
X136289957Y-111577047D01*
X136269139Y-111577041D01*
X136247022Y-111577036D01*
X136223566Y-111577032D01*
X136198732Y-111577029D01*
X136172481Y-111577027D01*
X136144773Y-111577026D01*
X136115571Y-111577025D01*
X135642313Y-111577025D01*
X135395510Y-112807337D01*
X135148706Y-114037650D01*
X134123317Y-114037650D01*
X134123818Y-114035070D01*
X134123991Y-114034204D01*
X134124471Y-114031808D01*
X134125253Y-114027907D01*
X134126331Y-114022530D01*
X134127701Y-114015701D01*
X134129356Y-114007447D01*
X134131292Y-113997794D01*
X134133503Y-113986769D01*
X134135984Y-113974398D01*
X134138730Y-113960708D01*
X134141736Y-113945724D01*
X134144996Y-113929473D01*
X134148504Y-113911981D01*
X134152257Y-113893274D01*
X134156247Y-113873380D01*
X134160471Y-113852323D01*
X134164923Y-113830131D01*
X134169597Y-113806830D01*
X134174488Y-113782446D01*
X134179592Y-113757005D01*
X134184902Y-113730534D01*
X134190413Y-113703059D01*
X134196121Y-113674606D01*
X134202020Y-113645202D01*
X134208104Y-113614873D01*
X134214369Y-113583644D01*
X134220808Y-113551544D01*
X134227417Y-113518597D01*
X134234191Y-113484830D01*
X134241124Y-113450270D01*
X134248211Y-113414943D01*
X134255447Y-113378875D01*
X134262826Y-113342092D01*
X134270343Y-113304620D01*
X134277993Y-113266487D01*
X134285771Y-113227718D01*
X134293671Y-113188340D01*
X134301687Y-113148378D01*
X134309816Y-113107860D01*
X134318051Y-113066811D01*
X134326387Y-113025259D01*
X134334819Y-112983228D01*
X134343342Y-112940746D01*
X134351950Y-112897838D01*
X134360637Y-112854532D01*
X134369400Y-112810853D01*
X134370583Y-112804956D01*
X134616848Y-111577422D01*
X133446908Y-111577223D01*
X133403812Y-111577216D01*
X133361095Y-111577209D01*
X133318786Y-111577204D01*
X133276913Y-111577198D01*
X133235503Y-111577194D01*
X133194583Y-111577190D01*
X133154182Y-111577186D01*
X133114327Y-111577183D01*
X133075045Y-111577181D01*
X133036365Y-111577179D01*
X132998315Y-111577178D01*
X132960921Y-111577177D01*
X132924212Y-111577177D01*
X132888215Y-111577178D01*
X132852958Y-111577179D01*
X132818468Y-111577180D01*
X132784774Y-111577182D01*
X132751903Y-111577185D01*
X132719883Y-111577188D01*
X132688741Y-111577192D01*
X132658505Y-111577196D01*
X132629203Y-111577201D01*
X132600863Y-111577206D01*
X132573511Y-111577212D01*
X132547177Y-111577218D01*
X132521887Y-111577224D01*
X132497669Y-111577231D01*
X132474552Y-111577239D01*
X132452562Y-111577247D01*
X132431727Y-111577256D01*
X132412075Y-111577265D01*
X132393634Y-111577274D01*
X132376432Y-111577284D01*
X132360495Y-111577295D01*
X132345853Y-111577306D01*
X132332532Y-111577317D01*
X132320560Y-111577328D01*
X132309965Y-111577341D01*
X132300774Y-111577353D01*
X132293016Y-111577366D01*
X132286718Y-111577380D01*
X132281907Y-111577393D01*
X132278612Y-111577408D01*
X132276860Y-111577422D01*
X132276560Y-111577431D01*
X132276378Y-111578229D01*
X132275904Y-111580508D01*
X132275151Y-111584196D01*
X132274136Y-111589215D01*
X132272873Y-111595493D01*
X132271378Y-111602953D01*
X132269663Y-111611521D01*
X132267746Y-111621121D01*
X132265640Y-111631679D01*
X132263360Y-111643120D01*
X132260922Y-111655369D01*
X132258339Y-111668351D01*
X132255628Y-111681990D01*
X132252802Y-111696213D01*
X132249877Y-111710943D01*
X132246867Y-111726106D01*
X132243788Y-111741628D01*
X132240653Y-111757432D01*
X132237479Y-111773444D01*
X132234279Y-111789590D01*
X132231070Y-111805793D01*
X132227864Y-111821980D01*
X132224678Y-111838075D01*
X132221527Y-111854003D01*
X132218424Y-111869689D01*
X132215385Y-111885059D01*
X132212425Y-111900037D01*
X132209559Y-111914548D01*
X132206801Y-111928518D01*
X132204167Y-111941871D01*
X132201671Y-111954533D01*
X132199327Y-111966428D01*
X132197152Y-111977482D01*
X132195159Y-111987619D01*
X132193364Y-111996765D01*
X132191782Y-112004844D01*
X132190426Y-112011782D01*
X132189313Y-112017504D01*
X132188457Y-112021934D01*
X132187872Y-112024999D01*
X132187575Y-112026622D01*
X132187538Y-112026868D01*
X132187792Y-112026926D01*
X132188571Y-112026981D01*
X132189901Y-112027035D01*
X132191810Y-112027086D01*
X132194322Y-112027136D01*
X132197465Y-112027183D01*
X132201265Y-112027229D01*
X132205748Y-112027273D01*
X132210940Y-112027314D01*
X132216867Y-112027354D01*
X132223556Y-112027393D01*
X132231034Y-112027429D01*
X132239326Y-112027463D01*
X132248458Y-112027496D01*
X132258457Y-112027528D01*
X132269350Y-112027557D01*
X132281162Y-112027585D01*
X132293920Y-112027612D01*
X132307651Y-112027637D01*
X132322379Y-112027660D01*
X132338132Y-112027682D01*
X132354937Y-112027703D01*
X132372818Y-112027722D01*
X132391803Y-112027740D01*
X132411918Y-112027757D01*
X132433189Y-112027772D01*
X132455642Y-112027786D01*
X132479304Y-112027799D01*
X132504201Y-112027811D01*
X132530359Y-112027822D01*
X132557805Y-112027831D01*
X132586565Y-112027840D01*
X132616665Y-112027847D01*
X132648131Y-112027854D01*
X132680990Y-112027859D01*
X132715267Y-112027864D01*
X132750990Y-112027868D01*
X132788185Y-112027871D01*
X132826878Y-112027873D01*
X132867094Y-112027874D01*
X132908861Y-112027875D01*
X133665461Y-112027875D01*
X133664951Y-112030454D01*
X133664763Y-112031393D01*
X133664271Y-112033840D01*
X133663485Y-112037746D01*
X133662416Y-112043063D01*
X133661071Y-112049743D01*
X133659463Y-112057737D01*
X133657599Y-112066997D01*
X133655491Y-112077474D01*
X133653147Y-112089121D01*
X133650577Y-112101887D01*
X133647791Y-112115726D01*
X133644800Y-112130589D01*
X133641612Y-112146427D01*
X133638237Y-112163192D01*
X133634686Y-112180835D01*
X133630967Y-112199308D01*
X133627091Y-112218563D01*
X133623068Y-112238552D01*
X133618906Y-112259225D01*
X133614617Y-112280534D01*
X133610209Y-112302432D01*
X133605692Y-112324869D01*
X133601076Y-112347797D01*
X133596371Y-112371169D01*
X133591587Y-112394934D01*
X133590538Y-112400144D01*
X133516635Y-112767253D01*
X132777527Y-112767452D01*
X132736307Y-112767463D01*
X132696645Y-112767474D01*
X132658511Y-112767485D01*
X132621875Y-112767496D01*
X132586706Y-112767506D01*
X132552975Y-112767517D01*
X132520652Y-112767528D01*
X132489707Y-112767539D01*
X132460110Y-112767550D01*
X132431831Y-112767562D01*
X132404841Y-112767574D01*
X132379108Y-112767587D01*
X132354605Y-112767600D01*
X132331299Y-112767613D01*
X132309162Y-112767628D01*
X132288164Y-112767642D01*
X132268274Y-112767658D01*
X132249464Y-112767675D01*
X132231702Y-112767692D01*
X132214958Y-112767710D01*
X132199204Y-112767730D01*
X132184409Y-112767750D01*
X132170543Y-112767772D01*
X132157576Y-112767794D01*
X132145479Y-112767819D01*
X132134220Y-112767844D01*
X132123772Y-112767871D01*
X132114102Y-112767899D01*
X132105182Y-112767929D01*
X132096982Y-112767960D01*
X132089472Y-112767993D01*
X132082621Y-112768028D01*
X132076400Y-112768065D01*
X132070779Y-112768103D01*
X132065728Y-112768144D01*
X132061217Y-112768186D01*
X132057216Y-112768230D01*
X132053696Y-112768277D01*
X132050625Y-112768325D01*
X132047975Y-112768376D01*
X132045716Y-112768430D01*
X132043817Y-112768485D01*
X132042248Y-112768543D01*
X132040981Y-112768604D01*
X132039983Y-112768667D01*
X132039227Y-112768733D01*
X132038682Y-112768801D01*
X132038317Y-112768872D01*
X132038104Y-112768946D01*
X132038011Y-112769023D01*
X132038005Y-112769039D01*
X132037807Y-112769962D01*
X132037318Y-112772362D01*
X132036552Y-112776166D01*
X132035525Y-112781298D01*
X132034251Y-112787682D01*
X132032746Y-112795244D01*
X132031023Y-112803908D01*
X132029099Y-112813599D01*
X132026987Y-112824242D01*
X132024702Y-112835762D01*
X132022260Y-112848083D01*
X132019676Y-112861131D01*
X132016963Y-112874829D01*
X132014138Y-112889103D01*
X132011215Y-112903878D01*
X132008208Y-112919079D01*
X132005133Y-112934629D01*
X132002004Y-112950455D01*
X131998836Y-112966480D01*
X131995645Y-112982630D01*
X131992445Y-112998830D01*
X131989251Y-113015003D01*
X131986077Y-113031076D01*
X131982939Y-113046972D01*
X131979851Y-113062617D01*
X131976829Y-113077935D01*
X131973887Y-113092852D01*
X131971039Y-113107291D01*
X131968302Y-113121179D01*
X131965690Y-113134438D01*
X131963217Y-113146995D01*
X131960898Y-113158775D01*
X131958749Y-113169701D01*
X131956784Y-113179699D01*
X131955017Y-113188693D01*
X131953465Y-113196609D01*
X131952142Y-113203371D01*
X131951062Y-113208904D01*
X131950240Y-113213132D01*
X131949692Y-113215982D01*
X131949432Y-113217376D01*
X131949412Y-113217508D01*
X131949682Y-113217565D01*
X131950511Y-113217620D01*
X131951923Y-113217673D01*
X131953946Y-113217724D01*
X131956604Y-113217773D01*
X131959923Y-113217820D01*
X131963929Y-113217865D01*
X131968649Y-113217908D01*
X131974107Y-113217949D01*
X131980330Y-113217989D01*
X131987343Y-113218026D01*
X131995172Y-113218062D01*
X132003844Y-113218097D01*
X132013383Y-113218129D01*
X132023815Y-113218160D01*
X132035168Y-113218189D01*
X132047465Y-113218217D01*
X132060733Y-113218243D01*
X132074998Y-113218268D01*
X132090286Y-113218291D01*
X132106623Y-113218313D01*
X132124033Y-113218333D01*
X132142544Y-113218352D01*
X132162180Y-113218370D01*
X132182968Y-113218386D01*
X132204934Y-113218401D01*
X132228102Y-113218415D01*
X132252500Y-113218428D01*
X132278153Y-113218440D01*
X132305086Y-113218450D01*
X132333326Y-113218459D01*
X132362898Y-113218467D01*
X132393829Y-113218475D01*
X132426143Y-113218481D01*
X132459867Y-113218486D01*
X132495026Y-113218491D01*
X132531647Y-113218494D01*
X132569754Y-113218497D01*
X132609375Y-113218498D01*
X132650535Y-113218499D01*
X132688479Y-113218500D01*
X132731021Y-113218500D01*
X132772002Y-113218501D01*
X132811447Y-113218503D01*
X132849382Y-113218506D01*
X132885832Y-113218509D01*
X132920824Y-113218514D01*
X132954384Y-113218519D01*
X132986536Y-113218526D01*
X133017308Y-113218533D01*
X133046724Y-113218541D01*
X133074810Y-113218551D01*
X133101593Y-113218561D01*
X133127098Y-113218573D01*
X133151351Y-113218585D01*
X133174378Y-113218599D01*
X133196205Y-113218615D01*
X133216856Y-113218631D01*
X133236359Y-113218649D01*
X133254739Y-113218668D01*
X133272022Y-113218689D01*
X133288233Y-113218710D01*
X133303398Y-113218734D01*
X133317544Y-113218759D01*
X133330695Y-113218785D01*
X133342879Y-113218813D01*
X133354120Y-113218842D01*
X133364444Y-113218873D01*
X133373878Y-113218906D01*
X133382446Y-113218940D01*
X133390176Y-113218977D01*
X133397092Y-113219014D01*
X133403220Y-113219054D01*
X133408586Y-113219096D01*
X133413217Y-113219139D01*
X133417137Y-113219184D01*
X133420373Y-113219231D01*
X133422951Y-113219280D01*
X133424895Y-113219332D01*
X133426233Y-113219385D01*
X133426989Y-113219440D01*
X133427194Y-113219492D01*
X133427018Y-113220324D01*
X133426541Y-113222668D01*
X133425770Y-113226476D01*
X133424716Y-113231705D01*
X133423387Y-113238308D01*
X133421793Y-113246239D01*
X133419942Y-113255454D01*
X133417845Y-113265905D01*
X133415509Y-113277549D01*
X133412945Y-113290338D01*
X133410161Y-113304228D01*
X133407166Y-113319172D01*
X133403970Y-113335126D01*
X133400581Y-113352043D01*
X133397010Y-113369878D01*
X133393264Y-113388586D01*
X133389354Y-113408120D01*
X133385288Y-113428435D01*
X133381075Y-113449485D01*
X133376725Y-113471225D01*
X133372246Y-113493610D01*
X133367649Y-113516592D01*
X133362941Y-113540128D01*
X133358132Y-113564171D01*
X133353232Y-113588675D01*
X133348249Y-113613596D01*
X133345156Y-113629067D01*
X133263468Y-114037650D01*
X130760375Y-114037650D01*
X130760410Y-114035864D01*
X130760567Y-114035034D01*
X130761032Y-114032671D01*
X130761801Y-114028797D01*
X130762870Y-114023435D01*
X130764233Y-114016607D01*
X130765886Y-114008337D01*
X130767825Y-113998646D01*
X130770045Y-113987559D01*
X130772542Y-113975097D01*
X130775310Y-113961283D01*
X130778346Y-113946141D01*
X130781645Y-113929692D01*
X130785202Y-113911959D01*
X130789012Y-113892966D01*
X130793072Y-113872735D01*
X130797376Y-113851288D01*
X130801920Y-113828649D01*
X130806699Y-113804839D01*
X130811710Y-113779883D01*
X130816946Y-113753802D01*
X130822404Y-113726620D01*
X130828079Y-113698359D01*
X130833967Y-113669041D01*
X130840063Y-113638690D01*
X130846362Y-113607328D01*
X130852860Y-113574978D01*
X130859553Y-113541663D01*
X130866435Y-113507406D01*
X130873502Y-113472228D01*
X130880750Y-113436154D01*
X130888174Y-113399205D01*
X130895769Y-113361405D01*
X130903531Y-113322775D01*
X130911456Y-113283340D01*
X130919538Y-113243121D01*
X130927773Y-113202141D01*
X130936157Y-113160424D01*
X130944686Y-113117991D01*
X130953353Y-113074866D01*
X130962156Y-113031071D01*
X130971088Y-112986629D01*
X130980147Y-112941563D01*
X130989327Y-112895895D01*
X130998623Y-112849648D01*
X131008032Y-112802846D01*
X131017548Y-112755510D01*
X131027167Y-112707663D01*
X131036885Y-112659329D01*
X131046696Y-112610529D01*
X131056596Y-112561287D01*
X131066582Y-112511625D01*
X131076647Y-112461566D01*
X131086788Y-112411133D01*
X131090035Y-112394984D01*
X131419625Y-110755890D01*
X134556719Y-110755692D01*
X137693812Y-110755494D01*
X137693395Y-110757279D01*
X137693218Y-110758140D01*
X137692733Y-110760520D01*
X137691947Y-110764383D01*
X137690869Y-110769691D01*
X137689505Y-110776409D01*
X137687863Y-110784499D01*
X137685951Y-110793926D01*
X137683775Y-110804651D01*
X137681344Y-110816639D01*
X137678664Y-110829853D01*
X137675743Y-110844257D01*
X137672589Y-110859813D01*
X137669209Y-110876484D01*
X137665610Y-110894236D01*
X137661800Y-110913029D01*
X137657786Y-110932829D01*
X137653576Y-110953598D01*
X137649177Y-110975300D01*
X137644596Y-110997898D01*
X137639842Y-111021355D01*
X137634920Y-111045635D01*
X137629840Y-111070701D01*
X137624608Y-111096516D01*
X137619232Y-111123043D01*
X137613718Y-111150247D01*
X137608076Y-111178090D01*
X137602311Y-111206536D01*
X137596432Y-111235548D01*
X137590445Y-111265090D01*
X137584359Y-111295124D01*
X137578181Y-111325614D01*
X137571918Y-111356523D01*
X137565577Y-111387816D01*
X137564793Y-111391684D01*
X137558443Y-111423021D01*
X137552170Y-111453979D01*
X137545981Y-111484523D01*
X137539883Y-111514615D01*
X137533884Y-111544219D01*
X137527991Y-111573298D01*
X137522212Y-111601815D01*
X137516554Y-111629734D01*
X137511025Y-111657019D01*
X137505631Y-111683631D01*
X137500381Y-111709536D01*
X137495282Y-111734696D01*
X137490341Y-111759074D01*
X137485566Y-111782634D01*
X137480963Y-111805340D01*
X137476542Y-111827153D01*
X137472308Y-111848039D01*
X137468270Y-111867960D01*
X137464435Y-111886879D01*
X137460809Y-111904761D01*
X137457402Y-111921567D01*
X137454220Y-111937262D01*
X137451270Y-111951809D01*
X137448561Y-111965171D01*
X137446098Y-111977312D01*
X137443891Y-111988194D01*
X137441946Y-111997782D01*
X137440271Y-112006039D01*
X137438873Y-112012927D01*
X137437759Y-112018410D01*
X137436938Y-112022453D01*
X137436415Y-112025017D01*
X137436200Y-112026066D01*
X137436195Y-112026089D01*
X137435783Y-112027875D01*
X138171487Y-112027875D01*
X138172295Y-112024104D01*
X138172493Y-112023145D01*
X138173002Y-112020667D01*
X138173814Y-112016707D01*
X138174922Y-112011303D01*
X138176318Y-112004491D01*
X138177995Y-111996307D01*
X138179944Y-111986790D01*
X138182159Y-111975975D01*
X138184632Y-111963900D01*
X138187356Y-111950602D01*
X138190322Y-111936116D01*
X138193523Y-111920481D01*
X138196953Y-111903732D01*
X138200602Y-111885908D01*
X138204464Y-111867044D01*
X138208532Y-111847177D01*
X138212797Y-111826345D01*
X138217252Y-111804584D01*
X138221889Y-111781931D01*
X138226702Y-111758423D01*
X138231682Y-111734097D01*
X138236821Y-111708989D01*
X138242113Y-111683137D01*
X138247550Y-111656577D01*
X138253124Y-111629347D01*
X138258828Y-111601482D01*
X138264654Y-111573020D01*
X138270594Y-111543998D01*
X138276642Y-111514452D01*
X138282789Y-111484420D01*
X138289028Y-111453938D01*
X138295351Y-111423043D01*
X138301752Y-111391772D01*
X138302176Y-111389700D01*
X138308578Y-111358419D01*
X138314903Y-111327516D01*
X138321144Y-111297028D01*
X138327292Y-111266991D01*
X138333341Y-111237442D01*
X138339282Y-111208419D01*
X138345109Y-111179957D01*
X138350813Y-111152093D01*
X138356387Y-111124865D01*
X138361825Y-111098308D01*
X138367117Y-111072459D01*
X138372257Y-111047356D01*
X138377237Y-111023034D01*
X138382050Y-110999531D01*
X138386687Y-110976883D01*
X138391143Y-110955127D01*
X138395408Y-110934300D01*
X138399476Y-110914437D01*
X138403339Y-110895577D01*
X138406990Y-110877756D01*
X138410420Y-110861009D01*
X138413623Y-110845375D01*
X138416592Y-110830890D01*
X138419317Y-110817590D01*
X138421792Y-110805512D01*
X138424010Y-110794693D01*
X138425963Y-110785170D01*
X138427643Y-110776979D01*
X138429043Y-110770156D01*
X138430156Y-110764740D01*
X138430973Y-110760766D01*
X138431488Y-110758270D01*
X138431692Y-110757291D01*
X138431695Y-110757279D01*
X138432141Y-110755494D01*
X138980208Y-110755494D01*
X139013958Y-110755496D01*
X139013958Y-110755496D01*
G37*
X139013958Y-110755496D02*
X139046182Y-110755498D01*
X139076911Y-110755502D01*
X139106177Y-110755508D01*
X139134009Y-110755514D01*
X139160440Y-110755522D01*
X139185500Y-110755532D01*
X139209221Y-110755542D01*
X139231632Y-110755555D01*
X139252765Y-110755569D01*
X139272652Y-110755585D01*
X139291322Y-110755602D01*
X139308807Y-110755622D01*
X139325138Y-110755643D01*
X139340346Y-110755666D01*
X139354462Y-110755691D01*
X139367516Y-110755719D01*
X139379540Y-110755748D01*
X139390564Y-110755779D01*
X139400620Y-110755813D01*
X139409739Y-110755849D01*
X139417951Y-110755887D01*
X139425287Y-110755928D01*
X139431779Y-110755971D01*
X139437457Y-110756017D01*
X139442352Y-110756065D01*
X139446496Y-110756116D01*
X139449918Y-110756170D01*
X139452651Y-110756226D01*
X139454725Y-110756286D01*
X139456171Y-110756348D01*
X139457020Y-110756413D01*
X139457302Y-110756481D01*
X139457302Y-110756486D01*
X139457136Y-110757291D01*
X139456662Y-110759630D01*
X139455886Y-110763480D01*
X139454812Y-110768819D01*
X139453444Y-110775623D01*
X139451787Y-110783871D01*
X139449846Y-110793538D01*
X139447625Y-110804604D01*
X139445129Y-110817044D01*
X139442362Y-110830836D01*
X139439329Y-110845958D01*
X139436034Y-110862386D01*
X139432482Y-110880099D01*
X139428677Y-110899072D01*
X139424625Y-110919284D01*
X139420329Y-110940712D01*
X139415794Y-110963334D01*
X139411024Y-110987125D01*
X139406025Y-111012064D01*
X139400801Y-111038129D01*
X139395356Y-111065295D01*
X139389695Y-111093541D01*
X139383822Y-111122844D01*
X139377742Y-111153181D01*
X139371460Y-111184529D01*
X139364980Y-111216866D01*
X139358306Y-111250169D01*
X139351444Y-111284415D01*
X139344397Y-111319582D01*
X139337171Y-111355646D01*
X139329770Y-111392586D01*
X139322198Y-111430377D01*
X139314459Y-111468999D01*
X139306560Y-111508427D01*
X139298503Y-111548640D01*
X139290294Y-111589614D01*
X139281937Y-111631327D01*
X139273437Y-111673756D01*
X139264798Y-111716878D01*
X139256025Y-111760671D01*
X139247122Y-111805112D01*
X139238094Y-111850178D01*
X139228946Y-111895847D01*
X139219681Y-111942095D01*
X139210305Y-111988901D01*
X139200823Y-112036240D01*
X139191237Y-112084091D01*
X139181555Y-112132432D01*
X139171779Y-112181238D01*
X139161914Y-112230488D01*
X139151965Y-112280158D01*
X139141936Y-112330227D01*
X139131833Y-112380671D01*
X139128449Y-112397564D01*
X138799959Y-114037650D01*
X138286161Y-114037650D01*
X138254547Y-114037649D01*
X138223636Y-114037645D01*
X138193458Y-114037640D01*
X138164047Y-114037633D01*
X138135435Y-114037623D01*
X138107654Y-114037612D01*
X138080737Y-114037599D01*
X138054716Y-114037583D01*
X138029624Y-114037566D01*
X138005493Y-114037548D01*
X137982355Y-114037527D01*
X137960244Y-114037505D01*
X137939190Y-114037481D01*
X137919228Y-114037455D01*
X137900389Y-114037428D01*
X137882705Y-114037400D01*
X137866209Y-114037369D01*
X137850934Y-114037338D01*
X137836912Y-114037305D01*
X137824175Y-114037271D01*
X137812756Y-114037235D01*
X137802687Y-114037198D01*
X137794000Y-114037160D01*
X137786729Y-114037121D01*
X137780905Y-114037081D01*
X137776561Y-114037040D01*
X137773730Y-114036997D01*
X137772443Y-114036954D01*
X137772363Y-114036940D01*
X137772517Y-114036132D01*
X137772974Y-114033804D01*
X137773726Y-114029992D01*
X137774767Y-114024733D01*
X137776089Y-114018064D01*
X137777685Y-114010021D01*
X137779548Y-114000640D01*
X137781670Y-113989959D01*
X137784043Y-113978013D01*
X137786662Y-113964840D01*
X137789518Y-113950476D01*
X137792604Y-113934957D01*
X137795913Y-113918321D01*
X137799438Y-113900603D01*
X137803171Y-113881841D01*
X137807105Y-113862070D01*
X137811232Y-113841328D01*
X137815546Y-113819652D01*
X137820040Y-113797076D01*
X137824705Y-113773640D01*
X137829535Y-113749378D01*
X137834522Y-113724327D01*
X137839660Y-113698525D01*
X137844940Y-113672007D01*
X137850355Y-113644811D01*
X137855899Y-113616972D01*
X137861564Y-113588528D01*
X137867342Y-113559515D01*
X137873227Y-113529969D01*
X137879211Y-113499928D01*
X137885287Y-113469427D01*
X137891447Y-113438504D01*
X137897685Y-113407194D01*
X137898569Y-113402755D01*
X137904817Y-113371393D01*
X137910989Y-113340412D01*
X137917077Y-113309849D01*
X137923074Y-113279739D01*
X137928973Y-113250119D01*
X137934767Y-113221027D01*
X137940449Y-113192499D01*
X137946010Y-113164570D01*
X137951444Y-113137279D01*
X137956744Y-113110661D01*
X137961902Y-113084753D01*
X137966911Y-113059591D01*
X137971763Y-113035213D01*
X137976452Y-113011655D01*
X137980970Y-112988953D01*
X137985310Y-112967144D01*
X137989465Y-112946265D01*
X137993426Y-112926351D01*
X137997188Y-112907441D01*
X138000743Y-112889570D01*
X138004082Y-112872775D01*
X138007200Y-112857093D01*
X138010089Y-112842560D01*
X138012741Y-112829213D01*
X138015150Y-112817088D01*
X138017308Y-112806222D01*
X138019207Y-112796651D01*
X138020841Y-112788413D01*
X138022202Y-112781544D01*
X138023283Y-112776080D01*
X138024077Y-112772058D01*
X138024575Y-112769514D01*
X138024772Y-112768486D01*
X138024775Y-112768465D01*
X138024083Y-112768392D01*
X138022001Y-112768323D01*
X138018519Y-112768258D01*
X138013628Y-112768196D01*
X138007320Y-112768138D01*
X137999584Y-112768083D01*
X137990412Y-112768031D01*
X137979795Y-112767983D01*
X137967724Y-112767938D01*
X137954189Y-112767896D01*
X137939181Y-112767858D01*
X137922691Y-112767823D01*
X137904710Y-112767791D01*
X137885229Y-112767763D01*
X137864239Y-112767738D01*
X137841729Y-112767716D01*
X137817692Y-112767697D01*
X137792118Y-112767681D01*
X137764998Y-112767669D01*
X137736323Y-112767660D01*
X137706084Y-112767653D01*
X137674270Y-112767650D01*
X137289342Y-112767650D01*
X137192215Y-113255211D01*
X137186497Y-113283913D01*
X137180765Y-113312689D01*
X137175029Y-113341478D01*
X137169304Y-113370220D01*
X137163599Y-113398856D01*
X137157928Y-113427324D01*
X137152302Y-113455565D01*
X137146734Y-113483518D01*
X137141234Y-113511124D01*
X137135816Y-113538321D01*
X137130492Y-113565051D01*
X137125272Y-113591252D01*
X137120170Y-113616864D01*
X137115197Y-113641827D01*
X137110365Y-113666082D01*
X137105687Y-113689567D01*
X137101173Y-113712223D01*
X137096837Y-113733989D01*
X137092691Y-113754805D01*
X137088745Y-113774612D01*
X137085013Y-113793348D01*
X137081505Y-113810954D01*
X137078235Y-113827369D01*
X137075215Y-113842533D01*
X137072455Y-113856386D01*
X137069968Y-113868868D01*
X137067767Y-113879919D01*
X137065863Y-113889477D01*
X137065717Y-113890211D01*
X137036346Y-114037650D01*
X136008452Y-114037650D01*
X136008895Y-114035467D01*
X136009067Y-114034615D01*
X136009547Y-114032233D01*
X136010331Y-114028348D01*
X136011412Y-114022986D01*
X136012785Y-114016172D01*
X136014446Y-114007934D01*
X136016389Y-113998297D01*
X136018609Y-113987288D01*
X136021099Y-113974934D01*
X136023856Y-113961259D01*
X136026873Y-113946292D01*
X136030146Y-113930058D01*
X136033669Y-113912583D01*
X136037437Y-113893894D01*
X136041444Y-113874016D01*
X136045685Y-113852978D01*
X136050155Y-113830803D01*
X136054849Y-113807520D01*
X136059761Y-113783153D01*
X136064886Y-113757730D01*
X136070219Y-113731277D01*
X136075754Y-113703820D01*
X136081487Y-113675386D01*
X136087411Y-113646000D01*
X136093521Y-113615689D01*
X136099813Y-113584479D01*
X136106280Y-113552396D01*
X136112918Y-113519468D01*
X136119722Y-113485720D01*
X136126685Y-113451178D01*
X136133803Y-113415869D01*
X136141071Y-113379819D01*
X136148482Y-113343054D01*
X136156032Y-113305601D01*
X136163716Y-113267486D01*
X136171528Y-113228735D01*
X136179463Y-113189375D01*
X136187515Y-113149432D01*
X136195679Y-113108931D01*
X136203951Y-113067900D01*
X136212324Y-113026365D01*
X136220793Y-112984352D01*
X136229354Y-112941887D01*
X136238000Y-112898997D01*
X136246727Y-112855707D01*
X136255529Y-112812045D01*
X136256638Y-112806544D01*
X136265448Y-112762840D01*
X136274184Y-112719507D01*
X136282840Y-112676571D01*
X136291410Y-112634057D01*
X136299890Y-112591993D01*
X136308274Y-112550405D01*
X136316557Y-112509318D01*
X136324734Y-112468759D01*
X136332799Y-112428755D01*
X136340747Y-112389331D01*
X136348573Y-112350515D01*
X136356271Y-112312331D01*
X136363836Y-112274807D01*
X136371263Y-112237968D01*
X136378547Y-112201842D01*
X136385681Y-112166454D01*
X136392662Y-112131830D01*
X136399483Y-112097997D01*
X136406140Y-112064981D01*
X136412627Y-112032809D01*
X136418938Y-112001507D01*
X136425069Y-111971100D01*
X136431014Y-111941615D01*
X136436767Y-111913079D01*
X136442325Y-111885518D01*
X136447680Y-111858958D01*
X136452829Y-111833425D01*
X136457765Y-111808945D01*
X136462483Y-111785546D01*
X136466979Y-111763252D01*
X136471246Y-111742091D01*
X136475280Y-111722089D01*
X136479075Y-111703272D01*
X136482625Y-111685666D01*
X136485927Y-111669297D01*
X136488973Y-111654192D01*
X136491760Y-111640378D01*
X136494281Y-111627879D01*
X136496531Y-111616723D01*
X136498506Y-111606936D01*
X136500199Y-111598545D01*
X136501606Y-111591574D01*
X136502721Y-111586052D01*
X136503539Y-111582003D01*
X136504054Y-111579455D01*
X136504262Y-111578433D01*
X136504266Y-111578414D01*
X136504241Y-111578313D01*
X136504090Y-111578217D01*
X136503774Y-111578126D01*
X136503254Y-111578040D01*
X136502491Y-111577958D01*
X136501446Y-111577881D01*
X136500080Y-111577808D01*
X136498353Y-111577740D01*
X136496226Y-111577675D01*
X136493661Y-111577615D01*
X136490617Y-111577558D01*
X136487057Y-111577505D01*
X136482941Y-111577456D01*
X136478229Y-111577410D01*
X136472883Y-111577368D01*
X136466863Y-111577328D01*
X136460131Y-111577292D01*
X136452647Y-111577259D01*
X136444372Y-111577229D01*
X136435267Y-111577201D01*
X136425293Y-111577176D01*
X136414411Y-111577154D01*
X136402581Y-111577133D01*
X136389765Y-111577115D01*
X136375923Y-111577099D01*
X136361016Y-111577085D01*
X136345005Y-111577073D01*
X136327851Y-111577063D01*
X136309515Y-111577054D01*
X136289957Y-111577047D01*
X136269139Y-111577041D01*
X136247022Y-111577036D01*
X136223566Y-111577032D01*
X136198732Y-111577029D01*
X136172481Y-111577027D01*
X136144773Y-111577026D01*
X136115571Y-111577025D01*
X135642313Y-111577025D01*
X135395510Y-112807337D01*
X135148706Y-114037650D01*
X134123317Y-114037650D01*
X134123818Y-114035070D01*
X134123991Y-114034204D01*
X134124471Y-114031808D01*
X134125253Y-114027907D01*
X134126331Y-114022530D01*
X134127701Y-114015701D01*
X134129356Y-114007447D01*
X134131292Y-113997794D01*
X134133503Y-113986769D01*
X134135984Y-113974398D01*
X134138730Y-113960708D01*
X134141736Y-113945724D01*
X134144996Y-113929473D01*
X134148504Y-113911981D01*
X134152257Y-113893274D01*
X134156247Y-113873380D01*
X134160471Y-113852323D01*
X134164923Y-113830131D01*
X134169597Y-113806830D01*
X134174488Y-113782446D01*
X134179592Y-113757005D01*
X134184902Y-113730534D01*
X134190413Y-113703059D01*
X134196121Y-113674606D01*
X134202020Y-113645202D01*
X134208104Y-113614873D01*
X134214369Y-113583644D01*
X134220808Y-113551544D01*
X134227417Y-113518597D01*
X134234191Y-113484830D01*
X134241124Y-113450270D01*
X134248211Y-113414943D01*
X134255447Y-113378875D01*
X134262826Y-113342092D01*
X134270343Y-113304620D01*
X134277993Y-113266487D01*
X134285771Y-113227718D01*
X134293671Y-113188340D01*
X134301687Y-113148378D01*
X134309816Y-113107860D01*
X134318051Y-113066811D01*
X134326387Y-113025259D01*
X134334819Y-112983228D01*
X134343342Y-112940746D01*
X134351950Y-112897838D01*
X134360637Y-112854532D01*
X134369400Y-112810853D01*
X134370583Y-112804956D01*
X134616848Y-111577422D01*
X133446908Y-111577223D01*
X133403812Y-111577216D01*
X133361095Y-111577209D01*
X133318786Y-111577204D01*
X133276913Y-111577198D01*
X133235503Y-111577194D01*
X133194583Y-111577190D01*
X133154182Y-111577186D01*
X133114327Y-111577183D01*
X133075045Y-111577181D01*
X133036365Y-111577179D01*
X132998315Y-111577178D01*
X132960921Y-111577177D01*
X132924212Y-111577177D01*
X132888215Y-111577178D01*
X132852958Y-111577179D01*
X132818468Y-111577180D01*
X132784774Y-111577182D01*
X132751903Y-111577185D01*
X132719883Y-111577188D01*
X132688741Y-111577192D01*
X132658505Y-111577196D01*
X132629203Y-111577201D01*
X132600863Y-111577206D01*
X132573511Y-111577212D01*
X132547177Y-111577218D01*
X132521887Y-111577224D01*
X132497669Y-111577231D01*
X132474552Y-111577239D01*
X132452562Y-111577247D01*
X132431727Y-111577256D01*
X132412075Y-111577265D01*
X132393634Y-111577274D01*
X132376432Y-111577284D01*
X132360495Y-111577295D01*
X132345853Y-111577306D01*
X132332532Y-111577317D01*
X132320560Y-111577328D01*
X132309965Y-111577341D01*
X132300774Y-111577353D01*
X132293016Y-111577366D01*
X132286718Y-111577380D01*
X132281907Y-111577393D01*
X132278612Y-111577408D01*
X132276860Y-111577422D01*
X132276560Y-111577431D01*
X132276378Y-111578229D01*
X132275904Y-111580508D01*
X132275151Y-111584196D01*
X132274136Y-111589215D01*
X132272873Y-111595493D01*
X132271378Y-111602953D01*
X132269663Y-111611521D01*
X132267746Y-111621121D01*
X132265640Y-111631679D01*
X132263360Y-111643120D01*
X132260922Y-111655369D01*
X132258339Y-111668351D01*
X132255628Y-111681990D01*
X132252802Y-111696213D01*
X132249877Y-111710943D01*
X132246867Y-111726106D01*
X132243788Y-111741628D01*
X132240653Y-111757432D01*
X132237479Y-111773444D01*
X132234279Y-111789590D01*
X132231070Y-111805793D01*
X132227864Y-111821980D01*
X132224678Y-111838075D01*
X132221527Y-111854003D01*
X132218424Y-111869689D01*
X132215385Y-111885059D01*
X132212425Y-111900037D01*
X132209559Y-111914548D01*
X132206801Y-111928518D01*
X132204167Y-111941871D01*
X132201671Y-111954533D01*
X132199327Y-111966428D01*
X132197152Y-111977482D01*
X132195159Y-111987619D01*
X132193364Y-111996765D01*
X132191782Y-112004844D01*
X132190426Y-112011782D01*
X132189313Y-112017504D01*
X132188457Y-112021934D01*
X132187872Y-112024999D01*
X132187575Y-112026622D01*
X132187538Y-112026868D01*
X132187792Y-112026926D01*
X132188571Y-112026981D01*
X132189901Y-112027035D01*
X132191810Y-112027086D01*
X132194322Y-112027136D01*
X132197465Y-112027183D01*
X132201265Y-112027229D01*
X132205748Y-112027273D01*
X132210940Y-112027314D01*
X132216867Y-112027354D01*
X132223556Y-112027393D01*
X132231034Y-112027429D01*
X132239326Y-112027463D01*
X132248458Y-112027496D01*
X132258457Y-112027528D01*
X132269350Y-112027557D01*
X132281162Y-112027585D01*
X132293920Y-112027612D01*
X132307651Y-112027637D01*
X132322379Y-112027660D01*
X132338132Y-112027682D01*
X132354937Y-112027703D01*
X132372818Y-112027722D01*
X132391803Y-112027740D01*
X132411918Y-112027757D01*
X132433189Y-112027772D01*
X132455642Y-112027786D01*
X132479304Y-112027799D01*
X132504201Y-112027811D01*
X132530359Y-112027822D01*
X132557805Y-112027831D01*
X132586565Y-112027840D01*
X132616665Y-112027847D01*
X132648131Y-112027854D01*
X132680990Y-112027859D01*
X132715267Y-112027864D01*
X132750990Y-112027868D01*
X132788185Y-112027871D01*
X132826878Y-112027873D01*
X132867094Y-112027874D01*
X132908861Y-112027875D01*
X133665461Y-112027875D01*
X133664951Y-112030454D01*
X133664763Y-112031393D01*
X133664271Y-112033840D01*
X133663485Y-112037746D01*
X133662416Y-112043063D01*
X133661071Y-112049743D01*
X133659463Y-112057737D01*
X133657599Y-112066997D01*
X133655491Y-112077474D01*
X133653147Y-112089121D01*
X133650577Y-112101887D01*
X133647791Y-112115726D01*
X133644800Y-112130589D01*
X133641612Y-112146427D01*
X133638237Y-112163192D01*
X133634686Y-112180835D01*
X133630967Y-112199308D01*
X133627091Y-112218563D01*
X133623068Y-112238552D01*
X133618906Y-112259225D01*
X133614617Y-112280534D01*
X133610209Y-112302432D01*
X133605692Y-112324869D01*
X133601076Y-112347797D01*
X133596371Y-112371169D01*
X133591587Y-112394934D01*
X133590538Y-112400144D01*
X133516635Y-112767253D01*
X132777527Y-112767452D01*
X132736307Y-112767463D01*
X132696645Y-112767474D01*
X132658511Y-112767485D01*
X132621875Y-112767496D01*
X132586706Y-112767506D01*
X132552975Y-112767517D01*
X132520652Y-112767528D01*
X132489707Y-112767539D01*
X132460110Y-112767550D01*
X132431831Y-112767562D01*
X132404841Y-112767574D01*
X132379108Y-112767587D01*
X132354605Y-112767600D01*
X132331299Y-112767613D01*
X132309162Y-112767628D01*
X132288164Y-112767642D01*
X132268274Y-112767658D01*
X132249464Y-112767675D01*
X132231702Y-112767692D01*
X132214958Y-112767710D01*
X132199204Y-112767730D01*
X132184409Y-112767750D01*
X132170543Y-112767772D01*
X132157576Y-112767794D01*
X132145479Y-112767819D01*
X132134220Y-112767844D01*
X132123772Y-112767871D01*
X132114102Y-112767899D01*
X132105182Y-112767929D01*
X132096982Y-112767960D01*
X132089472Y-112767993D01*
X132082621Y-112768028D01*
X132076400Y-112768065D01*
X132070779Y-112768103D01*
X132065728Y-112768144D01*
X132061217Y-112768186D01*
X132057216Y-112768230D01*
X132053696Y-112768277D01*
X132050625Y-112768325D01*
X132047975Y-112768376D01*
X132045716Y-112768430D01*
X132043817Y-112768485D01*
X132042248Y-112768543D01*
X132040981Y-112768604D01*
X132039983Y-112768667D01*
X132039227Y-112768733D01*
X132038682Y-112768801D01*
X132038317Y-112768872D01*
X132038104Y-112768946D01*
X132038011Y-112769023D01*
X132038005Y-112769039D01*
X132037807Y-112769962D01*
X132037318Y-112772362D01*
X132036552Y-112776166D01*
X132035525Y-112781298D01*
X132034251Y-112787682D01*
X132032746Y-112795244D01*
X132031023Y-112803908D01*
X132029099Y-112813599D01*
X132026987Y-112824242D01*
X132024702Y-112835762D01*
X132022260Y-112848083D01*
X132019676Y-112861131D01*
X132016963Y-112874829D01*
X132014138Y-112889103D01*
X132011215Y-112903878D01*
X132008208Y-112919079D01*
X132005133Y-112934629D01*
X132002004Y-112950455D01*
X131998836Y-112966480D01*
X131995645Y-112982630D01*
X131992445Y-112998830D01*
X131989251Y-113015003D01*
X131986077Y-113031076D01*
X131982939Y-113046972D01*
X131979851Y-113062617D01*
X131976829Y-113077935D01*
X131973887Y-113092852D01*
X131971039Y-113107291D01*
X131968302Y-113121179D01*
X131965690Y-113134438D01*
X131963217Y-113146995D01*
X131960898Y-113158775D01*
X131958749Y-113169701D01*
X131956784Y-113179699D01*
X131955017Y-113188693D01*
X131953465Y-113196609D01*
X131952142Y-113203371D01*
X131951062Y-113208904D01*
X131950240Y-113213132D01*
X131949692Y-113215982D01*
X131949432Y-113217376D01*
X131949412Y-113217508D01*
X131949682Y-113217565D01*
X131950511Y-113217620D01*
X131951923Y-113217673D01*
X131953946Y-113217724D01*
X131956604Y-113217773D01*
X131959923Y-113217820D01*
X131963929Y-113217865D01*
X131968649Y-113217908D01*
X131974107Y-113217949D01*
X131980330Y-113217989D01*
X131987343Y-113218026D01*
X131995172Y-113218062D01*
X132003844Y-113218097D01*
X132013383Y-113218129D01*
X132023815Y-113218160D01*
X132035168Y-113218189D01*
X132047465Y-113218217D01*
X132060733Y-113218243D01*
X132074998Y-113218268D01*
X132090286Y-113218291D01*
X132106623Y-113218313D01*
X132124033Y-113218333D01*
X132142544Y-113218352D01*
X132162180Y-113218370D01*
X132182968Y-113218386D01*
X132204934Y-113218401D01*
X132228102Y-113218415D01*
X132252500Y-113218428D01*
X132278153Y-113218440D01*
X132305086Y-113218450D01*
X132333326Y-113218459D01*
X132362898Y-113218467D01*
X132393829Y-113218475D01*
X132426143Y-113218481D01*
X132459867Y-113218486D01*
X132495026Y-113218491D01*
X132531647Y-113218494D01*
X132569754Y-113218497D01*
X132609375Y-113218498D01*
X132650535Y-113218499D01*
X132688479Y-113218500D01*
X132731021Y-113218500D01*
X132772002Y-113218501D01*
X132811447Y-113218503D01*
X132849382Y-113218506D01*
X132885832Y-113218509D01*
X132920824Y-113218514D01*
X132954384Y-113218519D01*
X132986536Y-113218526D01*
X133017308Y-113218533D01*
X133046724Y-113218541D01*
X133074810Y-113218551D01*
X133101593Y-113218561D01*
X133127098Y-113218573D01*
X133151351Y-113218585D01*
X133174378Y-113218599D01*
X133196205Y-113218615D01*
X133216856Y-113218631D01*
X133236359Y-113218649D01*
X133254739Y-113218668D01*
X133272022Y-113218689D01*
X133288233Y-113218710D01*
X133303398Y-113218734D01*
X133317544Y-113218759D01*
X133330695Y-113218785D01*
X133342879Y-113218813D01*
X133354120Y-113218842D01*
X133364444Y-113218873D01*
X133373878Y-113218906D01*
X133382446Y-113218940D01*
X133390176Y-113218977D01*
X133397092Y-113219014D01*
X133403220Y-113219054D01*
X133408586Y-113219096D01*
X133413217Y-113219139D01*
X133417137Y-113219184D01*
X133420373Y-113219231D01*
X133422951Y-113219280D01*
X133424895Y-113219332D01*
X133426233Y-113219385D01*
X133426989Y-113219440D01*
X133427194Y-113219492D01*
X133427018Y-113220324D01*
X133426541Y-113222668D01*
X133425770Y-113226476D01*
X133424716Y-113231705D01*
X133423387Y-113238308D01*
X133421793Y-113246239D01*
X133419942Y-113255454D01*
X133417845Y-113265905D01*
X133415509Y-113277549D01*
X133412945Y-113290338D01*
X133410161Y-113304228D01*
X133407166Y-113319172D01*
X133403970Y-113335126D01*
X133400581Y-113352043D01*
X133397010Y-113369878D01*
X133393264Y-113388586D01*
X133389354Y-113408120D01*
X133385288Y-113428435D01*
X133381075Y-113449485D01*
X133376725Y-113471225D01*
X133372246Y-113493610D01*
X133367649Y-113516592D01*
X133362941Y-113540128D01*
X133358132Y-113564171D01*
X133353232Y-113588675D01*
X133348249Y-113613596D01*
X133345156Y-113629067D01*
X133263468Y-114037650D01*
X130760375Y-114037650D01*
X130760410Y-114035864D01*
X130760567Y-114035034D01*
X130761032Y-114032671D01*
X130761801Y-114028797D01*
X130762870Y-114023435D01*
X130764233Y-114016607D01*
X130765886Y-114008337D01*
X130767825Y-113998646D01*
X130770045Y-113987559D01*
X130772542Y-113975097D01*
X130775310Y-113961283D01*
X130778346Y-113946141D01*
X130781645Y-113929692D01*
X130785202Y-113911959D01*
X130789012Y-113892966D01*
X130793072Y-113872735D01*
X130797376Y-113851288D01*
X130801920Y-113828649D01*
X130806699Y-113804839D01*
X130811710Y-113779883D01*
X130816946Y-113753802D01*
X130822404Y-113726620D01*
X130828079Y-113698359D01*
X130833967Y-113669041D01*
X130840063Y-113638690D01*
X130846362Y-113607328D01*
X130852860Y-113574978D01*
X130859553Y-113541663D01*
X130866435Y-113507406D01*
X130873502Y-113472228D01*
X130880750Y-113436154D01*
X130888174Y-113399205D01*
X130895769Y-113361405D01*
X130903531Y-113322775D01*
X130911456Y-113283340D01*
X130919538Y-113243121D01*
X130927773Y-113202141D01*
X130936157Y-113160424D01*
X130944686Y-113117991D01*
X130953353Y-113074866D01*
X130962156Y-113031071D01*
X130971088Y-112986629D01*
X130980147Y-112941563D01*
X130989327Y-112895895D01*
X130998623Y-112849648D01*
X131008032Y-112802846D01*
X131017548Y-112755510D01*
X131027167Y-112707663D01*
X131036885Y-112659329D01*
X131046696Y-112610529D01*
X131056596Y-112561287D01*
X131066582Y-112511625D01*
X131076647Y-112461566D01*
X131086788Y-112411133D01*
X131090035Y-112394984D01*
X131419625Y-110755890D01*
X134556719Y-110755692D01*
X137693812Y-110755494D01*
X137693395Y-110757279D01*
X137693218Y-110758140D01*
X137692733Y-110760520D01*
X137691947Y-110764383D01*
X137690869Y-110769691D01*
X137689505Y-110776409D01*
X137687863Y-110784499D01*
X137685951Y-110793926D01*
X137683775Y-110804651D01*
X137681344Y-110816639D01*
X137678664Y-110829853D01*
X137675743Y-110844257D01*
X137672589Y-110859813D01*
X137669209Y-110876484D01*
X137665610Y-110894236D01*
X137661800Y-110913029D01*
X137657786Y-110932829D01*
X137653576Y-110953598D01*
X137649177Y-110975300D01*
X137644596Y-110997898D01*
X137639842Y-111021355D01*
X137634920Y-111045635D01*
X137629840Y-111070701D01*
X137624608Y-111096516D01*
X137619232Y-111123043D01*
X137613718Y-111150247D01*
X137608076Y-111178090D01*
X137602311Y-111206536D01*
X137596432Y-111235548D01*
X137590445Y-111265090D01*
X137584359Y-111295124D01*
X137578181Y-111325614D01*
X137571918Y-111356523D01*
X137565577Y-111387816D01*
X137564793Y-111391684D01*
X137558443Y-111423021D01*
X137552170Y-111453979D01*
X137545981Y-111484523D01*
X137539883Y-111514615D01*
X137533884Y-111544219D01*
X137527991Y-111573298D01*
X137522212Y-111601815D01*
X137516554Y-111629734D01*
X137511025Y-111657019D01*
X137505631Y-111683631D01*
X137500381Y-111709536D01*
X137495282Y-111734696D01*
X137490341Y-111759074D01*
X137485566Y-111782634D01*
X137480963Y-111805340D01*
X137476542Y-111827153D01*
X137472308Y-111848039D01*
X137468270Y-111867960D01*
X137464435Y-111886879D01*
X137460809Y-111904761D01*
X137457402Y-111921567D01*
X137454220Y-111937262D01*
X137451270Y-111951809D01*
X137448561Y-111965171D01*
X137446098Y-111977312D01*
X137443891Y-111988194D01*
X137441946Y-111997782D01*
X137440271Y-112006039D01*
X137438873Y-112012927D01*
X137437759Y-112018410D01*
X137436938Y-112022453D01*
X137436415Y-112025017D01*
X137436200Y-112026066D01*
X137436195Y-112026089D01*
X137435783Y-112027875D01*
X138171487Y-112027875D01*
X138172295Y-112024104D01*
X138172493Y-112023145D01*
X138173002Y-112020667D01*
X138173814Y-112016707D01*
X138174922Y-112011303D01*
X138176318Y-112004491D01*
X138177995Y-111996307D01*
X138179944Y-111986790D01*
X138182159Y-111975975D01*
X138184632Y-111963900D01*
X138187356Y-111950602D01*
X138190322Y-111936116D01*
X138193523Y-111920481D01*
X138196953Y-111903732D01*
X138200602Y-111885908D01*
X138204464Y-111867044D01*
X138208532Y-111847177D01*
X138212797Y-111826345D01*
X138217252Y-111804584D01*
X138221889Y-111781931D01*
X138226702Y-111758423D01*
X138231682Y-111734097D01*
X138236821Y-111708989D01*
X138242113Y-111683137D01*
X138247550Y-111656577D01*
X138253124Y-111629347D01*
X138258828Y-111601482D01*
X138264654Y-111573020D01*
X138270594Y-111543998D01*
X138276642Y-111514452D01*
X138282789Y-111484420D01*
X138289028Y-111453938D01*
X138295351Y-111423043D01*
X138301752Y-111391772D01*
X138302176Y-111389700D01*
X138308578Y-111358419D01*
X138314903Y-111327516D01*
X138321144Y-111297028D01*
X138327292Y-111266991D01*
X138333341Y-111237442D01*
X138339282Y-111208419D01*
X138345109Y-111179957D01*
X138350813Y-111152093D01*
X138356387Y-111124865D01*
X138361825Y-111098308D01*
X138367117Y-111072459D01*
X138372257Y-111047356D01*
X138377237Y-111023034D01*
X138382050Y-110999531D01*
X138386687Y-110976883D01*
X138391143Y-110955127D01*
X138395408Y-110934300D01*
X138399476Y-110914437D01*
X138403339Y-110895577D01*
X138406990Y-110877756D01*
X138410420Y-110861009D01*
X138413623Y-110845375D01*
X138416592Y-110830890D01*
X138419317Y-110817590D01*
X138421792Y-110805512D01*
X138424010Y-110794693D01*
X138425963Y-110785170D01*
X138427643Y-110776979D01*
X138429043Y-110770156D01*
X138430156Y-110764740D01*
X138430973Y-110760766D01*
X138431488Y-110758270D01*
X138431692Y-110757291D01*
X138431695Y-110757279D01*
X138432141Y-110755494D01*
X138980208Y-110755494D01*
X139013958Y-110755496D01*
G36*
X133271480Y-104296880D02*
X134246840Y-104296880D01*
X134246840Y-103341840D01*
X134333200Y-103341840D01*
X134333200Y-103819360D01*
X134333243Y-103888057D01*
X134333368Y-103953795D01*
X134333570Y-104015872D01*
X134333842Y-104073587D01*
X134334179Y-104126238D01*
X134334573Y-104173124D01*
X134335019Y-104213544D01*
X134335511Y-104246795D01*
X134336042Y-104272177D01*
X134336607Y-104288987D01*
X134337199Y-104296525D01*
X134337360Y-104296879D01*
X134339159Y-104292057D01*
X134342938Y-104278146D01*
X134348501Y-104255981D01*
X134355651Y-104226400D01*
X134364190Y-104190236D01*
X134373923Y-104148326D01*
X134384652Y-104101506D01*
X134396180Y-104050609D01*
X134408310Y-103996473D01*
X134411267Y-103983189D01*
X134423545Y-103928087D01*
X134435251Y-103875772D01*
X134446189Y-103827111D01*
X134456161Y-103782976D01*
X134464968Y-103744233D01*
X134472414Y-103711753D01*
X134478300Y-103686405D01*
X134482429Y-103669058D01*
X134484603Y-103660580D01*
X134484792Y-103660010D01*
X134486949Y-103662314D01*
X134491618Y-103673843D01*
X134498824Y-103694674D01*
X134508592Y-103724883D01*
X134520944Y-103764549D01*
X134535906Y-103813749D01*
X134553502Y-103872558D01*
X134573756Y-103941056D01*
X134582973Y-103972430D01*
X134677377Y-104294340D01*
X134992968Y-104295648D01*
X135308560Y-104296956D01*
X135308560Y-103341840D01*
X135394920Y-103341840D01*
X135394920Y-104296880D01*
X136365200Y-104296880D01*
X136365200Y-103341840D01*
X136451560Y-103341840D01*
X136451560Y-104296880D01*
X137426920Y-104296880D01*
X137426920Y-103341840D01*
X137513280Y-103341840D01*
X137513280Y-104296880D01*
X138432760Y-104296880D01*
X138432760Y-104383240D01*
X137513280Y-104383240D01*
X137513280Y-104835332D01*
X137513279Y-105287425D01*
X137971750Y-105288722D01*
X138430220Y-105290020D01*
X138433170Y-105373840D01*
X137513280Y-105373840D01*
X137513280Y-106025460D01*
X137663824Y-106020628D01*
X137692400Y-105997353D01*
X137728466Y-105972527D01*
X137769224Y-105952023D01*
X137810135Y-105938096D01*
X137813000Y-105937399D01*
X137844807Y-105932612D01*
X137881596Y-105931327D01*
X137918840Y-105933472D01*
X137952008Y-105938976D01*
X137954608Y-105939626D01*
X138003003Y-105957105D01*
X138047207Y-105982812D01*
X138086371Y-106015575D01*
X138119648Y-106054225D01*
X138146190Y-106097592D01*
X138165149Y-106144504D01*
X138175678Y-106193792D01*
X138176928Y-106244286D01*
X138176772Y-106246329D01*
X138173809Y-106283159D01*
X138303284Y-106283159D01*
X138432760Y-106283160D01*
X138432760Y-106369520D01*
X138140430Y-106369520D01*
X138130948Y-106387126D01*
X138123102Y-106398425D01*
X138109992Y-106414003D01*
X138093852Y-106431282D01*
X138085343Y-106439755D01*
X138042738Y-106474836D01*
X137997011Y-106500305D01*
X137947665Y-106516369D01*
X137894202Y-106523231D01*
X137881580Y-106523528D01*
X137826938Y-106519029D01*
X137775198Y-106505140D01*
X137727361Y-106482198D01*
X137697633Y-106461646D01*
X137673062Y-106442223D01*
X137593171Y-106444651D01*
X137513280Y-106447080D01*
X137513280Y-107278840D01*
X138432760Y-107278840D01*
X138432760Y-107365200D01*
X137513280Y-107365200D01*
X137513280Y-108274520D01*
X138433170Y-108274520D01*
X138430220Y-108358340D01*
X137513280Y-108360934D01*
X137513280Y-108492960D01*
X138254960Y-108492960D01*
X138254960Y-108873960D01*
X137513280Y-108873960D01*
X137513280Y-109432760D01*
X137426920Y-109432760D01*
X137426920Y-108873960D01*
X137020520Y-108873960D01*
X137020520Y-108360754D01*
X136648218Y-108363420D01*
X136639413Y-108406600D01*
X136622752Y-108467645D01*
X136598330Y-108528045D01*
X136576605Y-108569160D01*
X136560396Y-108594193D01*
X136540440Y-108621311D01*
X136518725Y-108648115D01*
X136497241Y-108672205D01*
X136477978Y-108691182D01*
X136469737Y-108698052D01*
X136451560Y-108711917D01*
X136451560Y-109433170D01*
X136367740Y-109430220D01*
X136366432Y-109103802D01*
X136365125Y-108777384D01*
X136313597Y-108803242D01*
X136238898Y-108835897D01*
X136157691Y-108862451D01*
X136071989Y-108882334D01*
X135993290Y-108893986D01*
X135940165Y-108898061D01*
X135880052Y-108899755D01*
X135815759Y-108899187D01*
X135750095Y-108896477D01*
X135685867Y-108891741D01*
X135625885Y-108885099D01*
X135572955Y-108876669D01*
X135570180Y-108876132D01*
X135549887Y-108871902D01*
X135524925Y-108866318D01*
X135497526Y-108859924D01*
X135469922Y-108853262D01*
X135444345Y-108846876D01*
X135423027Y-108841309D01*
X135408200Y-108837106D01*
X135403701Y-108835602D01*
X135401864Y-108835365D01*
X135400302Y-108836673D01*
X135398993Y-108840274D01*
X135397914Y-108846918D01*
X135397043Y-108857354D01*
X135396359Y-108872329D01*
X135395839Y-108892592D01*
X135395460Y-108918893D01*
X135395201Y-108951979D01*
X135395040Y-108992600D01*
X135394955Y-109041504D01*
X135394923Y-109099440D01*
X135394920Y-109132496D01*
X135394920Y-109432760D01*
X135308636Y-109432760D01*
X135306020Y-108801704D01*
X135267920Y-108786674D01*
X135249388Y-108778941D01*
X135224560Y-108767985D01*
X135196248Y-108755076D01*
X135167269Y-108741487D01*
X135157430Y-108736776D01*
X135085040Y-108701907D01*
X135085040Y-108364161D01*
X135274006Y-108364161D01*
X135280200Y-108369349D01*
X135286970Y-108373214D01*
X135299850Y-108379468D01*
X135306326Y-108379895D01*
X135308458Y-108374289D01*
X135308560Y-108371040D01*
X135306571Y-108364037D01*
X135298806Y-108361212D01*
X135290780Y-108360880D01*
X135394455Y-108360880D01*
X135395957Y-108394828D01*
X135397460Y-108428777D01*
X135445720Y-108448432D01*
X135527374Y-108477066D01*
X135615288Y-108499210D01*
X135707529Y-108514384D01*
X135714960Y-108515273D01*
X135735831Y-108516698D01*
X135763724Y-108517185D01*
X135796210Y-108516835D01*
X135830860Y-108515748D01*
X135865245Y-108514025D01*
X135896937Y-108511767D01*
X135923507Y-108509073D01*
X135942527Y-108506045D01*
X135943560Y-108505813D01*
X135982106Y-108494436D01*
X136018391Y-108479190D01*
X136049241Y-108461515D01*
X136061347Y-108452455D01*
X136075805Y-108436630D01*
X136090205Y-108414505D01*
X136102397Y-108389722D01*
X136108595Y-108372310D01*
X136111884Y-108360880D01*
X135394455Y-108360880D01*
X135290780Y-108360880D01*
X135277458Y-108361579D01*
X135274006Y-108364161D01*
X135085040Y-108364161D01*
X135085040Y-108360880D01*
X134582120Y-108360880D01*
X134582120Y-108873960D01*
X134333200Y-108873960D01*
X134333200Y-109432760D01*
X134246840Y-109432760D01*
X134246840Y-108873960D01*
X134109680Y-108873960D01*
X134109680Y-108360880D01*
X133296880Y-108360880D01*
X133296880Y-108873960D01*
X133271480Y-108873960D01*
X133271480Y-109432760D01*
X133231686Y-109432760D01*
X133212466Y-109432354D01*
X133197377Y-109431281D01*
X133189134Y-109429752D01*
X133188506Y-109429373D01*
X133187869Y-109423796D01*
X133187270Y-109408997D01*
X133186722Y-109385913D01*
X133186236Y-109355483D01*
X133185823Y-109318645D01*
X133185495Y-109276335D01*
X133185263Y-109229493D01*
X133185138Y-109179055D01*
X133185120Y-109149973D01*
X133185120Y-108873960D01*
X132824440Y-108873960D01*
X132824440Y-108360980D01*
X132349460Y-108358340D01*
X132346510Y-108274620D01*
X132821900Y-108271980D01*
X132822575Y-108035760D01*
X133296880Y-108035760D01*
X133296880Y-108274580D01*
X134107140Y-108271980D01*
X134108503Y-108153870D01*
X134109867Y-108035760D01*
X133296880Y-108035760D01*
X132822575Y-108035760D01*
X132824494Y-107365200D01*
X133296880Y-107365200D01*
X133296880Y-107629360D01*
X134109680Y-107629360D01*
X134109680Y-107365200D01*
X134582120Y-107365200D01*
X134582120Y-108274520D01*
X134833580Y-108274520D01*
X134890549Y-108274511D01*
X134938193Y-108274463D01*
X134977343Y-108274342D01*
X135008834Y-108274115D01*
X135033499Y-108273747D01*
X135052171Y-108273205D01*
X135065685Y-108272455D01*
X135074873Y-108271464D01*
X135080569Y-108270198D01*
X135083606Y-108268623D01*
X135084818Y-108266705D01*
X135085039Y-108264411D01*
X135085040Y-108264360D01*
X135086270Y-108256506D01*
X135091119Y-108255100D01*
X135101325Y-108260140D01*
X135107900Y-108264360D01*
X135114191Y-108267975D01*
X135121598Y-108270616D01*
X135131734Y-108272432D01*
X135146215Y-108273575D01*
X135166653Y-108274197D01*
X135194665Y-108274449D01*
X135215850Y-108274486D01*
X135308560Y-108274520D01*
X135308530Y-108096720D01*
X135394920Y-108096720D01*
X135394920Y-108274520D01*
X136101300Y-108274520D01*
X136093007Y-108258481D01*
X136078522Y-108236980D01*
X136057357Y-108213899D01*
X136032125Y-108191769D01*
X136005437Y-108173121D01*
X136003975Y-108172244D01*
X135977281Y-108157447D01*
X135945342Y-108141759D01*
X135907245Y-108124788D01*
X135862079Y-108106144D01*
X135808929Y-108085435D01*
X135750520Y-108063605D01*
X135683132Y-108038589D01*
X135624361Y-108016252D01*
X135573147Y-107996170D01*
X135528430Y-107977919D01*
X135489152Y-107961075D01*
X135454254Y-107945215D01*
X135451482Y-107943910D01*
X135430443Y-107934055D01*
X135413037Y-107926032D01*
X135401153Y-107920702D01*
X135396710Y-107918920D01*
X135396294Y-107923808D01*
X135395911Y-107937707D01*
X135395575Y-107959466D01*
X135395296Y-107987937D01*
X135395086Y-108021969D01*
X135394957Y-108060413D01*
X135394920Y-108096720D01*
X135308530Y-108096720D01*
X135308490Y-107865580D01*
X135289742Y-107852880D01*
X135271236Y-107838644D01*
X135248424Y-107818529D01*
X135223357Y-107794578D01*
X135198087Y-107768836D01*
X135174668Y-107743347D01*
X135155150Y-107720155D01*
X135150578Y-107714239D01*
X135112137Y-107655076D01*
X135081791Y-107590940D01*
X135060072Y-107523412D01*
X135047514Y-107454071D01*
X135044420Y-107399490D01*
X135044400Y-107365200D01*
X135592389Y-107365200D01*
X135604144Y-107386168D01*
X135614558Y-107401189D01*
X135629218Y-107418156D01*
X135640751Y-107429503D01*
X135656479Y-107442654D01*
X135674295Y-107455419D01*
X135695117Y-107468231D01*
X135719862Y-107481529D01*
X135749450Y-107495748D01*
X135784798Y-107511325D01*
X135826824Y-107528695D01*
X135876446Y-107548295D01*
X135934582Y-107570562D01*
X135949159Y-107576071D01*
X136013889Y-107600884D01*
X136075822Y-107625413D01*
X136134049Y-107649258D01*
X136187659Y-107672023D01*
X136235744Y-107693308D01*
X136277394Y-107712716D01*
X136311699Y-107729849D01*
X136337751Y-107744308D01*
X136347420Y-107750425D01*
X136357744Y-107757264D01*
X136363592Y-107760910D01*
X136363930Y-107761068D01*
X136364210Y-107756254D01*
X136364469Y-107742365D01*
X136364699Y-107720490D01*
X136364894Y-107691713D01*
X136365047Y-107657122D01*
X136365150Y-107617803D01*
X136365197Y-107574841D01*
X136365200Y-107563320D01*
X136365200Y-107365200D01*
X136451560Y-107365200D01*
X136451560Y-107825418D01*
X136472507Y-107845499D01*
X136493401Y-107866985D01*
X136516361Y-107892985D01*
X136539390Y-107921010D01*
X136560487Y-107948571D01*
X136577655Y-107973181D01*
X136585951Y-107986753D01*
X136613280Y-108044562D01*
X136633602Y-108108008D01*
X136647153Y-108177948D01*
X136652460Y-108227530D01*
X136656070Y-108274520D01*
X137020520Y-108274520D01*
X137020520Y-107365200D01*
X136451560Y-107365200D01*
X136365200Y-107365200D01*
X135592389Y-107365200D01*
X135044400Y-107365200D01*
X134582120Y-107365200D01*
X134109680Y-107365200D01*
X133296880Y-107365200D01*
X132824494Y-107365200D01*
X132346920Y-107365200D01*
X132346920Y-107278840D01*
X132824440Y-107278840D01*
X132824440Y-106796240D01*
X133185120Y-106796240D01*
X133271324Y-106796240D01*
X133296880Y-106796240D01*
X133296880Y-107278840D01*
X134109680Y-107278840D01*
X134109680Y-106796240D01*
X134246840Y-106796240D01*
X134333200Y-106796240D01*
X134582120Y-106796240D01*
X134582120Y-107278840D01*
X135048227Y-107278840D01*
X135049231Y-107274522D01*
X135593040Y-107274522D01*
X135597990Y-107275211D01*
X135612320Y-107275866D01*
X135635250Y-107276478D01*
X135666002Y-107277039D01*
X135703794Y-107277540D01*
X135747847Y-107277972D01*
X135797381Y-107278327D01*
X135851617Y-107278595D01*
X135909774Y-107278769D01*
X135971074Y-107278838D01*
X135979473Y-107278840D01*
X136365906Y-107278840D01*
X136364283Y-107267835D01*
X136362063Y-107262554D01*
X136356039Y-107257476D01*
X136344666Y-107251810D01*
X136326401Y-107244766D01*
X136304240Y-107237083D01*
X136221187Y-107210425D01*
X136145121Y-107189025D01*
X136074588Y-107172481D01*
X136055734Y-107168684D01*
X136012127Y-107161808D01*
X135964621Y-107157043D01*
X135915651Y-107154430D01*
X135867656Y-107154009D01*
X135823071Y-107155821D01*
X135784333Y-107159905D01*
X135763220Y-107163850D01*
X135727649Y-107173945D01*
X135692946Y-107187049D01*
X135662264Y-107201829D01*
X135640033Y-107215961D01*
X135628480Y-107226366D01*
X135615905Y-107240062D01*
X135604407Y-107254431D01*
X135596087Y-107266856D01*
X135593040Y-107274522D01*
X135049231Y-107274522D01*
X135059159Y-107231850D01*
X135071520Y-107190254D01*
X135089340Y-107145686D01*
X135110768Y-107102228D01*
X135133953Y-107063961D01*
X135137759Y-107058514D01*
X135155091Y-107036790D01*
X135178095Y-107011507D01*
X135204400Y-106984969D01*
X135231633Y-106959477D01*
X135257422Y-106937335D01*
X135279397Y-106920845D01*
X135279880Y-106920523D01*
X135308560Y-106901481D01*
X135308560Y-106550714D01*
X135231815Y-106662047D01*
X135206576Y-106698672D01*
X135178895Y-106738859D01*
X135150631Y-106779905D01*
X135123647Y-106819108D01*
X135099804Y-106853764D01*
X135091328Y-106866090D01*
X135072691Y-106892984D01*
X135055901Y-106916814D01*
X135041824Y-106936381D01*
X135031328Y-106950489D01*
X135025278Y-106957938D01*
X135024229Y-106958800D01*
X135022236Y-106954063D01*
X135017658Y-106940414D01*
X135010751Y-106918694D01*
X135001773Y-106889746D01*
X134990981Y-106854411D01*
X134978632Y-106813531D01*
X134964983Y-106767949D01*
X134950291Y-106718505D01*
X134934814Y-106666043D01*
X134934633Y-106665430D01*
X134863817Y-106424527D01*
X135394920Y-106424527D01*
X135394920Y-106638867D01*
X135394939Y-106691158D01*
X135395023Y-106734168D01*
X135395208Y-106768780D01*
X135395531Y-106795871D01*
X135396030Y-106816324D01*
X135396741Y-106831017D01*
X135397703Y-106840831D01*
X135398951Y-106846646D01*
X135400524Y-106849343D01*
X135402458Y-106849801D01*
X135403810Y-106849366D01*
X135448049Y-106832384D01*
X135499488Y-106816190D01*
X135555167Y-106801526D01*
X135612124Y-106789134D01*
X135667401Y-106779756D01*
X135695709Y-106776185D01*
X135724298Y-106773916D01*
X135760479Y-106772299D01*
X135801703Y-106771334D01*
X135845422Y-106771022D01*
X135889089Y-106771361D01*
X135930157Y-106772352D01*
X135966076Y-106773995D01*
X135993290Y-106776179D01*
X136046741Y-106783066D01*
X136104137Y-106792409D01*
X136163097Y-106803691D01*
X136221241Y-106816394D01*
X136276189Y-106830001D01*
X136325560Y-106843995D01*
X136363930Y-106856736D01*
X136364212Y-106851944D01*
X136364472Y-106838085D01*
X136364703Y-106816251D01*
X136364899Y-106787535D01*
X136365051Y-106753030D01*
X136365153Y-106713828D01*
X136365198Y-106671021D01*
X136365200Y-106661620D01*
X136365200Y-106467157D01*
X136451560Y-106467157D01*
X136451560Y-106886576D01*
X136473150Y-106894968D01*
X136489745Y-106901560D01*
X136510532Y-106910007D01*
X136526490Y-106916601D01*
X136558240Y-106929844D01*
X136558240Y-107278840D01*
X137020520Y-107278840D01*
X137020520Y-106796240D01*
X137426920Y-106796240D01*
X137426920Y-106445310D01*
X137349450Y-106448134D01*
X137330012Y-106448737D01*
X137301609Y-106449466D01*
X137265435Y-106450299D01*
X137222682Y-106451210D01*
X137174543Y-106452176D01*
X137122214Y-106453173D01*
X137066886Y-106454177D01*
X137009754Y-106455163D01*
X136964640Y-106455905D01*
X136905921Y-106456876D01*
X136847277Y-106457895D01*
X136790020Y-106458935D01*
X136735459Y-106459970D01*
X136684905Y-106460976D01*
X136639667Y-106461925D01*
X136601057Y-106462793D01*
X136570384Y-106463553D01*
X136554430Y-106464004D01*
X136451560Y-106467157D01*
X136365200Y-106467157D01*
X136365200Y-106466040D01*
X136289362Y-106466040D01*
X136220754Y-106369520D01*
X135433020Y-106369640D01*
X135413970Y-106397084D01*
X135394920Y-106424527D01*
X134863817Y-106424527D01*
X134848393Y-106372060D01*
X134590796Y-106370743D01*
X134333200Y-106369426D01*
X134333200Y-106796240D01*
X134246840Y-106796240D01*
X134246840Y-106492899D01*
X134055070Y-106495194D01*
X134011637Y-106495710D01*
X133959909Y-106496318D01*
X133901749Y-106496997D01*
X133839019Y-106497724D01*
X133773584Y-106498478D01*
X133707307Y-106499239D01*
X133642050Y-106499983D01*
X133579679Y-106500690D01*
X133568660Y-106500815D01*
X133274020Y-106504140D01*
X133271324Y-106796240D01*
X133185120Y-106796240D01*
X133185120Y-106506680D01*
X132814280Y-106506680D01*
X132814280Y-106369520D01*
X132346920Y-106369520D01*
X132346920Y-106283160D01*
X132815309Y-106283160D01*
X132815124Y-106273000D01*
X134333200Y-106273000D01*
X134333413Y-106275334D01*
X134334618Y-106277280D01*
X134337662Y-106278874D01*
X134343389Y-106280150D01*
X134352648Y-106281144D01*
X134366284Y-106281891D01*
X134385143Y-106282426D01*
X134410072Y-106282784D01*
X134441918Y-106283002D01*
X134481527Y-106283113D01*
X134529745Y-106283154D01*
X134577040Y-106283160D01*
X134625728Y-106283104D01*
X134671176Y-106282946D01*
X134712404Y-106282696D01*
X134748428Y-106282364D01*
X134778269Y-106281963D01*
X134800943Y-106281503D01*
X134815470Y-106280994D01*
X134819738Y-106280563D01*
X135496520Y-106280563D01*
X135501459Y-106281010D01*
X135515715Y-106281433D01*
X135538446Y-106281825D01*
X135568807Y-106282179D01*
X135605956Y-106282489D01*
X135649050Y-106282748D01*
X135697246Y-106282950D01*
X135749700Y-106283087D01*
X135805570Y-106283154D01*
X135827143Y-106283160D01*
X135884016Y-106283099D01*
X135937744Y-106282923D01*
X135987490Y-106282642D01*
X136032418Y-106282267D01*
X136071689Y-106281808D01*
X136104466Y-106281276D01*
X136129913Y-106280681D01*
X136147191Y-106280034D01*
X136155464Y-106279344D01*
X136156073Y-106279073D01*
X136152279Y-106272826D01*
X136143310Y-106259467D01*
X136129808Y-106239895D01*
X136112419Y-106215008D01*
X136091786Y-106185706D01*
X136068553Y-106152886D01*
X136043364Y-106117447D01*
X136016862Y-106080289D01*
X135989693Y-106042309D01*
X135962499Y-106004407D01*
X135935926Y-105967481D01*
X135934765Y-105965873D01*
X136451479Y-105965873D01*
X136479889Y-106005269D01*
X136508300Y-106044664D01*
X136559940Y-106041995D01*
X136573965Y-106041457D01*
X136597142Y-106040800D01*
X136628463Y-106040042D01*
X136666922Y-106039204D01*
X136711510Y-106038306D01*
X136761220Y-106037369D01*
X136815046Y-106036411D01*
X136871979Y-106035454D01*
X136931012Y-106034517D01*
X136951940Y-106034198D01*
X137012021Y-106033263D01*
X137070778Y-106032290D01*
X137127146Y-106031301D01*
X137180061Y-106030317D01*
X137228458Y-106029360D01*
X137271273Y-106028451D01*
X137307441Y-106027610D01*
X137335899Y-106026860D01*
X137355580Y-106026221D01*
X137359610Y-106026055D01*
X137426920Y-106023039D01*
X137426920Y-105373788D01*
X136454100Y-105376380D01*
X136452789Y-105671126D01*
X136451479Y-105965873D01*
X135934765Y-105965873D01*
X135910616Y-105932430D01*
X135887213Y-105900152D01*
X135866363Y-105871546D01*
X135848707Y-105847511D01*
X135834892Y-105828945D01*
X135825560Y-105816747D01*
X135821355Y-105811816D01*
X135821209Y-105811758D01*
X135817718Y-105816045D01*
X135809120Y-105827794D01*
X135796051Y-105846084D01*
X135779150Y-105869997D01*
X135759052Y-105898614D01*
X135736393Y-105931014D01*
X135711812Y-105966279D01*
X135685945Y-106003489D01*
X135659427Y-106041725D01*
X135632897Y-106080068D01*
X135606991Y-106117597D01*
X135582345Y-106153394D01*
X135559596Y-106186540D01*
X135539382Y-106216115D01*
X135522338Y-106241199D01*
X135509102Y-106260874D01*
X135500310Y-106274220D01*
X135496599Y-106280317D01*
X135496520Y-106280563D01*
X134819738Y-106280563D01*
X134820867Y-106280449D01*
X134820880Y-106280421D01*
X134819479Y-106275257D01*
X134815409Y-106261031D01*
X134808871Y-106238428D01*
X134800065Y-106208134D01*
X134789191Y-106170833D01*
X134776449Y-106127210D01*
X134762038Y-106077950D01*
X134746160Y-106023738D01*
X134729014Y-105965259D01*
X134710801Y-105903199D01*
X134691720Y-105838242D01*
X134688800Y-105828305D01*
X134669607Y-105762978D01*
X134651251Y-105700448D01*
X134633933Y-105641401D01*
X134617853Y-105586522D01*
X134603210Y-105536494D01*
X134590206Y-105492002D01*
X134579039Y-105453731D01*
X134569910Y-105422366D01*
X134563019Y-105398591D01*
X134558566Y-105383091D01*
X134557867Y-105380570D01*
X134998680Y-105380570D01*
X135000061Y-105386207D01*
X135004005Y-105400563D01*
X135010213Y-105422610D01*
X135018386Y-105451318D01*
X135028226Y-105485659D01*
X135039433Y-105524602D01*
X135051708Y-105567120D01*
X135064752Y-105612184D01*
X135078267Y-105658763D01*
X135091953Y-105705829D01*
X135105511Y-105752353D01*
X135118643Y-105797307D01*
X135131050Y-105839660D01*
X135142432Y-105878384D01*
X135152492Y-105912449D01*
X135160928Y-105940828D01*
X135167444Y-105962490D01*
X135171739Y-105976406D01*
X135172108Y-105977557D01*
X135176649Y-105987573D01*
X135180913Y-105990721D01*
X135181624Y-105990257D01*
X135185604Y-105984961D01*
X135194431Y-105972588D01*
X135207194Y-105954434D01*
X135222984Y-105931793D01*
X135240892Y-105905961D01*
X135247027Y-105897080D01*
X135308382Y-105808180D01*
X135308560Y-105373840D01*
X135394920Y-105373840D01*
X135394920Y-105527256D01*
X135395054Y-105565284D01*
X135395434Y-105599568D01*
X135396027Y-105628919D01*
X135396797Y-105652153D01*
X135397712Y-105668083D01*
X135398737Y-105675522D01*
X135399178Y-105675846D01*
X135402963Y-105670652D01*
X135411798Y-105658070D01*
X135424996Y-105639095D01*
X135441867Y-105614720D01*
X135461722Y-105585940D01*
X135483873Y-105553752D01*
X135503318Y-105525435D01*
X135526666Y-105491321D01*
X135548076Y-105459876D01*
X135566894Y-105432076D01*
X135582464Y-105408897D01*
X135594129Y-105391314D01*
X135601235Y-105380302D01*
X135603200Y-105376845D01*
X135600713Y-105376380D01*
X136035271Y-105376380D01*
X136198965Y-105607965D01*
X136362660Y-105839550D01*
X136363981Y-105608440D01*
X136364214Y-105561000D01*
X136364355Y-105516761D01*
X136364408Y-105476741D01*
X136364375Y-105441960D01*
X136364257Y-105413436D01*
X136364058Y-105392188D01*
X136363778Y-105379235D01*
X136363487Y-105375513D01*
X136358154Y-105375113D01*
X136343880Y-105374824D01*
X136321882Y-105374652D01*
X136293377Y-105374599D01*
X136259584Y-105374669D01*
X136221720Y-105374866D01*
X136198470Y-105375038D01*
X136035271Y-105376380D01*
X135600713Y-105376380D01*
X135598370Y-105375942D01*
X135584883Y-105375148D01*
X135564240Y-105374505D01*
X135537943Y-105374058D01*
X135507495Y-105373849D01*
X135499060Y-105373840D01*
X135394920Y-105373840D01*
X135308560Y-105373840D01*
X135153620Y-105373840D01*
X135108526Y-105373915D01*
X135072659Y-105374168D01*
X135045087Y-105374639D01*
X135024879Y-105375369D01*
X135011102Y-105376398D01*
X135002824Y-105377767D01*
X134999113Y-105379515D01*
X134998680Y-105380570D01*
X134557867Y-105380570D01*
X134556752Y-105376549D01*
X134556720Y-105376383D01*
X134552360Y-105374469D01*
X134544020Y-105373840D01*
X134534461Y-105374578D01*
X134531320Y-105375990D01*
X134530234Y-105381153D01*
X134527085Y-105395522D01*
X134522027Y-105418391D01*
X134515220Y-105449053D01*
X134506821Y-105486801D01*
X134496987Y-105530927D01*
X134485876Y-105580724D01*
X134473645Y-105635486D01*
X134460453Y-105694505D01*
X134446456Y-105757074D01*
X134432260Y-105820490D01*
X134417606Y-105886039D01*
X134403606Y-105948878D01*
X134390419Y-106008284D01*
X134378203Y-106063534D01*
X134367117Y-106113902D01*
X134357320Y-106158665D01*
X134348969Y-106197099D01*
X134342223Y-106228480D01*
X134337241Y-106252084D01*
X134334181Y-106267187D01*
X134333200Y-106273000D01*
X132815124Y-106273000D01*
X132813524Y-106185370D01*
X132811740Y-106087580D01*
X133185120Y-106084914D01*
X133185120Y-106079960D01*
X133271410Y-106079960D01*
X133465755Y-106079271D01*
X133517171Y-106079010D01*
X133572264Y-106078592D01*
X133628555Y-106078045D01*
X133683562Y-106077398D01*
X133734805Y-106076677D01*
X133779801Y-106075912D01*
X133801983Y-106075461D01*
X133943866Y-106072340D01*
X134018983Y-105737060D01*
X134031781Y-105679940D01*
X134043982Y-105625479D01*
X134055395Y-105574529D01*
X134065831Y-105527942D01*
X134075098Y-105486571D01*
X134083006Y-105451269D01*
X134089362Y-105422887D01*
X134093976Y-105402279D01*
X134096658Y-105390297D01*
X134097220Y-105387780D01*
X134100340Y-105373780D01*
X133274020Y-105376380D01*
X133271410Y-106079960D01*
X133185120Y-106079960D01*
X133185120Y-105373840D01*
X132765814Y-105373839D01*
X132346509Y-105373839D01*
X132347984Y-105331929D01*
X132349460Y-105290020D01*
X133185120Y-105287420D01*
X133185120Y-104383240D01*
X133271480Y-104383240D01*
X133271480Y-105287480D01*
X134119646Y-105287480D01*
X134122352Y-105276050D01*
X134123944Y-105269050D01*
X134127537Y-105253080D01*
X134132920Y-105229086D01*
X134139882Y-105198014D01*
X134148210Y-105160809D01*
X134157692Y-105118417D01*
X134168117Y-105071784D01*
X134179274Y-105021855D01*
X134185948Y-104991973D01*
X134246839Y-104719327D01*
X134246839Y-104551283D01*
X134246839Y-104390964D01*
X134705933Y-104390964D01*
X134706153Y-104392130D01*
X134707938Y-104398123D01*
X134712332Y-104413008D01*
X134719082Y-104435926D01*
X134727936Y-104466021D01*
X134738643Y-104502435D01*
X134750951Y-104544310D01*
X134764609Y-104590788D01*
X134779363Y-104641012D01*
X134794964Y-104694124D01*
X134811158Y-104749266D01*
X134827694Y-104805581D01*
X134844320Y-104862212D01*
X134860784Y-104918300D01*
X134876835Y-104972989D01*
X134892221Y-105025419D01*
X134906689Y-105074735D01*
X134919989Y-105120077D01*
X134931868Y-105160590D01*
X134942075Y-105195413D01*
X134950357Y-105223692D01*
X134956464Y-105244567D01*
X134960142Y-105257180D01*
X134960458Y-105258270D01*
X134968920Y-105287480D01*
X135308560Y-105287480D01*
X135308560Y-104383240D01*
X135394920Y-104383240D01*
X135394920Y-105287480D01*
X135667163Y-105287480D01*
X135742325Y-105177986D01*
X135817486Y-105068492D01*
X135894493Y-105177796D01*
X135971500Y-105287101D01*
X136168350Y-105287290D01*
X136365200Y-105287480D01*
X136365200Y-104383240D01*
X136451560Y-104383240D01*
X136451560Y-105287480D01*
X137426920Y-105287480D01*
X137426920Y-104383240D01*
X136451560Y-104383240D01*
X136365200Y-104383240D01*
X135394920Y-104383240D01*
X135308560Y-104383240D01*
X135005957Y-104383240D01*
X134942906Y-104383252D01*
X134889267Y-104383306D01*
X134844292Y-104383423D01*
X134807232Y-104383624D01*
X134777339Y-104383933D01*
X134753866Y-104384372D01*
X134736064Y-104384962D01*
X134723184Y-104385726D01*
X134714480Y-104386686D01*
X134709202Y-104387864D01*
X134706602Y-104389283D01*
X134705933Y-104390964D01*
X134246839Y-104390964D01*
X134246840Y-104383240D01*
X133271480Y-104383240D01*
X133185120Y-104383240D01*
X132346920Y-104383240D01*
X132346920Y-104296880D01*
X133185120Y-104296880D01*
X133185120Y-103341840D01*
X133271480Y-103341840D01*
X133271480Y-104296880D01*
X133271480Y-104296880D01*
G37*
X133271480Y-104296880D02*
X134246840Y-104296880D01*
X134246840Y-103341840D01*
X134333200Y-103341840D01*
X134333200Y-103819360D01*
X134333243Y-103888057D01*
X134333368Y-103953795D01*
X134333570Y-104015872D01*
X134333842Y-104073587D01*
X134334179Y-104126238D01*
X134334573Y-104173124D01*
X134335019Y-104213544D01*
X134335511Y-104246795D01*
X134336042Y-104272177D01*
X134336607Y-104288987D01*
X134337199Y-104296525D01*
X134337360Y-104296879D01*
X134339159Y-104292057D01*
X134342938Y-104278146D01*
X134348501Y-104255981D01*
X134355651Y-104226400D01*
X134364190Y-104190236D01*
X134373923Y-104148326D01*
X134384652Y-104101506D01*
X134396180Y-104050609D01*
X134408310Y-103996473D01*
X134411267Y-103983189D01*
X134423545Y-103928087D01*
X134435251Y-103875772D01*
X134446189Y-103827111D01*
X134456161Y-103782976D01*
X134464968Y-103744233D01*
X134472414Y-103711753D01*
X134478300Y-103686405D01*
X134482429Y-103669058D01*
X134484603Y-103660580D01*
X134484792Y-103660010D01*
X134486949Y-103662314D01*
X134491618Y-103673843D01*
X134498824Y-103694674D01*
X134508592Y-103724883D01*
X134520944Y-103764549D01*
X134535906Y-103813749D01*
X134553502Y-103872558D01*
X134573756Y-103941056D01*
X134582973Y-103972430D01*
X134677377Y-104294340D01*
X134992968Y-104295648D01*
X135308560Y-104296956D01*
X135308560Y-103341840D01*
X135394920Y-103341840D01*
X135394920Y-104296880D01*
X136365200Y-104296880D01*
X136365200Y-103341840D01*
X136451560Y-103341840D01*
X136451560Y-104296880D01*
X137426920Y-104296880D01*
X137426920Y-103341840D01*
X137513280Y-103341840D01*
X137513280Y-104296880D01*
X138432760Y-104296880D01*
X138432760Y-104383240D01*
X137513280Y-104383240D01*
X137513280Y-104835332D01*
X137513279Y-105287425D01*
X137971750Y-105288722D01*
X138430220Y-105290020D01*
X138433170Y-105373840D01*
X137513280Y-105373840D01*
X137513280Y-106025460D01*
X137663824Y-106020628D01*
X137692400Y-105997353D01*
X137728466Y-105972527D01*
X137769224Y-105952023D01*
X137810135Y-105938096D01*
X137813000Y-105937399D01*
X137844807Y-105932612D01*
X137881596Y-105931327D01*
X137918840Y-105933472D01*
X137952008Y-105938976D01*
X137954608Y-105939626D01*
X138003003Y-105957105D01*
X138047207Y-105982812D01*
X138086371Y-106015575D01*
X138119648Y-106054225D01*
X138146190Y-106097592D01*
X138165149Y-106144504D01*
X138175678Y-106193792D01*
X138176928Y-106244286D01*
X138176772Y-106246329D01*
X138173809Y-106283159D01*
X138303284Y-106283159D01*
X138432760Y-106283160D01*
X138432760Y-106369520D01*
X138140430Y-106369520D01*
X138130948Y-106387126D01*
X138123102Y-106398425D01*
X138109992Y-106414003D01*
X138093852Y-106431282D01*
X138085343Y-106439755D01*
X138042738Y-106474836D01*
X137997011Y-106500305D01*
X137947665Y-106516369D01*
X137894202Y-106523231D01*
X137881580Y-106523528D01*
X137826938Y-106519029D01*
X137775198Y-106505140D01*
X137727361Y-106482198D01*
X137697633Y-106461646D01*
X137673062Y-106442223D01*
X137593171Y-106444651D01*
X137513280Y-106447080D01*
X137513280Y-107278840D01*
X138432760Y-107278840D01*
X138432760Y-107365200D01*
X137513280Y-107365200D01*
X137513280Y-108274520D01*
X138433170Y-108274520D01*
X138430220Y-108358340D01*
X137513280Y-108360934D01*
X137513280Y-108492960D01*
X138254960Y-108492960D01*
X138254960Y-108873960D01*
X137513280Y-108873960D01*
X137513280Y-109432760D01*
X137426920Y-109432760D01*
X137426920Y-108873960D01*
X137020520Y-108873960D01*
X137020520Y-108360754D01*
X136648218Y-108363420D01*
X136639413Y-108406600D01*
X136622752Y-108467645D01*
X136598330Y-108528045D01*
X136576605Y-108569160D01*
X136560396Y-108594193D01*
X136540440Y-108621311D01*
X136518725Y-108648115D01*
X136497241Y-108672205D01*
X136477978Y-108691182D01*
X136469737Y-108698052D01*
X136451560Y-108711917D01*
X136451560Y-109433170D01*
X136367740Y-109430220D01*
X136366432Y-109103802D01*
X136365125Y-108777384D01*
X136313597Y-108803242D01*
X136238898Y-108835897D01*
X136157691Y-108862451D01*
X136071989Y-108882334D01*
X135993290Y-108893986D01*
X135940165Y-108898061D01*
X135880052Y-108899755D01*
X135815759Y-108899187D01*
X135750095Y-108896477D01*
X135685867Y-108891741D01*
X135625885Y-108885099D01*
X135572955Y-108876669D01*
X135570180Y-108876132D01*
X135549887Y-108871902D01*
X135524925Y-108866318D01*
X135497526Y-108859924D01*
X135469922Y-108853262D01*
X135444345Y-108846876D01*
X135423027Y-108841309D01*
X135408200Y-108837106D01*
X135403701Y-108835602D01*
X135401864Y-108835365D01*
X135400302Y-108836673D01*
X135398993Y-108840274D01*
X135397914Y-108846918D01*
X135397043Y-108857354D01*
X135396359Y-108872329D01*
X135395839Y-108892592D01*
X135395460Y-108918893D01*
X135395201Y-108951979D01*
X135395040Y-108992600D01*
X135394955Y-109041504D01*
X135394923Y-109099440D01*
X135394920Y-109132496D01*
X135394920Y-109432760D01*
X135308636Y-109432760D01*
X135306020Y-108801704D01*
X135267920Y-108786674D01*
X135249388Y-108778941D01*
X135224560Y-108767985D01*
X135196248Y-108755076D01*
X135167269Y-108741487D01*
X135157430Y-108736776D01*
X135085040Y-108701907D01*
X135085040Y-108364161D01*
X135274006Y-108364161D01*
X135280200Y-108369349D01*
X135286970Y-108373214D01*
X135299850Y-108379468D01*
X135306326Y-108379895D01*
X135308458Y-108374289D01*
X135308560Y-108371040D01*
X135306571Y-108364037D01*
X135298806Y-108361212D01*
X135290780Y-108360880D01*
X135394455Y-108360880D01*
X135395957Y-108394828D01*
X135397460Y-108428777D01*
X135445720Y-108448432D01*
X135527374Y-108477066D01*
X135615288Y-108499210D01*
X135707529Y-108514384D01*
X135714960Y-108515273D01*
X135735831Y-108516698D01*
X135763724Y-108517185D01*
X135796210Y-108516835D01*
X135830860Y-108515748D01*
X135865245Y-108514025D01*
X135896937Y-108511767D01*
X135923507Y-108509073D01*
X135942527Y-108506045D01*
X135943560Y-108505813D01*
X135982106Y-108494436D01*
X136018391Y-108479190D01*
X136049241Y-108461515D01*
X136061347Y-108452455D01*
X136075805Y-108436630D01*
X136090205Y-108414505D01*
X136102397Y-108389722D01*
X136108595Y-108372310D01*
X136111884Y-108360880D01*
X135394455Y-108360880D01*
X135290780Y-108360880D01*
X135277458Y-108361579D01*
X135274006Y-108364161D01*
X135085040Y-108364161D01*
X135085040Y-108360880D01*
X134582120Y-108360880D01*
X134582120Y-108873960D01*
X134333200Y-108873960D01*
X134333200Y-109432760D01*
X134246840Y-109432760D01*
X134246840Y-108873960D01*
X134109680Y-108873960D01*
X134109680Y-108360880D01*
X133296880Y-108360880D01*
X133296880Y-108873960D01*
X133271480Y-108873960D01*
X133271480Y-109432760D01*
X133231686Y-109432760D01*
X133212466Y-109432354D01*
X133197377Y-109431281D01*
X133189134Y-109429752D01*
X133188506Y-109429373D01*
X133187869Y-109423796D01*
X133187270Y-109408997D01*
X133186722Y-109385913D01*
X133186236Y-109355483D01*
X133185823Y-109318645D01*
X133185495Y-109276335D01*
X133185263Y-109229493D01*
X133185138Y-109179055D01*
X133185120Y-109149973D01*
X133185120Y-108873960D01*
X132824440Y-108873960D01*
X132824440Y-108360980D01*
X132349460Y-108358340D01*
X132346510Y-108274620D01*
X132821900Y-108271980D01*
X132822575Y-108035760D01*
X133296880Y-108035760D01*
X133296880Y-108274580D01*
X134107140Y-108271980D01*
X134108503Y-108153870D01*
X134109867Y-108035760D01*
X133296880Y-108035760D01*
X132822575Y-108035760D01*
X132824494Y-107365200D01*
X133296880Y-107365200D01*
X133296880Y-107629360D01*
X134109680Y-107629360D01*
X134109680Y-107365200D01*
X134582120Y-107365200D01*
X134582120Y-108274520D01*
X134833580Y-108274520D01*
X134890549Y-108274511D01*
X134938193Y-108274463D01*
X134977343Y-108274342D01*
X135008834Y-108274115D01*
X135033499Y-108273747D01*
X135052171Y-108273205D01*
X135065685Y-108272455D01*
X135074873Y-108271464D01*
X135080569Y-108270198D01*
X135083606Y-108268623D01*
X135084818Y-108266705D01*
X135085039Y-108264411D01*
X135085040Y-108264360D01*
X135086270Y-108256506D01*
X135091119Y-108255100D01*
X135101325Y-108260140D01*
X135107900Y-108264360D01*
X135114191Y-108267975D01*
X135121598Y-108270616D01*
X135131734Y-108272432D01*
X135146215Y-108273575D01*
X135166653Y-108274197D01*
X135194665Y-108274449D01*
X135215850Y-108274486D01*
X135308560Y-108274520D01*
X135308530Y-108096720D01*
X135394920Y-108096720D01*
X135394920Y-108274520D01*
X136101300Y-108274520D01*
X136093007Y-108258481D01*
X136078522Y-108236980D01*
X136057357Y-108213899D01*
X136032125Y-108191769D01*
X136005437Y-108173121D01*
X136003975Y-108172244D01*
X135977281Y-108157447D01*
X135945342Y-108141759D01*
X135907245Y-108124788D01*
X135862079Y-108106144D01*
X135808929Y-108085435D01*
X135750520Y-108063605D01*
X135683132Y-108038589D01*
X135624361Y-108016252D01*
X135573147Y-107996170D01*
X135528430Y-107977919D01*
X135489152Y-107961075D01*
X135454254Y-107945215D01*
X135451482Y-107943910D01*
X135430443Y-107934055D01*
X135413037Y-107926032D01*
X135401153Y-107920702D01*
X135396710Y-107918920D01*
X135396294Y-107923808D01*
X135395911Y-107937707D01*
X135395575Y-107959466D01*
X135395296Y-107987937D01*
X135395086Y-108021969D01*
X135394957Y-108060413D01*
X135394920Y-108096720D01*
X135308530Y-108096720D01*
X135308490Y-107865580D01*
X135289742Y-107852880D01*
X135271236Y-107838644D01*
X135248424Y-107818529D01*
X135223357Y-107794578D01*
X135198087Y-107768836D01*
X135174668Y-107743347D01*
X135155150Y-107720155D01*
X135150578Y-107714239D01*
X135112137Y-107655076D01*
X135081791Y-107590940D01*
X135060072Y-107523412D01*
X135047514Y-107454071D01*
X135044420Y-107399490D01*
X135044400Y-107365200D01*
X135592389Y-107365200D01*
X135604144Y-107386168D01*
X135614558Y-107401189D01*
X135629218Y-107418156D01*
X135640751Y-107429503D01*
X135656479Y-107442654D01*
X135674295Y-107455419D01*
X135695117Y-107468231D01*
X135719862Y-107481529D01*
X135749450Y-107495748D01*
X135784798Y-107511325D01*
X135826824Y-107528695D01*
X135876446Y-107548295D01*
X135934582Y-107570562D01*
X135949159Y-107576071D01*
X136013889Y-107600884D01*
X136075822Y-107625413D01*
X136134049Y-107649258D01*
X136187659Y-107672023D01*
X136235744Y-107693308D01*
X136277394Y-107712716D01*
X136311699Y-107729849D01*
X136337751Y-107744308D01*
X136347420Y-107750425D01*
X136357744Y-107757264D01*
X136363592Y-107760910D01*
X136363930Y-107761068D01*
X136364210Y-107756254D01*
X136364469Y-107742365D01*
X136364699Y-107720490D01*
X136364894Y-107691713D01*
X136365047Y-107657122D01*
X136365150Y-107617803D01*
X136365197Y-107574841D01*
X136365200Y-107563320D01*
X136365200Y-107365200D01*
X136451560Y-107365200D01*
X136451560Y-107825418D01*
X136472507Y-107845499D01*
X136493401Y-107866985D01*
X136516361Y-107892985D01*
X136539390Y-107921010D01*
X136560487Y-107948571D01*
X136577655Y-107973181D01*
X136585951Y-107986753D01*
X136613280Y-108044562D01*
X136633602Y-108108008D01*
X136647153Y-108177948D01*
X136652460Y-108227530D01*
X136656070Y-108274520D01*
X137020520Y-108274520D01*
X137020520Y-107365200D01*
X136451560Y-107365200D01*
X136365200Y-107365200D01*
X135592389Y-107365200D01*
X135044400Y-107365200D01*
X134582120Y-107365200D01*
X134109680Y-107365200D01*
X133296880Y-107365200D01*
X132824494Y-107365200D01*
X132346920Y-107365200D01*
X132346920Y-107278840D01*
X132824440Y-107278840D01*
X132824440Y-106796240D01*
X133185120Y-106796240D01*
X133271324Y-106796240D01*
X133296880Y-106796240D01*
X133296880Y-107278840D01*
X134109680Y-107278840D01*
X134109680Y-106796240D01*
X134246840Y-106796240D01*
X134333200Y-106796240D01*
X134582120Y-106796240D01*
X134582120Y-107278840D01*
X135048227Y-107278840D01*
X135049231Y-107274522D01*
X135593040Y-107274522D01*
X135597990Y-107275211D01*
X135612320Y-107275866D01*
X135635250Y-107276478D01*
X135666002Y-107277039D01*
X135703794Y-107277540D01*
X135747847Y-107277972D01*
X135797381Y-107278327D01*
X135851617Y-107278595D01*
X135909774Y-107278769D01*
X135971074Y-107278838D01*
X135979473Y-107278840D01*
X136365906Y-107278840D01*
X136364283Y-107267835D01*
X136362063Y-107262554D01*
X136356039Y-107257476D01*
X136344666Y-107251810D01*
X136326401Y-107244766D01*
X136304240Y-107237083D01*
X136221187Y-107210425D01*
X136145121Y-107189025D01*
X136074588Y-107172481D01*
X136055734Y-107168684D01*
X136012127Y-107161808D01*
X135964621Y-107157043D01*
X135915651Y-107154430D01*
X135867656Y-107154009D01*
X135823071Y-107155821D01*
X135784333Y-107159905D01*
X135763220Y-107163850D01*
X135727649Y-107173945D01*
X135692946Y-107187049D01*
X135662264Y-107201829D01*
X135640033Y-107215961D01*
X135628480Y-107226366D01*
X135615905Y-107240062D01*
X135604407Y-107254431D01*
X135596087Y-107266856D01*
X135593040Y-107274522D01*
X135049231Y-107274522D01*
X135059159Y-107231850D01*
X135071520Y-107190254D01*
X135089340Y-107145686D01*
X135110768Y-107102228D01*
X135133953Y-107063961D01*
X135137759Y-107058514D01*
X135155091Y-107036790D01*
X135178095Y-107011507D01*
X135204400Y-106984969D01*
X135231633Y-106959477D01*
X135257422Y-106937335D01*
X135279397Y-106920845D01*
X135279880Y-106920523D01*
X135308560Y-106901481D01*
X135308560Y-106550714D01*
X135231815Y-106662047D01*
X135206576Y-106698672D01*
X135178895Y-106738859D01*
X135150631Y-106779905D01*
X135123647Y-106819108D01*
X135099804Y-106853764D01*
X135091328Y-106866090D01*
X135072691Y-106892984D01*
X135055901Y-106916814D01*
X135041824Y-106936381D01*
X135031328Y-106950489D01*
X135025278Y-106957938D01*
X135024229Y-106958800D01*
X135022236Y-106954063D01*
X135017658Y-106940414D01*
X135010751Y-106918694D01*
X135001773Y-106889746D01*
X134990981Y-106854411D01*
X134978632Y-106813531D01*
X134964983Y-106767949D01*
X134950291Y-106718505D01*
X134934814Y-106666043D01*
X134934633Y-106665430D01*
X134863817Y-106424527D01*
X135394920Y-106424527D01*
X135394920Y-106638867D01*
X135394939Y-106691158D01*
X135395023Y-106734168D01*
X135395208Y-106768780D01*
X135395531Y-106795871D01*
X135396030Y-106816324D01*
X135396741Y-106831017D01*
X135397703Y-106840831D01*
X135398951Y-106846646D01*
X135400524Y-106849343D01*
X135402458Y-106849801D01*
X135403810Y-106849366D01*
X135448049Y-106832384D01*
X135499488Y-106816190D01*
X135555167Y-106801526D01*
X135612124Y-106789134D01*
X135667401Y-106779756D01*
X135695709Y-106776185D01*
X135724298Y-106773916D01*
X135760479Y-106772299D01*
X135801703Y-106771334D01*
X135845422Y-106771022D01*
X135889089Y-106771361D01*
X135930157Y-106772352D01*
X135966076Y-106773995D01*
X135993290Y-106776179D01*
X136046741Y-106783066D01*
X136104137Y-106792409D01*
X136163097Y-106803691D01*
X136221241Y-106816394D01*
X136276189Y-106830001D01*
X136325560Y-106843995D01*
X136363930Y-106856736D01*
X136364212Y-106851944D01*
X136364472Y-106838085D01*
X136364703Y-106816251D01*
X136364899Y-106787535D01*
X136365051Y-106753030D01*
X136365153Y-106713828D01*
X136365198Y-106671021D01*
X136365200Y-106661620D01*
X136365200Y-106467157D01*
X136451560Y-106467157D01*
X136451560Y-106886576D01*
X136473150Y-106894968D01*
X136489745Y-106901560D01*
X136510532Y-106910007D01*
X136526490Y-106916601D01*
X136558240Y-106929844D01*
X136558240Y-107278840D01*
X137020520Y-107278840D01*
X137020520Y-106796240D01*
X137426920Y-106796240D01*
X137426920Y-106445310D01*
X137349450Y-106448134D01*
X137330012Y-106448737D01*
X137301609Y-106449466D01*
X137265435Y-106450299D01*
X137222682Y-106451210D01*
X137174543Y-106452176D01*
X137122214Y-106453173D01*
X137066886Y-106454177D01*
X137009754Y-106455163D01*
X136964640Y-106455905D01*
X136905921Y-106456876D01*
X136847277Y-106457895D01*
X136790020Y-106458935D01*
X136735459Y-106459970D01*
X136684905Y-106460976D01*
X136639667Y-106461925D01*
X136601057Y-106462793D01*
X136570384Y-106463553D01*
X136554430Y-106464004D01*
X136451560Y-106467157D01*
X136365200Y-106467157D01*
X136365200Y-106466040D01*
X136289362Y-106466040D01*
X136220754Y-106369520D01*
X135433020Y-106369640D01*
X135413970Y-106397084D01*
X135394920Y-106424527D01*
X134863817Y-106424527D01*
X134848393Y-106372060D01*
X134590796Y-106370743D01*
X134333200Y-106369426D01*
X134333200Y-106796240D01*
X134246840Y-106796240D01*
X134246840Y-106492899D01*
X134055070Y-106495194D01*
X134011637Y-106495710D01*
X133959909Y-106496318D01*
X133901749Y-106496997D01*
X133839019Y-106497724D01*
X133773584Y-106498478D01*
X133707307Y-106499239D01*
X133642050Y-106499983D01*
X133579679Y-106500690D01*
X133568660Y-106500815D01*
X133274020Y-106504140D01*
X133271324Y-106796240D01*
X133185120Y-106796240D01*
X133185120Y-106506680D01*
X132814280Y-106506680D01*
X132814280Y-106369520D01*
X132346920Y-106369520D01*
X132346920Y-106283160D01*
X132815309Y-106283160D01*
X132815124Y-106273000D01*
X134333200Y-106273000D01*
X134333413Y-106275334D01*
X134334618Y-106277280D01*
X134337662Y-106278874D01*
X134343389Y-106280150D01*
X134352648Y-106281144D01*
X134366284Y-106281891D01*
X134385143Y-106282426D01*
X134410072Y-106282784D01*
X134441918Y-106283002D01*
X134481527Y-106283113D01*
X134529745Y-106283154D01*
X134577040Y-106283160D01*
X134625728Y-106283104D01*
X134671176Y-106282946D01*
X134712404Y-106282696D01*
X134748428Y-106282364D01*
X134778269Y-106281963D01*
X134800943Y-106281503D01*
X134815470Y-106280994D01*
X134819738Y-106280563D01*
X135496520Y-106280563D01*
X135501459Y-106281010D01*
X135515715Y-106281433D01*
X135538446Y-106281825D01*
X135568807Y-106282179D01*
X135605956Y-106282489D01*
X135649050Y-106282748D01*
X135697246Y-106282950D01*
X135749700Y-106283087D01*
X135805570Y-106283154D01*
X135827143Y-106283160D01*
X135884016Y-106283099D01*
X135937744Y-106282923D01*
X135987490Y-106282642D01*
X136032418Y-106282267D01*
X136071689Y-106281808D01*
X136104466Y-106281276D01*
X136129913Y-106280681D01*
X136147191Y-106280034D01*
X136155464Y-106279344D01*
X136156073Y-106279073D01*
X136152279Y-106272826D01*
X136143310Y-106259467D01*
X136129808Y-106239895D01*
X136112419Y-106215008D01*
X136091786Y-106185706D01*
X136068553Y-106152886D01*
X136043364Y-106117447D01*
X136016862Y-106080289D01*
X135989693Y-106042309D01*
X135962499Y-106004407D01*
X135935926Y-105967481D01*
X135934765Y-105965873D01*
X136451479Y-105965873D01*
X136479889Y-106005269D01*
X136508300Y-106044664D01*
X136559940Y-106041995D01*
X136573965Y-106041457D01*
X136597142Y-106040800D01*
X136628463Y-106040042D01*
X136666922Y-106039204D01*
X136711510Y-106038306D01*
X136761220Y-106037369D01*
X136815046Y-106036411D01*
X136871979Y-106035454D01*
X136931012Y-106034517D01*
X136951940Y-106034198D01*
X137012021Y-106033263D01*
X137070778Y-106032290D01*
X137127146Y-106031301D01*
X137180061Y-106030317D01*
X137228458Y-106029360D01*
X137271273Y-106028451D01*
X137307441Y-106027610D01*
X137335899Y-106026860D01*
X137355580Y-106026221D01*
X137359610Y-106026055D01*
X137426920Y-106023039D01*
X137426920Y-105373788D01*
X136454100Y-105376380D01*
X136452789Y-105671126D01*
X136451479Y-105965873D01*
X135934765Y-105965873D01*
X135910616Y-105932430D01*
X135887213Y-105900152D01*
X135866363Y-105871546D01*
X135848707Y-105847511D01*
X135834892Y-105828945D01*
X135825560Y-105816747D01*
X135821355Y-105811816D01*
X135821209Y-105811758D01*
X135817718Y-105816045D01*
X135809120Y-105827794D01*
X135796051Y-105846084D01*
X135779150Y-105869997D01*
X135759052Y-105898614D01*
X135736393Y-105931014D01*
X135711812Y-105966279D01*
X135685945Y-106003489D01*
X135659427Y-106041725D01*
X135632897Y-106080068D01*
X135606991Y-106117597D01*
X135582345Y-106153394D01*
X135559596Y-106186540D01*
X135539382Y-106216115D01*
X135522338Y-106241199D01*
X135509102Y-106260874D01*
X135500310Y-106274220D01*
X135496599Y-106280317D01*
X135496520Y-106280563D01*
X134819738Y-106280563D01*
X134820867Y-106280449D01*
X134820880Y-106280421D01*
X134819479Y-106275257D01*
X134815409Y-106261031D01*
X134808871Y-106238428D01*
X134800065Y-106208134D01*
X134789191Y-106170833D01*
X134776449Y-106127210D01*
X134762038Y-106077950D01*
X134746160Y-106023738D01*
X134729014Y-105965259D01*
X134710801Y-105903199D01*
X134691720Y-105838242D01*
X134688800Y-105828305D01*
X134669607Y-105762978D01*
X134651251Y-105700448D01*
X134633933Y-105641401D01*
X134617853Y-105586522D01*
X134603210Y-105536494D01*
X134590206Y-105492002D01*
X134579039Y-105453731D01*
X134569910Y-105422366D01*
X134563019Y-105398591D01*
X134558566Y-105383091D01*
X134557867Y-105380570D01*
X134998680Y-105380570D01*
X135000061Y-105386207D01*
X135004005Y-105400563D01*
X135010213Y-105422610D01*
X135018386Y-105451318D01*
X135028226Y-105485659D01*
X135039433Y-105524602D01*
X135051708Y-105567120D01*
X135064752Y-105612184D01*
X135078267Y-105658763D01*
X135091953Y-105705829D01*
X135105511Y-105752353D01*
X135118643Y-105797307D01*
X135131050Y-105839660D01*
X135142432Y-105878384D01*
X135152492Y-105912449D01*
X135160928Y-105940828D01*
X135167444Y-105962490D01*
X135171739Y-105976406D01*
X135172108Y-105977557D01*
X135176649Y-105987573D01*
X135180913Y-105990721D01*
X135181624Y-105990257D01*
X135185604Y-105984961D01*
X135194431Y-105972588D01*
X135207194Y-105954434D01*
X135222984Y-105931793D01*
X135240892Y-105905961D01*
X135247027Y-105897080D01*
X135308382Y-105808180D01*
X135308560Y-105373840D01*
X135394920Y-105373840D01*
X135394920Y-105527256D01*
X135395054Y-105565284D01*
X135395434Y-105599568D01*
X135396027Y-105628919D01*
X135396797Y-105652153D01*
X135397712Y-105668083D01*
X135398737Y-105675522D01*
X135399178Y-105675846D01*
X135402963Y-105670652D01*
X135411798Y-105658070D01*
X135424996Y-105639095D01*
X135441867Y-105614720D01*
X135461722Y-105585940D01*
X135483873Y-105553752D01*
X135503318Y-105525435D01*
X135526666Y-105491321D01*
X135548076Y-105459876D01*
X135566894Y-105432076D01*
X135582464Y-105408897D01*
X135594129Y-105391314D01*
X135601235Y-105380302D01*
X135603200Y-105376845D01*
X135600713Y-105376380D01*
X136035271Y-105376380D01*
X136198965Y-105607965D01*
X136362660Y-105839550D01*
X136363981Y-105608440D01*
X136364214Y-105561000D01*
X136364355Y-105516761D01*
X136364408Y-105476741D01*
X136364375Y-105441960D01*
X136364257Y-105413436D01*
X136364058Y-105392188D01*
X136363778Y-105379235D01*
X136363487Y-105375513D01*
X136358154Y-105375113D01*
X136343880Y-105374824D01*
X136321882Y-105374652D01*
X136293377Y-105374599D01*
X136259584Y-105374669D01*
X136221720Y-105374866D01*
X136198470Y-105375038D01*
X136035271Y-105376380D01*
X135600713Y-105376380D01*
X135598370Y-105375942D01*
X135584883Y-105375148D01*
X135564240Y-105374505D01*
X135537943Y-105374058D01*
X135507495Y-105373849D01*
X135499060Y-105373840D01*
X135394920Y-105373840D01*
X135308560Y-105373840D01*
X135153620Y-105373840D01*
X135108526Y-105373915D01*
X135072659Y-105374168D01*
X135045087Y-105374639D01*
X135024879Y-105375369D01*
X135011102Y-105376398D01*
X135002824Y-105377767D01*
X134999113Y-105379515D01*
X134998680Y-105380570D01*
X134557867Y-105380570D01*
X134556752Y-105376549D01*
X134556720Y-105376383D01*
X134552360Y-105374469D01*
X134544020Y-105373840D01*
X134534461Y-105374578D01*
X134531320Y-105375990D01*
X134530234Y-105381153D01*
X134527085Y-105395522D01*
X134522027Y-105418391D01*
X134515220Y-105449053D01*
X134506821Y-105486801D01*
X134496987Y-105530927D01*
X134485876Y-105580724D01*
X134473645Y-105635486D01*
X134460453Y-105694505D01*
X134446456Y-105757074D01*
X134432260Y-105820490D01*
X134417606Y-105886039D01*
X134403606Y-105948878D01*
X134390419Y-106008284D01*
X134378203Y-106063534D01*
X134367117Y-106113902D01*
X134357320Y-106158665D01*
X134348969Y-106197099D01*
X134342223Y-106228480D01*
X134337241Y-106252084D01*
X134334181Y-106267187D01*
X134333200Y-106273000D01*
X132815124Y-106273000D01*
X132813524Y-106185370D01*
X132811740Y-106087580D01*
X133185120Y-106084914D01*
X133185120Y-106079960D01*
X133271410Y-106079960D01*
X133465755Y-106079271D01*
X133517171Y-106079010D01*
X133572264Y-106078592D01*
X133628555Y-106078045D01*
X133683562Y-106077398D01*
X133734805Y-106076677D01*
X133779801Y-106075912D01*
X133801983Y-106075461D01*
X133943866Y-106072340D01*
X134018983Y-105737060D01*
X134031781Y-105679940D01*
X134043982Y-105625479D01*
X134055395Y-105574529D01*
X134065831Y-105527942D01*
X134075098Y-105486571D01*
X134083006Y-105451269D01*
X134089362Y-105422887D01*
X134093976Y-105402279D01*
X134096658Y-105390297D01*
X134097220Y-105387780D01*
X134100340Y-105373780D01*
X133274020Y-105376380D01*
X133271410Y-106079960D01*
X133185120Y-106079960D01*
X133185120Y-105373840D01*
X132765814Y-105373839D01*
X132346509Y-105373839D01*
X132347984Y-105331929D01*
X132349460Y-105290020D01*
X133185120Y-105287420D01*
X133185120Y-104383240D01*
X133271480Y-104383240D01*
X133271480Y-105287480D01*
X134119646Y-105287480D01*
X134122352Y-105276050D01*
X134123944Y-105269050D01*
X134127537Y-105253080D01*
X134132920Y-105229086D01*
X134139882Y-105198014D01*
X134148210Y-105160809D01*
X134157692Y-105118417D01*
X134168117Y-105071784D01*
X134179274Y-105021855D01*
X134185948Y-104991973D01*
X134246839Y-104719327D01*
X134246839Y-104551283D01*
X134246839Y-104390964D01*
X134705933Y-104390964D01*
X134706153Y-104392130D01*
X134707938Y-104398123D01*
X134712332Y-104413008D01*
X134719082Y-104435926D01*
X134727936Y-104466021D01*
X134738643Y-104502435D01*
X134750951Y-104544310D01*
X134764609Y-104590788D01*
X134779363Y-104641012D01*
X134794964Y-104694124D01*
X134811158Y-104749266D01*
X134827694Y-104805581D01*
X134844320Y-104862212D01*
X134860784Y-104918300D01*
X134876835Y-104972989D01*
X134892221Y-105025419D01*
X134906689Y-105074735D01*
X134919989Y-105120077D01*
X134931868Y-105160590D01*
X134942075Y-105195413D01*
X134950357Y-105223692D01*
X134956464Y-105244567D01*
X134960142Y-105257180D01*
X134960458Y-105258270D01*
X134968920Y-105287480D01*
X135308560Y-105287480D01*
X135308560Y-104383240D01*
X135394920Y-104383240D01*
X135394920Y-105287480D01*
X135667163Y-105287480D01*
X135742325Y-105177986D01*
X135817486Y-105068492D01*
X135894493Y-105177796D01*
X135971500Y-105287101D01*
X136168350Y-105287290D01*
X136365200Y-105287480D01*
X136365200Y-104383240D01*
X136451560Y-104383240D01*
X136451560Y-105287480D01*
X137426920Y-105287480D01*
X137426920Y-104383240D01*
X136451560Y-104383240D01*
X136365200Y-104383240D01*
X135394920Y-104383240D01*
X135308560Y-104383240D01*
X135005957Y-104383240D01*
X134942906Y-104383252D01*
X134889267Y-104383306D01*
X134844292Y-104383423D01*
X134807232Y-104383624D01*
X134777339Y-104383933D01*
X134753866Y-104384372D01*
X134736064Y-104384962D01*
X134723184Y-104385726D01*
X134714480Y-104386686D01*
X134709202Y-104387864D01*
X134706602Y-104389283D01*
X134705933Y-104390964D01*
X134246839Y-104390964D01*
X134246840Y-104383240D01*
X133271480Y-104383240D01*
X133185120Y-104383240D01*
X132346920Y-104383240D01*
X132346920Y-104296880D01*
X133185120Y-104296880D01*
X133185120Y-103341840D01*
X133271480Y-103341840D01*
X133271480Y-104296880D01*
D13*
X122588095Y-81422381D02*
X122588095Y-82231905D01*
X122635714Y-82327143D01*
X122683333Y-82374762D01*
X122778571Y-82422381D01*
X122969048Y-82422381D01*
X123064286Y-82374762D01*
X123111905Y-82327143D01*
X123159524Y-82231905D01*
X123159524Y-81422381D01*
X123778571Y-81850952D02*
X123683333Y-81803333D01*
X123635714Y-81755714D01*
X123588095Y-81660476D01*
X123588095Y-81612857D01*
X123635714Y-81517619D01*
X123683333Y-81470000D01*
X123778571Y-81422381D01*
X123969048Y-81422381D01*
X124064286Y-81470000D01*
X124111905Y-81517619D01*
X124159524Y-81612857D01*
X124159524Y-81660476D01*
X124111905Y-81755714D01*
X124064286Y-81803333D01*
X123969048Y-81850952D01*
X123778571Y-81850952D01*
X123683333Y-81898571D01*
X123635714Y-81946190D01*
X123588095Y-82041429D01*
X123588095Y-82231905D01*
X123635714Y-82327143D01*
X123683333Y-82374762D01*
X123778571Y-82422381D01*
X123969048Y-82422381D01*
X124064286Y-82374762D01*
X124111905Y-82327143D01*
X124159524Y-82231905D01*
X124159524Y-82041429D01*
X124111905Y-81946190D01*
X124064286Y-81898571D01*
X123969048Y-81850952D01*
X161833334Y-97807143D02*
X161785715Y-97854762D01*
X161642858Y-97902381D01*
X161547620Y-97902381D01*
X161404762Y-97854762D01*
X161309524Y-97759524D01*
X161261905Y-97664286D01*
X161214286Y-97473810D01*
X161214286Y-97330952D01*
X161261905Y-97140476D01*
X161309524Y-97045238D01*
X161404762Y-96950000D01*
X161547620Y-96902381D01*
X161642858Y-96902381D01*
X161785715Y-96950000D01*
X161833334Y-96997619D01*
X162785715Y-97902381D02*
X162214286Y-97902381D01*
X162500000Y-97902381D02*
X162500000Y-96902381D01*
X162404762Y-97045238D01*
X162309524Y-97140476D01*
X162214286Y-97188095D01*
X167607143Y-100766666D02*
X167654762Y-100814285D01*
X167702381Y-100957142D01*
X167702381Y-101052380D01*
X167654762Y-101195238D01*
X167559524Y-101290476D01*
X167464286Y-101338095D01*
X167273810Y-101385714D01*
X167130952Y-101385714D01*
X166940476Y-101338095D01*
X166845238Y-101290476D01*
X166750000Y-101195238D01*
X166702381Y-101052380D01*
X166702381Y-100957142D01*
X166750000Y-100814285D01*
X166797619Y-100766666D01*
X166797619Y-100385714D02*
X166750000Y-100338095D01*
X166702381Y-100242857D01*
X166702381Y-100004761D01*
X166750000Y-99909523D01*
X166797619Y-99861904D01*
X166892857Y-99814285D01*
X166988095Y-99814285D01*
X167130952Y-99861904D01*
X167702381Y-100433333D01*
X167702381Y-99814285D01*
X168233334Y-107607143D02*
X168185715Y-107654762D01*
X168042858Y-107702381D01*
X167947620Y-107702381D01*
X167804762Y-107654762D01*
X167709524Y-107559524D01*
X167661905Y-107464286D01*
X167614286Y-107273810D01*
X167614286Y-107130952D01*
X167661905Y-106940476D01*
X167709524Y-106845238D01*
X167804762Y-106750000D01*
X167947620Y-106702381D01*
X168042858Y-106702381D01*
X168185715Y-106750000D01*
X168233334Y-106797619D01*
X168566667Y-106702381D02*
X169185715Y-106702381D01*
X168852381Y-107083333D01*
X168995239Y-107083333D01*
X169090477Y-107130952D01*
X169138096Y-107178571D01*
X169185715Y-107273810D01*
X169185715Y-107511905D01*
X169138096Y-107607143D01*
X169090477Y-107654762D01*
X168995239Y-107702381D01*
X168709524Y-107702381D01*
X168614286Y-107654762D01*
X168566667Y-107607143D01*
X148833334Y-82207143D02*
X148785715Y-82254762D01*
X148642858Y-82302381D01*
X148547620Y-82302381D01*
X148404762Y-82254762D01*
X148309524Y-82159524D01*
X148261905Y-82064286D01*
X148214286Y-81873810D01*
X148214286Y-81730952D01*
X148261905Y-81540476D01*
X148309524Y-81445238D01*
X148404762Y-81350000D01*
X148547620Y-81302381D01*
X148642858Y-81302381D01*
X148785715Y-81350000D01*
X148833334Y-81397619D01*
X149690477Y-81635714D02*
X149690477Y-82302381D01*
X149452381Y-81254762D02*
X149214286Y-81969048D01*
X149833334Y-81969048D01*
X149107143Y-75766666D02*
X149154762Y-75814285D01*
X149202381Y-75957142D01*
X149202381Y-76052380D01*
X149154762Y-76195238D01*
X149059524Y-76290476D01*
X148964286Y-76338095D01*
X148773810Y-76385714D01*
X148630952Y-76385714D01*
X148440476Y-76338095D01*
X148345238Y-76290476D01*
X148250000Y-76195238D01*
X148202381Y-76052380D01*
X148202381Y-75957142D01*
X148250000Y-75814285D01*
X148297619Y-75766666D01*
X148202381Y-74861904D02*
X148202381Y-75338095D01*
X148678571Y-75385714D01*
X148630952Y-75338095D01*
X148583333Y-75242857D01*
X148583333Y-75004761D01*
X148630952Y-74909523D01*
X148678571Y-74861904D01*
X148773810Y-74814285D01*
X149011905Y-74814285D01*
X149107143Y-74861904D01*
X149154762Y-74909523D01*
X149202381Y-75004761D01*
X149202381Y-75242857D01*
X149154762Y-75338095D01*
X149107143Y-75385714D01*
X146833334Y-83707143D02*
X146785715Y-83754762D01*
X146642858Y-83802381D01*
X146547620Y-83802381D01*
X146404762Y-83754762D01*
X146309524Y-83659524D01*
X146261905Y-83564286D01*
X146214286Y-83373810D01*
X146214286Y-83230952D01*
X146261905Y-83040476D01*
X146309524Y-82945238D01*
X146404762Y-82850000D01*
X146547620Y-82802381D01*
X146642858Y-82802381D01*
X146785715Y-82850000D01*
X146833334Y-82897619D01*
X147690477Y-82802381D02*
X147500000Y-82802381D01*
X147404762Y-82850000D01*
X147357143Y-82897619D01*
X147261905Y-83040476D01*
X147214286Y-83230952D01*
X147214286Y-83611905D01*
X147261905Y-83707143D01*
X147309524Y-83754762D01*
X147404762Y-83802381D01*
X147595239Y-83802381D01*
X147690477Y-83754762D01*
X147738096Y-83707143D01*
X147785715Y-83611905D01*
X147785715Y-83373810D01*
X147738096Y-83278571D01*
X147690477Y-83230952D01*
X147595239Y-83183333D01*
X147404762Y-83183333D01*
X147309524Y-83230952D01*
X147261905Y-83278571D01*
X147214286Y-83373810D01*
X162407143Y-75566666D02*
X162454762Y-75614285D01*
X162502381Y-75757142D01*
X162502381Y-75852380D01*
X162454762Y-75995238D01*
X162359524Y-76090476D01*
X162264286Y-76138095D01*
X162073810Y-76185714D01*
X161930952Y-76185714D01*
X161740476Y-76138095D01*
X161645238Y-76090476D01*
X161550000Y-75995238D01*
X161502381Y-75852380D01*
X161502381Y-75757142D01*
X161550000Y-75614285D01*
X161597619Y-75566666D01*
X161502381Y-75233333D02*
X161502381Y-74566666D01*
X162502381Y-74995238D01*
X149607143Y-88966666D02*
X149654762Y-89014285D01*
X149702381Y-89157142D01*
X149702381Y-89252380D01*
X149654762Y-89395238D01*
X149559524Y-89490476D01*
X149464286Y-89538095D01*
X149273810Y-89585714D01*
X149130952Y-89585714D01*
X148940476Y-89538095D01*
X148845238Y-89490476D01*
X148750000Y-89395238D01*
X148702381Y-89252380D01*
X148702381Y-89157142D01*
X148750000Y-89014285D01*
X148797619Y-88966666D01*
X149130952Y-88395238D02*
X149083333Y-88490476D01*
X149035714Y-88538095D01*
X148940476Y-88585714D01*
X148892857Y-88585714D01*
X148797619Y-88538095D01*
X148750000Y-88490476D01*
X148702381Y-88395238D01*
X148702381Y-88204761D01*
X148750000Y-88109523D01*
X148797619Y-88061904D01*
X148892857Y-88014285D01*
X148940476Y-88014285D01*
X149035714Y-88061904D01*
X149083333Y-88109523D01*
X149130952Y-88204761D01*
X149130952Y-88395238D01*
X149178571Y-88490476D01*
X149226190Y-88538095D01*
X149321429Y-88585714D01*
X149511905Y-88585714D01*
X149607143Y-88538095D01*
X149654762Y-88490476D01*
X149702381Y-88395238D01*
X149702381Y-88204761D01*
X149654762Y-88109523D01*
X149607143Y-88061904D01*
X149511905Y-88014285D01*
X149321429Y-88014285D01*
X149226190Y-88061904D01*
X149178571Y-88109523D01*
X149130952Y-88204761D01*
X153107143Y-110666666D02*
X153154762Y-110714285D01*
X153202381Y-110857142D01*
X153202381Y-110952380D01*
X153154762Y-111095238D01*
X153059524Y-111190476D01*
X152964286Y-111238095D01*
X152773810Y-111285714D01*
X152630952Y-111285714D01*
X152440476Y-111238095D01*
X152345238Y-111190476D01*
X152250000Y-111095238D01*
X152202381Y-110952380D01*
X152202381Y-110857142D01*
X152250000Y-110714285D01*
X152297619Y-110666666D01*
X153202381Y-110190476D02*
X153202381Y-110000000D01*
X153154762Y-109904761D01*
X153107143Y-109857142D01*
X152964286Y-109761904D01*
X152773810Y-109714285D01*
X152392857Y-109714285D01*
X152297619Y-109761904D01*
X152250000Y-109809523D01*
X152202381Y-109904761D01*
X152202381Y-110095238D01*
X152250000Y-110190476D01*
X152297619Y-110238095D01*
X152392857Y-110285714D01*
X152630952Y-110285714D01*
X152726190Y-110238095D01*
X152773810Y-110190476D01*
X152821429Y-110095238D01*
X152821429Y-109904761D01*
X152773810Y-109809523D01*
X152726190Y-109761904D01*
X152630952Y-109714285D01*
X151557143Y-105307143D02*
X151509524Y-105354762D01*
X151366667Y-105402381D01*
X151271429Y-105402381D01*
X151128571Y-105354762D01*
X151033333Y-105259524D01*
X150985714Y-105164286D01*
X150938095Y-104973810D01*
X150938095Y-104830952D01*
X150985714Y-104640476D01*
X151033333Y-104545238D01*
X151128571Y-104450000D01*
X151271429Y-104402381D01*
X151366667Y-104402381D01*
X151509524Y-104450000D01*
X151557143Y-104497619D01*
X152509524Y-105402381D02*
X151938095Y-105402381D01*
X152223809Y-105402381D02*
X152223809Y-104402381D01*
X152128571Y-104545238D01*
X152033333Y-104640476D01*
X151938095Y-104688095D01*
X153128571Y-104402381D02*
X153223810Y-104402381D01*
X153319048Y-104450000D01*
X153366667Y-104497619D01*
X153414286Y-104592857D01*
X153461905Y-104783333D01*
X153461905Y-105021429D01*
X153414286Y-105211905D01*
X153366667Y-105307143D01*
X153319048Y-105354762D01*
X153223810Y-105402381D01*
X153128571Y-105402381D01*
X153033333Y-105354762D01*
X152985714Y-105307143D01*
X152938095Y-105211905D01*
X152890476Y-105021429D01*
X152890476Y-104783333D01*
X152938095Y-104592857D01*
X152985714Y-104497619D01*
X153033333Y-104450000D01*
X153128571Y-104402381D01*
X154507143Y-102642857D02*
X154554762Y-102690476D01*
X154602381Y-102833333D01*
X154602381Y-102928571D01*
X154554762Y-103071429D01*
X154459524Y-103166667D01*
X154364286Y-103214286D01*
X154173810Y-103261905D01*
X154030952Y-103261905D01*
X153840476Y-103214286D01*
X153745238Y-103166667D01*
X153650000Y-103071429D01*
X153602381Y-102928571D01*
X153602381Y-102833333D01*
X153650000Y-102690476D01*
X153697619Y-102642857D01*
X154602381Y-101690476D02*
X154602381Y-102261905D01*
X154602381Y-101976191D02*
X153602381Y-101976191D01*
X153745238Y-102071429D01*
X153840476Y-102166667D01*
X153888095Y-102261905D01*
X154602381Y-100738095D02*
X154602381Y-101309524D01*
X154602381Y-101023810D02*
X153602381Y-101023810D01*
X153745238Y-101119048D01*
X153840476Y-101214286D01*
X153888095Y-101309524D01*
X136857143Y-100607143D02*
X136809524Y-100654762D01*
X136666667Y-100702381D01*
X136571429Y-100702381D01*
X136428571Y-100654762D01*
X136333333Y-100559524D01*
X136285714Y-100464286D01*
X136238095Y-100273810D01*
X136238095Y-100130952D01*
X136285714Y-99940476D01*
X136333333Y-99845238D01*
X136428571Y-99750000D01*
X136571429Y-99702381D01*
X136666667Y-99702381D01*
X136809524Y-99750000D01*
X136857143Y-99797619D01*
X137809524Y-100702381D02*
X137238095Y-100702381D01*
X137523809Y-100702381D02*
X137523809Y-99702381D01*
X137428571Y-99845238D01*
X137333333Y-99940476D01*
X137238095Y-99988095D01*
X138190476Y-99797619D02*
X138238095Y-99750000D01*
X138333333Y-99702381D01*
X138571429Y-99702381D01*
X138666667Y-99750000D01*
X138714286Y-99797619D01*
X138761905Y-99892857D01*
X138761905Y-99988095D01*
X138714286Y-100130952D01*
X138142857Y-100702381D01*
X138761905Y-100702381D01*
X131957143Y-97032857D02*
X132004762Y-97080476D01*
X132052381Y-97223333D01*
X132052381Y-97318571D01*
X132004762Y-97461429D01*
X131909524Y-97556667D01*
X131814286Y-97604286D01*
X131623810Y-97651905D01*
X131480952Y-97651905D01*
X131290476Y-97604286D01*
X131195238Y-97556667D01*
X131100000Y-97461429D01*
X131052381Y-97318571D01*
X131052381Y-97223333D01*
X131100000Y-97080476D01*
X131147619Y-97032857D01*
X132052381Y-96080476D02*
X132052381Y-96651905D01*
X132052381Y-96366191D02*
X131052381Y-96366191D01*
X131195238Y-96461429D01*
X131290476Y-96556667D01*
X131338095Y-96651905D01*
X131052381Y-95747143D02*
X131052381Y-95128095D01*
X131433333Y-95461429D01*
X131433333Y-95318571D01*
X131480952Y-95223333D01*
X131528571Y-95175714D01*
X131623810Y-95128095D01*
X131861905Y-95128095D01*
X131957143Y-95175714D01*
X132004762Y-95223333D01*
X132052381Y-95318571D01*
X132052381Y-95604286D01*
X132004762Y-95699524D01*
X131957143Y-95747143D01*
X133757143Y-91607143D02*
X133709524Y-91654762D01*
X133566667Y-91702381D01*
X133471429Y-91702381D01*
X133328571Y-91654762D01*
X133233333Y-91559524D01*
X133185714Y-91464286D01*
X133138095Y-91273810D01*
X133138095Y-91130952D01*
X133185714Y-90940476D01*
X133233333Y-90845238D01*
X133328571Y-90750000D01*
X133471429Y-90702381D01*
X133566667Y-90702381D01*
X133709524Y-90750000D01*
X133757143Y-90797619D01*
X134709524Y-91702381D02*
X134138095Y-91702381D01*
X134423809Y-91702381D02*
X134423809Y-90702381D01*
X134328571Y-90845238D01*
X134233333Y-90940476D01*
X134138095Y-90988095D01*
X135566667Y-91035714D02*
X135566667Y-91702381D01*
X135328571Y-90654762D02*
X135090476Y-91369048D01*
X135709524Y-91369048D01*
X114357143Y-84642857D02*
X114404762Y-84690476D01*
X114452381Y-84833333D01*
X114452381Y-84928571D01*
X114404762Y-85071429D01*
X114309524Y-85166667D01*
X114214286Y-85214286D01*
X114023810Y-85261905D01*
X113880952Y-85261905D01*
X113690476Y-85214286D01*
X113595238Y-85166667D01*
X113500000Y-85071429D01*
X113452381Y-84928571D01*
X113452381Y-84833333D01*
X113500000Y-84690476D01*
X113547619Y-84642857D01*
X114452381Y-83690476D02*
X114452381Y-84261905D01*
X114452381Y-83976191D02*
X113452381Y-83976191D01*
X113595238Y-84071429D01*
X113690476Y-84166667D01*
X113738095Y-84261905D01*
X113452381Y-82785714D02*
X113452381Y-83261905D01*
X113928571Y-83309524D01*
X113880952Y-83261905D01*
X113833333Y-83166667D01*
X113833333Y-82928571D01*
X113880952Y-82833333D01*
X113928571Y-82785714D01*
X114023810Y-82738095D01*
X114261905Y-82738095D01*
X114357143Y-82785714D01*
X114404762Y-82833333D01*
X114452381Y-82928571D01*
X114452381Y-83166667D01*
X114404762Y-83261905D01*
X114357143Y-83309524D01*
X120857143Y-83607143D02*
X120809524Y-83654762D01*
X120666667Y-83702381D01*
X120571429Y-83702381D01*
X120428571Y-83654762D01*
X120333333Y-83559524D01*
X120285714Y-83464286D01*
X120238095Y-83273810D01*
X120238095Y-83130952D01*
X120285714Y-82940476D01*
X120333333Y-82845238D01*
X120428571Y-82750000D01*
X120571429Y-82702381D01*
X120666667Y-82702381D01*
X120809524Y-82750000D01*
X120857143Y-82797619D01*
X121809524Y-83702381D02*
X121238095Y-83702381D01*
X121523809Y-83702381D02*
X121523809Y-82702381D01*
X121428571Y-82845238D01*
X121333333Y-82940476D01*
X121238095Y-82988095D01*
X122666667Y-82702381D02*
X122476190Y-82702381D01*
X122380952Y-82750000D01*
X122333333Y-82797619D01*
X122238095Y-82940476D01*
X122190476Y-83130952D01*
X122190476Y-83511905D01*
X122238095Y-83607143D01*
X122285714Y-83654762D01*
X122380952Y-83702381D01*
X122571429Y-83702381D01*
X122666667Y-83654762D01*
X122714286Y-83607143D01*
X122761905Y-83511905D01*
X122761905Y-83273810D01*
X122714286Y-83178571D01*
X122666667Y-83130952D01*
X122571429Y-83083333D01*
X122380952Y-83083333D01*
X122285714Y-83130952D01*
X122238095Y-83178571D01*
X122190476Y-83273810D01*
X128487143Y-79922857D02*
X128534762Y-79970476D01*
X128582381Y-80113333D01*
X128582381Y-80208571D01*
X128534762Y-80351429D01*
X128439524Y-80446667D01*
X128344286Y-80494286D01*
X128153810Y-80541905D01*
X128010952Y-80541905D01*
X127820476Y-80494286D01*
X127725238Y-80446667D01*
X127630000Y-80351429D01*
X127582381Y-80208571D01*
X127582381Y-80113333D01*
X127630000Y-79970476D01*
X127677619Y-79922857D01*
X128582381Y-78970476D02*
X128582381Y-79541905D01*
X128582381Y-79256191D02*
X127582381Y-79256191D01*
X127725238Y-79351429D01*
X127820476Y-79446667D01*
X127868095Y-79541905D01*
X127582381Y-78637143D02*
X127582381Y-77970476D01*
X128582381Y-78399048D01*
X114357143Y-80142857D02*
X114404762Y-80190476D01*
X114452381Y-80333333D01*
X114452381Y-80428571D01*
X114404762Y-80571429D01*
X114309524Y-80666667D01*
X114214286Y-80714286D01*
X114023810Y-80761905D01*
X113880952Y-80761905D01*
X113690476Y-80714286D01*
X113595238Y-80666667D01*
X113500000Y-80571429D01*
X113452381Y-80428571D01*
X113452381Y-80333333D01*
X113500000Y-80190476D01*
X113547619Y-80142857D01*
X114452381Y-79190476D02*
X114452381Y-79761905D01*
X114452381Y-79476191D02*
X113452381Y-79476191D01*
X113595238Y-79571429D01*
X113690476Y-79666667D01*
X113738095Y-79761905D01*
X113880952Y-78619048D02*
X113833333Y-78714286D01*
X113785714Y-78761905D01*
X113690476Y-78809524D01*
X113642857Y-78809524D01*
X113547619Y-78761905D01*
X113500000Y-78714286D01*
X113452381Y-78619048D01*
X113452381Y-78428571D01*
X113500000Y-78333333D01*
X113547619Y-78285714D01*
X113642857Y-78238095D01*
X113690476Y-78238095D01*
X113785714Y-78285714D01*
X113833333Y-78333333D01*
X113880952Y-78428571D01*
X113880952Y-78619048D01*
X113928571Y-78714286D01*
X113976190Y-78761905D01*
X114071429Y-78809524D01*
X114261905Y-78809524D01*
X114357143Y-78761905D01*
X114404762Y-78714286D01*
X114452381Y-78619048D01*
X114452381Y-78428571D01*
X114404762Y-78333333D01*
X114357143Y-78285714D01*
X114261905Y-78238095D01*
X114071429Y-78238095D01*
X113976190Y-78285714D01*
X113928571Y-78333333D01*
X113880952Y-78428571D01*
X120857143Y-86607143D02*
X120809524Y-86654762D01*
X120666667Y-86702381D01*
X120571429Y-86702381D01*
X120428571Y-86654762D01*
X120333333Y-86559524D01*
X120285714Y-86464286D01*
X120238095Y-86273810D01*
X120238095Y-86130952D01*
X120285714Y-85940476D01*
X120333333Y-85845238D01*
X120428571Y-85750000D01*
X120571429Y-85702381D01*
X120666667Y-85702381D01*
X120809524Y-85750000D01*
X120857143Y-85797619D01*
X121809524Y-86702381D02*
X121238095Y-86702381D01*
X121523809Y-86702381D02*
X121523809Y-85702381D01*
X121428571Y-85845238D01*
X121333333Y-85940476D01*
X121238095Y-85988095D01*
X122285714Y-86702381D02*
X122476190Y-86702381D01*
X122571429Y-86654762D01*
X122619048Y-86607143D01*
X122714286Y-86464286D01*
X122761905Y-86273810D01*
X122761905Y-85892857D01*
X122714286Y-85797619D01*
X122666667Y-85750000D01*
X122571429Y-85702381D01*
X122380952Y-85702381D01*
X122285714Y-85750000D01*
X122238095Y-85797619D01*
X122190476Y-85892857D01*
X122190476Y-86130952D01*
X122238095Y-86226190D01*
X122285714Y-86273810D01*
X122380952Y-86321429D01*
X122571429Y-86321429D01*
X122666667Y-86273810D01*
X122714286Y-86226190D01*
X122761905Y-86130952D01*
X120857143Y-88857143D02*
X120809524Y-88904762D01*
X120666667Y-88952381D01*
X120571429Y-88952381D01*
X120428571Y-88904762D01*
X120333333Y-88809524D01*
X120285714Y-88714286D01*
X120238095Y-88523810D01*
X120238095Y-88380952D01*
X120285714Y-88190476D01*
X120333333Y-88095238D01*
X120428571Y-88000000D01*
X120571429Y-87952381D01*
X120666667Y-87952381D01*
X120809524Y-88000000D01*
X120857143Y-88047619D01*
X121238095Y-88047619D02*
X121285714Y-88000000D01*
X121380952Y-87952381D01*
X121619048Y-87952381D01*
X121714286Y-88000000D01*
X121761905Y-88047619D01*
X121809524Y-88142857D01*
X121809524Y-88238095D01*
X121761905Y-88380952D01*
X121190476Y-88952381D01*
X121809524Y-88952381D01*
X122428571Y-87952381D02*
X122523810Y-87952381D01*
X122619048Y-88000000D01*
X122666667Y-88047619D01*
X122714286Y-88142857D01*
X122761905Y-88333333D01*
X122761905Y-88571429D01*
X122714286Y-88761905D01*
X122666667Y-88857143D01*
X122619048Y-88904762D01*
X122523810Y-88952381D01*
X122428571Y-88952381D01*
X122333333Y-88904762D01*
X122285714Y-88857143D01*
X122238095Y-88761905D01*
X122190476Y-88571429D01*
X122190476Y-88333333D01*
X122238095Y-88142857D01*
X122285714Y-88047619D01*
X122333333Y-88000000D01*
X122428571Y-87952381D01*
X114957143Y-98407143D02*
X114909524Y-98454762D01*
X114766667Y-98502381D01*
X114671429Y-98502381D01*
X114528571Y-98454762D01*
X114433333Y-98359524D01*
X114385714Y-98264286D01*
X114338095Y-98073810D01*
X114338095Y-97930952D01*
X114385714Y-97740476D01*
X114433333Y-97645238D01*
X114528571Y-97550000D01*
X114671429Y-97502381D01*
X114766667Y-97502381D01*
X114909524Y-97550000D01*
X114957143Y-97597619D01*
X115290476Y-97502381D02*
X115909524Y-97502381D01*
X115576190Y-97883333D01*
X115719048Y-97883333D01*
X115814286Y-97930952D01*
X115861905Y-97978571D01*
X115909524Y-98073810D01*
X115909524Y-98311905D01*
X115861905Y-98407143D01*
X115814286Y-98454762D01*
X115719048Y-98502381D01*
X115433333Y-98502381D01*
X115338095Y-98454762D01*
X115290476Y-98407143D01*
X116385714Y-98502381D02*
X116576190Y-98502381D01*
X116671429Y-98454762D01*
X116719048Y-98407143D01*
X116814286Y-98264286D01*
X116861905Y-98073810D01*
X116861905Y-97692857D01*
X116814286Y-97597619D01*
X116766667Y-97550000D01*
X116671429Y-97502381D01*
X116480952Y-97502381D01*
X116385714Y-97550000D01*
X116338095Y-97597619D01*
X116290476Y-97692857D01*
X116290476Y-97930952D01*
X116338095Y-98026190D01*
X116385714Y-98073810D01*
X116480952Y-98121429D01*
X116671429Y-98121429D01*
X116766667Y-98073810D01*
X116814286Y-98026190D01*
X116861905Y-97930952D01*
X109907143Y-103442857D02*
X109954762Y-103490476D01*
X110002381Y-103633333D01*
X110002381Y-103728571D01*
X109954762Y-103871429D01*
X109859524Y-103966667D01*
X109764286Y-104014286D01*
X109573810Y-104061905D01*
X109430952Y-104061905D01*
X109240476Y-104014286D01*
X109145238Y-103966667D01*
X109050000Y-103871429D01*
X109002381Y-103728571D01*
X109002381Y-103633333D01*
X109050000Y-103490476D01*
X109097619Y-103442857D01*
X109335714Y-102585714D02*
X110002381Y-102585714D01*
X108954762Y-102823810D02*
X109669048Y-103061905D01*
X109669048Y-102442857D01*
X109002381Y-101871429D02*
X109002381Y-101776190D01*
X109050000Y-101680952D01*
X109097619Y-101633333D01*
X109192857Y-101585714D01*
X109383333Y-101538095D01*
X109621429Y-101538095D01*
X109811905Y-101585714D01*
X109907143Y-101633333D01*
X109954762Y-101680952D01*
X110002381Y-101776190D01*
X110002381Y-101871429D01*
X109954762Y-101966667D01*
X109907143Y-102014286D01*
X109811905Y-102061905D01*
X109621429Y-102109524D01*
X109383333Y-102109524D01*
X109192857Y-102061905D01*
X109097619Y-102014286D01*
X109050000Y-101966667D01*
X109002381Y-101871429D01*
X122407143Y-103442857D02*
X122454762Y-103490476D01*
X122502381Y-103633333D01*
X122502381Y-103728571D01*
X122454762Y-103871429D01*
X122359524Y-103966667D01*
X122264286Y-104014286D01*
X122073810Y-104061905D01*
X121930952Y-104061905D01*
X121740476Y-104014286D01*
X121645238Y-103966667D01*
X121550000Y-103871429D01*
X121502381Y-103728571D01*
X121502381Y-103633333D01*
X121550000Y-103490476D01*
X121597619Y-103442857D01*
X121835714Y-102585714D02*
X122502381Y-102585714D01*
X121454762Y-102823810D02*
X122169048Y-103061905D01*
X122169048Y-102442857D01*
X122502381Y-101538095D02*
X122502381Y-102109524D01*
X122502381Y-101823810D02*
X121502381Y-101823810D01*
X121645238Y-101919048D01*
X121740476Y-102014286D01*
X121788095Y-102109524D01*
X138907143Y-86842857D02*
X138954762Y-86890476D01*
X139002381Y-87033333D01*
X139002381Y-87128571D01*
X138954762Y-87271429D01*
X138859524Y-87366667D01*
X138764286Y-87414286D01*
X138573810Y-87461905D01*
X138430952Y-87461905D01*
X138240476Y-87414286D01*
X138145238Y-87366667D01*
X138050000Y-87271429D01*
X138002381Y-87128571D01*
X138002381Y-87033333D01*
X138050000Y-86890476D01*
X138097619Y-86842857D01*
X138335714Y-85985714D02*
X139002381Y-85985714D01*
X137954762Y-86223810D02*
X138669048Y-86461905D01*
X138669048Y-85842857D01*
X138097619Y-85509524D02*
X138050000Y-85461905D01*
X138002381Y-85366667D01*
X138002381Y-85128571D01*
X138050000Y-85033333D01*
X138097619Y-84985714D01*
X138192857Y-84938095D01*
X138288095Y-84938095D01*
X138430952Y-84985714D01*
X139002381Y-85557143D01*
X139002381Y-84938095D01*
X192051905Y-67142381D02*
X192051905Y-66142381D01*
X192290000Y-66142381D01*
X192432858Y-66190000D01*
X192528096Y-66285238D01*
X192575715Y-66380476D01*
X192623334Y-66570952D01*
X192623334Y-66713810D01*
X192575715Y-66904286D01*
X192528096Y-66999524D01*
X192432858Y-67094762D01*
X192290000Y-67142381D01*
X192051905Y-67142381D01*
X192956667Y-66142381D02*
X193575715Y-66142381D01*
X193242381Y-66523333D01*
X193385239Y-66523333D01*
X193480477Y-66570952D01*
X193528096Y-66618571D01*
X193575715Y-66713810D01*
X193575715Y-66951905D01*
X193528096Y-67047143D01*
X193480477Y-67094762D01*
X193385239Y-67142381D01*
X193099524Y-67142381D01*
X193004286Y-67094762D01*
X192956667Y-67047143D01*
X197522922Y-67660748D02*
X197781741Y-66694823D01*
X198011723Y-66756446D01*
X198137389Y-66839417D01*
X198204732Y-66956059D01*
X198226079Y-67060377D01*
X198222777Y-67256687D01*
X198185803Y-67394677D01*
X198090507Y-67566338D01*
X198019861Y-67646006D01*
X197903219Y-67713350D01*
X197752904Y-67722372D01*
X197522922Y-67660748D01*
X199075363Y-67386539D02*
X198902817Y-68030490D01*
X198943977Y-66956944D02*
X198529124Y-67585268D01*
X199127079Y-67745489D01*
X202674600Y-69593180D02*
X203174600Y-68727155D01*
X203380797Y-68846202D01*
X203480706Y-68958870D01*
X203515565Y-69088968D01*
X203509186Y-69195256D01*
X203455187Y-69384022D01*
X203383758Y-69507741D01*
X203247281Y-69648889D01*
X203158422Y-69707558D01*
X203028325Y-69742417D01*
X202880797Y-69712227D01*
X202674600Y-69593180D01*
X204453019Y-69465250D02*
X204040626Y-69227155D01*
X203761292Y-69615738D01*
X203826340Y-69598308D01*
X203932628Y-69604688D01*
X204138826Y-69723736D01*
X204197495Y-69812594D01*
X204214924Y-69877643D01*
X204208544Y-69983932D01*
X204089497Y-70190128D01*
X204000638Y-70248797D01*
X203935590Y-70266227D01*
X203829302Y-70259847D01*
X203623104Y-70140799D01*
X203564435Y-70051941D01*
X203547006Y-69986892D01*
X207151002Y-72785174D02*
X207858109Y-72078067D01*
X208026468Y-72246426D01*
X208093812Y-72381113D01*
X208093812Y-72515800D01*
X208060140Y-72616815D01*
X207959125Y-72785174D01*
X207858109Y-72886190D01*
X207689751Y-72987205D01*
X207588735Y-73020876D01*
X207454049Y-73020876D01*
X207319361Y-72953532D01*
X207151002Y-72785174D01*
X208868262Y-73088220D02*
X208733574Y-72953532D01*
X208632559Y-72919861D01*
X208565216Y-72919861D01*
X208396857Y-72953532D01*
X208228499Y-73054547D01*
X207959124Y-73323922D01*
X207925453Y-73424937D01*
X207925453Y-73492280D01*
X207959124Y-73593296D01*
X208093812Y-73727983D01*
X208194827Y-73761655D01*
X208262170Y-73761655D01*
X208363186Y-73727983D01*
X208531544Y-73559625D01*
X208565217Y-73458609D01*
X208565217Y-73391265D01*
X208531545Y-73290250D01*
X208396857Y-73155563D01*
X208295842Y-73121891D01*
X208228499Y-73121891D01*
X208127483Y-73155563D01*
X214742381Y-88928095D02*
X213742381Y-88928095D01*
X213742381Y-88690000D01*
X213790000Y-88547142D01*
X213885238Y-88451904D01*
X213980476Y-88404285D01*
X214170952Y-88356666D01*
X214313810Y-88356666D01*
X214504286Y-88404285D01*
X214599524Y-88451904D01*
X214694762Y-88547142D01*
X214742381Y-88690000D01*
X214742381Y-88928095D01*
X214170952Y-87785238D02*
X214123333Y-87880476D01*
X214075714Y-87928095D01*
X213980476Y-87975714D01*
X213932857Y-87975714D01*
X213837619Y-87928095D01*
X213790000Y-87880476D01*
X213742381Y-87785238D01*
X213742381Y-87594761D01*
X213790000Y-87499523D01*
X213837619Y-87451904D01*
X213932857Y-87404285D01*
X213980476Y-87404285D01*
X214075714Y-87451904D01*
X214123333Y-87499523D01*
X214170952Y-87594761D01*
X214170952Y-87785238D01*
X214218571Y-87880476D01*
X214266190Y-87928095D01*
X214361429Y-87975714D01*
X214551905Y-87975714D01*
X214647143Y-87928095D01*
X214694762Y-87880476D01*
X214742381Y-87785238D01*
X214742381Y-87594761D01*
X214694762Y-87499523D01*
X214647143Y-87451904D01*
X214551905Y-87404285D01*
X214361429Y-87404285D01*
X214266190Y-87451904D01*
X214218571Y-87499523D01*
X214170952Y-87594761D01*
X213803338Y-94584639D02*
X212837413Y-94325820D01*
X212899036Y-94095838D01*
X212982007Y-93970172D01*
X213098649Y-93902829D01*
X213202967Y-93881482D01*
X213399277Y-93884784D01*
X213537267Y-93921758D01*
X213708928Y-94017054D01*
X213788596Y-94087700D01*
X213855940Y-94204342D01*
X213864962Y-94354657D01*
X213803338Y-94584639D01*
X214074482Y-93572717D02*
X214123781Y-93388731D01*
X214102434Y-93284412D01*
X214068763Y-93226091D01*
X213955423Y-93097124D01*
X213783762Y-93001829D01*
X213415789Y-92903231D01*
X213311472Y-92924578D01*
X213253151Y-92958250D01*
X213182505Y-93037918D01*
X213133206Y-93221905D01*
X213154553Y-93326222D01*
X213188225Y-93384543D01*
X213267893Y-93455189D01*
X213497875Y-93516813D01*
X213602192Y-93495466D01*
X213660514Y-93461794D01*
X213731160Y-93382126D01*
X213780459Y-93198139D01*
X213759112Y-93093822D01*
X213725440Y-93035501D01*
X213645771Y-92964855D01*
X211194176Y-100217793D02*
X210328151Y-99717793D01*
X210447199Y-99511597D01*
X210559867Y-99411688D01*
X210689964Y-99376828D01*
X210796252Y-99383208D01*
X210985019Y-99437206D01*
X211108738Y-99508635D01*
X211249885Y-99645113D01*
X211308554Y-99733971D01*
X211343414Y-99864069D01*
X211313224Y-100011597D01*
X211194176Y-100217793D01*
X211956081Y-98898135D02*
X211670367Y-99393007D01*
X211813224Y-99145571D02*
X210947199Y-98645571D01*
X211023297Y-98799478D01*
X211058157Y-98929576D01*
X211051777Y-99035864D01*
X211399580Y-97862024D02*
X211447199Y-97779545D01*
X211536057Y-97720876D01*
X211601106Y-97703446D01*
X211707394Y-97709826D01*
X211896161Y-97763825D01*
X212102358Y-97882873D01*
X212243505Y-98019350D01*
X212302174Y-98108208D01*
X212319604Y-98173257D01*
X212313224Y-98279545D01*
X212265605Y-98362024D01*
X212176747Y-98420693D01*
X212111698Y-98438123D01*
X212005410Y-98431743D01*
X211816643Y-98377745D01*
X211610446Y-98258697D01*
X211469299Y-98122219D01*
X211410630Y-98033361D01*
X211393200Y-97968312D01*
X211399580Y-97862024D01*
X207454048Y-104571308D02*
X206746941Y-103864201D01*
X206915300Y-103695842D01*
X207049987Y-103628498D01*
X207184674Y-103628498D01*
X207285689Y-103662170D01*
X207454048Y-103763185D01*
X207555064Y-103864201D01*
X207656079Y-104032559D01*
X207689751Y-104133574D01*
X207689751Y-104268261D01*
X207622406Y-104402949D01*
X207454048Y-104571308D01*
X208531544Y-103493811D02*
X208127483Y-103897872D01*
X208329513Y-103695842D02*
X207622406Y-102988735D01*
X207656078Y-103157094D01*
X207656078Y-103291781D01*
X207622406Y-103392796D01*
X209204979Y-102820376D02*
X208800918Y-103224437D01*
X209002948Y-103022407D02*
X208295841Y-102315300D01*
X208329513Y-102483659D01*
X208329513Y-102618346D01*
X208295841Y-102719361D01*
X191575714Y-110142381D02*
X191575714Y-109142381D01*
X191813809Y-109142381D01*
X191956667Y-109190000D01*
X192051905Y-109285238D01*
X192099524Y-109380476D01*
X192147143Y-109570952D01*
X192147143Y-109713810D01*
X192099524Y-109904286D01*
X192051905Y-109999524D01*
X191956667Y-110094762D01*
X191813809Y-110142381D01*
X191575714Y-110142381D01*
X193099524Y-110142381D02*
X192528095Y-110142381D01*
X192813809Y-110142381D02*
X192813809Y-109142381D01*
X192718571Y-109285238D01*
X192623333Y-109380476D01*
X192528095Y-109428095D01*
X193432857Y-109142381D02*
X194051905Y-109142381D01*
X193718571Y-109523333D01*
X193861429Y-109523333D01*
X193956667Y-109570952D01*
X194004286Y-109618571D01*
X194051905Y-109713810D01*
X194051905Y-109951905D01*
X194004286Y-110047143D01*
X193956667Y-110094762D01*
X193861429Y-110142381D01*
X193575714Y-110142381D01*
X193480476Y-110094762D01*
X193432857Y-110047143D01*
X185935396Y-109080091D02*
X186194215Y-108114165D01*
X186424197Y-108175789D01*
X186549863Y-108258760D01*
X186617206Y-108375402D01*
X186638553Y-108479719D01*
X186635251Y-108676030D01*
X186598276Y-108814020D01*
X186502981Y-108985681D01*
X186432335Y-109065349D01*
X186315693Y-109132693D01*
X186165378Y-109141715D01*
X185935396Y-109080091D01*
X187407283Y-109474482D02*
X186855325Y-109326585D01*
X187131304Y-109400534D02*
X187390123Y-108434608D01*
X187261156Y-108547948D01*
X187144514Y-108615291D01*
X187040196Y-108636638D01*
X188407766Y-109052376D02*
X188235220Y-109696327D01*
X188276381Y-108622781D02*
X187861528Y-109251105D01*
X188459482Y-109411326D01*
X180762207Y-106594176D02*
X181262207Y-105728151D01*
X181468403Y-105847199D01*
X181568312Y-105959867D01*
X181603172Y-106089964D01*
X181596792Y-106196252D01*
X181542794Y-106385019D01*
X181471365Y-106508738D01*
X181334887Y-106649885D01*
X181246029Y-106708554D01*
X181115931Y-106743414D01*
X180968403Y-106713224D01*
X180762207Y-106594176D01*
X182081865Y-107356081D02*
X181586993Y-107070367D01*
X181834429Y-107213224D02*
X182334429Y-106347199D01*
X182180522Y-106423297D01*
X182050424Y-106458157D01*
X181944136Y-106451777D01*
X183365412Y-106942437D02*
X182953019Y-106704342D01*
X182673684Y-107092925D01*
X182738733Y-107075495D01*
X182845021Y-107081875D01*
X183051218Y-107200923D01*
X183109887Y-107289781D01*
X183127317Y-107354830D01*
X183120937Y-107461119D01*
X183001889Y-107667315D01*
X182913031Y-107725984D01*
X182847982Y-107743414D01*
X182741694Y-107737034D01*
X182535497Y-107617986D01*
X182476828Y-107529128D01*
X182459398Y-107464079D01*
X176408692Y-102854048D02*
X177115799Y-102146941D01*
X177284158Y-102315300D01*
X177351502Y-102449987D01*
X177351502Y-102584674D01*
X177317830Y-102685689D01*
X177216815Y-102854048D01*
X177115799Y-102955064D01*
X176947441Y-103056079D01*
X176846426Y-103089751D01*
X176711739Y-103089751D01*
X176577051Y-103022406D01*
X176408692Y-102854048D01*
X177486189Y-103931544D02*
X177082128Y-103527483D01*
X177284158Y-103729513D02*
X177991265Y-103022406D01*
X177822906Y-103056078D01*
X177688219Y-103056078D01*
X177587204Y-103022406D01*
X178799387Y-103830529D02*
X178664700Y-103695841D01*
X178563685Y-103662170D01*
X178496341Y-103662170D01*
X178327982Y-103695841D01*
X178159624Y-103796857D01*
X177890249Y-104066231D01*
X177856578Y-104167246D01*
X177856578Y-104234590D01*
X177890249Y-104335605D01*
X178024937Y-104470292D01*
X178125952Y-104503964D01*
X178193296Y-104503964D01*
X178294311Y-104470292D01*
X178462669Y-104301934D01*
X178496342Y-104200918D01*
X178496342Y-104133574D01*
X178462670Y-104032559D01*
X178327982Y-103897872D01*
X178226967Y-103864200D01*
X178159624Y-103864200D01*
X178058608Y-103897872D01*
X171742381Y-89404286D02*
X170742381Y-89404286D01*
X170742381Y-89166191D01*
X170790000Y-89023333D01*
X170885238Y-88928095D01*
X170980476Y-88880476D01*
X171170952Y-88832857D01*
X171313810Y-88832857D01*
X171504286Y-88880476D01*
X171599524Y-88928095D01*
X171694762Y-89023333D01*
X171742381Y-89166191D01*
X171742381Y-89404286D01*
X171742381Y-87880476D02*
X171742381Y-88451905D01*
X171742381Y-88166191D02*
X170742381Y-88166191D01*
X170885238Y-88261429D01*
X170980476Y-88356667D01*
X171028095Y-88451905D01*
X171170952Y-87309048D02*
X171123333Y-87404286D01*
X171075714Y-87451905D01*
X170980476Y-87499524D01*
X170932857Y-87499524D01*
X170837619Y-87451905D01*
X170790000Y-87404286D01*
X170742381Y-87309048D01*
X170742381Y-87118571D01*
X170790000Y-87023333D01*
X170837619Y-86975714D01*
X170932857Y-86928095D01*
X170980476Y-86928095D01*
X171075714Y-86975714D01*
X171123333Y-87023333D01*
X171170952Y-87118571D01*
X171170952Y-87309048D01*
X171218571Y-87404286D01*
X171266190Y-87451905D01*
X171361429Y-87499524D01*
X171551905Y-87499524D01*
X171647143Y-87451905D01*
X171694762Y-87404286D01*
X171742381Y-87309048D01*
X171742381Y-87118571D01*
X171694762Y-87023333D01*
X171647143Y-86975714D01*
X171551905Y-86928095D01*
X171361429Y-86928095D01*
X171266190Y-86975714D01*
X171218571Y-87023333D01*
X171170952Y-87118571D01*
X172145281Y-83915386D02*
X171179355Y-83656567D01*
X171240979Y-83426585D01*
X171323950Y-83300919D01*
X171440592Y-83233576D01*
X171544909Y-83212229D01*
X171741220Y-83215531D01*
X171879210Y-83252506D01*
X172050871Y-83347801D01*
X172130539Y-83418447D01*
X172197883Y-83535089D01*
X172206905Y-83685404D01*
X172145281Y-83915386D01*
X172539672Y-82443499D02*
X172391775Y-82995457D01*
X172465724Y-82719478D02*
X171499798Y-82460659D01*
X171613138Y-82589626D01*
X171680481Y-82706268D01*
X171701828Y-82810586D01*
X172662919Y-81983534D02*
X172712218Y-81799549D01*
X172690871Y-81695230D01*
X172657200Y-81636909D01*
X172543860Y-81507942D01*
X172372199Y-81412647D01*
X172004226Y-81314049D01*
X171899909Y-81335396D01*
X171841588Y-81369068D01*
X171770942Y-81448736D01*
X171721643Y-81632722D01*
X171742990Y-81737040D01*
X171776662Y-81795361D01*
X171856330Y-81866007D01*
X172086312Y-81927631D01*
X172190629Y-81906283D01*
X172248951Y-81872612D01*
X172319597Y-81792944D01*
X172368896Y-81608957D01*
X172347549Y-81504640D01*
X172313877Y-81446318D01*
X172234209Y-81375672D01*
X173955084Y-78717793D02*
X173089059Y-78217793D01*
X173208107Y-78011597D01*
X173320775Y-77911688D01*
X173450872Y-77876828D01*
X173557160Y-77883208D01*
X173745927Y-77937206D01*
X173869646Y-78008635D01*
X174010793Y-78145113D01*
X174069462Y-78233971D01*
X174104322Y-78364069D01*
X174074132Y-78511597D01*
X173955084Y-78717793D01*
X173647728Y-77440626D02*
X173630298Y-77375577D01*
X173636678Y-77269289D01*
X173755726Y-77063092D01*
X173844584Y-77004423D01*
X173909633Y-76986993D01*
X174015921Y-76993373D01*
X174098400Y-77040992D01*
X174198308Y-77153660D01*
X174407465Y-77934246D01*
X174716989Y-77398135D01*
X174160488Y-76362024D02*
X174208107Y-76279545D01*
X174296965Y-76220876D01*
X174362014Y-76203446D01*
X174468302Y-76209826D01*
X174657069Y-76263825D01*
X174863266Y-76382873D01*
X175004413Y-76519350D01*
X175063082Y-76608208D01*
X175080512Y-76673257D01*
X175074132Y-76779545D01*
X175026513Y-76862024D01*
X174937655Y-76920693D01*
X174872606Y-76938123D01*
X174766318Y-76931743D01*
X174577551Y-76877745D01*
X174371354Y-76758697D01*
X174230207Y-76622219D01*
X174171538Y-76533361D01*
X174154108Y-76468312D01*
X174160488Y-76362024D01*
X177048456Y-74165716D02*
X176341349Y-73458609D01*
X176509708Y-73290250D01*
X176644395Y-73222906D01*
X176779082Y-73222906D01*
X176880097Y-73256578D01*
X177048456Y-73357593D01*
X177149472Y-73458609D01*
X177250487Y-73626967D01*
X177284159Y-73727982D01*
X177284159Y-73862669D01*
X177216814Y-73997357D01*
X177048456Y-74165716D01*
X177082128Y-72852517D02*
X177082128Y-72785174D01*
X177115799Y-72684159D01*
X177284159Y-72515799D01*
X177385174Y-72482128D01*
X177452517Y-72482128D01*
X177553532Y-72515799D01*
X177620876Y-72583143D01*
X177688219Y-72717830D01*
X177688219Y-73525952D01*
X178125952Y-73088219D01*
X178799387Y-72414784D02*
X178395326Y-72818845D01*
X178597356Y-72616815D02*
X177890249Y-71909708D01*
X177923921Y-72078067D01*
X177923921Y-72212754D01*
X177890249Y-72313769D01*
X210410630Y-76614588D02*
X211276655Y-76114588D01*
X211395702Y-76320784D01*
X211425892Y-76468312D01*
X211391033Y-76598410D01*
X211332364Y-76687268D01*
X211191216Y-76823746D01*
X211067497Y-76895175D01*
X210878731Y-76949173D01*
X210772443Y-76955553D01*
X210642345Y-76920693D01*
X210529677Y-76820784D01*
X210410630Y-76614588D01*
X211670367Y-76986993D02*
X211735416Y-77004423D01*
X211824274Y-77063092D01*
X211943322Y-77269289D01*
X211949702Y-77375577D01*
X211932272Y-77440626D01*
X211873603Y-77529484D01*
X211791124Y-77577103D01*
X211643597Y-77607292D01*
X210863011Y-77398135D01*
X211172535Y-77934246D01*
X212205226Y-77722921D02*
X212514750Y-78259032D01*
X212018169Y-78160833D01*
X212089598Y-78284551D01*
X212095978Y-78390839D01*
X212078548Y-78455888D01*
X212019878Y-78544747D01*
X211813682Y-78663794D01*
X211707394Y-78670174D01*
X211642345Y-78652744D01*
X211553487Y-78594075D01*
X211410630Y-78346639D01*
X211404250Y-78240351D01*
X211421680Y-78175302D01*
X202714588Y-107808462D02*
X202214588Y-106942437D01*
X202420784Y-106823390D01*
X202568312Y-106793200D01*
X202698410Y-106828059D01*
X202787268Y-106886728D01*
X202923746Y-107027876D01*
X202995175Y-107151595D01*
X203049173Y-107340361D01*
X203055553Y-107446649D01*
X203020693Y-107576747D01*
X202920784Y-107689415D01*
X202714588Y-107808462D01*
X203086993Y-106548725D02*
X203104423Y-106483676D01*
X203163092Y-106394818D01*
X203369289Y-106275770D01*
X203475577Y-106269390D01*
X203540626Y-106286820D01*
X203629484Y-106345489D01*
X203677103Y-106427968D01*
X203707292Y-106575495D01*
X203498135Y-107356081D01*
X204034246Y-107046557D01*
X204443220Y-106040635D02*
X204776554Y-106617986D01*
X204046547Y-105829769D02*
X204197494Y-106567407D01*
X204733605Y-106257883D01*
X173171538Y-98114588D02*
X174037563Y-97614588D01*
X174156610Y-97820784D01*
X174186800Y-97968312D01*
X174151941Y-98098410D01*
X174093272Y-98187268D01*
X173952124Y-98323746D01*
X173828405Y-98395175D01*
X173639639Y-98449173D01*
X173533351Y-98455553D01*
X173403253Y-98420693D01*
X173290585Y-98320784D01*
X173171538Y-98114588D01*
X174431275Y-98486993D02*
X174496324Y-98504423D01*
X174585182Y-98563092D01*
X174704230Y-98769289D01*
X174710610Y-98875577D01*
X174693180Y-98940626D01*
X174634511Y-99029484D01*
X174552032Y-99077103D01*
X174404505Y-99107292D01*
X173623919Y-98898135D01*
X173933443Y-99434246D01*
X175251849Y-99717793D02*
X175013753Y-99305400D01*
X174577551Y-99502255D01*
X174642600Y-99519685D01*
X174731458Y-99578354D01*
X174850506Y-99784551D01*
X174856886Y-99890839D01*
X174839456Y-99955888D01*
X174780786Y-100044747D01*
X174574590Y-100163794D01*
X174468302Y-100170174D01*
X174403253Y-100152744D01*
X174314395Y-100094075D01*
X174195347Y-99887878D01*
X174188967Y-99781590D01*
X174206397Y-99716541D01*
X181214588Y-70569370D02*
X180714588Y-69703345D01*
X180920784Y-69584298D01*
X181068312Y-69554108D01*
X181198410Y-69588967D01*
X181287268Y-69647636D01*
X181423746Y-69788784D01*
X181495175Y-69912503D01*
X181549173Y-70101269D01*
X181555553Y-70207557D01*
X181520693Y-70337655D01*
X181420784Y-70450323D01*
X181214588Y-70569370D01*
X181586993Y-69309633D02*
X181604423Y-69244584D01*
X181663092Y-69155726D01*
X181869289Y-69036678D01*
X181975577Y-69030298D01*
X182040626Y-69047728D01*
X182129484Y-69106397D01*
X182177103Y-69188876D01*
X182207292Y-69336403D01*
X181998135Y-70116989D01*
X182534246Y-69807465D01*
X182776554Y-68512869D02*
X182611596Y-68608107D01*
X182552927Y-68696965D01*
X182535497Y-68762014D01*
X182524447Y-68933351D01*
X182578446Y-69122117D01*
X182768922Y-69452032D01*
X182857781Y-69510701D01*
X182922829Y-69528131D01*
X183029117Y-69521751D01*
X183194075Y-69426513D01*
X183252744Y-69337655D01*
X183270174Y-69272606D01*
X183263794Y-69166318D01*
X183144747Y-68960122D01*
X183055888Y-68901452D01*
X182990839Y-68884022D01*
X182884551Y-68890402D01*
X182719593Y-68985640D01*
X182660924Y-69074498D01*
X182643495Y-69139547D01*
X182649875Y-69245836D01*
X212806158Y-81569566D02*
X213772084Y-81310747D01*
X213833708Y-81540729D01*
X213824685Y-81691044D01*
X213757342Y-81807686D01*
X213677674Y-81878332D01*
X213506013Y-81973627D01*
X213368023Y-82010601D01*
X213171712Y-82013904D01*
X213067395Y-81992557D01*
X212950752Y-81925213D01*
X212867782Y-81799548D01*
X212806158Y-81569566D01*
X213926585Y-82255325D02*
X213984907Y-82288997D01*
X214055552Y-82368665D01*
X214117176Y-82598648D01*
X214095829Y-82702966D01*
X214062157Y-82761287D01*
X213982489Y-82831933D01*
X213890497Y-82856582D01*
X213740183Y-82847560D01*
X213040328Y-82443499D01*
X213200549Y-83041453D01*
X213900404Y-83445513D02*
X213921751Y-83341196D01*
X213955422Y-83282875D01*
X214035091Y-83212229D01*
X214081087Y-83199904D01*
X214185405Y-83221251D01*
X214243726Y-83254923D01*
X214314371Y-83334591D01*
X214363671Y-83518578D01*
X214342324Y-83622895D01*
X214308652Y-83681216D01*
X214228984Y-83751862D01*
X214182987Y-83764187D01*
X214078670Y-83742840D01*
X214020349Y-83709168D01*
X213949703Y-83629500D01*
X213900404Y-83445513D01*
X213829758Y-83365845D01*
X213771437Y-83332174D01*
X213667118Y-83310827D01*
X213483133Y-83360126D01*
X213403464Y-83430771D01*
X213369793Y-83489093D01*
X213348446Y-83593410D01*
X213397745Y-83777397D01*
X213468391Y-83857065D01*
X213526712Y-83890737D01*
X213631029Y-83912084D01*
X213815015Y-83862785D01*
X213894684Y-83792139D01*
X213928356Y-83733818D01*
X213949703Y-83629500D01*
X197298784Y-109708652D02*
X197039965Y-108742726D01*
X197269947Y-108681102D01*
X197420262Y-108690125D01*
X197536904Y-108757468D01*
X197607550Y-108837136D01*
X197702845Y-109008797D01*
X197739819Y-109146787D01*
X197743122Y-109343098D01*
X197721775Y-109447415D01*
X197654431Y-109564058D01*
X197528766Y-109647028D01*
X197298784Y-109708652D01*
X197984543Y-108588225D02*
X198018215Y-108529903D01*
X198097883Y-108459258D01*
X198327866Y-108397634D01*
X198432184Y-108418981D01*
X198490505Y-108452653D01*
X198561151Y-108532321D01*
X198585800Y-108624313D01*
X198576778Y-108774627D01*
X198172717Y-109474482D01*
X198770671Y-109314261D01*
X199230635Y-109191014D02*
X199414621Y-109141715D01*
X199494290Y-109071069D01*
X199527962Y-109012748D01*
X199582981Y-108850109D01*
X199579678Y-108653799D01*
X199481080Y-108285826D01*
X199410434Y-108206158D01*
X199352113Y-108172486D01*
X199247796Y-108151139D01*
X199063809Y-108200439D01*
X198984141Y-108271084D01*
X198950469Y-108329405D01*
X198929122Y-108433723D01*
X198990746Y-108663705D01*
X199061392Y-108743373D01*
X199119713Y-108777046D01*
X199224030Y-108798393D01*
X199408017Y-108749094D01*
X199487685Y-108678448D01*
X199521357Y-108620126D01*
X199542704Y-108515808D01*
X171271348Y-92698784D02*
X172237274Y-92439965D01*
X172298898Y-92669947D01*
X172289875Y-92820262D01*
X172222532Y-92936904D01*
X172142864Y-93007550D01*
X171971203Y-93102845D01*
X171833213Y-93139819D01*
X171636902Y-93143122D01*
X171532585Y-93121775D01*
X171415942Y-93054431D01*
X171332972Y-92928766D01*
X171271348Y-92698784D01*
X172471444Y-93313898D02*
X172631665Y-93911852D01*
X172177420Y-93688474D01*
X172214395Y-93826464D01*
X172193048Y-93930781D01*
X172159376Y-93989103D01*
X172079707Y-94059749D01*
X171849725Y-94121372D01*
X171745407Y-94100025D01*
X171687086Y-94066353D01*
X171616440Y-93986685D01*
X171542492Y-93710706D01*
X171563839Y-93606388D01*
X171597511Y-93548067D01*
X172791886Y-94509805D02*
X172816536Y-94601799D01*
X172795189Y-94706117D01*
X172761517Y-94764438D01*
X172681849Y-94835084D01*
X172510188Y-94930379D01*
X172280205Y-94992003D01*
X172083895Y-94995305D01*
X171979577Y-94973958D01*
X171921256Y-94940286D01*
X171850610Y-94860618D01*
X171825960Y-94768625D01*
X171847307Y-94664307D01*
X171880979Y-94605986D01*
X171960647Y-94535340D01*
X172132308Y-94440045D01*
X172362291Y-94378421D01*
X172558602Y-94375119D01*
X172662919Y-94396466D01*
X172721240Y-94430137D01*
X172791886Y-94509805D01*
X186169566Y-68173842D02*
X185910747Y-67207916D01*
X186140729Y-67146292D01*
X186291044Y-67155315D01*
X186407686Y-67222658D01*
X186478332Y-67302326D01*
X186573627Y-67473987D01*
X186610601Y-67611977D01*
X186613904Y-67808288D01*
X186592557Y-67912605D01*
X186525213Y-68029248D01*
X186399548Y-68112218D01*
X186169566Y-68173842D01*
X186784680Y-66973746D02*
X187382634Y-66813525D01*
X187159256Y-67267770D01*
X187297246Y-67230795D01*
X187401563Y-67252142D01*
X187459885Y-67285814D01*
X187530531Y-67365483D01*
X187592154Y-67595465D01*
X187570807Y-67699783D01*
X187537135Y-67758104D01*
X187457467Y-67828750D01*
X187181488Y-67902698D01*
X187077170Y-67881351D01*
X187018849Y-67847679D01*
X188561382Y-67532956D02*
X188009424Y-67680853D01*
X188285403Y-67606905D02*
X188026584Y-66640979D01*
X187971565Y-66803618D01*
X187904222Y-66920260D01*
X187824554Y-66990906D01*
X118785714Y-110752381D02*
X118785714Y-109752381D01*
X119023809Y-109752381D01*
X119166667Y-109800000D01*
X119261905Y-109895238D01*
X119309524Y-109990476D01*
X119357143Y-110180952D01*
X119357143Y-110323810D01*
X119309524Y-110514286D01*
X119261905Y-110609524D01*
X119166667Y-110704762D01*
X119023809Y-110752381D01*
X118785714Y-110752381D01*
X119690476Y-109752381D02*
X120309524Y-109752381D01*
X119976190Y-110133333D01*
X120119048Y-110133333D01*
X120214286Y-110180952D01*
X120261905Y-110228571D01*
X120309524Y-110323810D01*
X120309524Y-110561905D01*
X120261905Y-110657143D01*
X120214286Y-110704762D01*
X120119048Y-110752381D01*
X119833333Y-110752381D01*
X119738095Y-110704762D01*
X119690476Y-110657143D01*
X120690476Y-109847619D02*
X120738095Y-109800000D01*
X120833333Y-109752381D01*
X121071429Y-109752381D01*
X121166667Y-109800000D01*
X121214286Y-109847619D01*
X121261905Y-109942857D01*
X121261905Y-110038095D01*
X121214286Y-110180952D01*
X120642857Y-110752381D01*
X121261905Y-110752381D01*
X111585714Y-110752381D02*
X111585714Y-109752381D01*
X111823809Y-109752381D01*
X111966667Y-109800000D01*
X112061905Y-109895238D01*
X112109524Y-109990476D01*
X112157143Y-110180952D01*
X112157143Y-110323810D01*
X112109524Y-110514286D01*
X112061905Y-110609524D01*
X111966667Y-110704762D01*
X111823809Y-110752381D01*
X111585714Y-110752381D01*
X112490476Y-109752381D02*
X113109524Y-109752381D01*
X112776190Y-110133333D01*
X112919048Y-110133333D01*
X113014286Y-110180952D01*
X113061905Y-110228571D01*
X113109524Y-110323810D01*
X113109524Y-110561905D01*
X113061905Y-110657143D01*
X113014286Y-110704762D01*
X112919048Y-110752381D01*
X112633333Y-110752381D01*
X112538095Y-110704762D01*
X112490476Y-110657143D01*
X113442857Y-109752381D02*
X114061905Y-109752381D01*
X113728571Y-110133333D01*
X113871429Y-110133333D01*
X113966667Y-110180952D01*
X114014286Y-110228571D01*
X114061905Y-110323810D01*
X114061905Y-110561905D01*
X114014286Y-110657143D01*
X113966667Y-110704762D01*
X113871429Y-110752381D01*
X113585714Y-110752381D01*
X113490476Y-110704762D01*
X113442857Y-110657143D01*
X127636667Y-66232381D02*
X127636667Y-66946667D01*
X127589047Y-67089524D01*
X127493809Y-67184762D01*
X127350952Y-67232381D01*
X127255714Y-67232381D01*
X128636667Y-67232381D02*
X128065238Y-67232381D01*
X128350952Y-67232381D02*
X128350952Y-66232381D01*
X128255714Y-66375238D01*
X128160476Y-66470476D01*
X128065238Y-66518095D01*
X106082381Y-103283333D02*
X106796667Y-103283333D01*
X106939524Y-103330953D01*
X107034762Y-103426191D01*
X107082381Y-103569048D01*
X107082381Y-103664286D01*
X106177619Y-102854762D02*
X106130000Y-102807143D01*
X106082381Y-102711905D01*
X106082381Y-102473809D01*
X106130000Y-102378571D01*
X106177619Y-102330952D01*
X106272857Y-102283333D01*
X106368095Y-102283333D01*
X106510952Y-102330952D01*
X107082381Y-102902381D01*
X107082381Y-102283333D01*
X97652381Y-72833333D02*
X98366667Y-72833333D01*
X98509524Y-72880953D01*
X98604762Y-72976191D01*
X98652381Y-73119048D01*
X98652381Y-73214286D01*
X98652381Y-72357143D02*
X97652381Y-72357143D01*
X97652381Y-71976190D01*
X97700000Y-71880952D01*
X97747619Y-71833333D01*
X97842857Y-71785714D01*
X97985714Y-71785714D01*
X98080952Y-71833333D01*
X98128571Y-71880952D01*
X98176190Y-71976190D01*
X98176190Y-72357143D01*
X98652381Y-70833333D02*
X98652381Y-71404762D01*
X98652381Y-71119048D02*
X97652381Y-71119048D01*
X97795238Y-71214286D01*
X97890476Y-71309524D01*
X97938095Y-71404762D01*
X161633334Y-110152381D02*
X161157143Y-110152381D01*
X161157143Y-109152381D01*
X162490477Y-110152381D02*
X161919048Y-110152381D01*
X162204762Y-110152381D02*
X162204762Y-109152381D01*
X162109524Y-109295238D01*
X162014286Y-109390476D01*
X161919048Y-109438095D01*
X129127619Y-102575238D02*
X129080000Y-102670476D01*
X128984762Y-102765714D01*
X128841905Y-102908571D01*
X128794286Y-103003810D01*
X128794286Y-103099048D01*
X129032381Y-103051429D02*
X128984762Y-103146667D01*
X128889524Y-103241905D01*
X128699048Y-103289524D01*
X128365714Y-103289524D01*
X128175238Y-103241905D01*
X128080000Y-103146667D01*
X128032381Y-103051429D01*
X128032381Y-102860952D01*
X128080000Y-102765714D01*
X128175238Y-102670476D01*
X128365714Y-102622857D01*
X128699048Y-102622857D01*
X128889524Y-102670476D01*
X128984762Y-102765714D01*
X129032381Y-102860952D01*
X129032381Y-103051429D01*
X129032381Y-101670476D02*
X129032381Y-102241905D01*
X129032381Y-101956191D02*
X128032381Y-101956191D01*
X128175238Y-102051429D01*
X128270476Y-102146667D01*
X128318095Y-102241905D01*
X126104762Y-107447619D02*
X126009524Y-107400000D01*
X125914286Y-107304762D01*
X125771429Y-107161905D01*
X125676190Y-107114286D01*
X125580952Y-107114286D01*
X125628571Y-107352381D02*
X125533333Y-107304762D01*
X125438095Y-107209524D01*
X125390476Y-107019048D01*
X125390476Y-106685714D01*
X125438095Y-106495238D01*
X125533333Y-106400000D01*
X125628571Y-106352381D01*
X125819048Y-106352381D01*
X125914286Y-106400000D01*
X126009524Y-106495238D01*
X126057143Y-106685714D01*
X126057143Y-107019048D01*
X126009524Y-107209524D01*
X125914286Y-107304762D01*
X125819048Y-107352381D01*
X125628571Y-107352381D01*
X126438095Y-106447619D02*
X126485714Y-106400000D01*
X126580952Y-106352381D01*
X126819048Y-106352381D01*
X126914286Y-106400000D01*
X126961905Y-106447619D01*
X127009524Y-106542857D01*
X127009524Y-106638095D01*
X126961905Y-106780952D01*
X126390476Y-107352381D01*
X127009524Y-107352381D01*
X153433334Y-99702381D02*
X153100000Y-99226190D01*
X152861905Y-99702381D02*
X152861905Y-98702381D01*
X153242858Y-98702381D01*
X153338096Y-98750000D01*
X153385715Y-98797619D01*
X153433334Y-98892857D01*
X153433334Y-99035714D01*
X153385715Y-99130952D01*
X153338096Y-99178571D01*
X153242858Y-99226190D01*
X152861905Y-99226190D01*
X154385715Y-99702381D02*
X153814286Y-99702381D01*
X154100000Y-99702381D02*
X154100000Y-98702381D01*
X154004762Y-98845238D01*
X153909524Y-98940476D01*
X153814286Y-98988095D01*
X147833334Y-99702381D02*
X147500000Y-99226190D01*
X147261905Y-99702381D02*
X147261905Y-98702381D01*
X147642858Y-98702381D01*
X147738096Y-98750000D01*
X147785715Y-98797619D01*
X147833334Y-98892857D01*
X147833334Y-99035714D01*
X147785715Y-99130952D01*
X147738096Y-99178571D01*
X147642858Y-99226190D01*
X147261905Y-99226190D01*
X148214286Y-98797619D02*
X148261905Y-98750000D01*
X148357143Y-98702381D01*
X148595239Y-98702381D01*
X148690477Y-98750000D01*
X148738096Y-98797619D01*
X148785715Y-98892857D01*
X148785715Y-98988095D01*
X148738096Y-99130952D01*
X148166667Y-99702381D01*
X148785715Y-99702381D01*
X129002381Y-90766666D02*
X128526190Y-91100000D01*
X129002381Y-91338095D02*
X128002381Y-91338095D01*
X128002381Y-90957142D01*
X128050000Y-90861904D01*
X128097619Y-90814285D01*
X128192857Y-90766666D01*
X128335714Y-90766666D01*
X128430952Y-90814285D01*
X128478571Y-90861904D01*
X128526190Y-90957142D01*
X128526190Y-91338095D01*
X128002381Y-90433333D02*
X128002381Y-89814285D01*
X128383333Y-90147619D01*
X128383333Y-90004761D01*
X128430952Y-89909523D01*
X128478571Y-89861904D01*
X128573810Y-89814285D01*
X128811905Y-89814285D01*
X128907143Y-89861904D01*
X128954762Y-89909523D01*
X129002381Y-90004761D01*
X129002381Y-90290476D01*
X128954762Y-90385714D01*
X128907143Y-90433333D01*
X139033334Y-92702381D02*
X138700000Y-92226190D01*
X138461905Y-92702381D02*
X138461905Y-91702381D01*
X138842858Y-91702381D01*
X138938096Y-91750000D01*
X138985715Y-91797619D01*
X139033334Y-91892857D01*
X139033334Y-92035714D01*
X138985715Y-92130952D01*
X138938096Y-92178571D01*
X138842858Y-92226190D01*
X138461905Y-92226190D01*
X139890477Y-92035714D02*
X139890477Y-92702381D01*
X139652381Y-91654762D02*
X139414286Y-92369048D01*
X140033334Y-92369048D01*
X126071334Y-76144381D02*
X125738000Y-75668190D01*
X125499905Y-76144381D02*
X125499905Y-75144381D01*
X125880858Y-75144381D01*
X125976096Y-75192000D01*
X126023715Y-75239619D01*
X126071334Y-75334857D01*
X126071334Y-75477714D01*
X126023715Y-75572952D01*
X125976096Y-75620571D01*
X125880858Y-75668190D01*
X125499905Y-75668190D01*
X126976096Y-75144381D02*
X126499905Y-75144381D01*
X126452286Y-75620571D01*
X126499905Y-75572952D01*
X126595143Y-75525333D01*
X126833239Y-75525333D01*
X126928477Y-75572952D01*
X126976096Y-75620571D01*
X127023715Y-75715810D01*
X127023715Y-75953905D01*
X126976096Y-76049143D01*
X126928477Y-76096762D01*
X126833239Y-76144381D01*
X126595143Y-76144381D01*
X126499905Y-76096762D01*
X126452286Y-76049143D01*
X108757143Y-101102381D02*
X108423809Y-100626190D01*
X108185714Y-101102381D02*
X108185714Y-100102381D01*
X108566667Y-100102381D01*
X108661905Y-100150000D01*
X108709524Y-100197619D01*
X108757143Y-100292857D01*
X108757143Y-100435714D01*
X108709524Y-100530952D01*
X108661905Y-100578571D01*
X108566667Y-100626190D01*
X108185714Y-100626190D01*
X109709524Y-101102381D02*
X109138095Y-101102381D01*
X109423809Y-101102381D02*
X109423809Y-100102381D01*
X109328571Y-100245238D01*
X109233333Y-100340476D01*
X109138095Y-100388095D01*
X110090476Y-100197619D02*
X110138095Y-100150000D01*
X110233333Y-100102381D01*
X110471429Y-100102381D01*
X110566667Y-100150000D01*
X110614286Y-100197619D01*
X110661905Y-100292857D01*
X110661905Y-100388095D01*
X110614286Y-100530952D01*
X110042857Y-101102381D01*
X110661905Y-101102381D01*
X109757143Y-95802381D02*
X109423809Y-95326190D01*
X109185714Y-95802381D02*
X109185714Y-94802381D01*
X109566667Y-94802381D01*
X109661905Y-94850000D01*
X109709524Y-94897619D01*
X109757143Y-94992857D01*
X109757143Y-95135714D01*
X109709524Y-95230952D01*
X109661905Y-95278571D01*
X109566667Y-95326190D01*
X109185714Y-95326190D01*
X110709524Y-95802381D02*
X110138095Y-95802381D01*
X110423809Y-95802381D02*
X110423809Y-94802381D01*
X110328571Y-94945238D01*
X110233333Y-95040476D01*
X110138095Y-95088095D01*
X111042857Y-94802381D02*
X111661905Y-94802381D01*
X111328571Y-95183333D01*
X111471429Y-95183333D01*
X111566667Y-95230952D01*
X111614286Y-95278571D01*
X111661905Y-95373810D01*
X111661905Y-95611905D01*
X111614286Y-95707143D01*
X111566667Y-95754762D01*
X111471429Y-95802381D01*
X111185714Y-95802381D01*
X111090476Y-95754762D01*
X111042857Y-95707143D01*
X121402381Y-96142857D02*
X120926190Y-96476191D01*
X121402381Y-96714286D02*
X120402381Y-96714286D01*
X120402381Y-96333333D01*
X120450000Y-96238095D01*
X120497619Y-96190476D01*
X120592857Y-96142857D01*
X120735714Y-96142857D01*
X120830952Y-96190476D01*
X120878571Y-96238095D01*
X120926190Y-96333333D01*
X120926190Y-96714286D01*
X121402381Y-95190476D02*
X121402381Y-95761905D01*
X121402381Y-95476191D02*
X120402381Y-95476191D01*
X120545238Y-95571429D01*
X120640476Y-95666667D01*
X120688095Y-95761905D01*
X120735714Y-94333333D02*
X121402381Y-94333333D01*
X120354762Y-94571429D02*
X121069048Y-94809524D01*
X121069048Y-94190476D01*
X113157143Y-95702381D02*
X112823809Y-95226190D01*
X112585714Y-95702381D02*
X112585714Y-94702381D01*
X112966667Y-94702381D01*
X113061905Y-94750000D01*
X113109524Y-94797619D01*
X113157143Y-94892857D01*
X113157143Y-95035714D01*
X113109524Y-95130952D01*
X113061905Y-95178571D01*
X112966667Y-95226190D01*
X112585714Y-95226190D01*
X114109524Y-95702381D02*
X113538095Y-95702381D01*
X113823809Y-95702381D02*
X113823809Y-94702381D01*
X113728571Y-94845238D01*
X113633333Y-94940476D01*
X113538095Y-94988095D01*
X115014286Y-94702381D02*
X114538095Y-94702381D01*
X114490476Y-95178571D01*
X114538095Y-95130952D01*
X114633333Y-95083333D01*
X114871429Y-95083333D01*
X114966667Y-95130952D01*
X115014286Y-95178571D01*
X115061905Y-95273810D01*
X115061905Y-95511905D01*
X115014286Y-95607143D01*
X114966667Y-95654762D01*
X114871429Y-95702381D01*
X114633333Y-95702381D01*
X114538095Y-95654762D01*
X114490476Y-95607143D01*
X118557143Y-107002381D02*
X118223809Y-106526190D01*
X117985714Y-107002381D02*
X117985714Y-106002381D01*
X118366667Y-106002381D01*
X118461905Y-106050000D01*
X118509524Y-106097619D01*
X118557143Y-106192857D01*
X118557143Y-106335714D01*
X118509524Y-106430952D01*
X118461905Y-106478571D01*
X118366667Y-106526190D01*
X117985714Y-106526190D01*
X119509524Y-107002381D02*
X118938095Y-107002381D01*
X119223809Y-107002381D02*
X119223809Y-106002381D01*
X119128571Y-106145238D01*
X119033333Y-106240476D01*
X118938095Y-106288095D01*
X120366667Y-106002381D02*
X120176190Y-106002381D01*
X120080952Y-106050000D01*
X120033333Y-106097619D01*
X119938095Y-106240476D01*
X119890476Y-106430952D01*
X119890476Y-106811905D01*
X119938095Y-106907143D01*
X119985714Y-106954762D01*
X120080952Y-107002381D01*
X120271429Y-107002381D01*
X120366667Y-106954762D01*
X120414286Y-106907143D01*
X120461905Y-106811905D01*
X120461905Y-106573810D01*
X120414286Y-106478571D01*
X120366667Y-106430952D01*
X120271429Y-106383333D01*
X120080952Y-106383333D01*
X119985714Y-106430952D01*
X119938095Y-106478571D01*
X119890476Y-106573810D01*
X112757143Y-107002381D02*
X112423809Y-106526190D01*
X112185714Y-107002381D02*
X112185714Y-106002381D01*
X112566667Y-106002381D01*
X112661905Y-106050000D01*
X112709524Y-106097619D01*
X112757143Y-106192857D01*
X112757143Y-106335714D01*
X112709524Y-106430952D01*
X112661905Y-106478571D01*
X112566667Y-106526190D01*
X112185714Y-106526190D01*
X113709524Y-107002381D02*
X113138095Y-107002381D01*
X113423809Y-107002381D02*
X113423809Y-106002381D01*
X113328571Y-106145238D01*
X113233333Y-106240476D01*
X113138095Y-106288095D01*
X114042857Y-106002381D02*
X114709524Y-106002381D01*
X114280952Y-107002381D01*
X122133334Y-98702381D02*
X121800000Y-98226190D01*
X121561905Y-98702381D02*
X121561905Y-97702381D01*
X121942858Y-97702381D01*
X122038096Y-97750000D01*
X122085715Y-97797619D01*
X122133334Y-97892857D01*
X122133334Y-98035714D01*
X122085715Y-98130952D01*
X122038096Y-98178571D01*
X121942858Y-98226190D01*
X121561905Y-98226190D01*
X123133334Y-98702381D02*
X122800000Y-98226190D01*
X122561905Y-98702381D02*
X122561905Y-97702381D01*
X122942858Y-97702381D01*
X123038096Y-97750000D01*
X123085715Y-97797619D01*
X123133334Y-97892857D01*
X123133334Y-98035714D01*
X123085715Y-98130952D01*
X123038096Y-98178571D01*
X122942858Y-98226190D01*
X122561905Y-98226190D01*
X124085715Y-98702381D02*
X123514286Y-98702381D01*
X123800000Y-98702381D02*
X123800000Y-97702381D01*
X123704762Y-97845238D01*
X123609524Y-97940476D01*
X123514286Y-97988095D01*
X125533334Y-115702381D02*
X125200000Y-115226190D01*
X124961905Y-115702381D02*
X124961905Y-114702381D01*
X125342858Y-114702381D01*
X125438096Y-114750000D01*
X125485715Y-114797619D01*
X125533334Y-114892857D01*
X125533334Y-115035714D01*
X125485715Y-115130952D01*
X125438096Y-115178571D01*
X125342858Y-115226190D01*
X124961905Y-115226190D01*
X126533334Y-115702381D02*
X126200000Y-115226190D01*
X125961905Y-115702381D02*
X125961905Y-114702381D01*
X126342858Y-114702381D01*
X126438096Y-114750000D01*
X126485715Y-114797619D01*
X126533334Y-114892857D01*
X126533334Y-115035714D01*
X126485715Y-115130952D01*
X126438096Y-115178571D01*
X126342858Y-115226190D01*
X125961905Y-115226190D01*
X126914286Y-114797619D02*
X126961905Y-114750000D01*
X127057143Y-114702381D01*
X127295239Y-114702381D01*
X127390477Y-114750000D01*
X127438096Y-114797619D01*
X127485715Y-114892857D01*
X127485715Y-114988095D01*
X127438096Y-115130952D01*
X126866667Y-115702381D01*
X127485715Y-115702381D01*
D19*
X106191238Y-88284095D02*
X106239619Y-88138952D01*
X106239619Y-87897048D01*
X106191238Y-87800286D01*
X106142857Y-87751905D01*
X106046095Y-87703524D01*
X105949333Y-87703524D01*
X105852571Y-87751905D01*
X105804190Y-87800286D01*
X105755810Y-87897048D01*
X105707429Y-88090571D01*
X105659048Y-88187333D01*
X105610667Y-88235714D01*
X105513905Y-88284095D01*
X105417143Y-88284095D01*
X105320381Y-88235714D01*
X105272000Y-88187333D01*
X105223619Y-88090571D01*
X105223619Y-87848667D01*
X105272000Y-87703524D01*
X106239619Y-86735905D02*
X106239619Y-87316476D01*
X106239619Y-87026190D02*
X105223619Y-87026190D01*
X105368762Y-87122952D01*
X105465524Y-87219714D01*
X105513905Y-87316476D01*
D13*
X157552381Y-101761905D02*
X158361905Y-101761905D01*
X158457143Y-101714286D01*
X158504762Y-101666667D01*
X158552381Y-101571429D01*
X158552381Y-101380952D01*
X158504762Y-101285714D01*
X158457143Y-101238095D01*
X158361905Y-101190476D01*
X157552381Y-101190476D01*
X158552381Y-100190476D02*
X158552381Y-100761905D01*
X158552381Y-100476191D02*
X157552381Y-100476191D01*
X157695238Y-100571429D01*
X157790476Y-100666667D01*
X157838095Y-100761905D01*
X154638095Y-72402381D02*
X154638095Y-73211905D01*
X154685714Y-73307143D01*
X154733333Y-73354762D01*
X154828571Y-73402381D01*
X155019048Y-73402381D01*
X155114286Y-73354762D01*
X155161905Y-73307143D01*
X155209524Y-73211905D01*
X155209524Y-72402381D01*
X155590476Y-72402381D02*
X156209524Y-72402381D01*
X155876190Y-72783333D01*
X156019048Y-72783333D01*
X156114286Y-72830952D01*
X156161905Y-72878571D01*
X156209524Y-72973810D01*
X156209524Y-73211905D01*
X156161905Y-73307143D01*
X156114286Y-73354762D01*
X156019048Y-73402381D01*
X155733333Y-73402381D01*
X155638095Y-73354762D01*
X155590476Y-73307143D01*
X148438095Y-103702381D02*
X148438095Y-104511905D01*
X148485714Y-104607143D01*
X148533333Y-104654762D01*
X148628571Y-104702381D01*
X148819048Y-104702381D01*
X148914286Y-104654762D01*
X148961905Y-104607143D01*
X149009524Y-104511905D01*
X149009524Y-103702381D01*
X149914286Y-104035714D02*
X149914286Y-104702381D01*
X149676190Y-103654762D02*
X149438095Y-104369048D01*
X150057143Y-104369048D01*
X139432381Y-97001905D02*
X140241905Y-97001905D01*
X140337143Y-96954286D01*
X140384762Y-96906667D01*
X140432381Y-96811429D01*
X140432381Y-96620952D01*
X140384762Y-96525714D01*
X140337143Y-96478095D01*
X140241905Y-96430476D01*
X139432381Y-96430476D01*
X139432381Y-95478095D02*
X139432381Y-95954286D01*
X139908571Y-96001905D01*
X139860952Y-95954286D01*
X139813333Y-95859048D01*
X139813333Y-95620952D01*
X139860952Y-95525714D01*
X139908571Y-95478095D01*
X140003810Y-95430476D01*
X140241905Y-95430476D01*
X140337143Y-95478095D01*
X140384762Y-95525714D01*
X140432381Y-95620952D01*
X140432381Y-95859048D01*
X140384762Y-95954286D01*
X140337143Y-96001905D01*
X132088095Y-83167381D02*
X132088095Y-83976905D01*
X132135714Y-84072143D01*
X132183333Y-84119762D01*
X132278571Y-84167381D01*
X132469048Y-84167381D01*
X132564286Y-84119762D01*
X132611905Y-84072143D01*
X132659524Y-83976905D01*
X132659524Y-83167381D01*
X133564286Y-83167381D02*
X133373809Y-83167381D01*
X133278571Y-83215000D01*
X133230952Y-83262619D01*
X133135714Y-83405476D01*
X133088095Y-83595952D01*
X133088095Y-83976905D01*
X133135714Y-84072143D01*
X133183333Y-84119762D01*
X133278571Y-84167381D01*
X133469048Y-84167381D01*
X133564286Y-84119762D01*
X133611905Y-84072143D01*
X133659524Y-83976905D01*
X133659524Y-83738810D01*
X133611905Y-83643571D01*
X133564286Y-83595952D01*
X133469048Y-83548333D01*
X133278571Y-83548333D01*
X133183333Y-83595952D01*
X133135714Y-83643571D01*
X133088095Y-83738810D01*
X113502381Y-81261905D02*
X114311905Y-81261905D01*
X114407143Y-81214286D01*
X114454762Y-81166667D01*
X114502381Y-81071429D01*
X114502381Y-80880952D01*
X114454762Y-80785714D01*
X114407143Y-80738095D01*
X114311905Y-80690476D01*
X113502381Y-80690476D01*
X113502381Y-80309524D02*
X113502381Y-79642857D01*
X114502381Y-80071429D01*
X118402381Y-88511905D02*
X119211905Y-88511905D01*
X119307143Y-88464286D01*
X119354762Y-88416667D01*
X119402381Y-88321429D01*
X119402381Y-88130952D01*
X119354762Y-88035714D01*
X119307143Y-87988095D01*
X119211905Y-87940476D01*
X118402381Y-87940476D01*
X119402381Y-87416667D02*
X119402381Y-87226191D01*
X119354762Y-87130952D01*
X119307143Y-87083333D01*
X119164286Y-86988095D01*
X118973810Y-86940476D01*
X118592857Y-86940476D01*
X118497619Y-86988095D01*
X118450000Y-87035714D01*
X118402381Y-87130952D01*
X118402381Y-87321429D01*
X118450000Y-87416667D01*
X118497619Y-87464286D01*
X118592857Y-87511905D01*
X118830952Y-87511905D01*
X118926190Y-87464286D01*
X118973810Y-87416667D01*
X119021429Y-87321429D01*
X119021429Y-87130952D01*
X118973810Y-87035714D01*
X118926190Y-86988095D01*
X118830952Y-86940476D01*
X146373809Y-112776190D02*
X146373809Y-113252381D01*
X146040476Y-112252381D02*
X146373809Y-112776190D01*
X146707143Y-112252381D01*
X147564286Y-113252381D02*
X146992857Y-113252381D01*
X147278571Y-113252381D02*
X147278571Y-112252381D01*
X147183333Y-112395238D01*
X147088095Y-112490476D01*
X146992857Y-112538095D01*
X114361905Y-99202381D02*
X114361905Y-100011905D01*
X114409524Y-100107143D01*
X114457143Y-100154762D01*
X114552381Y-100202381D01*
X114742858Y-100202381D01*
X114838096Y-100154762D01*
X114885715Y-100107143D01*
X114933334Y-100011905D01*
X114933334Y-99202381D01*
X115933334Y-100202381D02*
X115361905Y-100202381D01*
X115647619Y-100202381D02*
X115647619Y-99202381D01*
X115552381Y-99345238D01*
X115457143Y-99440476D01*
X115361905Y-99488095D01*
X116790477Y-99202381D02*
X116600000Y-99202381D01*
X116504762Y-99250000D01*
X116457143Y-99297619D01*
X116361905Y-99440476D01*
X116314286Y-99630952D01*
X116314286Y-100011905D01*
X116361905Y-100107143D01*
X116409524Y-100154762D01*
X116504762Y-100202381D01*
X116695239Y-100202381D01*
X116790477Y-100154762D01*
X116838096Y-100107143D01*
X116885715Y-100011905D01*
X116885715Y-99773810D01*
X116838096Y-99678571D01*
X116790477Y-99630952D01*
X116695239Y-99583333D01*
X116504762Y-99583333D01*
X116409524Y-99630952D01*
X116361905Y-99678571D01*
X116314286Y-99773810D01*
X167461905Y-109952381D02*
X167461905Y-108952381D01*
X167700000Y-108952381D01*
X167842858Y-109000000D01*
X167938096Y-109095238D01*
X167985715Y-109190476D01*
X168033334Y-109380952D01*
X168033334Y-109523810D01*
X167985715Y-109714286D01*
X167938096Y-109809524D01*
X167842858Y-109904762D01*
X167700000Y-109952381D01*
X167461905Y-109952381D01*
X168985715Y-109952381D02*
X168414286Y-109952381D01*
X168700000Y-109952381D02*
X168700000Y-108952381D01*
X168604762Y-109095238D01*
X168509524Y-109190476D01*
X168414286Y-109238095D01*
D20*
X155383381Y-87493524D02*
X155383381Y-88521619D01*
X155443857Y-88642571D01*
X155504333Y-88703048D01*
X155625286Y-88763524D01*
X155867190Y-88763524D01*
X155988143Y-88703048D01*
X156048619Y-88642571D01*
X156109095Y-88521619D01*
X156109095Y-87493524D01*
X156653381Y-87614476D02*
X156713857Y-87554000D01*
X156834809Y-87493524D01*
X157137190Y-87493524D01*
X157258143Y-87554000D01*
X157318619Y-87614476D01*
X157379095Y-87735429D01*
X157379095Y-87856381D01*
X157318619Y-88037810D01*
X156592905Y-88763524D01*
X157379095Y-88763524D01*
M02*
